<svg id="svg" xmlns="http://www.w3.org/2000/svg" xmlns:xlink="http://www.w3.org/1999/xlink" width="400" height="400" viewBox="0, 0, 400,400"><g id="svgg"><path id="path0" d="M212.425 119.699 C 189.045 120.602,174.782 123.881,158.383 132.125 C 147.497 137.597,139.515 141.992,139.756 142.382 C 139.958 142.710,142.886 142.163,155.090 139.520 C 174.138 135.395,178.029 135.063,194.461 136.157 C 248.139 139.733,311.860 163.253,366.617 199.700 C 372.797 203.813,372.730 203.815,376.599 199.413 C 381.756 193.545,388.017 187.187,396.070 179.641 C 399.705 176.235,399.966 175.956,399.730 175.735 C 399.489 175.508,394.533 172.763,388.473 169.498 C 361.865 155.166,327.541 140.211,302.545 132.060 C 281.506 125.199,259.557 121.289,234.731 119.978 C 230.687 119.764,215.615 119.576,212.425 119.699 M176.048 144.999 C 175.595 145.028,173.945 145.125,172.380 145.214 C 123.113 148.004,66.730 172.805,21.482 211.590 C 13.172 218.714,1.380 229.953,0.398 231.686 C -0.033 232.448,0.898 232.008,6.437 228.838 C 12.371 225.441,12.230 225.524,24.177 218.408 C 87.886 180.458,108.341 172.777,151.527 170.586 C 184.400 168.918,213.870 174.706,257.710 191.441 C 268.456 195.543,272.009 197.035,284.955 202.878 C 300.485 209.888,314.356 217.533,314.193 218.992 C 314.016 220.574,293.068 236.658,278.518 246.383 C 264.579 255.700,245.961 265.168,235.404 268.308 C 234.993 268.430,233.658 268.842,232.438 269.222 C 228.706 270.386,222.641 272.032,211.947 274.783 C 192.835 279.700,192.798 279.726,204.266 280.255 C 225.427 281.231,251.192 275.974,280.838 264.630 C 297.084 258.413,315.906 248.905,332.410 238.576 C 341.407 232.945,344.399 230.715,354.340 222.227 C 357.428 219.591,360.750 216.774,361.721 215.968 L 363.487 214.502 362.570 213.467 C 350.630 200.000,299.784 173.347,261.302 160.383 C 234.879 151.481,214.046 146.822,193.713 145.266 C 191.007 145.059,178.126 144.864,176.048 144.999 M163.024 177.117 C 150.491 177.757,142.018 186.714,144.211 197.006 C 148.137 215.435,177.261 221.740,184.740 205.780 C 191.277 191.830,179.492 176.275,163.024 177.117 M95.714 191.771 C 95.064 192.421,97.504 200.122,99.822 204.736 C 110.023 225.042,136.609 239.715,169.611 243.252 C 177.498 244.097,179.958 244.225,188.249 244.224 C 204.250 244.220,215.597 242.720,229.117 238.822 C 252.295 232.138,271.549 222.741,281.038 213.480 C 284.120 210.472,284.073 210.284,279.865 208.828 C 276.736 207.744,271.895 205.808,267.861 204.025 C 259.970 200.539,255.313 198.716,252.395 197.971 C 250.021 197.364,249.895 197.409,249.122 199.132 C 245.372 207.490,227.218 219.251,207.934 225.815 C 176.545 236.499,139.622 231.694,115.755 213.818 C 109.149 208.871,104.531 203.913,99.324 196.182 C 96.331 191.738,96.068 191.417,95.714 191.771 " stroke="none" fill="#000000" fill-rule="evenodd"></path></g></svg>