<svg xmlns="http://www.w3.org/2000/svg" width="16" height="16" viewBox="0 0 16 16" fill="none">
    <g clip-path="url(#clip0_293_1686)">
        <path fill-rule="evenodd" clip-rule="evenodd" d="M7.6235 0.00617793C7.5905 0.00913812 7.5215 0.0147386 7.47018 0.0185789C7.18123 0.0403003 6.8665 0.0882634 6.57013 0.155668C6.54445 0.161509 6.51144 0.168989 6.4968 0.172269C6.46248 0.179949 6.39003 0.19887 6.29344 0.225352C6.25126 0.236914 6.20478 0.249354 6.19011 0.252954C6.17542 0.256594 6.14243 0.266595 6.11678 0.275195C6.0911 0.283797 6.04762 0.297317 6.0201 0.305238C5.99262 0.313158 5.96549 0.322118 5.95989 0.325118C5.95426 0.328118 5.93925 0.33284 5.92653 0.33556C5.91381 0.33828 5.90042 0.34284 5.89677 0.34572C5.89309 0.34856 5.87957 0.353962 5.86677 0.357682C5.83018 0.368282 5.70624 0.412485 5.67677 0.425446C5.66208 0.431886 5.6276 0.445446 5.60008 0.455648C5.55387 0.472728 5.50955 0.49077 5.47675 0.505811C5.46939 0.509171 5.44838 0.517731 5.43006 0.524813C5.41174 0.531853 5.37574 0.547214 5.35006 0.558854C5.32438 0.570536 5.2929 0.584736 5.28006 0.590456C5.14218 0.651941 4.89824 0.774149 4.78024 0.840834C4.76728 0.848154 4.73867 0.863915 4.71662 0.875875C4.57078 0.954922 4.09592 1.25714 4.036 1.30902C4.03176 1.3127 4.02147 1.32019 4.01312 1.32571C3.9936 1.33855 3.72794 1.53712 3.71606 1.54768C3.71114 1.55212 3.70322 1.55872 3.69846 1.56236C3.68462 1.57308 3.6245 1.62136 3.60997 1.63344C3.60266 1.63957 3.56514 1.67069 3.52666 1.70261C3.48813 1.73453 3.45512 1.76261 3.45328 1.76498C3.45144 1.76733 3.43944 1.77786 3.42664 1.78834C3.40405 1.80678 3.32171 1.8787 3.29987 1.89907C3.29395 1.90454 3.26083 1.93443 3.22619 1.96542C3.14558 2.03768 2.75741 2.4259 2.6964 2.4953C2.67085 2.52438 2.64093 2.55758 2.62992 2.56907C2.60664 2.59334 2.5248 2.68523 2.51992 2.69259C2.51619 2.69819 2.4488 2.77576 2.43323 2.79232C2.42774 2.79821 2.41123 2.81789 2.39659 2.83605C2.3819 2.85424 2.36491 2.87514 2.35883 2.88245C2.34107 2.90373 2.30494 2.94834 2.28322 2.97573C2.27222 2.98966 2.2587 3.0059 2.25314 3.01182C2.24758 3.01778 2.23574 3.0331 2.22678 3.0459C2.21786 3.0587 2.20854 3.07062 2.20606 3.07246C2.20362 3.0743 2.1811 3.10282 2.15606 3.13582C2.13098 3.16883 2.10661 3.19979 2.10186 3.20462C2.09709 3.20947 2.09317 3.21547 2.09314 3.21795C2.09306 3.22043 2.08482 3.23192 2.07477 3.24347C2.06477 3.25504 2.05205 3.27099 2.04658 3.27899C2.04106 3.28699 2.00957 3.33043 1.97656 3.37557C1.94357 3.42069 1.91205 3.46434 1.90656 3.47253C1.90104 3.48077 1.89357 3.49093 1.88989 3.49517C1.87864 3.50818 1.85933 3.53658 1.74675 3.70587C1.59427 3.93512 1.52714 4.03968 1.50058 4.08922C1.4947 4.10021 1.48818 4.11069 1.48614 4.11253C1.4807 4.11741 1.41986 4.21906 1.41986 4.22326C1.41986 4.22522 1.41086 4.2399 1.39986 4.2559C1.38886 4.27186 1.37986 4.28698 1.37986 4.2895C1.37986 4.29198 1.36514 4.31846 1.34713 4.3483C1.32917 4.37814 1.30717 4.41606 1.29833 4.43254C1.28945 4.44907 1.26621 4.49107 1.24665 4.52592C1.22713 4.56072 1.19665 4.61624 1.17893 4.64925C1.14128 4.71949 0.924794 5.15299 0.890992 5.22597C0.841269 5.33317 0.819827 5.38037 0.819827 5.38253C0.819827 5.38378 0.809107 5.4083 0.796027 5.43702C0.768466 5.49754 0.765386 5.50454 0.746504 5.54931C0.738744 5.56763 0.729742 5.58862 0.726502 5.59598C0.723222 5.60331 0.714222 5.6243 0.706502 5.64262C0.698741 5.66099 0.689741 5.682 0.686501 5.68931C0.669419 5.7276 0.653699 5.76616 0.642899 5.796C0.636258 5.81432 0.628858 5.83232 0.626418 5.836C0.623978 5.83965 0.615018 5.86216 0.606536 5.88602C0.598016 5.90981 0.588536 5.93218 0.585456 5.93565C0.582336 5.93914 0.579816 5.94666 0.579776 5.95234C0.579736 5.95802 0.575534 5.97074 0.570414 5.98053C0.565254 5.99037 0.559054 6.00762 0.556614 6.01882C0.554134 6.03002 0.549334 6.0409 0.545973 6.04298C0.542573 6.0451 0.539813 6.05186 0.539773 6.05806C0.539733 6.06426 0.535853 6.07686 0.531133 6.08602C0.522733 6.10226 0.512531 6.12974 0.47165 6.24603C0.46073 6.2772 0.449168 6.30867 0.446008 6.31603C0.433928 6.34403 0.332923 6.64594 0.306602 6.7327C0.29824 6.76022 0.2898 6.78723 0.2878 6.7927C0.2782 6.81939 0.230877 6.97677 0.216597 7.02941C0.211637 7.04773 0.202635 7.07925 0.196595 7.09941C0.190555 7.11957 0.181315 7.15181 0.176034 7.17109C0.138072 7.30982 0.126912 7.35142 0.116711 7.39275C0.111711 7.41294 0.0998302 7.46091 0.0903098 7.49944C0.0807893 7.53795 0.0700286 7.57992 0.0664285 7.59275C0.055908 7.63029 0.0269864 7.75938 0.00698544 7.8583C-0.00237506 7.90438 -0.00229504 8.09483 0.00702544 8.14064C0.0308267 8.25709 0.0411472 8.30544 0.0467075 8.32616C0.0501477 8.33898 0.0697886 8.41701 0.0903898 8.4995C0.126792 8.6455 0.135712 8.68011 0.156473 8.75619C0.180875 8.84573 0.186195 8.8648 0.195555 8.89621C0.201035 8.91453 0.208795 8.94154 0.212837 8.95621C0.229597 9.01693 0.241198 9.05718 0.246518 9.07286C0.249598 9.08206 0.258558 9.11206 0.266438 9.13954C0.27432 9.16706 0.28316 9.19555 0.28608 9.20286C0.28904 9.21022 0.29828 9.2387 0.306602 9.26622C0.321082 9.31395 0.386805 9.51357 0.422926 9.61957C0.432328 9.6471 0.442568 9.67418 0.445728 9.67978C0.448888 9.68542 0.453688 9.70042 0.45641 9.71314C0.45913 9.72586 0.46357 9.73926 0.46629 9.7429C0.46901 9.74658 0.48245 9.78203 0.496131 9.82166C0.509851 9.86134 0.525253 9.90184 0.530373 9.91168C0.535533 9.92155 0.539733 9.93467 0.539773 9.94088C0.539813 9.94707 0.542813 9.954 0.546493 9.95627C0.550134 9.95851 0.553174 9.96544 0.553174 9.97168C0.553214 9.97787 0.557694 9.99152 0.563174 10.002C0.568654 10.0125 0.573174 10.0245 0.573174 10.0287C0.573214 10.0328 0.577094 10.0438 0.581856 10.0529C0.586576 10.0621 0.597536 10.0891 0.606216 10.1129C0.614898 10.1368 0.623978 10.1593 0.626418 10.1629C0.628858 10.1666 0.636258 10.1846 0.642899 10.2029C0.653699 10.2328 0.669419 10.2713 0.686501 10.3096C0.689741 10.3169 0.698741 10.3379 0.706502 10.3563C0.714222 10.3746 0.723222 10.3956 0.726502 10.4029C0.729742 10.4103 0.738744 10.4313 0.746504 10.4496C0.765386 10.4944 0.768466 10.5014 0.796027 10.5619C0.809107 10.5906 0.819827 10.6152 0.819827 10.6164C0.819827 10.6194 0.853629 10.694 0.887712 10.7663C0.929074 10.854 1.14292 11.2825 1.17889 11.3497C1.23173 11.4484 1.26121 11.5016 1.27765 11.5279C1.28621 11.5416 1.29317 11.5547 1.29317 11.5569C1.29317 11.5592 1.31269 11.5935 1.33653 11.633C1.36034 11.6726 1.37986 11.7065 1.37986 11.7084C1.37986 11.7119 1.4913 11.8967 1.56967 12.0231C1.63174 12.1232 1.86984 12.4806 1.88989 12.5038C1.89357 12.508 1.90104 12.5182 1.90656 12.5264C1.91205 12.5346 1.94357 12.5783 1.97656 12.6234C2.00957 12.6685 2.04106 12.7119 2.04658 12.7199C2.05205 12.7279 2.06477 12.7439 2.07477 12.7555C2.08482 12.767 2.09306 12.7785 2.09314 12.781C2.09317 12.7835 2.09709 12.7895 2.10186 12.7943C2.10661 12.7992 2.13098 12.8301 2.15606 12.8631C2.1811 12.8961 2.20362 12.9246 2.20606 12.9265C2.20854 12.9283 2.21726 12.9394 2.22546 12.9512C2.24034 12.9725 2.26078 12.9979 2.27998 13.0189C2.28554 13.025 2.2975 13.0404 2.30659 13.0531C2.31563 13.0659 2.32758 13.0811 2.33315 13.0869C2.34451 13.0988 2.35795 13.1149 2.39659 13.1629C2.41123 13.1811 2.42774 13.2007 2.43323 13.2066C2.4488 13.2232 2.51619 13.3007 2.51992 13.3063C2.52312 13.3111 2.59909 13.3971 2.61992 13.4195C2.62541 13.4254 2.65541 13.4587 2.68656 13.4934C2.76117 13.5764 3.1459 13.9616 3.22619 14.0335C3.26083 14.0645 3.29395 14.0944 3.29987 14.0999C3.32171 14.1202 3.40405 14.1922 3.42664 14.2106C3.43944 14.2211 3.45144 14.2316 3.45328 14.234C3.45512 14.2363 3.48813 14.2644 3.52666 14.2963C3.56514 14.3282 3.60301 14.3598 3.61082 14.3664C3.61861 14.373 3.64562 14.3944 3.67082 14.414C3.69602 14.4336 3.71814 14.4515 3.71998 14.4539C3.72382 14.4588 3.99024 14.6582 4.01312 14.6732C4.02147 14.6788 4.03176 14.6862 4.036 14.6899C4.09592 14.7418 4.57078 15.044 4.71662 15.1231C4.73867 15.135 4.76728 15.1508 4.78024 15.1581C4.91872 15.2364 5.1705 15.3609 5.33674 15.4333C5.35507 15.4413 5.38563 15.4551 5.40467 15.4639C5.42366 15.4727 5.4411 15.48 5.44334 15.48C5.44563 15.48 5.46006 15.4856 5.47542 15.4926C5.49083 15.4995 5.53939 15.5191 5.58339 15.5362C5.62739 15.5532 5.66941 15.5701 5.67677 15.5736C5.69344 15.5816 5.83533 15.6321 5.86677 15.6412C5.87957 15.645 5.89309 15.6504 5.89677 15.6532C5.90042 15.6561 5.91381 15.6607 5.92653 15.6634C5.93925 15.6661 5.95426 15.6706 5.95989 15.6734C5.96549 15.6762 5.99262 15.6852 6.0201 15.6934C6.04762 15.7016 6.0911 15.7153 6.11678 15.7239C6.14243 15.7324 6.17542 15.7423 6.19011 15.746C6.20478 15.7496 6.25126 15.762 6.29344 15.7736C6.39003 15.8001 6.46248 15.819 6.4968 15.8267C6.51144 15.8299 6.54445 15.8374 6.57013 15.8433C6.86542 15.9104 7.18072 15.9585 7.46685 15.98C7.51634 15.9838 7.59182 15.9898 7.63458 15.9934C7.73531 16.0019 8.26509 16.0019 8.36582 15.9934C8.40858 15.9898 8.48406 15.9838 8.53355 15.98C8.79432 15.9604 9.04954 15.9234 9.34027 15.8631C9.36411 15.8581 9.39859 15.851 9.41696 15.8472C9.43528 15.8435 9.46075 15.8374 9.4736 15.8339C9.48643 15.8303 9.52397 15.821 9.55696 15.8132C9.58997 15.8054 9.62597 15.7962 9.63696 15.7929C9.64797 15.7895 9.69746 15.7759 9.74698 15.7627C9.8469 15.7362 9.89694 15.7216 9.91698 15.7132C9.9243 15.7101 9.95282 15.7011 9.9803 15.6932C10.0078 15.6852 10.0423 15.6748 10.057 15.6698C10.0976 15.6561 10.202 15.6192 10.217 15.6133C10.2243 15.6104 10.2618 15.5967 10.3003 15.5828C10.3388 15.569 10.3733 15.5558 10.377 15.5534C10.3806 15.5509 10.3986 15.5435 10.417 15.5369C10.4353 15.5303 10.4593 15.521 10.4703 15.5163C10.4813 15.5115 10.5293 15.4912 10.577 15.4712C10.7842 15.384 11.0908 15.234 11.2491 15.1423C11.2703 15.13 11.289 15.1199 11.2905 15.1199C11.3077 15.1199 11.8249 14.7935 11.918 14.7239C11.9331 14.7125 11.9522 14.6988 11.9604 14.6932C11.9686 14.6877 11.9822 14.678 11.9906 14.6716C12.0108 14.6561 12.0044 14.6548 12.0904 14.6933C12.0977 14.6965 12.1307 14.71 12.1637 14.7232C12.1967 14.7363 12.2297 14.7499 12.2371 14.7533C12.2444 14.7567 12.2669 14.7657 12.2871 14.7732C12.3073 14.7808 12.3297 14.7898 12.3371 14.7932C12.3444 14.7966 12.388 14.8147 12.4338 14.8334C12.514 14.8661 12.5487 14.8806 12.5771 14.8935C12.5844 14.8968 12.6069 14.9057 12.6271 14.9132C12.6473 14.9208 12.6698 14.9297 12.6771 14.9331C12.6844 14.9365 12.7174 14.95 12.7504 14.9632C12.7835 14.9763 12.8164 14.9898 12.8238 14.9931C12.8311 14.9965 12.8521 15.0056 12.8704 15.0134C12.8888 15.0212 12.9128 15.0315 12.9238 15.0363C12.9348 15.041 12.9588 15.0503 12.9771 15.0569C12.9955 15.0635 13.0135 15.0709 13.0171 15.0733C13.0208 15.0757 13.0388 15.0831 13.0572 15.0897C13.0755 15.0963 13.104 15.1075 13.1205 15.1147C13.1369 15.1217 13.1609 15.1321 13.1738 15.1375C13.1866 15.143 13.2032 15.1502 13.2105 15.1535C13.2178 15.1568 13.2508 15.1702 13.2838 15.1834C13.3168 15.1965 13.3498 15.21 13.3572 15.2134C13.3645 15.2168 13.387 15.2258 13.4072 15.2334C13.44 15.2457 13.4599 15.254 13.5038 15.2734C13.5112 15.2766 13.5442 15.2901 13.5772 15.3033C13.6336 15.3259 13.6662 15.3396 13.6972 15.3536C13.7045 15.3569 13.727 15.3658 13.7472 15.3733C13.7673 15.3808 13.7898 15.3898 13.7972 15.3932C13.8045 15.3965 13.8375 15.41 13.8705 15.4232C13.9035 15.4363 13.9365 15.4498 13.9438 15.4532C13.9512 15.4565 13.9722 15.4656 13.9905 15.4734C14.0088 15.4812 14.0328 15.4915 14.0438 15.4963C14.0548 15.501 14.0788 15.5103 14.0972 15.5169C14.1155 15.5235 14.1335 15.5309 14.1372 15.5333C14.1408 15.5357 14.1588 15.5431 14.1772 15.5497C14.1955 15.5563 14.224 15.5676 14.2405 15.5747C14.257 15.5818 14.281 15.5921 14.2939 15.5976C14.3067 15.6031 14.3232 15.6103 14.3305 15.6135C14.3379 15.6168 14.3708 15.6303 14.4039 15.6434C14.4369 15.6565 14.4699 15.67 14.4772 15.6735C14.4845 15.6768 14.507 15.6858 14.5272 15.6934C14.5605 15.706 14.5867 15.7168 14.6239 15.7335C14.6312 15.7368 14.6642 15.7503 14.6972 15.7635C14.7553 15.7868 14.7895 15.801 14.8172 15.8136C14.8246 15.8169 14.847 15.8258 14.8672 15.8333C14.8874 15.8409 14.9099 15.8498 14.9172 15.8533C14.9246 15.8567 14.9576 15.8703 14.9906 15.8834C15.0236 15.8965 15.0566 15.91 15.0639 15.9133C15.0712 15.9166 15.0923 15.9256 15.1106 15.9332C15.1289 15.9409 15.1485 15.9496 15.1541 15.9527C15.1597 15.9558 15.1747 15.9605 15.1875 15.9632C15.2002 15.966 15.2136 15.9704 15.2173 15.9732C15.2297 15.9824 15.3456 16 15.3942 16C15.6447 16 15.8856 15.8288 15.9664 15.5933C15.9745 15.5695 15.9843 15.541 15.9881 15.53C15.9989 15.4986 16.0027 15.3429 15.9943 15.2833C15.9902 15.254 15.9826 15.1984 15.9775 15.1599C15.9688 15.0949 15.9613 15.0396 15.9369 14.8599C15.9316 14.8214 15.9228 14.7554 15.9174 14.7132C15.9076 14.6384 15.8996 14.5797 15.8774 14.4166C15.8713 14.3726 15.8621 14.3043 15.8568 14.2649C15.8516 14.2255 15.843 14.161 15.8377 14.1216C15.8288 14.0547 15.8206 13.994 15.7969 13.8199C15.7916 13.7813 15.7828 13.7153 15.7774 13.6732C15.7676 13.5984 15.7596 13.5396 15.7374 13.3765C15.7313 13.3325 15.7221 13.2642 15.7168 13.2248C15.7116 13.1854 15.7028 13.1201 15.6973 13.0798C15.6918 13.0395 15.683 12.9742 15.6778 12.9348C15.6725 12.8954 15.6634 12.8271 15.6573 12.7831C15.6513 12.7391 15.6423 12.6716 15.6373 12.6331C15.6282 12.563 15.6153 12.4671 15.5965 12.3298C15.591 12.2894 15.5821 12.2241 15.5768 12.1848C15.5716 12.1453 15.5628 12.0801 15.5573 12.0397C15.5518 11.9994 15.543 11.9341 15.5378 11.8947C15.5325 11.8553 15.5234 11.787 15.5173 11.743C15.5113 11.699 15.5023 11.6316 15.4973 11.593C15.4882 11.5229 15.4753 11.427 15.4565 11.2897C15.4509 11.2494 15.4421 11.1841 15.4368 11.1447C15.4316 11.1053 15.4228 11.04 15.4173 10.9997C15.4117 10.9593 15.403 10.8941 15.3977 10.8547C15.3925 10.8152 15.3833 10.747 15.3773 10.703C15.3713 10.659 15.3623 10.5915 15.3573 10.553C15.3524 10.5145 15.3435 10.4464 15.3377 10.4018C15.3319 10.3571 15.3255 10.3161 15.3233 10.3105C15.3202 10.3024 15.3933 10.107 15.4312 10.0219C15.4364 10.0104 15.4406 9.99627 15.4406 9.99064C15.4406 9.98499 15.4433 9.97867 15.4468 9.97659C15.4501 9.97448 15.455 9.96315 15.4576 9.95139C15.4602 9.93963 15.4649 9.92544 15.4681 9.91979C15.476 9.90587 15.5139 9.80462 15.5139 9.79742C15.5139 9.79422 15.5181 9.78214 15.5231 9.77058C15.549 9.71146 15.7206 9.2003 15.7206 9.1823C15.7206 9.17702 15.7234 9.1675 15.7269 9.1611C15.7304 9.15474 15.7396 9.12706 15.7474 9.09954C15.7552 9.07206 15.7643 9.04205 15.7676 9.03285C15.7709 9.0237 15.7765 9.00421 15.78 8.98954C15.7835 8.97485 15.7913 8.94637 15.7974 8.92621C15.8034 8.906 15.8125 8.87453 15.8175 8.85621C15.8225 8.83784 15.836 8.78835 15.8476 8.74619C15.8888 8.59614 15.9273 8.44397 15.9573 8.3128C15.9636 8.28533 15.9729 8.2448 15.9781 8.2228C15.9961 8.14667 16.0003 8.10235 16 7.99614C15.9996 7.86774 15.9997 7.86846 15.9561 7.67944C15.9286 7.56008 15.8861 7.39307 15.8476 7.25274C15.836 7.21058 15.8225 7.16109 15.8175 7.14274C15.8125 7.12442 15.8034 7.09293 15.7974 7.07272C15.7913 7.05256 15.7835 7.02408 15.78 7.00941C15.7765 6.99472 15.7709 6.97525 15.7676 6.96608C15.7643 6.95691 15.755 6.92691 15.747 6.89939C15.7034 6.74958 15.5461 6.27736 15.5236 6.22835C15.5183 6.21678 15.5139 6.2047 15.5139 6.2015C15.5139 6.19379 15.4757 6.0925 15.4672 6.07778C15.4636 6.07138 15.4606 6.06318 15.4606 6.05946C15.4606 6.0471 15.307 5.6644 15.2637 5.56894C15.2587 5.55771 15.2443 5.5247 15.2317 5.49558C15.2191 5.46646 15.2008 5.42462 15.1909 5.40261C15.181 5.38061 15.1689 5.35362 15.1641 5.34261C15.0912 5.17696 14.899 4.78941 14.7938 4.59592C14.748 4.51176 14.6713 4.37486 14.6577 4.35318C14.6494 4.34003 14.6347 4.31499 14.6249 4.29754C14.6152 4.28014 14.5992 4.25162 14.5895 4.23422C14.5797 4.21682 14.5531 4.17253 14.5305 4.13589C14.5078 4.09922 14.4689 4.03621 14.4441 3.99589C14.3843 3.8988 14.1474 3.54333 14.0858 3.4584C14.0304 3.38184 13.8423 3.12926 13.8257 3.10915C13.8196 3.10182 13.8047 3.08338 13.7926 3.06818C13.7392 3.00142 13.7293 2.98898 13.7086 2.96314C13.6799 2.92738 13.6533 2.89482 13.5972 2.8264C13.5898 2.81749 13.5793 2.80525 13.5738 2.79925C13.5683 2.7932 13.5473 2.76896 13.5272 2.74536C13.4633 2.67067 13.4575 2.664 13.4405 2.64608C13.4313 2.63643 13.4152 2.61819 13.4046 2.6055C13.2906 2.46906 12.8207 1.99931 12.6704 1.87174C12.6558 1.85926 12.6423 1.84726 12.6404 1.84502C12.6341 1.8373 12.4303 1.66402 12.4071 1.64656C12.3943 1.63693 12.3808 1.62576 12.3771 1.62181C12.3734 1.61781 12.3509 1.5998 12.3271 1.5818C12.3033 1.56376 12.2808 1.54568 12.2771 1.54156C12.2705 1.53412 11.9897 1.32487 11.9607 1.3057C11.9524 1.30018 11.9331 1.28638 11.918 1.27506C11.8508 1.22478 11.5665 1.04001 11.4809 0.991003C11.4684 0.983843 11.4209 0.955682 11.3755 0.928478C11.3301 0.901277 11.2918 0.878995 11.2903 0.878995C11.2889 0.878995 11.2703 0.868915 11.2491 0.856595C11.1113 0.776789 10.7031 0.575096 10.6402 0.555774C10.6311 0.552974 10.6207 0.548334 10.617 0.545454C10.6133 0.542573 10.5833 0.529293 10.5503 0.515931C10.5173 0.502571 10.4843 0.48889 10.477 0.48549C10.4696 0.48209 10.4472 0.473168 10.427 0.465648C10.4068 0.458088 10.3843 0.449088 10.377 0.445606C10.3548 0.435046 10.2577 0.398963 10.2515 0.398963C10.2483 0.398963 10.2362 0.394803 10.2247 0.389763C10.1844 0.372122 10.0594 0.329038 9.9803 0.305478C9.95282 0.297317 9.9243 0.288277 9.91698 0.285397C9.89514 0.276835 9.84242 0.261555 9.74698 0.236194C9.69746 0.223032 9.64797 0.209472 9.63696 0.20607C9.62597 0.20271 9.58997 0.19355 9.55696 0.185749C9.52397 0.177949 9.48643 0.168669 9.4736 0.165069C9.46075 0.161509 9.43528 0.155468 9.41696 0.151708C9.39859 0.147947 9.36411 0.140827 9.34027 0.135866C9.05218 0.0760626 8.79197 0.0383402 8.53355 0.0188989C8.48406 0.0151786 8.40858 0.00917816 8.36582 0.00553792C8.27485 -0.0021826 7.71107 -0.0017026 7.6235 0.00617793Z" fill="black" />
        <path d="M6.63584 0.961863C7.05138 0.866576 7.43683 0.814171 7.80589 0.802731C8.31251 0.78705 8.82131 0.839253 9.35597 0.961863C9.67823 1.03571 10.1341 1.19328 10.4484 1.33945C10.479 1.35365 10.5052 1.36533 10.5067 1.36533C10.5211 1.36533 10.8587 1.54142 11.0027 1.62402C11.7495 2.05253 12.5046 2.70085 13.0729 3.40159C13.0875 3.41959 13.1144 3.45258 13.1325 3.4749C13.1849 3.53919 13.343 3.74393 13.3827 3.79881C13.5088 3.97338 13.5442 4.02407 13.634 4.15884C13.7672 4.35853 13.8654 4.51661 13.9694 4.69887C13.9998 4.75204 14.0358 4.81503 14.0495 4.83889C14.1208 4.96277 14.3222 5.35812 14.3942 5.51561C14.4093 5.54861 14.4313 5.59662 14.4431 5.62225C14.6567 6.08833 14.8809 6.70873 15.0295 7.24572C15.0412 7.28788 15.0548 7.33588 15.0597 7.35236C15.0738 7.39981 15.1675 7.78308 15.1803 7.84577C15.1962 7.92332 15.1961 8.07561 15.1802 8.15242C15.132 8.38412 15.0181 8.80978 14.9251 9.10585C14.8271 9.41794 14.7541 9.62207 14.6186 9.96298C14.5778 10.0654 14.5636 10.1087 14.5661 10.123C14.5679 10.1338 14.5755 10.2604 14.583 10.3173C14.5904 10.3741 15.1104 14.112 15.1104 14.112C15.176 14.52 14.9298 14.7808 14.6126 14.8361C14.4671 14.8615 14.1396 14.7431 14.1396 14.7431L12.0278 13.8752C11.8785 13.8136 11.8429 13.8006 11.8394 13.8062C11.8213 13.8354 11.4248 14.1156 11.2178 14.2454C9.01235 15.6278 6.39334 15.4977 4.27238 13.9004C3.19026 13.0854 2.23597 11.8679 1.60418 10.4959C1.53897 10.3543 1.52885 10.3319 1.49565 10.2559C1.23811 9.66567 1.01922 9.01479 0.865572 8.38244C0.801209 8.11741 0.800049 8.11077 0.800049 7.99909C0.800049 7.88732 0.801209 7.88057 0.865692 7.61575C1.06762 6.78613 1.35488 5.99684 1.72346 5.2589C1.83674 5.03209 1.8613 4.98517 1.95571 4.81556C2.23565 4.31236 2.56714 3.82897 2.95448 3.35909C3.16186 3.10753 3.49283 2.76285 3.75237 2.5282C4.04911 2.25986 4.43803 1.96197 4.71906 1.78772C4.73741 1.77636 4.7809 1.74903 4.81574 1.72703C4.87286 1.69095 5.00646 1.61306 5.11243 1.55406C5.16755 1.52338 5.48125 1.36661 5.54245 1.33917C5.56994 1.32685 5.63447 1.29896 5.68578 1.2772C5.73711 1.25548 5.78811 1.23372 5.79911 1.22888C5.96387 1.1564 6.4145 1.01259 6.63584 0.961863Z" fill="white" />
        <path d="M12.8 8C12.8 10.651 10.6509 12.8 7.99995 12.8C5.34899 12.8 3.19995 10.651 3.19995 8C3.19995 5.34903 5.34899 3.20001 7.99995 3.20001C10.6509 3.20001 12.8 5.34903 12.8 8Z" fill="#003DA5" />
        <path d="M9.96715 8.00002C9.96715 9.08647 9.08639 9.96722 7.99993 9.96722C6.91347 9.96722 6.03271 9.08647 6.03271 8.00002C6.03271 6.91356 6.91347 6.03281 7.99993 6.03281C9.08639 6.03281 9.96715 6.91356 9.96715 8.00002Z" fill="black" />
        <path fill-rule="evenodd" clip-rule="evenodd" d="M9.1438 7.22438C9.19683 8.0788 9.97099 8.69375 10.8136 8.55074C11.7766 8.38731 12.2974 7.30087 11.8206 6.45006C11.7368 6.30057 11.6435 6.18787 11.4864 6.04649C11.4467 6.01081 11.367 5.9515 11.36 5.9525C11.3557 5.95312 11.3554 5.97757 11.3552 6.35167L11.355 6.68043L11.3741 6.72026C11.4499 6.87827 11.4812 7.01191 11.4773 7.16152C11.4637 7.68548 11.0222 8.08781 10.5047 8.0479C9.86572 7.99863 9.47578 7.32544 9.75292 6.75008C9.7586 6.7383 9.77105 6.71354 9.78061 6.69508L9.79796 6.66151V6.30114C9.79796 6.10293 9.79742 5.94076 9.79676 5.94076C9.7952 5.94076 9.75466 5.96834 9.73141 5.98521C9.3935 6.23043 9.18281 6.61016 9.14573 7.04081C9.14308 7.0716 9.1418 7.19232 9.1438 7.22438ZM10.3166 6.4565C10.3176 7.20018 10.3171 7.17193 10.33 7.21152C10.3944 7.40908 10.6736 7.44778 10.7895 7.27522C10.8205 7.22906 10.8282 7.20266 10.8322 7.12795C10.8371 7.03533 10.8388 5.73883 10.8339 5.73732C10.8179 5.73235 10.7301 5.72102 10.67 5.71617C10.6388 5.71366 10.5027 5.71367 10.4708 5.7162C10.4203 5.72019 10.352 5.72856 10.3246 5.7341L10.3158 5.73589L10.3157 5.7744C10.3157 5.79558 10.3161 6.10252 10.3166 6.4565Z" fill="white" fill-opacity="0.8" />
    </g>
    <defs>
        <clipPath id="clip0_293_1686">
            <rect width="16" height="16" fill="white" />
        </clipPath>
    </defs>
</svg>