<svg width="1920" height="1121" viewBox="0 0 1920 1121" xmlns="http://www.w3.org/2000/svg">
<path d="M1270.8 253.193C1568.83 119.116 1850.63 209.797 2030.21 356.389C2032.51 358.263 2034.48 360.57 2036.1 363.227L2244.6 705.017C2253.3 719.276 2249.27 739.112 2235.62 746.5C2136.91 799.929 1934.93 875.042 1745.59 835.16C1486.28 780.544 1150.28 490.937 797.391 503.329C526.793 512.83 106.516 623.73 -92.8573 684.785C-106.447 688.947 -120.226 679.37 -123.559 663.538L-211.97 243.581C-214.872 229.799 -208.784 215.564 -197.319 210.61C-86.2819 162.636 153.264 108.219 366.435 219.688C649.935 367.934 970.87 388.129 1270.8 253.193Z" fill="var(--modeQuaternary)" fill-opacity="0.4"/>
<path d="M772.48 295.792C380.165 119.45 9.24329 239.169 -226.745 432.199C-229.039 434.075 -231.01 436.38 -232.632 439.036L-512.582 897.549C-521.29 911.81 -517.274 931.663 -503.683 939.216C-377.112 1009.55 -105.683 1113.53 148.442 1060.05C489.263 988.327 930.89 608.006 1394.72 624.28C1753.87 636.881 2313.64 785.264 2572.46 864.915C2586.04 869.094 2599.94 859.56 2603.28 843.733L2722.96 275.698C2725.87 261.91 2719.88 247.725 2708.45 242.641C2565.44 179.015 2245.45 103.26 1961.15 251.794C1588.53 446.475 1166.7 472.995 772.48 295.792Z" fill="var(--modeQuaternary)" fill-opacity="0.4"/>
<path d="M1447.25 934.5C1794.64 1188.87 2182.35 1149.07 2453.13 1009.42C2455.6 1008.15 2457.81 1006.46 2459.73 1004.44L2833.15 609.402C2842.65 599.346 2842.3 583.471 2831.92 574.325C2724.31 479.482 2478 317.967 2215.74 317.251C1867.52 316.299 1356.87 596.12 906.52 483.448C558.455 396.366 42.8669 135.297 -194.437 3.17194C-207.328 -4.00543 -223.54 1.44979 -229.521 14.9783L-466.827 551.75C-471.469 562.25 -468.544 574.544 -459.301 581.311C-333.611 673.331 -34.8958 815.94 275.402 729.57C680.162 616.907 1098.27 678.966 1447.25 934.5Z" fill="var(--modeQuaternary)" fill-opacity="0.4"/>
</svg>
