<svg id="svg" xmlns="http://www.w3.org/2000/svg" xmlns:xlink="http://www.w3.org/1999/xlink" width="400" height="400" viewBox="0, 0, 400,400"><g id="svgg"><path id="path0" d="M181.670 1.315 C 73.206 14.442,-1.984 99.674,1.054 206.053 C 5.499 361.745,180.625 452.524,309.980 366.189 C 440.969 278.763,424.279 81.298,280.515 17.594 C 251.827 4.882,209.626 -2.068,181.670 1.315 M224.847 9.475 C 383.072 31.704,448.780 223.677,336.880 336.789 C 215.949 459.028,7.057 373.196,6.945 201.222 C 6.869 84.029,109.938 -6.668,224.847 9.475 M172.994 13.002 C 32.795 34.882,-29.241 199.309,61.769 307.806 L 65.413 312.149 67.085 309.435 C 72.326 300.932,85.324 281.846,91.087 274.191 C 99.944 262.426,99.914 262.244,89.573 265.229 C 72.259 270.226,59.607 272.149,58.867 269.896 C 58.510 268.807,58.311 268.985,69.654 260.207 C 110.726 228.422,121.373 216.012,131.443 188.187 C 144.775 151.349,166.639 125.037,196.334 110.092 C 213.890 101.257,219.439 87.446,207.739 81.704 C 200.100 77.954,193.170 80.693,197.682 85.679 C 199.284 87.449,196.741 87.880,193.845 86.330 C 184.594 81.379,190.496 66.484,204.481 59.489 C 206.497 58.480,209.469 56.300,211.084 54.643 C 218.647 46.889,251.011 43.154,265.853 48.322 C 278.716 52.800,282.131 57.143,284.706 72.293 C 285.297 75.770,286.510 81.365,287.402 84.725 C 294.433 111.222,296.838 150.395,292.564 168.817 C 286.070 196.812,262.082 222.970,225.901 241.510 L 220.030 244.519 221.534 248.329 C 224.190 255.060,234.740 278.845,237.588 284.521 L 240.346 290.020 244.703 290.020 C 250.414 290.020,259.113 284.423,261.234 279.383 C 263.654 273.634,272.704 273.535,275.356 279.228 C 276.029 280.671,277.226 282.067,278.018 282.329 C 281.050 283.335,282.617 289.799,280.713 293.449 C 279.667 295.454,279.701 295.699,281.083 296.138 C 283.042 296.760,283.922 299.532,282.648 301.067 C 282.104 301.723,281.065 303.443,280.340 304.889 C 278.907 307.749,275.622 309.364,273.211 308.392 C 271.792 307.821,271.811 307.733,273.499 307.082 C 277.061 305.708,276.032 297.445,272.281 297.297 C 254.943 296.610,241.313 301.661,235.418 310.957 C 231.854 316.577,232.690 325.866,236.760 325.866 C 238.639 325.866,238.011 327.432,235.921 327.956 C 232.488 328.818,225.687 323.511,225.636 319.931 C 225.622 318.938,225.072 317.415,224.414 316.545 C 222.306 313.759,223.037 311.786,227.685 307.709 C 235.178 301.138,235.168 300.357,227.377 284.114 C 220.087 268.915,220.020 268.860,215.158 274.134 C 210.999 278.647,211.298 278.700,210.627 273.333 C 209.969 268.063,209.406 267.542,206.174 269.213 C 202.997 270.856,202.751 270.808,203.196 268.635 C 204.959 260.040,204.927 259.970,200.110 261.945 C 198.701 262.523,198.634 262.256,199.185 258.248 C 199.666 254.756,199.567 254.018,198.668 254.393 C 192.086 257.141,181.950 261.750,181.474 262.211 C 180.091 263.551,183.006 291.389,184.839 294.356 C 188.623 300.478,192.745 301.310,200.383 297.493 C 209.346 293.014,213.499 293.231,217.599 298.392 C 220.264 301.746,221.074 305.610,219.537 307.639 C 218.902 308.478,218.370 309.786,218.356 310.545 C 218.342 311.304,217.381 312.954,216.222 314.211 C 214.588 315.982,214.242 316.130,214.682 314.868 C 218.159 304.910,214.898 301.488,204.888 304.591 C 194.481 307.818,176.035 307.339,163.365 303.514 C 159.540 302.360,159.222 302.381,157.610 303.896 C 156.671 304.777,155.493 305.499,154.992 305.499 C 153.805 305.499,152.978 308.157,153.633 309.865 C 154.284 311.563,152.852 311.596,151.178 309.921 C 147.334 306.077,152.817 294.908,158.548 294.908 C 159.652 294.908,162.648 295.987,165.206 297.305 C 167.765 298.624,170.913 299.958,172.203 300.271 L 174.548 300.840 173.966 291.153 C 173.198 278.373,172.078 269.511,171.106 268.540 C 169.130 266.564,163.089 271.058,148.269 285.529 C 132.846 300.590,114.750 316.142,99.185 327.716 C 88.692 335.518,88.824 334.166,97.966 340.232 C 232.766 429.678,408.542 311.985,375.540 154.379 C 356.146 61.760,265.589 -1.448,172.994 13.002 M232.798 59.815 C 227.994 61.529,225.815 63.304,223.954 67.018 L 222.224 70.468 225.369 67.454 C 231.711 61.373,242.569 59.109,256.212 61.023 C 269.379 62.871,274.133 65.773,279.018 74.949 C 282.427 81.354,282.777 80.147,279.554 73.098 C 274.833 62.772,265.340 58.629,246.547 58.692 C 239.774 58.714,234.726 59.127,232.798 59.815 M207.739 61.604 C 207.739 64.019,213.726 72.833,219.731 79.260 C 227.379 87.446,227.310 89.056,219.235 90.859 C 215.085 91.786,214.448 93.951,216.716 99.427 C 219.850 106.992,247.000 103.495,264.428 93.281 C 275.306 86.907,270.477 81.456,255.495 83.198 C 233.424 85.764,219.555 80.053,210.987 64.873 C 208.238 60.000,207.739 59.499,207.739 61.604 M234.640 64.453 C 229.785 66.390,228.479 69.487,231.402 72.132 C 234.793 75.200,241.726 73.019,244.388 68.046 C 245.232 66.468,245.992 66.007,247.234 66.318 C 248.166 66.552,249.829 66.508,250.928 66.221 C 252.603 65.783,252.203 65.529,248.460 64.655 C 243.159 63.419,237.443 63.335,234.640 64.453 M200.663 66.762 C 198.285 68.212,196.334 70.665,196.334 72.204 C 196.334 72.545,197.525 71.696,198.982 70.316 C 200.438 68.936,202.729 67.229,204.073 66.523 C 206.027 65.496,206.190 65.232,204.888 65.209 C 203.992 65.193,202.091 65.891,200.663 66.762 M242.770 66.323 C 242.770 68.137,237.983 71.690,235.538 71.690 C 233.292 71.690,231.365 70.411,231.365 68.921 C 231.365 68.468,231.799 68.540,232.342 69.084 C 232.880 69.621,233.980 70.061,234.786 70.061 C 236.246 70.061,236.571 69.314,236.295 66.599 C 236.178 65.451,236.796 65.173,239.460 65.173 C 241.766 65.173,242.770 65.522,242.770 66.323 M269.450 279.177 C 268.666 279.382,268.024 279.901,268.024 280.332 C 268.024 280.762,266.726 281.880,265.138 282.817 C 260.807 285.373,262.495 285.696,267.261 283.224 C 270.412 281.589,271.776 281.266,272.927 281.882 C 275.188 283.091,275.723 281.408,273.559 279.893 C 272.556 279.190,271.542 278.658,271.305 278.710 C 271.069 278.762,270.234 278.972,269.450 279.177 M265.784 289.184 C 260.790 291.451,261.478 291.954,268.744 291.348 C 275.631 290.774,277.800 291.160,277.800 292.959 C 277.800 293.583,278.191 294.094,278.669 294.094 C 281.811 294.094,278.765 289.644,274.949 288.659 C 269.776 287.324,269.897 287.317,265.784 289.184 " stroke="none" fill="#000000" fill-rule="evenodd"></path></g></svg>