<?xml version="1.0" standalone="no"?>
<!DOCTYPE svg PUBLIC "-//W3C//DTD SVG 20010904//EN"
 "http://www.w3.org/TR/2001/REC-SVG-20010904/DTD/svg10.dtd">
<svg version="1.0" xmlns="http://www.w3.org/2000/svg"
 width="300.000000pt" height="300.000000pt" viewBox="0 0 300.000000 300.000000"
 preserveAspectRatio="xMidYMid meet">
<metadata>
Created by potrace 1.16, written by Peter Selinger 2001-2019
</metadata>
<g transform="translate(0.000000,300.000000) scale(0.100000,-0.100000)"
fill="#ffffff" stroke="none">
<path d="M1850 2389 c-16 -30 -12 -34 58 -53 101 -29 198 -71 280 -123 71 -44
164 -117 170 -134 2 -5 -45 14 -105 42 -136 64 -311 123 -428 144 -126 22
-377 30 -505 16 -200 -23 -385 -78 -567 -170 -94 -47 -104 -49 -77 -20 68 75
253 183 394 229 52 17 101 33 108 35 10 4 10 10 2 25 -14 26 -53 26 -160 -1
-110 -28 -231 -79 -337 -143 -77 -47 -90 -59 -123 -117 -154 -273 -270 -705
-304 -1130 l-7 -76 49 -45 c150 -140 315 -224 531 -269 150 -31 160 -29 209
38 42 58 42 58 20 67 -68 28 -191 93 -249 132 -65 43 -213 173 -206 180 2 2
48 -23 103 -56 286 -173 649 -242 1034 -196 234 28 437 100 614 218 32 21 60
37 62 35 9 -9 -151 -151 -216 -193 -73 -47 -206 -114 -227 -114 -27 0 -22 -24
16 -75 39 -52 44 -55 84 -55 55 0 192 31 286 64 138 48 282 138 375 235 l39
40 -6 93 c-24 351 -130 760 -265 1030 -62 124 -71 136 -122 170 -127 86 -325
166 -463 186 -51 8 -59 7 -67 -9z m-642 -794 c82 -35 132 -118 132 -221 0
-213 -233 -308 -357 -146 -88 115 -50 296 77 360 52 26 96 28 148 7z m783 -19
c21 -14 51 -47 66 -73 25 -42 28 -58 28 -128 -1 -92 -14 -124 -74 -178 -111
-100 -265 -50 -316 103 -41 124 27 271 140 303 40 11 118 -2 156 -27z"/>
</g>
</svg>
