<svg id="svg" xmlns="http://www.w3.org/2000/svg" xmlns:xlink="http://www.w3.org/1999/xlink" width="400" height="400" viewBox="0, 0, 400,400"><g id="svgg"><path id="path0" d="M181.513 1.472 C 181.513 1.851,180.299 1.906,177.364 1.661 C 174.327 1.408,173.305 1.461,173.551 1.858 C 173.786 2.239,173.017 2.401,170.977 2.401 C 169.357 2.401,168.067 2.614,168.067 2.881 C 168.067 3.145,166.987 3.361,165.666 3.361 C 164.293 3.361,163.265 3.580,163.265 3.871 C 163.265 4.203,162.508 4.267,161.085 4.054 C 159.415 3.803,158.938 3.873,159.044 4.354 C 159.145 4.808,158.621 4.946,157.143 4.855 C 155.928 4.780,155.102 4.938,155.102 5.245 C 155.102 5.530,154.346 5.762,153.421 5.762 C 152.497 5.762,151.741 5.978,151.741 6.242 C 151.741 6.507,151.105 6.723,150.328 6.723 C 149.552 6.723,148.801 6.910,148.659 7.138 C 148.518 7.367,147.857 7.450,147.190 7.323 C 146.480 7.187,145.978 7.313,145.978 7.627 C 145.978 7.922,145.330 8.163,144.538 8.163 C 143.745 8.163,143.097 8.379,143.097 8.643 C 143.097 8.908,142.449 9.124,141.657 9.124 C 140.864 9.124,140.216 9.310,140.216 9.537 C 140.216 9.765,139.676 9.848,139.016 9.721 C 138.315 9.587,137.815 9.715,137.815 10.028 C 137.815 10.323,137.275 10.564,136.615 10.564 C 135.954 10.564,135.414 10.780,135.414 11.044 C 135.414 11.309,134.874 11.525,134.214 11.525 C 133.553 11.525,133.013 11.764,133.013 12.056 C 133.013 12.349,132.696 12.466,132.308 12.317 C 131.921 12.168,131.476 12.253,131.320 12.506 C 131.163 12.759,130.400 12.965,129.624 12.965 C 128.847 12.965,128.210 13.127,128.208 13.325 C 128.201 13.952,125.849 14.806,124.850 14.545 C 124.313 14.404,123.890 14.530,123.890 14.830 C 123.890 15.125,123.565 15.366,123.169 15.366 C 122.773 15.366,122.449 15.582,122.449 15.846 C 122.449 16.110,122.017 16.327,121.489 16.327 C 120.960 16.327,120.528 16.522,120.528 16.762 C 120.528 17.001,120.126 17.092,119.634 16.963 C 119.100 16.824,118.624 17.032,118.452 17.480 C 118.284 17.917,117.855 18.113,117.425 17.948 C 117.019 17.792,116.687 17.904,116.687 18.196 C 116.687 18.488,116.363 18.727,115.966 18.727 C 115.570 18.727,115.246 18.918,115.246 19.152 C 115.246 19.622,113.423 20.313,112.485 20.199 C 112.155 20.159,111.885 20.352,111.885 20.627 C 111.885 20.903,111.561 21.128,111.164 21.128 C 110.768 21.128,110.444 21.345,110.444 21.609 C 110.444 21.873,110.012 22.089,109.484 22.089 C 108.956 22.089,108.523 22.323,108.523 22.609 C 108.523 22.895,108.258 23.041,107.934 22.933 C 107.609 22.824,106.942 23.110,106.451 23.567 C 105.961 24.024,104.869 24.528,104.024 24.686 C 103.180 24.845,102.179 25.406,101.799 25.933 C 101.419 26.460,100.832 26.891,100.494 26.891 C 100.156 26.891,99.880 27.132,99.880 27.427 C 99.880 27.727,99.457 27.852,98.920 27.712 C 98.391 27.574,97.959 27.657,97.959 27.896 C 97.959 28.135,97.552 28.331,97.055 28.331 C 96.536 28.331,96.036 28.767,95.883 29.354 C 95.719 29.982,95.355 30.277,94.941 30.118 C 94.570 29.976,93.969 30.272,93.606 30.776 C 93.243 31.280,92.561 31.693,92.091 31.693 C 91.621 31.693,91.236 31.885,91.236 32.121 C 91.236 32.356,90.711 32.681,90.068 32.842 C 89.425 33.004,88.763 33.567,88.595 34.095 C 88.427 34.625,87.869 35.054,87.348 35.054 C 86.829 35.054,86.280 35.378,86.128 35.774 C 85.976 36.170,85.457 36.495,84.975 36.495 C 84.493 36.495,83.956 36.942,83.782 37.490 C 83.579 38.131,83.206 38.385,82.732 38.203 C 82.007 37.925,80.192 39.538,80.192 40.461 C 80.192 40.713,79.887 40.802,79.515 40.659 C 79.127 40.510,78.328 41.016,77.642 41.844 C 76.983 42.638,76.108 43.338,75.696 43.398 C 74.912 43.513,72.989 45.477,72.989 46.163 C 72.989 46.381,72.414 46.705,71.711 46.881 C 71.007 47.058,69.765 47.923,68.950 48.805 C 68.134 49.686,66.761 51.177,65.898 52.118 C 65.036 53.058,64.147 53.715,63.923 53.577 C 63.700 53.439,62.834 54.077,61.999 54.994 C 61.164 55.912,60.285 56.663,60.045 56.663 C 59.805 56.663,59.475 57.084,59.312 57.598 C 59.148 58.113,58.604 58.664,58.103 58.824 C 57.602 58.983,57.062 59.523,56.903 60.024 C 56.744 60.525,56.193 61.069,55.679 61.232 C 55.165 61.395,54.610 62.063,54.446 62.716 C 54.160 63.855,51.895 66.320,48.315 69.388 C 47.206 70.338,46.717 71.114,46.878 71.669 C 47.013 72.131,46.927 72.509,46.686 72.509 C 45.871 72.509,43.697 74.695,43.697 75.514 C 43.697 75.962,43.157 76.682,42.497 77.115 C 41.837 77.548,41.297 78.258,41.297 78.693 C 41.297 79.128,40.756 79.890,40.096 80.385 C 39.436 80.881,38.896 81.557,38.896 81.886 C 38.896 82.215,38.263 82.988,37.491 83.603 C 36.718 84.218,36.198 84.902,36.334 85.123 C 36.471 85.344,36.135 85.914,35.587 86.389 C 35.039 86.864,34.697 87.358,34.826 87.487 C 34.954 87.616,34.626 88.113,34.097 88.593 C 33.567 89.072,33.133 89.849,33.133 90.318 C 33.133 90.788,32.692 91.312,32.153 91.483 C 31.470 91.700,31.257 92.062,31.453 92.677 C 31.648 93.292,31.436 93.654,30.752 93.871 C 30.213 94.042,29.772 94.492,29.772 94.870 C 29.772 95.249,29.556 95.558,29.292 95.558 C 29.028 95.558,28.812 95.997,28.812 96.534 C 28.812 97.070,28.487 97.634,28.091 97.786 C 27.695 97.938,27.371 98.471,27.371 98.971 C 27.371 99.471,27.132 99.880,26.839 99.880 C 26.547 99.880,26.435 100.212,26.591 100.618 C 26.749 101.031,26.573 101.472,26.193 101.619 C 25.818 101.762,25.621 102.167,25.755 102.517 C 25.894 102.878,25.569 103.291,25.005 103.470 C 24.450 103.646,24.010 104.197,24.010 104.714 C 24.010 105.225,23.800 105.642,23.544 105.642 C 23.289 105.642,23.204 105.966,23.356 106.363 C 23.508 106.759,23.393 107.083,23.101 107.083 C 22.808 107.083,22.569 107.515,22.569 108.043 C 22.569 108.571,22.353 109.004,22.089 109.004 C 21.825 109.004,21.609 109.328,21.609 109.724 C 21.609 110.120,21.402 110.444,21.150 110.444 C 20.898 110.444,20.550 111.200,20.376 112.125 C 20.203 113.049,19.922 113.806,19.752 113.806 C 19.325 113.806,18.335 116.128,17.958 118.011 C 17.787 118.867,17.458 119.568,17.227 119.568 C 16.996 119.568,16.807 119.892,16.807 120.288 C 16.807 120.684,16.604 121.008,16.356 121.008 C 16.108 121.008,15.759 121.981,15.581 123.169 C 15.403 124.358,15.066 125.330,14.831 125.330 C 14.597 125.330,14.406 125.762,14.406 126.291 C 14.406 126.819,14.164 127.251,13.870 127.251 C 13.570 127.251,13.444 127.674,13.585 128.211 C 13.738 128.799,13.599 129.172,13.227 129.172 C 12.837 129.172,12.700 129.602,12.848 130.372 C 12.982 131.073,12.854 131.573,12.541 131.573 C 12.246 131.573,12.005 132.113,12.005 132.773 C 12.005 133.433,11.789 133.974,11.525 133.974 C 11.261 133.974,11.044 134.514,11.044 135.174 C 11.044 135.834,10.824 136.375,10.555 136.375 C 10.279 136.375,10.191 136.875,10.354 137.523 C 10.512 138.154,10.408 138.815,10.123 138.992 C 9.837 139.168,9.604 139.732,9.604 140.244 C 9.604 140.757,9.388 141.176,9.124 141.176 C 8.860 141.176,8.643 141.825,8.643 142.617 C 8.643 143.409,8.404 144.058,8.111 144.058 C 7.787 144.058,7.694 144.515,7.873 145.229 C 8.035 145.873,7.950 146.534,7.685 146.698 C 7.420 146.861,7.203 147.631,7.203 148.408 C 7.203 149.184,6.987 149.820,6.723 149.820 C 6.459 149.820,6.242 150.576,6.242 151.501 C 6.242 152.425,6.002 153.181,5.709 153.181 C 5.361 153.181,5.283 153.755,5.484 154.824 C 5.662 155.778,5.584 156.596,5.297 156.774 C 5.025 156.942,4.802 157.931,4.802 158.972 C 4.802 160.013,4.586 160.864,4.322 160.864 C 4.058 160.864,3.842 161.837,3.842 163.025 C 3.842 164.214,3.617 165.186,3.342 165.186 C 3.067 165.186,2.844 166.104,2.847 167.227 C 2.855 171.370,2.312 176.711,1.883 176.711 C 1.640 176.711,1.441 178.655,1.441 181.032 C 1.441 183.593,1.245 185.354,0.960 185.354 C 0.651 185.354,0.480 190.396,0.480 199.520 C 0.480 208.643,0.651 213.685,0.960 213.685 C 1.245 213.685,1.441 215.446,1.441 218.007 C 1.441 220.384,1.638 222.329,1.880 222.329 C 2.337 222.329,2.867 227.141,2.845 231.092 C 2.838 232.374,3.054 233.373,3.337 233.373 C 3.615 233.373,3.842 234.345,3.842 235.534 C 3.842 236.723,4.058 237.695,4.322 237.695 C 4.586 237.695,4.802 238.667,4.802 239.856 C 4.802 241.044,5.004 242.017,5.252 242.017 C 5.499 242.017,5.579 242.773,5.429 243.697 C 5.252 244.788,5.347 245.378,5.699 245.378 C 6.000 245.378,6.242 246.129,6.242 247.059 C 6.242 247.983,6.459 248.739,6.723 248.739 C 6.987 248.739,7.203 249.388,7.203 250.180 C 7.203 250.972,7.414 251.621,7.671 251.621 C 7.935 251.621,8.014 252.249,7.851 253.061 C 7.668 253.979,7.759 254.502,8.103 254.502 C 8.400 254.502,8.643 255.150,8.643 255.942 C 8.643 256.735,8.860 257.383,9.124 257.383 C 9.388 257.383,9.604 257.910,9.604 258.555 C 9.604 259.200,9.821 259.861,10.086 260.025 C 10.351 260.189,10.427 260.882,10.256 261.566 C 10.037 262.437,10.108 262.707,10.494 262.468 C 10.853 262.247,11.044 262.556,11.044 263.357 C 11.044 264.033,11.261 264.586,11.525 264.586 C 11.789 264.586,12.005 265.126,12.005 265.786 C 12.005 266.447,12.238 266.987,12.523 266.987 C 12.854 266.987,12.922 267.530,12.712 268.487 C 12.483 269.531,12.544 269.888,12.914 269.660 C 13.237 269.460,13.445 269.719,13.445 270.320 C 13.445 270.864,13.661 271.309,13.926 271.309 C 14.190 271.309,14.406 271.849,14.406 272.509 C 14.406 273.169,14.597 273.709,14.830 273.709 C 15.300 273.709,15.992 275.532,15.877 276.471 C 15.837 276.801,16.030 277.071,16.305 277.071 C 16.581 277.071,16.807 277.611,16.807 278.271 C 16.807 278.932,17.023 279.472,17.287 279.472 C 17.551 279.472,17.767 279.796,17.767 280.192 C 17.767 280.588,17.998 280.912,18.280 280.912 C 18.574 280.912,18.662 281.322,18.487 281.873 C 18.313 282.424,18.401 282.833,18.695 282.833 C 18.977 282.833,19.208 283.157,19.208 283.553 C 19.208 283.950,19.424 284.274,19.688 284.274 C 19.952 284.274,20.168 284.706,20.168 285.234 C 20.168 285.762,20.377 286.194,20.633 286.194 C 20.889 286.194,20.974 286.519,20.822 286.915 C 20.670 287.311,20.785 287.635,21.077 287.635 C 21.369 287.635,21.609 287.959,21.609 288.355 C 21.609 288.752,21.825 289.076,22.089 289.076 C 22.353 289.076,22.569 289.508,22.569 290.036 C 22.569 290.564,22.778 290.996,23.034 290.996 C 23.290 290.996,23.375 291.321,23.223 291.717 C 23.049 292.169,23.228 292.437,23.703 292.437 C 24.178 292.437,24.357 292.705,24.183 293.157 C 24.031 293.553,24.146 293.878,24.438 293.878 C 24.731 293.878,24.970 294.310,24.970 294.838 C 24.970 295.366,25.209 295.798,25.502 295.798 C 25.794 295.798,25.922 296.089,25.785 296.444 C 25.649 296.799,25.950 297.387,26.454 297.751 C 26.958 298.114,27.371 298.688,27.371 299.026 C 27.371 299.363,27.560 299.640,27.791 299.640 C 28.022 299.640,28.347 300.317,28.512 301.145 C 28.678 301.973,29.214 302.999,29.704 303.426 C 30.194 303.853,30.748 304.688,30.936 305.282 C 31.124 305.876,31.479 306.363,31.725 306.363 C 31.971 306.363,32.173 306.639,32.173 306.977 C 32.173 307.315,32.593 307.894,33.108 308.265 C 33.622 308.635,33.926 309.127,33.784 309.357 C 33.642 309.587,33.977 310.167,34.530 310.646 C 35.082 311.125,35.534 311.890,35.534 312.346 C 35.534 312.802,35.941 313.282,36.439 313.412 C 37.032 313.567,37.265 313.949,37.115 314.521 C 36.962 315.105,37.219 315.499,37.890 315.712 C 38.442 315.887,39.019 316.532,39.173 317.146 C 39.327 317.760,39.976 318.716,40.615 319.272 C 41.254 319.827,41.777 320.528,41.777 320.829 C 41.777 321.430,43.609 323.169,44.242 323.169 C 44.461 323.169,44.786 323.751,44.964 324.462 C 45.279 325.717,46.391 326.982,48.457 328.437 C 49.009 328.826,49.460 329.421,49.460 329.761 C 49.460 330.100,53.025 333.918,57.383 338.245 C 61.741 342.573,65.306 346.338,65.306 346.614 C 65.306 346.889,65.727 347.248,66.242 347.411 C 66.757 347.575,67.314 348.138,67.481 348.664 C 67.680 349.291,68.065 349.531,68.601 349.361 C 69.098 349.203,69.693 349.494,70.123 350.104 C 71.577 352.169,72.843 353.280,74.097 353.595 C 74.808 353.774,75.390 354.099,75.390 354.317 C 75.390 354.937,77.123 356.783,77.706 356.783 C 77.993 356.783,78.742 357.297,79.371 357.926 C 79.999 358.554,80.970 359.214,81.529 359.391 C 82.087 359.568,82.678 360.134,82.841 360.649 C 83.004 361.164,83.532 361.585,84.015 361.585 C 84.497 361.585,85.016 361.909,85.168 362.305 C 85.320 362.701,85.804 363.025,86.243 363.025 C 86.683 363.025,87.392 363.426,87.819 363.917 C 88.246 364.407,89.082 364.962,89.676 365.150 C 90.270 365.337,90.756 365.692,90.756 365.939 C 90.756 366.185,90.988 366.387,91.271 366.387 C 91.554 366.387,92.109 366.711,92.506 367.107 C 92.902 367.503,93.643 367.827,94.152 367.827 C 94.661 367.827,95.078 368.043,95.078 368.307 C 95.078 368.571,95.350 368.788,95.683 368.788 C 96.015 368.788,96.554 369.214,96.879 369.734 C 97.226 370.290,97.770 370.566,98.195 370.403 C 98.593 370.250,98.920 370.365,98.920 370.657 C 98.920 370.949,99.196 371.188,99.534 371.188 C 99.872 371.188,100.459 371.620,100.839 372.147 C 101.219 372.674,102.239 373.238,103.106 373.401 C 103.973 373.563,104.682 373.888,104.682 374.123 C 104.682 374.358,105.006 374.550,105.402 374.550 C 105.798 374.550,106.122 374.756,106.122 375.008 C 106.122 375.260,106.879 375.609,107.803 375.782 C 108.727 375.955,109.484 376.289,109.484 376.524 C 109.484 376.759,109.808 376.951,110.204 376.951 C 110.600 376.951,110.924 377.157,110.924 377.409 C 110.924 377.661,111.681 378.010,112.605 378.183 C 113.529 378.356,114.286 378.690,114.286 378.925 C 114.286 379.160,114.718 379.352,115.246 379.352 C 115.774 379.352,116.206 379.561,116.206 379.817 C 116.206 380.073,116.531 380.158,116.927 380.006 C 117.379 379.832,117.647 380.011,117.647 380.486 C 117.647 380.961,117.915 381.140,118.367 380.966 C 118.764 380.814,119.088 380.883,119.088 381.119 C 119.088 381.355,119.571 381.585,120.161 381.629 C 120.751 381.674,121.310 381.936,121.401 382.212 C 121.493 382.487,121.983 382.713,122.489 382.713 C 122.995 382.713,123.409 382.922,123.409 383.178 C 123.409 383.434,123.712 383.527,124.081 383.386 C 124.451 383.244,124.895 383.359,125.070 383.641 C 125.244 383.923,125.806 384.154,126.319 384.154 C 126.831 384.154,127.251 384.370,127.251 384.634 C 127.251 384.898,127.791 385.114,128.451 385.114 C 129.112 385.114,129.652 385.345,129.652 385.627 C 129.652 385.921,130.061 386.009,130.612 385.834 C 131.163 385.659,131.573 385.748,131.573 386.042 C 131.573 386.324,132.113 386.555,132.773 386.555 C 133.433 386.555,133.974 386.771,133.974 387.035 C 133.974 387.299,134.514 387.515,135.174 387.515 C 135.834 387.515,136.375 387.755,136.375 388.047 C 136.375 388.375,136.835 388.464,137.575 388.278 C 138.267 388.104,138.776 388.184,138.776 388.466 C 138.776 388.735,139.437 388.956,140.244 388.956 C 141.101 388.956,141.590 389.156,141.417 389.436 C 141.240 389.722,141.821 389.916,142.857 389.916 C 144.049 389.916,144.487 390.090,144.251 390.471 C 144.006 390.868,144.340 390.940,145.424 390.723 C 146.295 390.549,146.939 390.619,146.939 390.888 C 146.939 391.146,147.695 391.357,148.619 391.357 C 149.544 391.357,150.300 391.573,150.300 391.837 C 150.300 392.101,151.056 392.317,151.981 392.317 C 152.905 392.317,153.661 392.540,153.661 392.812 C 153.661 393.085,154.456 393.254,155.428 393.188 C 156.502 393.116,157.272 393.304,157.393 393.667 C 157.528 394.072,158.119 394.166,159.228 393.958 C 160.292 393.758,160.864 393.837,160.864 394.184 C 160.864 394.504,161.824 394.718,163.265 394.718 C 164.616 394.718,165.666 394.938,165.666 395.220 C 165.666 395.513,166.581 395.675,167.862 395.609 C 169.269 395.536,170.199 395.723,170.450 396.129 C 170.745 396.607,171.608 396.680,173.967 396.427 C 176.016 396.208,177.203 396.269,177.411 396.606 C 177.597 396.908,179.493 397.119,182.021 397.119 C 184.563 397.119,186.315 397.315,186.315 397.599 C 186.315 397.907,190.956 398.079,199.280 398.079 C 207.603 398.079,212.245 397.907,212.245 397.599 C 212.245 397.313,214.086 397.119,216.807 397.119 C 219.808 397.119,221.369 396.938,221.369 396.590 C 221.369 396.223,222.398 396.164,224.730 396.399 C 227.061 396.633,228.091 396.574,228.091 396.207 C 228.091 395.893,229.064 395.678,230.492 395.678 C 231.813 395.678,232.893 395.462,232.893 395.198 C 232.893 394.934,233.974 394.718,235.294 394.718 C 236.704 394.718,237.695 394.502,237.695 394.195 C 237.695 393.855,238.342 393.782,239.552 393.987 C 240.925 394.219,241.477 394.125,241.669 393.626 C 241.842 393.175,242.421 393.023,243.413 393.168 C 244.314 393.301,244.898 393.176,244.898 392.852 C 244.898 392.558,245.654 392.317,246.579 392.317 C 247.503 392.317,248.259 392.101,248.259 391.837 C 248.259 391.573,248.895 391.357,249.672 391.357 C 250.448 391.357,251.195 391.176,251.331 390.956 C 251.467 390.736,252.236 390.653,253.040 390.771 C 253.922 390.900,254.502 390.773,254.502 390.451 C 254.502 390.157,255.042 389.916,255.702 389.916 C 256.363 389.916,256.903 389.700,256.903 389.436 C 256.903 389.172,257.551 388.956,258.343 388.956 C 259.136 388.956,259.784 388.735,259.784 388.466 C 259.784 388.184,260.292 388.104,260.984 388.278 C 261.724 388.464,262.185 388.375,262.185 388.047 C 262.185 387.755,262.725 387.515,263.385 387.515 C 264.046 387.515,264.586 387.299,264.586 387.035 C 264.586 386.771,265.126 386.555,265.786 386.555 C 266.447 386.555,266.987 386.324,266.987 386.042 C 266.987 385.748,267.396 385.659,267.947 385.834 C 268.498 386.009,268.908 385.921,268.908 385.627 C 268.908 385.345,269.448 385.114,270.108 385.114 C 270.768 385.114,271.309 384.898,271.309 384.634 C 271.309 384.370,271.741 384.154,272.269 384.154 C 272.797 384.154,273.229 383.912,273.229 383.617 C 273.229 383.318,273.653 383.192,274.190 383.332 C 274.718 383.471,275.150 383.388,275.150 383.148 C 275.150 382.909,275.690 382.713,276.351 382.713 C 277.011 382.713,277.551 382.497,277.551 382.233 C 277.551 381.969,277.875 381.753,278.271 381.753 C 278.667 381.753,278.992 381.511,278.992 381.217 C 278.992 380.917,279.415 380.791,279.952 380.931 C 280.480 381.070,280.912 380.987,280.912 380.747 C 280.912 380.508,281.236 380.312,281.633 380.312 C 282.029 380.312,282.353 380.096,282.353 379.832 C 282.353 379.568,282.785 379.352,283.313 379.352 C 283.842 379.352,284.274 379.155,284.274 378.914 C 284.274 378.673,285.138 378.330,286.194 378.151 C 287.251 377.973,288.115 377.630,288.115 377.389 C 288.115 377.148,288.439 376.951,288.836 376.951 C 289.232 376.951,289.556 376.735,289.556 376.471 C 289.556 376.206,289.973 375.990,290.482 375.990 C 290.991 375.990,291.732 375.666,292.128 375.270 C 292.524 374.874,293.080 374.550,293.363 374.550 C 293.646 374.550,293.878 374.334,293.878 374.070 C 293.878 373.806,294.202 373.589,294.598 373.589 C 294.994 373.589,295.318 373.350,295.318 373.058 C 295.318 372.766,295.642 372.651,296.038 372.803 C 296.435 372.955,296.759 372.870,296.759 372.614 C 296.759 372.358,297.191 372.149,297.719 372.149 C 298.247 372.149,298.679 371.937,298.679 371.678 C 298.679 371.419,299.220 371.071,299.880 370.905 C 300.540 370.740,301.080 370.289,301.080 369.904 C 301.080 369.431,301.381 369.298,302.002 369.496 C 302.651 369.701,303.011 369.513,303.219 368.858 C 303.403 368.277,304.128 367.813,305.151 367.621 C 306.185 367.427,306.899 366.965,307.088 366.370 C 307.253 365.851,307.779 365.426,308.257 365.426 C 308.735 365.426,309.395 365.102,309.724 364.706 C 310.053 364.310,310.521 363.986,310.765 363.986 C 311.009 363.986,311.748 363.445,312.409 362.785 C 313.069 362.125,313.876 361.585,314.202 361.585 C 314.527 361.585,315.097 361.164,315.468 360.650 C 315.838 360.136,316.330 359.832,316.560 359.974 C 317.015 360.255,318.848 358.364,318.848 357.614 C 318.848 357.359,319.280 357.264,319.808 357.402 C 320.336 357.540,320.768 357.467,320.768 357.240 C 320.768 356.643,323.117 354.382,323.737 354.382 C 324.026 354.382,324.908 353.625,325.697 352.701 C 326.487 351.777,327.458 351.020,327.856 351.020 C 328.512 351.020,329.804 349.823,332.573 346.646 C 333.785 345.255,336.505 342.857,336.871 342.857 C 337.535 342.857,342.881 337.657,342.739 337.149 C 342.608 336.677,343.474 335.663,346.400 332.870 C 350.207 329.236,350.540 328.878,350.540 328.421 C 350.540 328.165,351.550 326.988,352.784 325.805 C 354.018 324.623,354.886 323.514,354.713 323.341 C 354.395 323.022,356.160 321.248,356.796 321.248 C 356.987 321.248,357.269 320.618,357.423 319.847 C 357.590 319.014,358.102 318.318,358.684 318.134 C 359.223 317.962,359.664 317.503,359.664 317.112 C 359.664 316.721,360.204 315.900,360.864 315.288 C 361.525 314.676,362.065 313.845,362.065 313.442 C 362.065 313.038,362.389 312.583,362.785 312.431 C 363.181 312.279,363.505 311.731,363.505 311.212 C 363.505 310.691,363.935 310.132,364.466 309.964 C 364.997 309.795,365.426 309.237,365.426 308.716 C 365.426 308.197,365.750 307.649,366.146 307.497 C 366.543 307.345,366.867 306.863,366.867 306.427 C 366.867 305.990,367.293 305.367,367.814 305.042 C 368.369 304.695,368.646 304.151,368.483 303.726 C 368.330 303.327,368.444 303.001,368.736 303.001 C 369.029 303.001,369.268 302.756,369.268 302.457 C 369.268 302.158,369.707 301.532,370.245 301.066 C 370.782 300.600,371.191 300.035,371.153 299.809 C 371.028 299.061,371.774 297.239,372.205 297.239 C 372.438 297.239,372.629 296.915,372.629 296.519 C 372.629 296.122,372.831 295.798,373.077 295.798 C 373.323 295.798,373.676 295.312,373.862 294.718 C 374.047 294.124,374.343 293.529,374.520 293.397 C 375.047 293.002,376.471 289.709,376.471 288.883 C 376.471 288.461,376.687 288.115,376.951 288.115 C 377.215 288.115,377.431 287.791,377.431 287.395 C 377.431 286.999,377.647 286.675,377.911 286.675 C 378.175 286.675,378.391 286.351,378.391 285.954 C 378.391 285.558,378.631 285.234,378.923 285.234 C 379.215 285.234,379.330 284.910,379.178 284.514 C 379.026 284.118,379.111 283.794,379.367 283.794 C 379.623 283.794,379.832 283.361,379.832 282.833 C 379.832 282.305,380.048 281.873,380.312 281.873 C 380.576 281.873,380.792 281.333,380.792 280.672 C 380.792 280.012,381.018 279.472,381.294 279.472 C 381.569 279.472,381.762 279.202,381.722 278.872 C 381.607 277.933,382.299 276.110,382.769 276.110 C 383.002 276.110,383.193 275.570,383.193 274.910 C 383.193 274.250,383.432 273.709,383.725 273.709 C 384.017 273.709,384.132 273.385,383.980 272.989 C 383.828 272.593,383.913 272.269,384.169 272.269 C 384.425 272.269,384.634 271.729,384.634 271.068 C 384.634 270.408,384.850 269.868,385.114 269.868 C 385.378 269.868,385.594 269.436,385.594 268.908 C 385.594 268.379,385.834 267.947,386.126 267.947 C 386.451 267.947,386.544 267.490,386.365 266.776 C 386.203 266.132,386.288 265.471,386.553 265.307 C 386.818 265.143,387.035 264.590,387.035 264.077 C 387.035 263.565,387.251 263.145,387.515 263.145 C 387.779 263.145,387.995 262.605,387.995 261.945 C 387.995 261.285,388.235 260.744,388.527 260.744 C 388.857 260.744,388.944 260.282,388.756 259.533 C 388.545 258.695,388.671 258.238,389.163 258.049 C 389.664 257.857,389.792 257.363,389.595 256.379 C 389.419 255.499,389.516 254.982,389.856 254.982 C 390.153 254.982,390.396 254.442,390.396 253.782 C 390.396 253.121,390.612 252.581,390.876 252.581 C 391.140 252.581,391.357 251.825,391.357 250.900 C 391.357 249.976,391.590 249.220,391.875 249.220 C 392.201 249.220,392.276 248.685,392.077 247.779 C 391.878 246.873,391.953 246.339,392.279 246.339 C 392.564 246.339,392.797 245.595,392.797 244.686 C 392.797 243.777,393.013 242.900,393.277 242.737 C 393.541 242.574,393.758 241.710,393.758 240.816 C 393.758 239.923,393.989 239.049,394.272 238.875 C 394.587 238.679,394.664 237.835,394.469 236.685 C 394.263 235.463,394.335 234.814,394.676 234.814 C 394.989 234.814,395.198 233.756,395.198 232.173 C 395.198 230.720,395.414 229.532,395.678 229.532 C 395.942 229.532,396.158 228.356,396.158 226.919 C 396.158 225.482,396.403 224.155,396.701 223.971 C 397.069 223.744,397.146 222.582,396.941 220.370 C 396.755 218.370,396.824 216.989,397.118 216.807 C 397.808 216.381,397.773 182.637,397.083 182.211 C 396.740 181.998,396.678 180.700,396.899 178.341 C 397.133 175.846,397.072 174.790,396.695 174.790 C 396.355 174.790,396.158 173.648,396.158 171.669 C 396.158 169.908,395.949 168.547,395.678 168.547 C 395.414 168.547,395.198 167.480,395.198 166.175 C 395.198 164.870,394.982 163.668,394.717 163.505 C 394.440 163.334,394.364 162.404,394.538 161.316 C 394.740 160.053,394.661 159.424,394.299 159.424 C 393.987 159.424,393.758 158.608,393.758 157.503 C 393.758 156.447,393.541 155.582,393.277 155.582 C 393.013 155.582,392.797 154.826,392.797 153.902 C 392.797 152.977,392.554 152.221,392.257 152.221 C 391.914 152.221,391.821 151.701,392.001 150.799 C 392.157 150.017,392.076 149.248,391.821 149.090 C 391.566 148.932,391.357 148.167,391.357 147.391 C 391.357 146.614,391.140 145.978,390.876 145.978 C 390.612 145.978,390.396 145.330,390.396 144.538 C 390.396 143.745,390.205 143.097,389.970 143.097 C 389.554 143.097,388.942 140.807,388.911 139.136 C 388.903 138.673,388.693 138.295,388.446 138.295 C 388.198 138.295,387.995 137.647,387.995 136.855 C 387.995 136.062,387.804 135.414,387.570 135.414 C 387.335 135.414,386.998 134.442,386.820 133.253 C 386.642 132.065,386.293 131.092,386.045 131.092 C 385.797 131.092,385.594 130.552,385.594 129.892 C 385.594 129.232,385.397 128.691,385.156 128.691 C 384.915 128.691,384.572 127.827,384.394 126.771 C 384.215 125.714,383.872 124.850,383.631 124.850 C 383.390 124.850,383.193 124.310,383.193 123.649 C 383.193 122.989,383.001 122.449,382.765 122.449 C 382.294 122.449,381.538 120.159,381.696 119.208 C 381.750 118.878,381.569 118.607,381.294 118.607 C 381.018 118.607,380.792 118.283,380.792 117.887 C 380.792 117.491,380.576 117.167,380.312 117.167 C 380.048 117.167,379.832 116.735,379.832 116.206 C 379.832 115.678,379.593 115.246,379.300 115.246 C 379.008 115.246,378.893 114.922,379.045 114.526 C 379.197 114.130,379.112 113.806,378.856 113.806 C 378.601 113.806,378.391 113.373,378.391 112.845 C 378.391 112.317,378.175 111.885,377.911 111.885 C 377.647 111.885,377.431 111.561,377.431 111.164 C 377.431 110.768,377.225 110.444,376.973 110.444 C 376.720 110.444,376.372 109.688,376.199 108.764 C 376.025 107.839,375.691 107.083,375.457 107.083 C 375.222 107.083,375.030 106.759,375.030 106.363 C 375.030 105.966,374.839 105.642,374.606 105.642 C 374.122 105.642,373.443 103.804,373.569 102.833 C 373.616 102.476,373.423 102.327,373.141 102.501 C 372.831 102.693,372.629 102.347,372.629 101.621 C 372.629 100.857,372.291 100.318,371.693 100.128 C 371.127 99.948,370.863 99.556,371.024 99.135 C 371.171 98.752,371.052 98.439,370.760 98.439 C 370.467 98.439,370.228 98.055,370.228 97.585 C 370.228 97.115,369.816 96.433,369.311 96.070 C 368.807 95.706,368.506 95.119,368.642 94.763 C 368.789 94.382,368.563 94.118,368.090 94.118 C 367.650 94.118,367.431 93.890,367.603 93.612 C 367.775 93.334,367.443 92.697,366.867 92.197 C 366.290 91.697,365.954 91.067,366.121 90.797 C 366.288 90.528,365.983 90.032,365.445 89.696 C 364.906 89.360,364.466 88.719,364.466 88.272 C 364.466 87.825,364.025 87.320,363.485 87.148 C 362.802 86.932,362.590 86.570,362.785 85.954 C 362.979 85.344,362.771 84.978,362.109 84.768 C 361.584 84.601,361.004 83.990,360.820 83.409 C 360.637 82.828,360.086 82.003,359.595 81.576 C 359.105 81.149,358.703 80.455,358.703 80.033 C 358.703 79.611,358.222 79.008,357.633 78.693 C 355.971 77.803,355.318 76.971,355.635 76.146 C 355.795 75.730,355.696 75.390,355.415 75.390 C 354.769 75.390,352.461 73.105,352.461 72.464 C 352.461 72.200,351.381 70.903,350.060 69.582 C 348.739 68.262,347.659 66.969,347.659 66.709 C 347.659 66.041,332.272 50.761,331.937 51.096 C 331.785 51.248,330.744 50.402,329.623 49.216 C 328.503 48.029,327.336 47.059,327.030 47.059 C 326.724 47.059,326.593 46.866,326.739 46.630 C 326.885 46.394,326.480 46.069,325.839 45.908 C 325.198 45.748,324.537 45.185,324.370 44.658 C 324.202 44.131,323.488 43.555,322.782 43.378 C 321.336 43.015,320.697 42.477,319.867 40.926 C 319.552 40.338,318.921 39.856,318.464 39.856 C 318.008 39.856,317.229 39.316,316.733 38.655 C 316.238 37.995,315.445 37.455,314.971 37.455 C 314.498 37.455,313.970 37.014,313.799 36.475 C 313.593 35.826,313.212 35.582,312.672 35.753 C 312.183 35.908,311.578 35.627,311.164 35.053 C 310.783 34.525,310.196 34.094,309.858 34.094 C 309.520 34.094,309.244 33.892,309.244 33.646 C 309.244 33.399,308.758 33.044,308.163 32.857 C 307.569 32.669,306.759 32.148,306.363 31.699 C 305.966 31.250,305.390 30.969,305.083 31.074 C 304.775 31.179,304.382 30.821,304.210 30.279 C 304.004 29.631,303.486 29.292,302.700 29.292 C 302.025 29.292,301.633 29.083,301.801 28.812 C 301.964 28.547,301.676 28.331,301.160 28.331 C 300.645 28.331,300.093 27.994,299.935 27.581 C 299.776 27.168,299.446 26.954,299.202 27.105 C 298.957 27.256,298.431 27.054,298.032 26.655 C 297.634 26.256,297.185 25.930,297.036 25.930 C 296.369 25.930,292.917 24.226,292.917 23.896 C 292.917 23.695,292.593 23.529,292.197 23.529 C 291.801 23.529,291.477 23.323,291.477 23.071 C 291.477 22.819,290.720 22.471,289.796 22.297 C 288.872 22.124,288.115 21.790,288.115 21.555 C 288.115 21.320,287.791 21.128,287.395 21.128 C 286.999 21.128,286.675 20.930,286.675 20.686 C 286.675 20.443,285.972 20.092,285.114 19.906 C 284.256 19.720,283.445 19.432,283.313 19.267 C 282.766 18.584,280.840 17.755,280.413 18.019 C 280.159 18.176,279.952 17.954,279.952 17.527 C 279.952 17.100,279.731 16.887,279.461 17.054 C 278.907 17.396,276.110 16.290,276.110 15.729 C 276.110 15.529,275.678 15.366,275.150 15.366 C 274.622 15.366,274.190 15.146,274.190 14.877 C 274.190 14.595,273.681 14.515,272.989 14.689 C 272.250 14.874,271.789 14.786,271.789 14.458 C 271.789 14.165,271.357 13.926,270.828 13.926 C 270.300 13.926,269.868 13.709,269.868 13.445 C 269.868 13.181,269.436 12.965,268.908 12.965 C 268.379 12.965,267.947 12.724,267.947 12.429 C 267.947 12.116,267.447 11.988,266.747 12.122 C 266.086 12.249,265.546 12.166,265.546 11.938 C 265.546 11.711,265.114 11.525,264.586 11.525 C 264.058 11.525,263.625 11.309,263.625 11.044 C 263.625 10.780,263.098 10.564,262.453 10.564 C 261.809 10.564,261.157 10.363,261.005 10.118 C 260.853 9.872,259.544 9.523,258.096 9.342 C 256.647 9.161,255.462 8.822,255.462 8.588 C 255.462 8.354,254.922 8.163,254.262 8.163 C 253.601 8.163,253.061 7.923,253.061 7.629 C 253.061 7.306,252.482 7.179,251.600 7.308 C 250.796 7.426,250.027 7.343,249.890 7.123 C 249.754 6.903,248.900 6.723,247.991 6.723 C 247.082 6.723,246.339 6.507,246.339 6.242 C 246.339 5.978,245.582 5.762,244.658 5.762 C 243.733 5.762,242.977 5.546,242.977 5.282 C 242.977 5.018,242.221 4.802,241.297 4.802 C 240.372 4.802,239.616 4.561,239.616 4.267 C 239.616 3.906,238.916 3.837,237.455 4.057 C 236.048 4.268,235.294 4.203,235.294 3.871 C 235.294 3.580,234.266 3.361,232.893 3.361 C 231.534 3.361,230.492 3.142,230.492 2.856 C 230.492 2.551,229.435 2.394,227.811 2.460 C 226.209 2.525,224.994 2.348,224.792 2.021 C 224.589 1.693,223.012 1.464,220.870 1.451 C 218.899 1.439,209.238 1.318,199.400 1.183 C 186.431 1.005,181.513 1.084,181.513 1.472 M209.604 8.162 C 258.705 11.630,301.151 30.682,334.709 64.314 C 347.749 77.382,353.865 85.252,365.092 103.408 C 393.346 149.098,399.157 220.087,378.619 268.667 C 378.284 269.460,377.316 271.837,376.467 273.950 C 373.187 282.114,363.175 301.337,360.816 303.999 C 360.446 304.416,360.144 304.993,360.144 305.280 C 360.144 305.567,359.961 305.874,359.738 305.962 C 359.515 306.050,358.012 308.067,356.400 310.444 C 326.302 354.800,276.082 384.508,219.448 391.458 C 207.418 392.934,178.287 392.074,167.587 389.927 C 166.399 389.688,163.481 389.131,161.104 388.689 C 154.511 387.462,146.414 385.312,136.855 382.250 C 99.380 370.246,61.248 340.871,39.081 306.932 C 37.066 303.846,35.049 300.780,34.600 300.120 C 31.277 295.233,23.311 279.314,20.905 272.749 C 20.178 270.768,19.072 267.851,18.445 266.267 C 16.065 260.243,12.392 247.809,11.070 241.297 C 10.748 239.712,10.299 237.551,10.072 236.495 C 6.984 222.124,5.797 194.326,7.653 179.832 C 12.345 143.188,24.378 112.698,45.082 84.994 C 64.894 58.483,94.393 35.211,122.943 23.570 C 123.860 23.196,125.366 22.572,126.291 22.183 C 136.078 18.063,148.105 14.404,159.664 12.028 C 170.220 9.859,173.283 9.418,184.722 8.422 C 193.740 7.637,201.088 7.560,209.604 8.162 M191.116 11.337 C 179.362 12.068,173.277 12.837,162.785 14.914 C 142.691 18.894,125.510 25.553,105.882 36.970 C 87.467 47.681,67.400 65.947,54.176 84.034 C 51.372 87.869,44.658 97.801,44.658 98.114 C 44.658 98.217,43.616 100.115,42.342 102.332 C 33.366 117.954,26.131 137.525,22.566 155.822 C 22.257 157.407,21.814 159.676,21.581 160.864 C 17.165 183.405,19.250 217.926,26.440 241.297 C 44.013 298.417,88.496 344.195,142.617 360.857 C 164.020 367.446,177.192 369.459,198.800 369.443 C 251.023 369.404,296.730 348.768,333.205 308.764 C 379.006 258.529,390.861 179.070,361.885 116.532 C 360.927 114.465,360.144 112.716,360.144 112.644 C 360.144 112.490,353.589 100.462,352.044 97.782 C 338.728 74.684,315.205 51.448,290.030 36.521 C 268.902 23.994,249.237 17.074,223.049 12.951 C 216.135 11.863,197.671 10.930,191.116 11.337 M225.271 22.766 C 230.725 25.045,232.428 29.263,230.523 35.774 C 229.398 39.618,229.238 39.536,235.250 38.201 C 240.116 37.120,242.090 38.419,237.889 39.938 C 235.400 40.838,235.903 41.602,239.420 42.265 C 251.033 44.456,257.334 38.153,250.165 31.516 C 246.650 28.261,246.640 28.122,249.960 28.512 C 262.259 29.957,263.706 45.349,252.101 51.286 C 245.757 54.531,244.872 57.485,249.875 58.719 C 255.516 60.111,258.162 63.355,253.181 62.772 C 249.295 62.318,248.110 62.758,248.463 64.525 C 248.826 66.339,252.479 70.191,255.462 71.905 C 257.838 73.270,260.264 75.333,260.264 75.989 C 260.264 76.220,258.752 76.260,256.903 76.077 C 253.108 75.704,253.098 75.716,254.495 78.975 C 255.697 81.781,257.611 84.568,260.440 87.635 C 262.968 90.375,263.199 91.236,261.409 91.236 C 260.329 91.236,260.198 91.389,260.479 92.317 C 261.234 94.816,261.753 101.873,261.487 106.028 C 260.509 121.332,254.556 130.527,233.985 148.503 L 231.957 150.276 229.904 149.397 C 224.047 146.887,216.999 146.033,213.770 147.442 C 212.247 148.108,212.368 148.132,216.450 147.974 C 221.143 147.794,225.283 148.741,229.733 151.014 C 232.806 152.584,232.361 152.713,236.883 148.940 C 258.124 131.220,288.796 115.928,321.008 106.997 C 322.065 106.704,323.855 106.171,324.987 105.813 C 329.228 104.471,329.168 105.194,324.850 107.461 C 318.931 110.567,314.976 113.356,310.772 117.387 C 301.876 125.915,308.104 128.578,337.335 128.743 C 343.145 128.776,347.467 128.899,346.939 129.016 C 339.737 130.614,331.984 134.646,328.344 138.687 C 322.559 145.108,328.270 149.375,349.100 154.197 C 351.345 154.717,354.132 155.422,355.295 155.765 L 357.408 156.388 352.375 156.696 C 339.366 157.492,326.524 165.767,327.639 172.635 C 328.550 178.251,337.105 186.150,349.271 192.609 C 353.434 194.819,353.752 195.566,350.057 194.453 C 340.430 191.554,324.746 197.385,323.245 204.420 C 322.119 209.700,324.796 218.260,330.097 226.331 C 332.670 230.249,332.526 230.291,328.770 226.713 C 302.721 201.906,264.262 192.131,233.050 202.385 C 228.437 203.900,224.727 206.099,224.736 207.312 C 224.753 209.954,226.213 213.351,228.351 215.728 C 230.853 218.508,233.692 222.617,234.905 225.210 C 239.729 235.531,241.416 241.076,242.936 251.621 C 245.950 272.519,247.952 277.590,256.153 285.099 C 272.752 300.298,302.102 297.004,305.386 279.574 C 307.051 270.737,300.080 263.971,285.478 260.248 C 276.123 257.863,271.117 254.559,267.128 248.136 C 265.479 245.481,264.718 243.893,263.081 239.688 C 256.232 222.092,276.337 204.377,293.710 212.700 C 307.648 219.378,308.089 241.531,294.277 241.213 C 288.319 241.076,285.641 238.889,291.437 238.893 C 296.361 238.897,298.679 236.425,298.679 231.172 C 298.679 216.584,278.371 212.190,273.504 225.725 C 270.118 235.140,277.672 245.262,290.830 248.939 C 304.344 252.715,307.593 254.316,313.337 260.024 C 327.732 274.330,322.723 296.138,301.539 311.391 C 280.463 326.565,251.492 323.763,233.579 304.816 C 230.642 301.710,226.553 296.227,226.052 294.722 C 225.651 293.519,224.729 295.033,224.723 296.907 C 224.692 305.311,218.389 319.505,210.664 328.569 C 193.935 348.196,159.955 353.356,140.630 339.203 C 133.713 334.137,128.639 325.726,125.165 313.565 C 122.989 305.945,122.847 298.311,124.658 286.165 C 128.899 257.709,113.988 241.683,89.581 248.467 C 72.252 253.284,62.994 266.595,68.956 278.124 C 73.037 286.017,84.528 285.515,87.663 277.306 C 88.751 274.456,89.318 274.581,89.308 277.671 C 89.275 288.050,75.123 291.658,66.930 283.376 C 55.408 271.729,63.607 249.923,82.488 241.997 C 112.133 229.553,142.233 250.472,139.238 281.436 C 136.674 307.950,143.713 320.312,161.825 321.104 C 174.194 321.645,183.030 317.073,187.589 307.771 C 196.497 289.594,187.064 266.162,165.597 253.146 C 160.944 250.325,154.040 241.169,149.763 232.145 C 147.262 226.870,147.145 226.106,148.980 227.036 C 149.574 227.337,151.771 228.350,153.862 229.287 L 157.665 230.991 156.383 232.329 C 154.640 234.148,154.758 234.603,157.216 235.542 C 159.475 236.404,163.185 236.345,166.025 235.400 C 167.798 234.811,167.668 235.644,165.711 237.415 C 162.652 240.183,169.406 241.082,176.305 238.826 C 179.170 237.889,179.449 238.061,177.852 239.783 C 175.484 242.337,177.935 243.107,185.114 242.064 L 187.515 241.715 184.760 241.331 C 183.245 241.120,181.246 241.090,180.318 241.264 C 178.265 241.649,178.261 241.609,180.129 238.960 C 182.169 236.066,181.809 235.508,178.872 237.010 C 176.902 238.016,175.543 238.287,171.309 238.518 C 165.393 238.840,165.219 238.687,168.307 235.876 C 171.021 233.406,171.268 232.399,168.930 233.334 C 165.002 234.905,162.021 235.678,160.722 235.461 C 155.993 234.673,155.679 234.352,157.743 232.413 C 159.454 230.806,159.265 230.327,156.423 229.059 C 155.036 228.441,152.821 227.451,151.501 226.859 C 147.436 225.038,145.992 224.689,144.916 225.265 C 144.352 225.567,143.068 225.651,141.842 225.467 C 139.933 225.181,139.736 225.244,139.736 226.141 C 139.736 227.388,138.965 227.422,138.312 226.202 C 137.225 224.170,138.335 220.904,140.123 220.875 C 141.761 220.849,144.030 218.369,143.735 216.927 C 143.559 216.062,143.160 215.606,142.582 215.606 C 142.095 215.606,141.094 214.850,140.357 213.926 C 138.770 211.937,137.957 211.808,137.335 213.445 C 136.814 214.814,136.133 214.999,135.706 213.886 C 134.575 210.939,136.539 207.720,139.401 207.827 C 140.357 207.863,141.268 207.683,141.426 207.428 C 141.868 206.713,144.349 206.876,145.001 207.663 C 145.597 208.381,148.159 208.214,149.055 207.400 C 149.633 206.875,148.599 205.673,146.346 204.250 C 145.046 203.430,144.538 202.774,144.538 201.915 C 144.538 200.650,141.162 200.059,140.456 201.200 C 139.929 202.054,139.256 201.710,139.256 200.587 C 139.256 197.134,144.964 194.514,148.063 196.545 C 148.747 196.992,149.857 197.359,150.530 197.359 C 151.246 197.359,152.825 198.206,154.332 199.400 C 167.952 210.185,174.509 213.205,181.328 211.836 C 188.407 210.414,189.573 202.052,183.949 193.037 C 178.401 184.144,182.211 172.407,192.518 166.639 C 194.286 165.650,192.369 165.612,190.451 166.599 C 183.960 169.937,180.065 176.542,180.079 184.188 C 180.086 188.194,180.976 191.631,182.433 193.277 C 185.615 196.875,186.368 200.142,185.341 205.891 C 184.571 210.196,183.967 210.576,177.958 210.534 C 172.597 210.496,160.107 203.907,156.543 199.236 C 155.779 198.235,152.376 196.399,151.285 196.399 C 150.580 196.399,149.584 196.081,149.071 195.694 C 148.559 195.306,147.094 194.982,145.816 194.973 L 143.492 194.958 143.739 192.197 C 144.204 187.006,145.355 181.347,146.448 178.872 C 146.681 178.343,147.129 177.047,147.442 175.990 C 148.021 174.041,148.153 173.717,150.733 167.917 C 156.535 154.872,170.901 136.846,178.635 132.906 C 179.297 132.569,181.808 131.159,184.214 129.772 C 186.620 128.386,190.948 126.413,193.831 125.389 C 196.715 124.365,200.100 123.060,201.353 122.489 C 202.606 121.918,203.833 121.575,204.079 121.727 C 204.671 122.093,216.746 117.879,219.244 116.435 C 235.092 107.273,239.869 91.860,230.183 81.139 C 224.370 74.705,213.939 75.944,201.107 84.592 C 198.379 86.430,198.360 86.435,193.424 86.445 C 190.702 86.450,187.071 86.757,185.354 87.126 C 182.632 87.711,181.803 87.703,178.872 87.064 C 174.241 86.055,174.175 85.887,177.202 82.822 C 179.655 80.338,179.773 80.112,179.137 79.104 C 176.495 74.912,176.608 73.668,179.372 76.514 C 181.366 78.567,181.780 78.638,183.316 77.195 C 183.946 76.604,186.553 74.698,189.110 72.960 C 196.739 67.773,195.830 65.257,186.788 66.536 C 173.141 68.465,163.369 65.941,160.190 59.664 C 159.321 57.949,159.337 57.939,161.985 58.553 C 163.750 58.963,163.935 58.883,166.399 56.652 C 169.198 54.117,171.029 53.386,175.643 52.964 C 179.137 52.644,179.412 52.395,178.411 50.458 C 174.103 42.127,189.260 34.953,209.709 35.643 C 216.336 35.867,216.610 35.837,219.049 34.618 C 225.149 31.570,224.299 26.313,217.527 25.213 C 214.635 24.743,213.901 24.339,214.736 23.678 C 216.728 22.099,222.483 21.600,225.271 22.766 M202.827 48.944 C 200.647 49.880,198.595 53.769,199.699 54.873 C 200.098 55.272,200.240 55.273,200.240 54.875 C 200.240 53.845,203.182 51.401,205.018 50.907 C 207.573 50.219,211.118 51.041,215.690 53.383 C 219.809 55.493,221.994 56.008,223.770 55.289 C 224.881 54.839,224.827 54.800,223.049 54.771 C 221.821 54.750,219.916 54.107,217.767 52.986 C 215.918 52.022,213.342 50.680,212.041 50.004 C 209.509 48.687,204.712 48.136,202.827 48.944 M204.082 52.747 C 204.082 52.971,204.426 53.843,204.846 54.686 C 205.267 55.529,205.482 56.555,205.325 56.964 C 204.886 58.109,205.458 58.651,206.512 58.088 C 207.674 57.466,207.720 55.599,206.619 53.736 C 205.869 52.466,204.082 51.770,204.082 52.747 M211.435 56.313 C 210.692 56.883,209.976 57.489,209.844 57.660 C 208.436 59.476,205.021 59.906,202.818 58.544 C 200.961 57.397,200.673 57.920,202.312 59.460 C 204.501 61.517,208.540 60.730,212.078 57.557 C 214.303 55.562,213.767 54.523,211.435 56.313 M100.693 60.443 C 102.064 60.948,104.548 62.195,106.213 63.214 C 109.676 65.333,113.289 66.666,115.726 66.722 C 119.093 66.801,119.258 67.764,116.071 68.733 C 109.776 70.649,105.585 70.035,97.213 65.970 C 91.157 63.030,88.666 62.524,85.326 63.555 C 82.022 64.576,82.395 63.163,85.930 61.265 C 90.477 58.824,95.535 58.543,100.693 60.443 M190.876 61.919 C 189.820 62.134,187.767 62.574,186.315 62.897 C 184.862 63.220,182.377 63.744,180.792 64.061 C 178.411 64.538,178.104 64.703,179.019 65.013 C 179.629 65.220,181.142 65.165,182.381 64.892 C 194.838 62.145,200.111 62.683,203.432 67.036 C 206.577 71.160,205.119 74.656,198.307 79.326 L 197.119 80.140 198.559 79.733 C 213.317 75.562,206.098 58.824,190.876 61.919 M148.739 66.032 C 150.844 66.431,154.164 67.304,156.115 67.970 C 159.346 69.073,160.287 69.173,166.627 69.080 C 172.096 69.000,174.180 69.157,176.342 69.815 C 178.882 70.587,180.406 71.549,179.090 71.549 C 177.974 71.549,173.549 74.053,171.909 75.613 C 169.822 77.598,166.249 79.392,162.785 80.193 C 156.151 81.728,153.436 83.203,148.619 87.890 C 144.632 91.770,139.814 94.358,132.164 96.730 C 123.714 99.349,122.567 99.535,113.877 99.707 C 99.913 99.983,98.482 100.720,85.954 114.083 C 82.400 117.874,78.804 119.976,73.771 121.204 C 71.956 121.647,69.645 122.430,68.635 122.946 C 63.583 125.523,67.817 119.356,73.469 115.905 C 78.610 112.766,80.171 110.953,82.074 105.913 C 83.742 101.493,85.682 98.723,88.896 96.172 C 91.200 94.343,102.000 88.836,103.282 88.836 C 103.723 88.836,104.320 88.551,104.609 88.203 C 106.427 86.012,96.888 89.159,92.320 92.257 C 87.402 95.593,84.266 96.337,78.130 95.627 C 74.213 95.174,73.149 95.199,71.767 95.776 C 70.855 96.158,70.108 96.282,70.108 96.053 C 70.108 94.241,71.910 93.007,75.390 92.436 C 80.099 91.665,82.594 90.312,86.524 86.404 C 91.085 81.867,95.163 79.579,97.591 80.195 C 111.756 83.788,132.148 83.520,139.856 79.639 C 142.083 78.518,142.238 77.677,140.096 78.343 C 134.924 79.950,133.331 80.356,129.652 81.002 C 125.346 81.759,115.775 81.620,109.484 80.710 C 107.767 80.462,104.451 80.023,102.115 79.735 C 99.779 79.447,96.537 78.763,94.912 78.215 C 89.913 76.530,86.366 76.995,79.992 80.171 C 73.537 83.388,70.540 83.828,67.189 82.050 L 65.066 80.924 68.908 80.652 C 73.796 80.306,74.981 79.651,79.229 74.945 C 84.530 69.074,89.422 68.021,99.640 70.551 C 105.154 71.916,112.186 72.336,117.029 71.590 C 123.961 70.522,130.093 69.108,134.085 67.658 C 141.160 65.089,142.806 64.907,148.739 66.032 M186.578 78.391 C 187.511 81.463,189.923 83.237,191.597 82.081 C 192.220 81.650,192.193 81.506,191.395 81.008 C 190.887 80.691,189.673 79.730,188.695 78.872 C 186.600 77.031,186.133 76.925,186.578 78.391 M287.395 87.518 C 279.672 93.986,271.789 104.061,271.789 107.463 C 271.789 111.032,278.941 111.821,290.036 109.476 C 298.326 107.724,304.190 106.372,307.083 105.547 C 312.539 103.990,313.145 103.938,311.164 105.192 C 310.240 105.777,307.897 107.297,305.958 108.569 C 304.019 109.841,301.210 111.224,299.716 111.642 C 296.310 112.595,290.472 114.867,285.474 117.186 C 283.361 118.166,280.336 119.553,278.752 120.269 C 277.167 120.986,275.114 121.920,274.190 122.346 C 273.265 122.772,270.672 124.235,268.427 125.596 C 260.885 130.169,252.828 134.870,251.974 135.198 C 251.508 135.376,252.644 133.499,254.498 131.026 C 260.413 123.141,263.625 114.110,263.625 105.371 L 263.625 100.354 267.052 98.158 C 268.936 96.950,273.420 94.276,277.016 92.216 C 289.878 84.848,291.413 84.153,287.395 87.518 M143.577 94.050 C 143.577 94.550,140.064 98.649,138.061 100.486 C 134.364 103.877,121.301 109.613,112.125 111.876 C 104.272 113.812,101.224 115.849,98.852 120.746 C 96.484 125.633,93.136 128.284,88.172 129.202 C 84.023 129.969,83.025 129.450,85.375 127.748 C 87.928 125.898,90.050 123.225,91.676 119.808 C 97.705 107.143,97.969 106.669,99.923 104.997 C 102.565 102.735,105.497 101.801,109.949 101.801 C 120.151 101.801,137.407 97.791,141.930 94.369 C 142.991 93.567,143.577 93.453,143.577 94.050 M129.907 107.058 C 129.630 107.507,120.976 112.944,116.631 115.399 C 113.494 117.172,109.843 121.371,107.465 125.942 C 104.322 131.984,100.673 135.229,98.123 134.251 C 97.460 133.996,97.624 133.669,99.081 132.334 C 100.802 130.757,101.724 129.009,105.431 120.288 C 107.792 114.735,107.379 115.155,111.990 113.610 C 114.177 112.878,116.399 112.104,116.927 111.890 C 117.455 111.676,118.643 111.230,119.568 110.898 C 120.492 110.566,122.415 109.776,123.841 109.142 C 125.268 108.509,127.050 107.867,127.803 107.717 C 128.556 107.566,129.172 107.254,129.172 107.023 C 129.172 106.792,129.401 106.603,129.680 106.603 C 129.960 106.603,130.062 106.808,129.907 107.058 M129.541 111.339 C 128.905 112.095,128.004 113.985,127.538 115.540 C 124.669 125.133,121.629 129.556,115.246 133.430 C 112.617 135.026,112.226 134.645,114.044 132.262 C 114.965 131.056,116.056 128.841,116.469 127.340 C 119.187 117.467,121.040 114.559,126.642 111.370 C 129.886 109.524,131.079 109.511,129.541 111.339 M127.620 138.295 C 128.192 138.828,129.315 139.256,130.140 139.256 C 131.294 139.256,132.073 139.744,133.604 141.426 C 134.691 142.620,136.624 144.239,137.901 145.025 L 140.222 146.453 138.354 148.321 C 134.967 151.708,134.433 155.664,137.539 154.366 C 139.727 153.451,140.290 153.477,140.117 154.484 C 139.930 155.576,141.197 155.794,142.386 154.876 C 143.878 153.724,141.683 152.026,139.143 152.367 C 137.041 152.649,136.960 152.455,138.418 150.635 C 139.637 149.113,144.816 146.810,146.102 147.218 C 147.293 147.596,148.458 150.058,148.108 151.455 C 147.789 152.726,149.240 154.622,150.530 154.622 C 152.672 154.622,155.153 156.171,154.379 157.026 C 153.960 157.489,153.229 158.597,152.757 159.486 C 152.284 160.376,151.144 162.509,150.225 164.226 C 149.305 165.942,147.962 169.184,147.239 171.429 C 144.341 180.439,144.325 180.457,140.515 178.865 C 138.506 178.026,138.431 177.759,139.736 176.099 C 140.552 175.062,141.005 173.830,140.569 173.830 C 139.685 173.830,134.333 171.400,130.687 169.343 C 125.946 166.668,118.067 165.127,117.521 166.766 C 117.234 167.625,116.206 166.638,116.206 165.505 C 116.206 163.946,117.537 162.305,118.800 162.305 C 119.405 162.305,120.268 161.898,120.718 161.400 C 121.169 160.902,122.189 160.364,122.985 160.205 C 125.575 159.687,124.823 156.875,121.994 156.498 C 120.819 156.341,119.770 155.948,119.662 155.625 C 119.554 155.302,118.981 154.473,118.388 153.784 L 117.309 152.530 116.188 153.819 C 114.830 155.382,114.246 154.765,114.792 152.345 C 115.292 150.130,116.266 149.208,118.221 149.098 C 119.094 149.049,120.414 148.841,121.155 148.636 C 122.205 148.344,122.741 148.487,123.587 149.281 C 124.863 150.480,127.023 150.625,127.440 149.541 C 128.058 147.930,127.691 146.900,126.170 145.979 C 125.220 145.403,124.516 144.530,124.370 143.745 C 124.059 142.080,121.925 141.261,120.241 142.162 C 118.715 142.979,118.223 142.386,119.113 140.800 C 120.866 137.677,125.494 136.314,127.620 138.295 M296.759 143.608 C 296.098 143.833,293.830 144.441,291.717 144.960 C 278.217 148.273,263.047 153.230,248.980 158.925 C 237.183 163.701,232.285 166.434,241.569 163.060 C 244.060 162.155,249.016 160.353,252.581 159.055 C 263.923 154.929,282.099 148.899,288.355 147.187 C 289.940 146.754,291.669 146.221,292.197 146.003 C 292.725 145.786,294.130 145.342,295.318 145.018 C 296.507 144.694,297.911 144.253,298.439 144.038 C 298.968 143.823,299.724 143.541,300.120 143.410 C 300.516 143.280,300.192 143.179,299.400 143.186 C 298.607 143.193,297.419 143.383,296.759 143.608 M295.798 160.656 C 284.752 161.896,281.989 162.270,275.150 163.455 C 266.221 165.001,263.563 165.510,260.024 166.352 C 258.439 166.729,255.198 167.492,252.821 168.046 C 247.935 169.185,246.214 169.643,242.617 170.758 C 236.714 172.588,241.609 171.952,252.341 169.495 C 254.439 169.015,273.161 165.471,277.791 164.677 C 279.376 164.406,281.753 163.988,283.073 163.748 C 284.394 163.509,287.959 162.973,290.996 162.557 C 294.034 162.142,297.562 161.591,298.836 161.333 C 300.111 161.075,301.798 160.864,302.586 160.864 C 303.419 160.864,303.894 160.663,303.721 160.384 C 303.376 159.826,303.108 159.835,295.798 160.656 M244.418 180.495 L 238.415 180.792 244.658 181.146 C 248.091 181.340,255.546 181.617,261.224 181.761 C 272.579 182.049,283.434 182.651,296.271 183.705 C 300.889 184.084,305.427 184.367,306.355 184.334 C 310.877 184.173,297.379 182.312,282.353 181.025 C 275.363 180.426,252.312 180.104,244.418 180.495 M215.896 203.001 C 214.376 208.239,214.101 209.127,213.705 210.084 C 213.486 210.612,212.926 212.125,212.461 213.445 C 211.996 214.766,210.676 217.840,209.529 220.277 C 208.381 222.714,206.792 226.344,205.997 228.344 C 204.013 233.339,203.493 234.004,200.601 235.239 C 199.214 235.832,197.704 236.519,197.245 236.766 C 196.787 237.013,196.139 237.215,195.805 237.216 C 195.471 237.217,193.926 238.081,192.372 239.137 C 190.818 240.193,189.347 241.056,189.103 241.056 C 188.858 241.056,188.784 241.260,188.938 241.508 C 189.244 242.003,192.045 240.976,193.998 239.653 C 194.658 239.206,196.711 238.236,198.559 237.498 C 205.736 234.632,205.156 235.259,208.674 226.559 C 210.846 221.185,211.225 220.295,213.129 216.086 C 214.373 213.338,217.527 202.313,217.527 200.713 C 217.527 199.293,216.592 200.604,215.896 203.001 " stroke="none" fill="#000000" fill-rule="evenodd"></path></g></svg>