<svg id="svg" xmlns="http://www.w3.org/2000/svg" xmlns:xlink="http://www.w3.org/1999/xlink" width="400" height="400" viewBox="0, 0, 400,400"><g id="svgg"><path id="path0" d="M181.993 2.456 C 181.993 2.690,180.372 2.881,178.391 2.881 C 176.311 2.881,174.790 3.084,174.790 3.361 C 174.790 3.632,173.439 3.842,171.697 3.842 C 169.996 3.842,168.483 4.037,168.336 4.276 C 168.188 4.515,167.231 4.598,166.209 4.461 C 165.098 4.312,164.217 4.427,164.020 4.747 C 163.838 5.041,162.837 5.282,161.796 5.282 C 160.756 5.282,159.904 5.473,159.904 5.706 C 159.904 5.939,158.283 6.282,156.303 6.467 C 154.322 6.653,152.701 7.002,152.701 7.244 C 152.701 7.485,151.945 7.683,151.020 7.683 C 150.096 7.683,149.340 7.899,149.340 8.163 C 149.340 8.427,148.704 8.643,147.927 8.643 C 147.151 8.643,146.381 8.860,146.217 9.125 C 146.054 9.390,145.393 9.475,144.748 9.313 C 144.035 9.134,143.577 9.227,143.577 9.552 C 143.577 9.845,142.929 10.084,142.137 10.084 C 141.345 10.084,140.696 10.300,140.696 10.564 C 140.696 10.828,140.169 11.044,139.524 11.044 C 138.879 11.044,138.213 11.269,138.043 11.544 C 137.873 11.819,137.320 11.912,136.814 11.752 C 136.300 11.589,135.894 11.686,135.894 11.972 C 135.894 12.254,135.354 12.485,134.694 12.485 C 134.034 12.485,133.493 12.701,133.493 12.965 C 133.493 13.229,132.953 13.445,132.293 13.445 C 131.633 13.445,131.092 13.687,131.092 13.982 C 131.092 14.281,130.669 14.407,130.132 14.267 C 129.604 14.128,129.172 14.211,129.172 14.451 C 129.172 14.690,128.631 14.886,127.971 14.886 C 127.311 14.886,126.771 15.102,126.771 15.366 C 126.771 15.630,126.339 15.846,125.810 15.846 C 125.282 15.846,124.850 16.043,124.850 16.284 C 124.850 16.525,123.986 16.868,122.929 17.047 C 121.873 17.225,121.008 17.568,121.008 17.809 C 121.008 18.050,120.576 18.247,120.048 18.247 C 119.520 18.247,119.088 18.461,119.088 18.722 C 119.088 18.983,118.223 19.335,117.167 19.503 C 116.110 19.672,115.246 19.999,115.246 20.229 C 115.246 20.460,114.922 20.648,114.526 20.648 C 114.130 20.648,113.806 20.840,113.806 21.075 C 113.806 21.310,113.049 21.644,112.125 21.817 C 111.200 21.990,110.444 22.339,110.444 22.591 C 110.444 22.843,110.012 23.049,109.484 23.049 C 108.956 23.049,108.523 23.240,108.523 23.473 C 108.523 23.933,106.713 24.634,105.799 24.529 C 105.489 24.494,105.096 24.902,104.926 25.437 C 104.756 25.973,104.200 26.411,103.689 26.411 C 103.179 26.411,102.761 26.650,102.761 26.942 C 102.761 27.234,102.437 27.349,102.041 27.197 C 101.616 27.034,101.321 27.192,101.321 27.581 C 101.321 28.005,100.977 28.151,100.360 27.990 C 99.823 27.850,99.400 27.976,99.400 28.275 C 99.400 28.570,99.128 28.812,98.795 28.812 C 98.462 28.812,97.915 29.252,97.579 29.791 C 97.243 30.329,96.747 30.633,96.477 30.467 C 96.208 30.300,95.596 30.616,95.117 31.167 C 94.638 31.719,93.576 32.305,92.756 32.469 C 91.895 32.641,91.144 33.149,90.978 33.671 C 90.821 34.167,90.282 34.574,89.780 34.574 C 89.279 34.574,88.642 34.998,88.365 35.516 C 88.087 36.035,87.560 36.343,87.191 36.202 C 86.795 36.050,86.395 36.342,86.213 36.915 C 86.044 37.449,85.430 38.036,84.849 38.219 C 84.269 38.403,83.444 38.954,83.017 39.444 C 82.590 39.935,81.883 40.336,81.446 40.336 C 81.009 40.336,80.416 40.854,80.127 41.488 C 79.836 42.127,79.040 42.756,78.337 42.902 C 77.640 43.047,76.657 43.796,76.151 44.566 C 75.529 45.512,74.945 45.892,74.350 45.737 C 73.866 45.610,73.469 45.747,73.469 46.042 C 73.469 46.736,69.898 50.420,69.226 50.420 C 68.595 50.420,49.460 69.570,49.460 70.201 C 49.460 70.753,46.126 73.950,45.551 73.950 C 45.324 73.950,45.138 74.366,45.138 74.876 C 45.138 75.824,44.546 76.566,42.857 77.733 C 42.269 78.140,41.990 78.742,42.134 79.294 C 42.263 79.788,42.161 80.192,41.906 80.192 C 41.192 80.192,39.354 81.931,39.702 82.279 C 39.871 82.448,39.574 82.966,39.041 83.430 C 38.508 83.894,37.923 84.749,37.739 85.330 C 37.556 85.910,36.985 86.519,36.470 86.682 C 35.955 86.846,35.534 87.374,35.534 87.856 C 35.534 88.338,35.210 88.857,34.814 89.009 C 34.418 89.161,34.094 89.645,34.094 90.085 C 34.094 90.524,33.627 91.289,33.056 91.783 C 32.486 92.278,32.160 92.824,32.333 92.997 C 32.506 93.170,32.216 93.613,31.690 93.982 C 31.163 94.351,30.732 94.964,30.732 95.345 C 30.732 95.727,30.516 96.038,30.252 96.038 C 29.988 96.038,29.772 96.447,29.772 96.947 C 29.772 97.447,29.448 97.981,29.052 98.133 C 28.655 98.285,28.331 98.848,28.331 99.385 C 28.331 99.921,28.115 100.360,27.851 100.360 C 27.587 100.360,27.371 100.684,27.371 101.080 C 27.371 101.477,27.178 101.801,26.943 101.801 C 26.707 101.801,26.374 102.359,26.203 103.042 C 26.032 103.725,25.471 104.735,24.957 105.287 C 24.442 105.839,23.887 107.009,23.722 107.887 C 23.557 108.765,23.230 109.484,22.996 109.484 C 22.761 109.484,22.569 109.808,22.569 110.204 C 22.569 110.600,22.330 110.924,22.037 110.924 C 21.745 110.924,21.630 111.248,21.782 111.645 C 21.934 112.041,21.849 112.365,21.594 112.365 C 21.338 112.365,21.128 112.797,21.128 113.325 C 21.128 113.854,20.912 114.286,20.648 114.286 C 20.384 114.286,20.168 114.610,20.168 115.006 C 20.168 115.402,19.952 115.726,19.688 115.726 C 19.424 115.726,19.208 116.158,19.208 116.687 C 19.208 117.215,18.979 117.647,18.699 117.647 C 18.419 117.647,18.315 117.848,18.467 118.094 C 18.619 118.340,18.524 118.677,18.255 118.843 C 17.987 119.009,17.767 119.672,17.767 120.316 C 17.767 120.961,17.602 121.489,17.400 121.489 C 16.899 121.489,15.366 125.110,15.366 126.294 C 15.366 126.820,15.150 127.251,14.886 127.251 C 14.622 127.251,14.406 127.683,14.406 128.211 C 14.406 128.739,14.175 129.172,13.893 129.172 C 13.599 129.172,13.511 129.581,13.685 130.132 C 13.860 130.683,13.772 131.092,13.478 131.092 C 13.196 131.092,12.965 131.633,12.965 132.293 C 12.965 132.953,12.749 133.493,12.485 133.493 C 12.221 133.493,12.005 134.034,12.005 134.694 C 12.005 135.354,11.809 135.894,11.570 135.894 C 11.330 135.894,10.986 136.975,10.804 138.295 C 10.623 139.616,10.278 140.696,10.039 140.696 C 9.800 140.696,9.604 141.345,9.604 142.137 C 9.604 142.929,9.363 143.577,9.068 143.577 C 8.763 143.577,8.643 144.004,8.790 144.567 C 8.953 145.191,8.781 145.660,8.325 145.835 C 7.788 146.041,7.679 146.529,7.904 147.726 C 8.091 148.721,8.014 149.340,7.705 149.340 C 7.429 149.340,7.203 150.096,7.203 151.020 C 7.203 151.945,6.987 152.701,6.723 152.701 C 6.459 152.701,6.242 153.337,6.242 154.113 C 6.242 154.890,6.041 155.650,5.794 155.803 C 5.547 155.955,5.467 156.832,5.617 157.752 C 5.792 158.835,5.697 159.424,5.345 159.424 C 5.021 159.424,4.802 160.298,4.802 161.585 C 4.802 162.773,4.586 163.745,4.322 163.745 C 4.058 163.745,3.842 164.718,3.842 165.906 C 3.842 167.201,3.623 168.067,3.295 168.067 C 2.916 168.067,2.844 168.873,3.059 170.708 C 3.255 172.369,3.190 173.349,2.885 173.349 C 2.603 173.349,2.401 174.840,2.401 176.922 C 2.401 178.888,2.185 180.629,1.921 180.792 C 1.648 180.961,1.441 183.349,1.441 186.315 C 1.441 189.280,1.233 191.668,0.960 191.837 C 0.310 192.238,0.310 208.884,0.960 208.884 C 1.254 208.884,1.441 211.124,1.441 214.646 C 1.441 218.167,1.627 220.408,1.921 220.408 C 2.191 220.408,2.401 221.759,2.401 223.501 C 2.401 225.202,2.626 226.733,2.900 226.903 C 3.216 227.098,3.282 228.258,3.079 230.052 C 2.854 232.032,2.921 232.893,3.299 232.893 C 3.622 232.893,3.842 233.769,3.842 235.054 C 3.842 236.242,4.058 237.215,4.322 237.215 C 4.586 237.215,4.802 238.187,4.802 239.376 C 4.802 240.602,5.026 241.537,5.320 241.537 C 5.651 241.537,5.719 242.080,5.509 243.037 C 5.285 244.059,5.381 244.662,5.811 244.928 C 6.183 245.158,6.395 246.022,6.328 247.029 C 6.264 247.970,6.435 248.739,6.708 248.739 C 6.980 248.739,7.203 249.388,7.203 250.180 C 7.203 250.972,7.436 251.621,7.721 251.621 C 8.047 251.621,8.122 252.155,7.923 253.061 C 7.724 253.968,7.799 254.502,8.125 254.502 C 8.410 254.502,8.643 255.150,8.643 255.942 C 8.643 256.735,8.860 257.383,9.124 257.383 C 9.388 257.383,9.604 257.923,9.604 258.583 C 9.604 259.244,9.820 259.784,10.084 259.784 C 10.348 259.784,10.564 260.432,10.564 261.224 C 10.564 262.017,10.750 262.665,10.978 262.665 C 11.205 262.665,11.288 263.205,11.162 263.866 C 11.028 264.566,11.156 265.066,11.469 265.066 C 11.764 265.066,12.005 265.606,12.005 266.267 C 12.005 266.927,12.196 267.467,12.430 267.467 C 12.665 267.467,13.002 268.439,13.180 269.628 C 13.358 270.816,13.707 271.789,13.955 271.789 C 14.203 271.789,14.406 272.080,14.406 272.435 C 14.406 272.791,14.777 273.817,15.230 274.716 C 15.684 275.615,15.995 276.729,15.921 277.191 C 15.847 277.653,16.016 278.031,16.296 278.031 C 16.577 278.031,16.807 278.355,16.807 278.752 C 16.807 279.148,17.023 279.472,17.287 279.472 C 17.551 279.472,17.767 279.904,17.767 280.432 C 17.767 280.960,18.006 281.393,18.299 281.393 C 18.591 281.393,18.709 281.710,18.560 282.097 C 18.411 282.485,18.496 282.930,18.748 283.086 C 19.001 283.242,19.208 283.789,19.208 284.302 C 19.208 284.815,19.424 285.234,19.688 285.234 C 19.952 285.234,20.168 285.666,20.168 286.194 C 20.168 286.723,20.407 287.155,20.700 287.155 C 20.992 287.155,21.103 287.490,20.945 287.900 C 20.781 288.327,20.862 288.520,21.134 288.352 C 21.395 288.191,21.609 288.477,21.609 288.988 C 21.609 289.500,21.930 290.185,22.324 290.512 C 22.717 290.838,22.920 291.297,22.775 291.531 C 22.631 291.765,22.737 291.957,23.012 291.957 C 23.286 291.957,23.647 292.497,23.812 293.157 C 23.978 293.818,24.306 294.358,24.542 294.358 C 24.777 294.358,24.970 294.790,24.970 295.318 C 24.970 295.846,25.186 296.279,25.450 296.279 C 25.714 296.279,25.930 296.603,25.930 296.999 C 25.930 297.395,26.161 297.719,26.443 297.719 C 26.737 297.719,26.826 298.129,26.651 298.679 C 26.476 299.230,26.564 299.640,26.858 299.640 C 27.140 299.640,27.371 299.949,27.371 300.328 C 27.371 300.706,27.812 301.156,28.351 301.327 C 29.053 301.549,29.249 301.901,29.039 302.560 C 28.876 303.076,28.973 303.481,29.259 303.481 C 29.541 303.481,29.772 303.804,29.772 304.198 C 29.772 304.592,30.204 305.184,30.732 305.514 C 31.261 305.843,31.693 306.500,31.693 306.973 C 31.693 307.446,32.017 307.958,32.413 308.110 C 32.809 308.262,33.133 308.687,33.133 309.055 C 33.133 309.423,33.335 309.724,33.581 309.724 C 33.827 309.724,34.182 310.210,34.370 310.804 C 34.558 311.399,35.112 312.234,35.603 312.661 C 36.093 313.089,36.495 313.798,36.495 314.237 C 36.495 314.677,36.819 315.161,37.215 315.313 C 37.611 315.465,37.935 315.913,37.935 316.309 C 37.935 316.705,38.475 317.454,39.136 317.973 C 39.796 318.492,40.336 319.202,40.336 319.550 C 40.336 319.897,41.092 320.785,42.017 321.522 C 42.941 322.259,43.697 323.240,43.697 323.702 C 43.697 324.577,44.319 325.324,46.040 326.517 C 46.600 326.905,47.059 327.489,47.059 327.815 C 47.059 328.141,47.653 328.963,48.379 329.641 C 51.244 332.318,51.861 333.016,51.861 333.580 C 51.861 333.903,53.506 335.774,55.516 337.738 C 57.526 339.702,59.360 341.495,59.590 341.723 C 59.820 341.951,61.311 343.487,62.903 345.138 C 64.495 346.789,66.068 348.139,66.397 348.139 C 67.045 348.139,68.812 349.720,70.348 351.675 C 70.876 352.347,71.664 352.907,72.099 352.919 C 72.534 352.931,73.698 353.908,74.686 355.090 C 75.673 356.272,76.680 357.116,76.922 356.967 C 77.385 356.680,79.232 358.537,79.232 359.290 C 79.232 359.531,79.664 359.591,80.192 359.424 C 80.720 359.256,81.152 359.317,81.152 359.558 C 81.152 360.353,83.012 362.159,83.512 361.850 C 83.782 361.684,84.277 361.988,84.614 362.526 C 84.950 363.065,85.445 363.505,85.715 363.505 C 85.984 363.505,86.787 364.046,87.499 364.706 C 88.211 365.366,88.971 365.906,89.189 365.906 C 89.406 365.906,89.881 366.319,90.245 366.823 C 90.608 367.327,91.196 367.628,91.551 367.492 C 91.906 367.356,92.197 367.483,92.197 367.776 C 92.197 368.068,92.614 368.307,93.125 368.307 C 93.638 368.307,94.192 368.746,94.364 369.288 C 94.587 369.989,94.938 370.185,95.597 369.976 C 96.113 369.812,96.519 369.909,96.519 370.196 C 96.519 370.478,96.763 370.708,97.063 370.708 C 97.362 370.708,97.956 371.086,98.383 371.549 C 98.810 372.011,99.376 372.412,99.640 372.441 C 100.767 372.564,102.281 373.254,102.281 373.645 C 102.281 373.879,102.582 374.070,102.950 374.070 C 103.318 374.070,103.743 374.394,103.895 374.790 C 104.047 375.186,104.610 375.510,105.147 375.510 C 105.683 375.510,106.122 375.726,106.122 375.990 C 106.122 376.255,106.555 376.471,107.083 376.471 C 107.611 376.471,108.043 376.680,108.043 376.936 C 108.043 377.192,108.367 377.276,108.764 377.124 C 109.160 376.972,109.484 377.087,109.484 377.380 C 109.484 377.672,109.916 377.911,110.444 377.911 C 110.972 377.911,111.405 378.127,111.405 378.391 C 111.405 378.655,111.729 378.872,112.125 378.872 C 112.521 378.872,112.845 379.111,112.845 379.403 C 112.845 379.695,113.151 379.817,113.526 379.674 C 113.900 379.530,114.326 379.725,114.473 380.107 C 114.619 380.489,114.907 380.776,115.113 380.745 C 115.844 380.634,117.647 381.392,117.647 381.809 C 117.647 382.042,118.187 382.233,118.848 382.233 C 119.508 382.233,120.048 382.462,120.048 382.741 C 120.048 383.021,120.234 383.135,120.461 382.995 C 120.951 382.692,123.400 383.755,123.406 384.274 C 123.408 384.472,123.950 384.634,124.610 384.634 C 125.270 384.634,125.810 384.843,125.810 385.099 C 125.810 385.355,126.113 385.448,126.482 385.306 C 126.851 385.165,127.296 385.279,127.471 385.562 C 127.645 385.844,128.207 386.074,128.720 386.074 C 129.232 386.074,129.652 386.291,129.652 386.555 C 129.652 386.819,130.192 387.035,130.852 387.035 C 131.513 387.035,132.053 387.265,132.053 387.547 C 132.053 387.834,132.459 387.931,132.973 387.768 C 133.479 387.607,134.032 387.701,134.202 387.976 C 134.371 388.251,134.930 388.475,135.443 388.475 C 135.955 388.475,136.375 388.691,136.375 388.956 C 136.375 389.220,137.023 389.436,137.815 389.436 C 138.607 389.436,139.256 389.636,139.256 389.881 C 139.256 390.127,140.444 390.476,141.897 390.657 C 143.349 390.839,144.538 391.178,144.538 391.412 C 144.538 391.646,145.186 391.837,145.978 391.837 C 146.771 391.837,147.419 392.053,147.419 392.317 C 147.419 392.581,148.067 392.797,148.860 392.797 C 149.652 392.797,150.300 393.023,150.300 393.299 C 150.300 393.613,150.931 393.683,151.981 393.486 C 153.082 393.279,153.661 393.354,153.661 393.704 C 153.661 394.007,154.494 394.238,155.582 394.238 C 156.639 394.238,157.503 394.454,157.503 394.718 C 157.503 394.982,158.475 395.198,159.664 395.198 C 160.852 395.198,161.825 395.424,161.825 395.700 C 161.825 396.010,162.445 396.086,163.450 395.897 C 164.430 395.713,165.205 395.800,165.400 396.115 C 165.577 396.403,166.899 396.639,168.336 396.639 C 169.773 396.639,170.948 396.855,170.948 397.119 C 170.948 397.390,172.309 397.599,174.070 397.599 C 176.081 397.599,177.191 397.793,177.191 398.145 C 177.191 398.538,178.460 398.598,181.708 398.359 C 184.703 398.140,186.331 398.198,186.539 398.534 C 186.969 399.230,213.028 399.234,213.459 398.538 C 213.661 398.210,215.170 398.150,217.809 398.364 C 220.700 398.598,221.849 398.536,221.849 398.145 C 221.849 397.794,222.951 397.599,224.942 397.599 C 226.643 397.599,228.168 397.383,228.331 397.119 C 228.495 396.855,229.804 396.639,231.241 396.639 C 232.803 396.639,233.854 396.429,233.854 396.116 C 233.854 395.773,234.512 395.705,235.774 395.918 C 237.037 396.132,237.695 396.064,237.695 395.720 C 237.695 395.421,238.619 395.198,239.856 395.198 C 241.044 395.198,242.017 394.982,242.017 394.718 C 242.017 394.454,242.652 394.238,243.429 394.238 C 244.206 394.238,244.979 394.015,245.147 393.743 C 245.321 393.462,246.134 393.376,247.029 393.544 C 248.173 393.758,248.679 393.647,248.875 393.137 C 249.051 392.677,249.570 392.517,250.382 392.672 C 251.115 392.812,251.621 392.690,251.621 392.373 C 251.621 392.078,252.269 391.837,253.061 391.837 C 253.854 391.837,254.502 391.642,254.502 391.404 C 254.502 391.166,255.798 390.820,257.383 390.636 C 258.968 390.452,260.264 390.107,260.264 389.869 C 260.264 389.631,260.804 389.436,261.465 389.436 C 262.125 389.436,262.665 389.220,262.665 388.956 C 262.665 388.691,263.205 388.475,263.866 388.475 C 264.526 388.475,265.066 388.245,265.066 387.963 C 265.066 387.669,265.475 387.580,266.026 387.755 C 266.577 387.930,266.987 387.841,266.987 387.547 C 266.987 387.265,267.527 387.035,268.187 387.035 C 268.848 387.035,269.388 386.819,269.388 386.555 C 269.388 386.291,269.928 386.074,270.588 386.074 C 271.248 386.074,271.789 385.844,271.789 385.562 C 271.789 385.268,272.198 385.179,272.749 385.354 C 273.300 385.529,273.709 385.440,273.709 385.146 C 273.709 384.865,274.142 384.634,274.670 384.634 C 275.198 384.634,275.630 384.418,275.630 384.154 C 275.630 383.890,276.062 383.673,276.591 383.673 C 277.119 383.673,277.551 383.443,277.551 383.161 C 277.551 382.867,277.960 382.778,278.511 382.953 C 279.062 383.128,279.472 383.039,279.472 382.745 C 279.472 382.464,279.904 382.233,280.432 382.233 C 280.960 382.233,281.393 382.042,281.393 381.809 C 281.393 381.417,282.906 380.727,284.034 380.604 C 284.298 380.576,284.689 380.278,284.903 379.942 C 285.118 379.606,285.496 379.457,285.744 379.610 C 285.992 379.763,286.194 379.660,286.194 379.380 C 286.194 379.100,286.627 378.872,287.155 378.872 C 287.683 378.872,288.115 378.681,288.115 378.447 C 288.115 377.977,289.938 377.286,290.876 377.400 C 291.206 377.440,291.477 377.248,291.477 376.972 C 291.477 376.696,291.801 376.471,292.197 376.471 C 292.593 376.471,292.917 376.272,292.917 376.029 C 292.917 375.785,293.536 375.451,294.293 375.284 C 295.049 375.118,296.121 374.561,296.674 374.046 C 297.227 373.531,297.904 373.109,298.179 373.109 C 298.454 373.109,298.679 372.870,298.679 372.578 C 298.679 372.285,299.004 372.170,299.400 372.323 C 299.796 372.475,300.120 372.390,300.120 372.134 C 300.120 371.878,300.500 371.669,300.965 371.669 C 301.430 371.669,302.091 371.218,302.435 370.668 C 302.778 370.118,303.337 369.774,303.676 369.904 C 304.015 370.034,304.590 369.728,304.953 369.224 C 305.317 368.720,305.891 368.307,306.228 368.307 C 306.566 368.307,306.843 368.091,306.843 367.827 C 306.843 367.563,307.282 367.347,307.818 367.347 C 308.355 367.347,308.918 367.023,309.070 366.627 C 309.222 366.230,309.741 365.906,310.223 365.906 C 310.705 365.906,311.237 365.475,311.404 364.947 C 311.572 364.419,312.197 363.865,312.794 363.716 C 313.390 363.566,314.160 363.053,314.504 362.575 C 314.872 362.064,315.500 361.804,316.028 361.942 C 316.522 362.071,316.927 361.969,316.927 361.714 C 316.927 361.012,318.663 359.159,319.002 359.498 C 319.166 359.662,319.926 359.125,320.691 358.306 C 321.456 357.487,322.218 356.952,322.383 357.117 C 322.548 357.282,323.113 356.896,323.638 356.259 C 324.163 355.623,324.821 354.832,325.100 354.502 C 325.379 354.172,326.032 353.902,326.550 353.902 C 327.067 353.902,327.491 353.724,327.491 353.507 C 327.491 352.907,331.689 348.656,331.987 348.954 C 332.310 349.277,347.659 333.932,347.659 333.286 C 347.659 332.653,352.377 327.971,353.015 327.971 C 353.295 327.971,353.390 327.621,353.226 327.193 C 352.940 326.450,354.494 324.610,355.406 324.610 C 355.625 324.610,355.929 324.111,356.082 323.502 C 356.235 322.892,356.888 321.998,357.532 321.514 C 358.176 321.030,358.705 320.286,358.708 319.861 C 358.710 319.436,359.346 318.587,360.121 317.975 C 360.896 317.363,361.418 316.572,361.282 316.218 C 361.141 315.848,361.459 315.438,362.030 315.257 C 362.577 315.083,363.025 314.547,363.025 314.065 C 363.025 313.582,363.349 313.064,363.745 312.912 C 364.142 312.760,364.466 312.276,364.466 311.836 C 364.466 311.397,364.918 310.645,365.470 310.166 C 366.023 309.687,366.358 309.106,366.216 308.876 C 366.074 308.646,366.378 308.155,366.892 307.785 C 367.407 307.414,367.827 306.858,367.827 306.548 C 367.827 306.238,368.151 305.861,368.547 305.709 C 368.944 305.557,369.268 304.993,369.268 304.457 C 369.268 303.920,369.484 303.481,369.748 303.481 C 370.012 303.481,370.228 303.250,370.228 302.967 C 370.228 302.684,370.552 302.128,370.948 301.732 C 371.345 301.336,371.669 300.595,371.669 300.086 C 371.669 299.576,371.885 299.160,372.149 299.160 C 372.413 299.160,372.629 298.836,372.629 298.439 C 372.629 298.043,372.845 297.719,373.109 297.719 C 373.373 297.719,373.589 297.413,373.589 297.039 C 373.589 296.665,373.808 296.286,374.074 296.197 C 374.341 296.108,374.663 295.496,374.790 294.838 C 374.917 294.179,375.239 293.568,375.505 293.479 C 375.772 293.390,375.990 293.011,375.990 292.637 C 375.990 292.263,376.197 291.957,376.449 291.957 C 376.701 291.957,377.049 291.200,377.223 290.276 C 377.396 289.352,377.730 288.595,377.965 288.595 C 378.199 288.595,378.391 288.271,378.391 287.875 C 378.391 287.479,378.588 287.155,378.829 287.155 C 379.070 287.155,379.413 286.291,379.592 285.234 C 379.770 284.178,380.113 283.313,380.354 283.313 C 380.595 283.313,380.792 282.881,380.792 282.353 C 380.792 281.825,381.018 281.393,381.294 281.393 C 381.569 281.393,381.762 281.122,381.722 280.792 C 381.607 279.854,382.299 278.031,382.769 278.031 C 383.002 278.031,383.193 277.599,383.193 277.071 C 383.193 276.543,383.435 276.110,383.729 276.110 C 384.029 276.110,384.155 275.687,384.015 275.150 C 383.876 274.622,383.959 274.190,384.199 274.190 C 384.438 274.190,384.634 273.649,384.634 272.989 C 384.634 272.329,384.850 271.789,385.114 271.789 C 385.378 271.789,385.594 271.357,385.594 270.828 C 385.594 270.300,385.810 269.868,386.074 269.868 C 386.339 269.868,386.555 269.328,386.555 268.667 C 386.555 268.007,386.794 267.467,387.087 267.467 C 387.415 267.467,387.503 267.006,387.318 266.267 C 387.144 265.574,387.224 265.066,387.506 265.066 C 387.775 265.066,387.995 264.526,387.995 263.866 C 387.995 263.205,388.211 262.665,388.475 262.665 C 388.739 262.665,388.956 262.125,388.956 261.465 C 388.956 260.804,389.195 260.264,389.488 260.264 C 389.812 260.264,389.905 259.807,389.726 259.093 C 389.565 258.449,389.649 257.788,389.914 257.624 C 390.179 257.460,390.396 256.678,390.396 255.886 C 390.396 255.048,390.597 254.569,390.876 254.742 C 391.156 254.915,391.357 254.436,391.357 253.598 C 391.357 252.806,391.594 252.011,391.885 251.831 C 392.186 251.645,392.294 250.908,392.137 250.122 C 391.984 249.355,392.069 248.739,392.329 248.739 C 392.586 248.739,392.797 247.983,392.797 247.059 C 392.797 246.134,393.013 245.378,393.277 245.378 C 393.541 245.378,393.758 244.514,393.758 243.457 C 393.758 242.401,393.979 241.537,394.249 241.537 C 394.520 241.537,394.735 240.726,394.727 239.736 C 394.704 236.733,395.264 232.893,395.725 232.893 C 395.963 232.893,396.158 231.705,396.158 230.252 C 396.158 228.597,396.363 227.611,396.705 227.611 C 397.083 227.611,397.171 226.716,396.990 224.720 C 396.794 222.556,396.904 221.652,397.426 221.130 C 397.992 220.564,398.062 219.515,397.793 215.618 C 397.553 212.134,397.613 210.804,398.011 210.804 C 398.405 210.804,398.559 207.964,398.559 200.720 C 398.559 193.435,398.406 190.636,398.007 190.636 C 397.607 190.636,397.535 189.308,397.746 185.849 C 397.964 182.259,397.872 180.744,397.378 179.791 C 396.938 178.943,396.808 177.662,396.986 175.935 C 397.169 174.164,397.081 173.349,396.706 173.349 C 396.357 173.349,396.158 172.305,396.158 170.468 C 396.158 168.868,395.945 167.587,395.678 167.587 C 395.414 167.587,395.198 166.627,395.198 165.455 C 395.198 164.282,394.996 163.197,394.750 163.045 C 394.503 162.892,394.423 162.015,394.572 161.096 C 394.748 160.012,394.652 159.424,394.301 159.424 C 393.987 159.424,393.758 158.612,393.758 157.503 C 393.758 156.447,393.563 155.582,393.326 155.582 C 393.089 155.582,392.743 154.070,392.557 152.221 C 392.371 150.372,392.025 148.860,391.788 148.860 C 391.551 148.860,391.357 148.211,391.357 147.419 C 391.357 146.627,391.140 145.978,390.876 145.978 C 390.612 145.978,390.396 145.451,390.396 144.806 C 390.396 144.162,390.200 143.513,389.961 143.365 C 389.722 143.217,389.633 142.689,389.763 142.191 C 389.893 141.692,389.765 141.140,389.478 140.962 C 389.190 140.785,388.956 140.004,388.956 139.227 C 388.956 138.451,388.739 137.815,388.475 137.815 C 388.211 137.815,387.995 137.288,387.995 136.643 C 387.995 135.998,387.789 135.343,387.536 135.187 C 387.283 135.031,387.198 134.586,387.347 134.198 C 387.496 133.811,387.379 133.493,387.086 133.493 C 386.794 133.493,386.555 132.953,386.555 132.293 C 386.555 131.633,386.339 131.092,386.074 131.092 C 385.810 131.092,385.594 130.552,385.594 129.892 C 385.594 129.232,385.403 128.691,385.170 128.691 C 384.657 128.691,384.022 126.853,384.133 125.690 C 384.178 125.228,383.984 124.850,383.704 124.850 C 383.423 124.850,383.193 124.418,383.193 123.890 C 383.193 123.361,383.005 122.929,382.774 122.929 C 382.544 122.929,382.217 122.065,382.048 121.008 C 381.880 119.952,381.528 119.088,381.267 119.088 C 381.006 119.088,380.792 118.764,380.792 118.367 C 380.792 117.971,380.576 117.647,380.312 117.647 C 380.048 117.647,379.832 117.215,379.832 116.687 C 379.832 116.158,379.593 115.726,379.300 115.726 C 379.008 115.726,378.893 115.402,379.045 115.006 C 379.197 114.610,379.112 114.286,378.856 114.286 C 378.601 114.286,378.391 113.854,378.391 113.325 C 378.391 112.797,378.175 112.365,377.911 112.365 C 377.647 112.365,377.431 112.041,377.431 111.645 C 377.431 111.248,377.192 110.924,376.899 110.924 C 376.607 110.924,376.492 110.600,376.644 110.204 C 376.796 109.808,376.711 109.484,376.456 109.484 C 376.200 109.484,375.990 109.052,375.990 108.523 C 375.990 107.995,375.774 107.563,375.510 107.563 C 375.246 107.563,375.030 107.131,375.030 106.603 C 375.030 106.074,374.821 105.642,374.565 105.642 C 374.309 105.642,374.224 105.318,374.376 104.922 C 374.528 104.526,374.413 104.202,374.121 104.202 C 373.829 104.202,373.589 103.879,373.589 103.485 C 373.589 103.092,373.157 102.499,372.629 102.169 C 372.101 101.840,371.669 101.298,371.669 100.965 C 371.669 100.632,371.438 100.360,371.156 100.360 C 370.869 100.360,370.772 99.954,370.936 99.438 C 371.142 98.790,370.954 98.430,370.300 98.222 C 369.376 97.929,368.607 96.387,368.768 95.150 C 368.814 94.793,368.621 94.644,368.339 94.818 C 368.058 94.992,367.827 94.798,367.827 94.386 C 367.827 93.974,367.634 93.637,367.399 93.637 C 367.164 93.637,366.835 93.097,366.670 92.437 C 366.504 91.777,366.156 91.236,365.897 91.236 C 365.638 91.236,365.426 90.960,365.426 90.622 C 365.426 90.284,365.014 89.711,364.509 89.347 C 364.005 88.984,363.699 88.409,363.829 88.070 C 363.959 87.731,363.616 87.172,363.065 86.828 C 362.515 86.485,362.065 85.854,362.065 85.426 C 362.065 84.998,361.525 84.243,360.864 83.747 C 360.204 83.251,359.664 82.671,359.664 82.458 C 359.664 82.245,359.124 81.488,358.463 80.776 C 357.803 80.064,357.263 79.289,357.263 79.053 C 357.263 78.818,356.507 77.912,355.582 77.040 C 354.658 76.168,353.902 75.164,353.902 74.809 C 353.902 74.454,353.469 73.793,352.941 73.341 C 352.413 72.888,351.981 72.657,351.981 72.827 C 351.981 73.500,350.058 70.871,350.026 70.155 C 350.007 69.733,349.243 68.739,348.329 67.947 C 346.605 66.454,336.664 56.578,332.633 52.352 C 331.367 51.025,330.042 49.940,329.689 49.940 C 329.335 49.940,328.149 48.938,327.053 47.714 C 325.957 46.489,324.929 45.619,324.768 45.780 C 324.607 45.941,323.788 45.322,322.948 44.405 C 322.108 43.488,321.058 42.737,320.614 42.737 C 320.171 42.737,319.808 42.529,319.808 42.276 C 319.808 41.495,317.819 39.912,317.158 40.166 C 316.814 40.298,316.399 39.984,316.236 39.468 C 316.066 38.932,315.343 38.411,314.550 38.252 C 313.731 38.088,313.035 37.573,312.851 36.995 C 312.680 36.455,312.146 36.014,311.664 36.014 C 311.182 36.014,310.663 35.690,310.511 35.294 C 310.359 34.898,309.810 34.574,309.291 34.574 C 308.763 34.574,308.211 34.142,308.037 33.593 C 307.814 32.892,307.463 32.696,306.804 32.905 C 306.288 33.069,305.882 32.972,305.882 32.685 C 305.882 32.404,305.638 32.173,305.338 32.173 C 305.039 32.173,304.402 31.721,303.923 31.168 C 303.444 30.616,302.840 30.295,302.581 30.455 C 302.322 30.615,301.972 30.311,301.803 29.779 C 301.634 29.247,301.078 28.812,300.568 28.812 C 300.057 28.812,299.640 28.572,299.640 28.280 C 299.640 27.988,299.308 27.876,298.901 28.032 C 298.489 28.190,298.047 28.014,297.901 27.633 C 297.757 27.258,297.333 27.069,296.959 27.213 C 296.585 27.356,296.279 27.234,296.279 26.942 C 296.279 26.650,296.034 26.411,295.735 26.411 C 295.435 26.411,294.841 26.032,294.414 25.570 C 293.987 25.108,293.421 24.706,293.157 24.678 C 292.030 24.555,290.516 23.865,290.516 23.473 C 290.516 23.240,290.354 23.075,290.156 23.106 C 289.216 23.254,288.566 23.005,288.821 22.593 C 288.976 22.343,288.340 21.994,287.408 21.820 C 286.477 21.645,285.714 21.310,285.714 21.075 C 285.714 20.840,285.282 20.648,284.754 20.648 C 284.226 20.648,283.794 20.409,283.794 20.117 C 283.794 19.824,283.469 19.710,283.073 19.862 C 282.677 20.014,282.353 19.929,282.353 19.673 C 282.353 19.417,281.813 19.208,281.152 19.208 C 280.492 19.208,279.952 18.992,279.952 18.727 C 279.952 18.463,279.628 18.247,279.232 18.247 C 278.836 18.247,278.511 18.044,278.511 17.797 C 278.511 17.549,277.539 17.200,276.351 17.022 C 275.162 16.843,274.190 16.506,274.190 16.272 C 274.190 16.038,273.758 15.846,273.229 15.846 C 272.701 15.846,272.269 15.630,272.269 15.366 C 272.269 15.102,271.837 14.886,271.309 14.886 C 270.780 14.886,270.348 14.700,270.348 14.472 C 270.348 14.245,269.808 14.162,269.148 14.288 C 268.447 14.422,267.947 14.295,267.947 13.982 C 267.947 13.687,267.515 13.445,266.987 13.445 C 266.459 13.445,266.026 13.229,266.026 12.965 C 266.026 12.701,265.499 12.485,264.854 12.485 C 264.210 12.485,263.543 12.260,263.373 11.985 C 263.203 11.710,262.650 11.617,262.144 11.778 C 261.630 11.941,261.224 11.843,261.224 11.557 C 261.224 11.275,260.684 11.044,260.024 11.044 C 259.364 11.044,258.824 10.828,258.824 10.564 C 258.824 10.300,258.188 10.084,257.411 10.084 C 256.635 10.084,255.854 9.849,255.676 9.562 C 255.499 9.275,254.946 9.147,254.448 9.277 C 253.950 9.407,253.421 9.318,253.273 9.079 C 253.126 8.839,252.369 8.643,251.592 8.643 C 250.816 8.643,250.180 8.427,250.180 8.163 C 250.180 7.899,249.467 7.683,248.595 7.683 C 247.724 7.683,246.801 7.473,246.544 7.216 C 246.287 6.960,244.516 6.605,242.607 6.427 C 240.698 6.250,239.136 5.920,239.136 5.693 C 239.136 5.467,238.271 5.282,237.215 5.282 C 236.158 5.282,235.294 5.056,235.294 4.780 C 235.294 4.504,234.376 4.275,233.253 4.273 C 229.286 4.263,224.730 3.754,224.730 3.320 C 224.730 3.079,223.109 2.881,221.128 2.881 C 219.148 2.881,217.527 2.679,217.527 2.431 C 217.527 2.159,210.509 1.991,199.760 2.006 C 189.786 2.020,181.993 2.217,181.993 2.456 M219.208 10.026 C 220.528 10.281,223.661 10.749,226.170 11.066 C 332.122 24.449,407.043 127.523,388.700 234.670 C 387.913 239.264,387.961 239.037,386.104 246.819 C 382.071 263.716,374.098 283.547,365.479 298.118 C 363.865 300.847,362.545 303.156,362.545 303.249 C 362.545 303.597,351.929 318.445,349.773 321.112 C 268.336 421.856,115.561 416.836,41.385 310.980 C 34.977 301.836,23.049 280.589,23.049 278.319 C 23.049 278.155,22.628 277.105,22.113 275.985 C 17.553 266.066,11.745 246.156,9.684 233.373 C 3.894 197.463,8.364 157.992,21.621 127.971 C 22.088 126.915,23.056 124.646,23.772 122.929 C 25.234 119.425,29.998 110.018,32.161 106.363 C 32.943 105.042,33.895 103.421,34.277 102.761 C 35.217 101.136,42.088 90.637,42.604 90.036 C 42.831 89.772,43.749 88.489,44.643 87.185 C 51.711 76.877,66.523 61.417,78.752 51.583 C 89.836 42.670,103.105 34.279,115.486 28.355 C 119.704 26.336,121.847 25.383,127.971 22.799 C 128.764 22.464,131.681 21.398,134.454 20.430 C 137.227 19.461,140.036 18.477,140.696 18.243 C 151.377 14.456,171.201 10.531,184.394 9.592 C 191.336 9.098,215.999 9.405,219.208 10.026 M187.755 12.823 C 183.708 13.022,172.383 14.280,169.148 14.891 C 167.761 15.152,165.384 15.600,163.866 15.887 C 156.531 17.269,142.598 21.135,138.055 23.048 C 137.527 23.270,135.474 24.044,133.493 24.768 C 130.381 25.905,127.594 27.132,119.088 31.107 C 81.237 48.800,45.424 88.277,31.215 127.971 C 30.648 129.556,30.006 131.285,29.789 131.813 C 28.065 136.001,25.004 147.006,23.377 154.862 C 0.264 266.499,84.841 370.708,198.560 370.708 C 226.938 370.708,251.533 365.134,276.859 352.963 C 287.356 347.919,306.031 336.263,309.244 332.751 C 309.376 332.606,310.780 331.495,312.365 330.282 C 320.750 323.861,332.358 311.937,341.258 300.600 C 343.559 297.670,351.981 285.363,351.981 284.932 C 351.981 284.824,352.550 283.834,353.245 282.732 C 362.807 267.585,371.814 243.657,375.079 224.730 C 377.257 212.102,377.518 209.133,377.757 194.238 C 378.005 178.747,378.016 178.912,375.514 160.384 C 375.318 158.932,374.697 155.852,374.134 153.541 C 373.570 151.230,372.650 147.449,372.089 145.138 C 368.483 130.293,359.899 110.849,350.094 95.318 C 342.225 82.852,326.457 64.521,316.962 56.800 C 316.057 56.064,314.004 54.324,312.400 52.932 C 305.303 46.775,287.205 35.103,278.511 31.075 C 276.267 30.035,272.847 28.452,270.913 27.557 C 268.979 26.662,267.281 25.930,267.139 25.930 C 266.997 25.930,265.014 25.190,262.732 24.284 C 240.444 15.439,214.678 11.500,187.755 12.823 M210.416 34.464 C 212.883 41.160,214.199 45.854,215.561 52.821 C 217.531 62.902,217.596 63.957,217.662 86.987 C 217.728 109.873,217.687 110.689,215.785 124.370 C 214.744 131.862,213.121 139.962,211.023 148.139 C 210.346 150.780,209.592 153.725,209.348 154.683 C 209.034 155.917,209.107 157.198,209.597 159.080 C 211.286 165.563,212.686 175.381,212.729 181.032 C 212.767 186.010,212.776 186.050,213.459 184.154 C 214.834 180.338,214.205 173.396,211.316 160.501 C 210.560 157.124,210.429 155.625,210.771 154.259 C 211.018 153.270,211.790 150.192,212.487 147.419 C 217.226 128.559,218.468 118.410,218.796 95.850 C 219.032 79.652,219.075 79.042,220.085 77.540 C 227.594 66.358,231.787 58.945,234.676 51.741 C 235.753 49.056,236.079 49.506,236.416 54.142 C 237.986 75.767,246.153 90.933,257.547 93.384 L 258.912 93.678 258.778 111.065 C 258.676 124.194,258.492 128.687,258.027 129.412 C 257.689 129.940,252.522 135.018,246.546 140.696 C 230.167 156.260,225.935 163.262,226.946 173.128 C 227.337 176.947,226.865 177.066,224.622 173.709 C 222.725 170.871,217.095 164.688,217.079 165.426 C 217.074 165.690,217.766 166.685,218.619 167.637 C 226.707 176.672,233.896 190.112,237.449 202.840 C 238.119 205.240,239.238 209.256,239.935 211.765 C 244.907 229.644,247.188 233.616,254.327 236.826 L 257.862 238.415 257.863 241.897 C 257.863 243.812,257.759 245.378,257.633 245.378 C 257.506 245.378,256.541 245.034,255.488 244.612 C 252.204 243.298,252.185 244.190,255.462 245.859 C 258.861 247.589,264.567 248.151,267.032 246.999 C 267.667 246.701,268.782 246.220,269.508 245.928 C 272.193 244.852,270.717 244.523,267.405 245.460 C 265.054 246.126,263.341 246.333,261.933 246.122 L 259.883 245.814 259.561 238.513 C 259.384 234.498,259.308 227.539,259.391 223.049 L 259.544 214.886 262.174 213.605 C 265.735 211.870,265.546 211.178,265.546 225.959 L 265.546 239.136 267.278 239.136 C 275.460 239.136,285.676 232.495,289.464 224.715 C 292.069 219.362,292.566 216.710,292.795 206.929 C 293.168 191.035,290.131 181.200,282.427 173.351 C 276.400 167.211,275.794 162.719,280.337 157.863 C 282.323 155.740,282.817 156.139,281.971 159.180 C 280.202 165.535,284.608 169.018,288.355 164.228 C 290.043 162.070,291.377 161.345,293.660 161.345 C 295.751 161.345,295.736 161.504,293.397 164.041 C 290.957 166.688,290.938 167.992,293.291 171.454 C 294.287 172.921,295.387 175.082,295.736 176.256 C 299.554 189.127,305.394 192.608,310.562 185.095 C 312.295 182.575,312.971 178.948,313.854 167.413 C 314.132 163.783,315.982 160.384,317.679 160.384 C 319.612 160.384,319.238 155.935,317.167 154.282 C 314.956 152.518,315.046 152.065,317.527 152.468 C 320.557 152.961,322.613 154.081,323.860 155.916 C 325.984 159.041,327.450 155.668,325.570 151.981 C 324.308 149.506,324.351 149.299,326.005 149.876 C 327.452 150.381,330.698 153.277,331.623 154.891 C 332.307 156.083,333.233 155.385,334.731 152.548 C 336.000 150.147,336.122 147.005,335.014 145.313 C 334.009 143.779,334.013 143.577,335.054 143.579 C 336.827 143.583,338.996 145.487,340.402 148.272 C 341.181 149.815,342.174 151.373,342.610 151.734 C 348.914 156.967,343.269 166.642,332.667 168.776 C 328.750 169.564,330.047 174.310,334.180 174.310 C 342.141 174.310,347.161 186.201,343.809 197.119 C 340.989 206.303,341.071 205.529,342.552 209.014 C 344.462 213.508,345.988 214.743,348.734 214.017 C 351.060 213.403,353.284 206.384,351.501 205.282 C 350.835 204.871,350.897 202.774,351.588 202.347 C 352.384 201.855,355.033 205.052,355.829 207.464 C 357.143 211.445,354.522 218.571,350.984 220.637 C 347.763 222.518,344.585 221.954,337.665 218.273 C 335.638 217.195,335.549 217.321,336.138 220.426 C 336.882 224.350,335.540 227.688,334.214 225.210 C 331.952 220.984,330.046 233.018,332.145 238.267 C 334.083 243.109,340.995 242.316,342.414 237.090 C 342.718 235.970,343.043 234.784,343.137 234.454 C 343.704 232.455,345.738 235.667,345.738 238.560 C 345.738 252.495,325.806 252.573,321.274 238.655 C 320.715 236.939,319.617 234.778,318.835 233.854 L 317.412 232.173 316.473 233.373 C 315.957 234.034,314.533 236.471,313.309 238.791 C 306.903 250.927,287.287 264.614,271.549 267.929 C 269.964 268.262,268.127 268.691,267.467 268.881 L 266.267 269.226 265.991 285.033 C 265.839 293.727,265.436 303.649,265.096 307.083 C 264.472 313.381,264.627 320.500,265.436 322.660 C 265.749 323.497,265.962 321.710,266.179 316.418 C 266.831 300.538,267.508 295.107,268.604 296.956 C 269.908 299.155,273.205 302.876,275.174 304.370 C 277.909 306.445,277.886 306.299,275.960 309.316 C 272.344 314.978,271.269 317.522,267.162 330.132 C 265.700 334.622,264.382 338.619,264.234 339.016 C 264.076 339.436,263.808 338.936,263.590 337.815 C 262.261 330.991,255.692 313.905,252.884 309.971 C 250.809 307.063,250.504 306.174,251.399 305.642 C 254.354 303.886,256.221 302.090,258.220 299.080 L 260.504 295.640 260.377 290.797 C 260.198 283.942,259.329 270.777,259.023 270.283 C 258.882 270.055,256.457 269.864,253.633 269.858 C 241.440 269.836,225.220 265.334,222.308 261.164 C 221.686 260.273,220.849 259.345,220.449 259.102 C 220.048 258.859,219.198 258.137,218.559 257.498 C 217.646 256.585,217.310 256.474,216.989 256.980 C 216.321 258.034,216.482 258.296,218.344 259.180 C 221.657 260.753,223.146 265.655,221.209 268.612 L 220.329 269.955 219.528 268.351 C 218.928 267.149,218.202 266.580,216.632 266.084 C 214.385 265.373,214.733 265.279,210.064 267.860 C 209.261 268.304,207.466 269.177,206.076 269.799 C 203.880 270.782,200.094 273.346,195.265 277.119 C 189.484 281.636,187.970 287.249,192.088 288.896 C 194.111 289.706,194.026 290.124,191.578 291.383 C 190.670 291.850,190.019 291.881,189.026 291.503 C 188.293 291.225,187.183 290.996,186.560 290.996 C 183.708 290.996,181.163 286.780,182.058 283.537 C 182.428 282.200,182.348 281.570,181.665 280.413 C 180.636 278.671,179.409 278.742,179.200 280.556 C 178.994 282.336,177.444 282.314,176.515 280.517 C 176.129 279.772,175.475 278.881,175.062 278.538 C 174.648 278.194,174.310 277.292,174.310 276.532 C 174.310 274.743,173.571 274.769,172.629 276.591 C 172.219 277.384,171.495 278.031,171.017 278.031 C 170.278 278.031,167.107 274.358,167.107 273.501 C 167.107 273.341,166.544 272.319,165.857 271.230 C 164.467 269.029,163.766 269.335,163.753 272.149 C 163.736 275.723,159.284 270.604,157.504 264.963 C 156.517 261.835,155.982 261.149,155.342 262.185 C 154.374 263.752,152.703 260.029,152.697 256.293 C 152.690 251.165,151.412 245.639,149.119 240.816 C 145.181 232.536,141.028 222.131,139.957 217.862 C 139.194 214.823,129.627 213.903,116.947 215.651 C 111.950 216.339,103.449 220.736,99.002 224.930 C 89.440 233.951,83.465 254.085,86.664 266.507 C 87.106 268.223,87.647 270.384,87.865 271.309 C 89.502 278.232,93.450 283.564,101.448 289.653 C 114.999 299.969,130.594 298.580,127.761 287.309 C 124.830 275.654,109.484 279.114,109.484 291.430 C 109.484 293.382,107.368 292.299,100.495 286.830 C 95.000 282.456,94.804 282.124,95.951 279.107 C 105.527 253.904,145.978 261.766,145.978 288.829 C 145.978 300.457,137.569 310.515,126.050 312.665 C 109.763 315.704,82.983 305.314,73.786 292.388 C 66.726 282.465,67.216 283.377,62.735 271.789 C 49.964 238.758,56.934 206.042,83.885 172.509 C 86.910 168.745,89.554 165.666,89.760 165.666 C 89.965 165.666,92.501 163.451,95.393 160.744 C 105.079 151.680,111.764 147.054,120.467 143.391 C 129.084 139.765,128.378 139.459,130.300 147.659 C 130.980 150.564,131.643 153.373,131.773 153.902 C 131.903 154.430,131.889 153.133,131.741 151.020 C 131.039 140.971,126.356 128.281,119.330 117.389 C 114.594 110.049,100.184 91.078,94.233 84.351 C 91.881 81.692,92.449 81.773,97.489 84.812 C 110.662 92.753,115.936 94.462,118.709 91.689 L 120.178 90.220 119.907 84.606 C 119.635 78.950,117.627 69.649,115.187 62.749 C 114.221 60.019,114.327 58.399,115.352 60.230 C 120.400 69.250,140.583 84.034,147.850 84.034 C 153.382 84.034,157.468 72.722,157.518 57.266 C 157.532 53.042,157.603 52.673,158.239 53.513 C 158.626 54.026,158.945 54.782,158.947 55.194 C 158.958 58.003,165.443 68.016,170.442 72.943 C 184.438 86.738,195.462 85.260,203.371 68.527 C 208.111 58.498,209.048 51.072,207.763 33.733 C 207.252 26.845,207.648 26.954,210.416 34.464 M265.066 40.336 C 265.697 41.809,265.771 50.568,265.661 111.073 L 265.537 180.129 262.841 181.321 C 261.358 181.977,260.037 182.406,259.905 182.274 C 259.773 182.142,259.631 150.963,259.589 112.986 C 259.547 75.009,259.350 43.397,259.151 42.737 C 258.007 38.937,263.509 36.704,265.066 40.336 M294.594 62.628 C 293.507 72.665,291.686 80.876,289.288 86.551 C 288.589 88.204,287.492 90.938,286.848 92.628 C 286.205 94.318,285.281 96.262,284.796 96.950 C 284.311 97.637,282.991 99.928,281.864 102.041 C 280.737 104.154,279.305 106.570,278.683 107.411 C 278.060 108.252,277.551 109.082,277.551 109.256 C 277.551 110.542,266.530 123.431,266.493 122.189 C 266.357 117.711,266.606 94.130,266.796 93.371 C 266.971 92.675,267.671 92.144,268.898 91.776 C 273.485 90.402,281.311 82.517,285.161 75.390 C 289.342 67.651,292.067 61.029,293.656 54.746 C 295.337 48.097,295.772 51.747,294.594 62.628 M164.531 101.080 C 164.663 105.306,164.961 110.600,165.193 112.845 C 165.425 115.090,165.740 124.922,165.893 134.694 C 166.046 144.466,166.319 154.514,166.500 157.023 L 166.829 161.585 167.172 156.783 C 168.105 143.732,167.496 119.765,165.856 104.922 C 164.611 93.661,164.267 92.664,164.531 101.080 M136.404 95.416 C 136.388 95.733,136.569 96.490,136.808 97.096 C 139.112 102.964,147.300 132.902,151.030 149.100 C 153.587 160.201,155.458 165.202,153.688 156.206 C 153.439 154.939,152.895 152.065,152.479 149.820 C 151.650 145.343,150.500 139.955,149.813 137.335 C 149.571 136.411,148.800 133.277,148.101 130.372 C 147.401 127.467,146.538 124.118,146.183 122.929 C 143.314 113.338,141.820 108.577,140.379 104.442 C 138.597 99.330,136.452 94.458,136.404 95.416 M192.408 102.641 C 191.759 106.894,189.340 119.370,187.499 127.971 C 186.820 131.140,186.083 134.598,185.861 135.654 C 185.639 136.711,185.086 139.196,184.633 141.176 C 184.179 143.157,183.637 145.534,183.428 146.459 C 182.680 149.764,181.009 156.329,180.549 157.766 C 180.291 158.570,179.940 160.251,179.769 161.500 C 179.598 162.750,179.272 163.887,179.045 164.027 C 178.817 164.167,178.633 164.756,178.634 165.334 C 178.637 166.274,178.714 166.239,179.355 165.011 C 179.749 164.255,180.072 163.333,180.072 162.964 C 180.072 162.594,180.287 161.917,180.550 161.458 C 180.813 160.999,181.475 159.004,182.021 157.023 C 182.567 155.042,183.346 152.233,183.751 150.780 C 186.891 139.541,190.079 124.980,191.583 115.006 C 191.782 113.685,192.178 111.092,192.461 109.244 C 193.367 103.344,193.563 100.840,193.117 100.840 C 192.879 100.840,192.560 101.651,192.408 102.641 M323.649 184.186 C 323.649 184.335,324.165 185.146,324.795 185.986 C 328.669 191.155,329.087 194.716,326.471 200.240 C 324.727 203.920,323.885 207.235,324.583 207.666 C 324.798 207.799,325.108 207.231,325.274 206.404 C 325.439 205.577,326.575 202.885,327.797 200.422 C 331.072 193.824,330.486 187.353,326.387 184.855 C 324.888 183.941,323.649 183.638,323.649 184.186 M265.426 185.394 C 265.605 186.413,265.072 186.911,262.323 188.294 C 259.606 189.660,259.304 189.619,259.304 187.888 C 259.304 186.001,265.117 183.633,265.426 185.394 M321.955 185.740 C 320.363 186.881,319.805 190.264,320.888 192.203 C 321.659 193.585,324.688 196.879,325.187 196.879 C 325.940 196.879,325.545 196.079,323.917 194.301 C 321.574 191.744,321.002 189.756,321.951 187.482 C 322.736 185.606,322.736 185.181,321.955 185.740 M322.980 188.628 C 322.549 190.428,323.593 192.077,325.164 192.077 C 326.380 192.077,326.278 191.444,324.970 190.870 C 324.245 190.552,323.803 189.843,323.626 188.715 L 323.362 187.035 322.980 188.628 M265.539 192.910 C 265.549 194.349,259.941 197.366,259.482 196.170 C 258.865 194.563,259.746 193.254,262.287 192.005 C 264.967 190.688,265.525 190.843,265.539 192.910 M189.199 198.592 C 189.197 199.139,189.488 200.651,189.846 201.954 C 193.667 215.865,192.192 222.661,183.427 231.536 C 180.128 234.877,179.513 236.510,179.495 241.986 C 179.459 252.585,183.479 255.815,197.719 256.627 C 200.181 256.767,200.240 256.740,200.240 255.456 C 200.240 254.734,200.564 253.223,200.961 252.100 C 201.596 250.300,201.598 249.777,200.980 247.697 C 199.696 243.372,201.544 241.160,207.140 240.320 C 209.754 239.929,209.979 240.427,208.163 242.585 C 206.136 244.994,206.817 247.992,209.791 249.747 L 211.508 250.760 213.530 248.429 C 216.356 245.172,218.900 245.130,222.116 248.286 C 224.772 250.892,224.850 251.602,222.449 251.310 C 220.522 251.075,217.753 252.394,217.211 253.805 C 216.722 255.080,217.370 255.082,218.744 253.808 C 220.173 252.484,222.653 252.180,224.939 253.049 C 226.401 253.605,226.472 253.271,225.425 250.765 C 222.838 244.573,215.789 242.916,212.431 247.710 C 211.494 249.048,209.621 249.030,208.671 247.672 C 207.120 245.458,208.084 242.703,210.925 241.234 C 213.368 239.971,211.552 239.016,207.107 239.228 C 201.316 239.503,198.341 242.795,199.584 247.553 C 200.496 251.044,199.272 254.557,196.981 255.025 C 192.909 255.858,184.904 253.752,183.015 251.350 C 178.564 245.691,179.128 237.897,184.402 232.195 C 192.747 223.173,194.299 218.606,192.567 208.163 C 191.762 203.306,189.206 196.045,189.199 198.592 M265.306 199.798 C 265.306 200.926,261.554 203.559,259.904 203.590 C 259.088 203.605,259.141 201.453,259.974 200.762 C 262.679 198.517,265.306 198.042,265.306 199.798 M265.467 207.027 C 265.286 208.304,260.362 211.076,259.603 210.329 C 258.640 209.381,259.824 207.660,262.302 206.404 C 264.983 205.045,265.727 205.191,265.467 207.027 M171.216 279.472 C 171.830 279.472,172.466 279.256,172.629 278.992 C 173.151 278.146,173.725 278.469,174.805 280.217 C 176.581 283.090,180.072 284.326,180.072 282.080 C 180.072 281.702,180.288 281.393,180.552 281.393 C 181.130 281.393,181.132 281.584,180.574 283.990 C 179.453 288.825,184.185 292.917,190.899 292.917 C 192.111 292.917,197.047 289.257,196.666 288.640 C 196.533 288.425,195.414 288.111,194.179 287.942 C 190.119 287.385,189.672 286.032,192.372 282.477 C 194.384 279.827,194.958 279.476,194.958 280.891 C 194.958 282.763,196.746 285.450,200.672 289.477 C 202.811 291.671,204.562 293.668,204.562 293.912 C 204.562 294.681,205.314 294.401,206.425 293.219 C 207.013 292.593,208.225 291.687,209.117 291.206 C 210.010 290.726,210.971 289.833,211.253 289.224 C 211.534 288.614,212.027 287.557,212.348 286.874 C 213.682 284.035,216.841 283.698,220.735 285.980 C 223.020 287.319,223.390 288.114,221.729 288.117 C 218.441 288.123,216.112 291.465,217.206 294.608 L 217.872 296.519 221.181 296.519 C 226.112 296.519,228.091 298.507,228.091 303.463 C 228.091 305.981,227.325 306.309,225.671 304.499 C 222.851 301.410,215.681 304.401,217.702 307.823 C 219.527 310.912,217.739 315.447,214.103 316.953 C 212.369 317.671,212.047 317.406,212.757 315.847 C 213.957 313.215,211.496 310.177,207.753 309.668 C 206.394 309.483,203.661 308.869,201.681 308.303 C 188.922 304.657,174.139 308.135,178.407 313.777 C 180.570 316.638,176.991 316.529,174.386 313.655 C 170.454 309.315,170.544 305.967,174.670 303.071 C 175.980 302.151,176.230 301.673,176.230 300.087 C 176.230 298.073,175.421 297.581,174.310 298.920 C 173.627 299.742,172.583 299.863,172.154 299.169 C 171.768 298.543,172.815 292.844,173.460 292.065 C 174.281 291.073,173.617 290.936,171.968 291.759 C 168.969 293.255,168.473 291.896,169.580 285.198 C 170.229 281.264,169.969 280.771,168.156 282.508 C 165.872 284.696,165.489 284.293,165.868 280.100 C 166.298 275.356,166.342 275.312,168.381 277.569 C 169.445 278.747,170.525 279.472,171.216 279.472 M98.199 310.436 C 99.784 311.025,101.405 311.628,101.801 311.776 C 102.197 311.924,103.554 312.419,104.818 312.876 C 107.406 313.814,107.478 313.893,108.607 317.064 C 112.832 328.937,130.790 341.700,150.267 346.671 C 153.322 347.451,157.011 348.399,158.463 348.777 C 159.916 349.155,164.670 350.172,169.028 351.035 C 184.172 354.037,178.164 355.562,160.864 353.108 C 133.953 349.289,115.454 339.905,101.496 322.989 C 96.633 317.097,92.054 308.002,94.453 309.003 C 94.929 309.201,96.615 309.846,98.199 310.436 " stroke="none" fill="#000000" fill-rule="evenodd"></path></g></svg>