<svg id="svg" xmlns="http://www.w3.org/2000/svg" xmlns:xlink="http://www.w3.org/1999/xlink" width="400" height="400" viewBox="0, 0, 400,400"><g id="svgg"><path id="path0" d="M211.016 1.006 C 210.790 1.373,206.851 1.502,198.142 1.428 C 191.241 1.370,184.508 1.525,183.181 1.773 C 181.854 2.021,180.168 2.063,179.435 1.867 C 178.587 1.640,177.480 1.770,176.394 2.224 C 175.185 2.729,173.931 2.843,172.097 2.614 C 169.866 2.335,169.508 2.402,169.508 3.095 C 169.508 3.779,169.177 3.851,167.322 3.573 C 165.542 3.306,165.022 3.402,164.519 4.091 C 164.048 4.734,163.693 4.820,163.034 4.452 C 162.052 3.902,160.384 4.191,160.384 4.911 C 160.384 5.194,159.721 5.265,158.759 5.084 C 157.509 4.850,157.065 4.960,156.833 5.563 C 156.599 6.173,156.159 6.277,154.857 6.033 C 153.750 5.825,153.181 5.902,153.181 6.259 C 153.181 6.609,152.675 6.688,151.741 6.483 C 150.578 6.227,150.300 6.325,150.300 6.987 C 150.300 7.658,149.991 7.759,148.619 7.536 C 147.695 7.386,146.939 7.466,146.939 7.713 C 146.939 7.961,146.314 8.163,145.550 8.163 C 144.786 8.163,144.042 8.471,143.898 8.846 C 143.738 9.264,143.252 9.429,142.646 9.270 C 142.042 9.112,141.657 9.242,141.657 9.604 C 141.657 9.956,141.274 10.096,140.714 9.950 C 140.195 9.814,139.522 10.003,139.218 10.369 C 138.880 10.777,138.221 10.924,137.520 10.748 C 136.644 10.528,136.375 10.655,136.375 11.288 C 136.375 11.880,136.100 12.045,135.414 11.866 C 134.886 11.728,134.454 11.810,134.454 12.050 C 134.454 12.289,133.914 12.485,133.253 12.485 C 132.593 12.485,132.053 12.677,132.053 12.911 C 132.053 13.145,131.080 13.482,129.892 13.660 C 128.703 13.839,127.731 14.160,127.731 14.374 C 127.731 14.588,126.890 14.898,125.863 15.062 C 124.825 15.228,123.866 15.695,123.705 16.114 C 123.546 16.529,123.174 16.718,122.879 16.536 C 122.583 16.353,122.184 16.458,121.992 16.769 C 121.800 17.080,121.176 17.370,120.605 17.413 C 120.035 17.456,119.568 17.655,119.568 17.854 C 119.568 18.054,119.208 18.079,118.769 17.911 C 118.313 17.735,118.092 17.801,118.254 18.064 C 118.411 18.317,117.420 19.033,116.052 19.654 C 114.684 20.275,113.025 21.161,112.365 21.623 C 111.705 22.085,111.007 22.506,110.815 22.558 C 110.623 22.610,110.029 22.767,109.495 22.907 C 108.961 23.047,108.523 23.376,108.523 23.637 C 108.523 23.910,107.992 23.980,107.283 23.802 C 106.478 23.600,106.150 23.667,106.351 23.990 C 106.520 24.265,106.352 24.490,105.975 24.490 C 105.599 24.490,104.724 24.936,104.031 25.481 C 103.338 26.027,102.519 26.318,102.211 26.127 C 101.838 25.897,101.783 25.993,102.045 26.418 C 102.328 26.876,102.221 26.971,101.664 26.757 C 101.165 26.565,100.970 26.670,101.117 27.053 C 101.260 27.426,100.542 27.860,99.172 28.227 C 97.775 28.600,96.999 29.075,96.999 29.555 C 96.999 29.966,96.351 30.528,95.558 30.804 C 94.766 31.080,94.118 31.495,94.118 31.725 C 94.118 31.955,93.807 32.023,93.427 31.878 C 93.034 31.727,92.465 32.045,92.111 32.613 C 91.767 33.163,91.207 33.613,90.866 33.613 C 90.525 33.613,90.117 33.950,89.959 34.361 C 89.801 34.773,89.379 34.997,89.021 34.859 C 88.663 34.722,88.143 35.034,87.866 35.552 C 87.588 36.070,86.961 36.495,86.473 36.495 C 85.984 36.495,85.231 37.035,84.798 37.695 C 84.365 38.355,83.599 38.896,83.095 38.896 C 82.590 38.896,82.040 39.328,81.873 39.856 C 81.684 40.451,81.146 40.816,80.459 40.816 C 79.445 40.816,77.607 42.236,78.573 42.273 C 78.803 42.282,78.483 42.713,77.861 43.231 C 77.239 43.749,76.547 44.059,76.322 43.920 C 76.097 43.781,75.525 44.268,75.051 45.003 C 74.004 46.628,72.479 47.982,71.672 48.003 C 71.344 48.012,70.480 48.715,69.752 49.565 C 67.751 51.901,65.332 54.261,64.937 54.264 C 64.601 54.266,61.833 56.677,57.983 60.321 C 56.993 61.259,56.182 62.278,56.182 62.586 C 56.182 63.202,53.438 66.241,51.012 68.311 C 50.158 69.039,49.460 69.917,49.460 70.261 C 49.460 70.975,48.237 72.331,46.397 73.657 C 45.705 74.156,45.138 74.966,45.138 75.457 C 45.138 75.949,44.840 76.351,44.477 76.351 C 43.698 76.351,42.515 77.659,42.504 78.531 C 42.500 78.867,41.890 79.620,41.147 80.205 C 40.396 80.797,39.910 81.561,40.051 81.930 C 40.192 82.296,39.801 82.921,39.177 83.331 C 38.556 83.737,37.908 84.764,37.737 85.613 C 37.493 86.825,37.328 87.001,36.968 86.435 C 36.479 85.667,36.260 86.262,36.467 87.792 C 36.515 88.143,36.108 88.546,35.564 88.689 C 34.913 88.859,34.574 89.340,34.574 90.092 C 34.574 90.789,34.292 91.236,33.854 91.236 C 33.457 91.236,33.133 91.615,33.133 92.077 C 33.132 92.539,32.592 93.545,31.932 94.312 C 31.272 95.080,30.732 96.106,30.732 96.593 C 30.732 97.080,30.408 97.479,30.012 97.479 C 29.616 97.479,29.292 97.783,29.292 98.154 C 29.292 99.120,27.238 102.841,26.561 103.101 C 26.247 103.222,26.109 103.627,26.252 104.001 C 26.406 104.403,26.217 104.682,25.789 104.682 C 25.390 104.682,24.820 105.384,24.522 106.242 C 23.611 108.866,22.833 110.444,22.452 110.444 C 22.252 110.444,22.089 110.850,22.089 111.346 C 22.089 111.842,21.765 112.516,21.369 112.845 C 20.972 113.174,20.648 113.849,20.648 114.345 C 20.648 114.840,20.407 115.246,20.112 115.246 C 19.812 115.246,19.687 115.669,19.827 116.206 C 19.965 116.734,19.882 117.287,19.643 117.435 C 19.403 117.583,19.208 118.123,19.208 118.636 C 19.208 119.148,19.009 119.568,18.766 119.568 C 18.523 119.568,18.173 120.255,17.988 121.096 C 17.803 121.936,17.246 123.348,16.749 124.232 C 16.253 125.116,15.846 126.157,15.846 126.545 C 15.846 126.933,15.616 127.251,15.334 127.251 C 15.051 127.251,14.950 127.655,15.108 128.154 C 15.285 128.712,15.128 129.160,14.697 129.326 C 14.266 129.491,14.099 129.971,14.259 130.583 C 14.406 131.146,14.287 131.573,13.982 131.573 C 13.687 131.573,13.445 132.113,13.445 132.773 C 13.445 133.433,13.204 133.974,12.909 133.974 C 12.609 133.974,12.484 134.397,12.624 134.933 C 12.762 135.461,12.679 136.014,12.440 136.162 C 12.201 136.310,12.005 136.959,12.005 137.603 C 12.005 138.248,11.804 138.776,11.559 138.776 C 11.314 138.776,10.965 139.964,10.784 141.417 C 10.602 142.869,10.284 144.058,10.076 144.058 C 9.868 144.058,9.549 145.338,9.368 146.904 C 9.166 148.644,8.778 149.850,8.369 150.007 C 7.913 150.182,7.788 150.706,7.978 151.653 C 8.185 152.691,8.048 153.123,7.438 153.357 C 6.831 153.590,6.702 153.992,6.935 154.923 C 7.149 155.775,6.991 156.461,6.440 157.070 C 5.814 157.761,5.756 158.117,6.185 158.634 C 6.855 159.441,6.400 160.864,5.471 160.864 C 5.103 160.864,4.802 161.297,4.802 161.825 C 4.802 162.353,5.018 162.785,5.282 162.785 C 6.026 162.785,5.849 164.208,4.999 165.058 C 4.422 165.635,4.312 166.329,4.549 167.908 C 4.798 169.572,4.706 170.055,4.094 170.290 C 3.459 170.534,3.382 171.068,3.646 173.404 C 3.859 175.289,3.778 176.448,3.403 176.901 C 3.026 177.355,2.917 178.950,3.073 181.741 C 3.272 185.311,3.207 185.824,2.619 185.336 C 2.028 184.846,1.934 186.593,1.937 198.026 C 1.940 206.354,2.116 211.285,2.411 211.285 C 2.686 211.285,2.881 213.260,2.881 216.046 C 2.881 218.929,3.079 220.874,3.383 220.975 C 3.659 221.067,3.865 221.572,3.842 222.096 C 3.670 226.033,4.302 232.962,4.806 232.651 C 5.403 232.282,5.847 233.961,5.298 234.510 C 4.509 235.299,4.720 236.452,5.773 237.110 C 6.545 237.592,6.643 237.906,6.254 238.635 C 5.535 239.977,5.644 240.433,6.752 240.723 C 7.772 240.990,7.895 242.389,6.963 243.106 C 6.665 243.335,6.824 243.737,7.381 244.162 C 8.033 244.661,8.195 245.188,7.970 246.084 C 7.756 246.936,7.874 247.402,8.348 247.584 C 8.781 247.750,9.160 248.908,9.368 250.695 C 9.549 252.261,9.893 253.541,10.131 253.541 C 10.369 253.541,10.564 254.177,10.564 254.954 C 10.564 255.730,10.760 256.487,10.999 256.635 C 11.239 256.783,11.321 257.336,11.183 257.864 C 11.043 258.400,11.169 258.824,11.469 258.824 C 11.764 258.824,12.005 259.351,12.005 259.996 C 12.005 260.640,12.230 261.307,12.505 261.477 C 12.779 261.647,12.873 262.201,12.712 262.708 C 12.522 263.303,12.685 263.732,13.169 263.918 C 13.582 264.077,13.788 264.420,13.626 264.682 C 13.464 264.944,13.554 265.623,13.825 266.192 C 14.649 267.919,15.044 269.125,14.937 269.584 C 14.881 269.824,15.093 270.179,15.408 270.374 C 15.723 270.568,16.036 271.431,16.103 272.292 C 16.171 273.152,16.575 274.050,17.001 274.289 C 17.490 274.562,17.700 275.146,17.569 275.867 C 17.421 276.684,17.547 276.941,18.009 276.763 C 18.468 276.587,18.581 276.806,18.396 277.513 C 18.247 278.084,18.365 278.511,18.671 278.511 C 18.966 278.511,19.208 278.836,19.208 279.232 C 19.208 279.628,19.409 279.952,19.656 279.952 C 20.171 279.952,20.892 281.822,20.721 282.713 C 20.658 283.043,20.808 283.313,21.054 283.313 C 21.300 283.313,21.644 284.070,21.817 284.994 C 21.990 285.918,22.339 286.675,22.591 286.675 C 22.843 286.675,23.049 287.107,23.049 287.635 C 23.049 288.163,23.278 288.595,23.558 288.595 C 23.837 288.595,23.932 288.813,23.767 289.079 C 23.603 289.345,23.806 289.692,24.219 289.851 C 24.632 290.009,24.970 290.440,24.970 290.808 C 24.970 291.176,25.209 291.477,25.502 291.477 C 25.794 291.477,25.916 291.783,25.772 292.157 C 25.628 292.531,25.818 292.955,26.193 293.099 C 26.573 293.245,26.749 293.687,26.591 294.099 C 26.435 294.506,26.524 294.838,26.787 294.838 C 27.051 294.838,27.402 295.378,27.568 296.038 C 27.734 296.699,28.189 297.239,28.581 297.239 C 28.972 297.239,29.292 297.485,29.292 297.787 C 29.292 298.633,31.333 302.521,31.778 302.521 C 31.995 302.521,32.173 303.061,32.173 303.721 C 32.173 304.468,32.445 304.922,32.893 304.922 C 33.289 304.922,33.613 305.328,33.613 305.824 C 33.613 306.319,33.938 306.994,34.334 307.323 C 34.730 307.652,35.054 308.362,35.054 308.902 C 35.054 309.442,35.196 309.742,35.370 309.568 C 35.856 309.082,36.975 310.214,36.975 311.191 C 36.975 311.669,37.419 312.201,37.962 312.373 C 38.504 312.546,38.856 312.938,38.743 313.246 C 38.630 313.554,38.972 314.284,39.504 314.868 C 40.035 315.452,40.714 316.425,41.012 317.029 C 41.310 317.633,42.036 318.341,42.626 318.601 C 43.215 318.862,43.697 319.485,43.697 319.987 C 43.697 320.947,45.847 323.261,46.309 322.799 C 46.566 322.542,46.709 323.962,46.459 324.284 C 46.282 324.512,47.598 325.707,49.045 326.632 C 49.741 327.077,50.761 328.373,51.312 329.511 C 52.201 331.346,56.711 335.894,57.643 335.894 C 57.838 335.894,59.588 337.614,61.532 339.715 C 68.158 346.880,69.697 348.367,70.487 348.373 C 70.922 348.377,71.526 348.877,71.830 349.485 C 72.614 351.053,74.014 352.252,75.494 352.624 C 76.194 352.800,76.898 353.357,77.058 353.863 C 77.219 354.368,77.973 354.999,78.734 355.264 C 79.495 355.529,80.358 356.196,80.652 356.745 C 80.946 357.294,81.611 357.743,82.130 357.743 C 82.649 357.743,83.073 357.959,83.073 358.223 C 83.073 358.487,83.410 358.703,83.822 358.703 C 84.234 358.703,84.441 358.913,84.282 359.170 C 84.124 359.426,84.543 359.774,85.214 359.942 C 85.886 360.110,86.435 360.534,86.435 360.884 C 86.435 361.234,86.921 361.674,87.515 361.861 C 88.109 362.049,88.880 362.607,89.229 363.102 C 89.577 363.597,90.080 363.867,90.347 363.701 C 90.614 363.536,91.146 363.848,91.528 364.394 C 91.924 364.959,92.527 365.269,92.930 365.115 C 93.319 364.965,93.642 365.028,93.647 365.255 C 93.652 365.481,94.728 366.315,96.038 367.107 C 97.349 367.899,98.425 368.797,98.430 369.103 C 98.435 369.420,98.850 369.551,99.400 369.407 C 100.050 369.237,100.360 369.392,100.360 369.887 C 100.360 370.370,100.671 370.537,101.274 370.379 C 101.912 370.213,102.288 370.455,102.519 371.181 C 102.700 371.753,102.971 372.099,103.121 371.949 C 103.271 371.799,103.660 371.899,103.987 372.170 C 104.314 372.441,104.766 372.632,104.991 372.594 C 105.740 372.469,107.563 373.214,107.563 373.645 C 107.563 373.879,107.887 374.070,108.283 374.070 C 108.679 374.070,109.004 374.276,109.004 374.528 C 109.004 374.780,109.760 375.128,110.684 375.302 C 111.609 375.475,112.365 375.809,112.365 376.044 C 112.365 376.279,112.689 376.471,113.085 376.471 C 113.481 376.471,113.806 376.687,113.806 376.951 C 113.806 377.215,113.968 377.397,114.166 377.355 C 114.877 377.204,119.088 379.013,119.088 379.469 C 119.088 379.669,119.412 379.832,119.808 379.832 C 120.204 379.832,120.528 380.007,120.528 380.220 C 120.528 380.433,121.447 380.811,122.569 381.060 C 123.691 381.309,124.563 381.761,124.506 382.065 C 124.376 382.753,126.537 383.332,127.772 382.940 C 128.429 382.732,128.691 382.879,128.691 383.457 C 128.691 384.020,128.974 384.192,129.621 384.023 C 130.140 383.887,130.657 384.057,130.792 384.410 C 130.933 384.778,131.444 384.932,132.023 384.781 C 132.611 384.627,133.013 384.753,133.013 385.090 C 133.013 385.441,133.382 385.542,133.976 385.353 C 134.590 385.159,135.034 385.295,135.200 385.730 C 135.365 386.159,135.899 386.329,136.639 386.187 C 137.319 386.057,137.815 386.189,137.815 386.499 C 137.815 386.794,138.355 387.035,139.016 387.035 C 139.676 387.035,140.216 387.276,140.216 387.571 C 140.216 387.876,140.643 387.996,141.206 387.848 C 141.810 387.690,142.297 387.854,142.456 388.269 C 142.628 388.717,143.108 388.851,143.863 388.661 C 144.676 388.457,145.099 388.608,145.319 389.180 C 145.535 389.743,145.964 389.903,146.734 389.710 C 147.343 389.557,147.988 389.671,148.168 389.963 C 148.351 390.259,149.086 390.375,149.835 390.225 C 150.784 390.035,151.257 390.176,151.462 390.708 C 151.660 391.224,152.106 391.369,152.891 391.172 C 153.615 390.990,154.252 391.150,154.633 391.611 C 155.060 392.124,155.705 392.247,156.849 392.033 C 157.945 391.827,158.463 391.913,158.463 392.300 C 158.463 392.641,159.018 392.811,159.844 392.725 C 160.603 392.645,161.573 392.869,162.000 393.223 C 162.507 393.644,163.344 393.759,164.423 393.557 C 165.381 393.377,166.200 393.455,166.377 393.743 C 166.546 394.015,167.738 394.238,169.028 394.238 C 170.317 394.238,171.510 394.461,171.678 394.734 C 171.847 395.007,173.210 395.225,174.708 395.218 C 180.090 395.195,187.275 395.751,187.275 396.190 C 187.275 396.457,192.532 396.639,200.240 396.639 C 207.949 396.639,213.205 396.457,213.205 396.190 C 213.205 395.755,220.387 395.193,225.653 395.216 C 227.085 395.222,228.399 394.997,228.573 394.715 C 228.747 394.434,230.114 394.189,231.612 394.171 C 233.109 394.153,234.334 393.927,234.334 393.670 C 234.334 393.400,234.939 393.334,235.762 393.515 C 236.703 393.721,237.547 393.579,238.233 393.099 C 238.879 392.647,239.797 392.473,240.646 392.643 C 241.570 392.828,242.017 392.721,242.017 392.316 C 242.017 391.885,242.550 391.799,243.887 392.013 C 245.224 392.227,245.828 392.129,246.004 391.671 C 246.163 391.256,246.773 391.106,247.735 391.248 C 248.636 391.380,249.220 391.255,249.220 390.931 C 249.220 390.637,249.747 390.396,250.392 390.396 C 251.037 390.396,251.705 390.167,251.878 389.888 C 252.058 389.596,252.787 389.510,253.587 389.686 C 254.701 389.931,254.982 389.827,254.982 389.174 C 254.982 388.521,255.273 388.413,256.423 388.643 C 257.235 388.806,257.863 388.727,257.863 388.463 C 257.863 388.206,258.403 387.995,259.064 387.995 C 259.724 387.995,260.264 387.779,260.264 387.515 C 260.264 387.251,260.804 387.035,261.465 387.035 C 262.125 387.035,262.665 386.802,262.665 386.516 C 262.665 386.186,263.208 386.117,264.166 386.328 C 265.209 386.557,265.566 386.495,265.338 386.126 C 265.131 385.791,265.454 385.594,266.210 385.594 C 266.870 385.594,267.553 385.363,267.727 385.081 C 267.902 384.799,268.329 384.678,268.676 384.811 C 269.024 384.944,269.437 384.718,269.594 384.309 C 269.772 383.845,270.239 383.659,270.834 383.814 C 271.457 383.977,271.789 383.826,271.789 383.379 C 271.789 382.889,272.129 382.780,272.989 382.996 C 273.738 383.184,274.190 383.094,274.190 382.756 C 274.190 382.410,274.649 382.330,275.462 382.534 C 276.357 382.759,276.633 382.690,276.394 382.303 C 276.207 382.000,276.313 381.753,276.629 381.753 C 276.946 381.753,277.495 381.375,277.849 380.912 C 278.368 380.235,278.575 380.197,278.916 380.713 C 279.240 381.204,279.400 381.120,279.601 380.351 C 279.778 379.674,280.112 379.443,280.628 379.641 C 281.058 379.806,281.393 379.690,281.393 379.375 C 281.393 379.067,281.591 378.938,281.834 379.088 C 282.077 379.238,282.575 379.061,282.942 378.694 C 283.308 378.328,284.298 377.877,285.141 377.691 C 285.985 377.506,286.675 377.156,286.675 376.913 C 286.675 376.670,287.107 376.471,287.635 376.471 C 288.163 376.471,288.595 376.272,288.595 376.029 C 288.595 375.785,289.244 375.444,290.036 375.270 C 290.828 375.096,291.477 374.772,291.477 374.550 C 291.477 374.328,292.125 374.004,292.917 373.830 C 293.709 373.656,294.358 373.314,294.358 373.071 C 294.358 372.828,294.682 372.629,295.078 372.629 C 295.474 372.629,295.800 372.467,295.802 372.269 C 295.807 371.751,298.257 370.687,298.747 370.990 C 298.974 371.130,299.160 371.040,299.160 370.789 C 299.160 370.538,299.700 370.197,300.360 370.031 C 301.020 369.865,301.561 369.410,301.561 369.018 C 301.561 368.627,301.869 368.307,302.247 368.307 C 302.624 368.307,303.227 368.037,303.586 367.707 C 304.677 366.704,306.378 365.859,306.792 366.115 C 307.007 366.248,307.436 365.799,307.747 365.119 C 308.143 364.249,308.580 363.951,309.216 364.117 C 309.838 364.280,310.200 364.052,310.374 363.387 C 310.547 362.725,310.877 362.516,311.420 362.725 C 311.969 362.935,312.294 362.720,312.476 362.028 C 312.656 361.338,313.015 361.100,313.631 361.261 C 314.230 361.417,314.845 361.044,315.498 360.127 C 316.033 359.375,316.898 358.625,317.419 358.459 C 317.941 358.294,318.367 357.853,318.367 357.480 C 318.367 357.106,318.959 356.652,319.682 356.471 C 320.406 356.289,321.394 355.637,321.878 355.021 C 322.362 354.405,323.138 353.902,323.601 353.902 C 324.508 353.902,326.531 352.009,326.531 351.161 C 326.531 350.876,327.300 350.336,328.240 349.961 C 329.223 349.569,330.704 348.300,331.722 346.977 C 332.696 345.711,334.136 344.320,334.921 343.886 C 336.475 343.028,344.778 334.872,344.778 334.204 C 344.778 333.979,345.372 333.242,346.098 332.567 C 346.825 331.892,348.229 330.585,349.220 329.664 C 350.210 328.742,351.020 327.693,351.020 327.333 C 351.020 326.500,352.323 325.015,354.017 323.917 C 354.742 323.448,355.207 322.859,355.053 322.609 C 354.898 322.359,355.548 321.491,356.497 320.680 C 357.447 319.869,358.223 318.852,358.223 318.420 C 358.223 317.988,358.764 317.229,359.424 316.733 C 360.084 316.238,360.624 315.445,360.624 314.971 C 360.624 314.498,361.072 313.968,361.619 313.794 C 362.187 313.614,362.509 313.203,362.368 312.837 C 362.076 312.074,363.185 311.017,363.741 311.529 C 363.953 311.725,364.014 311.421,363.875 310.855 C 363.688 310.097,363.923 309.688,364.764 309.305 C 365.392 309.018,365.906 308.374,365.906 307.872 C 365.906 307.371,366.218 306.702,366.598 306.386 C 366.979 306.070,367.182 305.532,367.051 305.190 C 366.917 304.841,367.245 304.455,367.800 304.310 C 368.400 304.153,368.788 303.657,368.788 303.046 C 368.788 302.493,369.004 302.041,369.268 302.041 C 369.532 302.041,369.748 301.743,369.748 301.379 C 369.748 301.016,370.072 300.449,370.468 300.120 C 370.864 299.791,371.188 299.117,371.188 298.621 C 371.188 298.125,371.405 297.719,371.669 297.719 C 371.933 297.719,372.149 297.406,372.149 297.023 C 372.149 296.640,372.435 296.153,372.785 295.942 C 373.529 295.494,374.263 293.900,374.124 293.037 C 374.071 292.707,374.253 292.437,374.529 292.437 C 374.804 292.437,375.030 292.005,375.030 291.477 C 375.030 290.948,375.246 290.516,375.510 290.516 C 375.774 290.516,375.990 290.192,375.990 289.796 C 375.990 289.400,376.206 289.076,376.471 289.076 C 376.735 289.076,376.951 288.643,376.951 288.115 C 376.951 287.587,377.160 287.155,377.416 287.155 C 377.672 287.155,377.757 286.831,377.605 286.435 C 377.453 286.038,377.542 285.714,377.804 285.714 C 378.065 285.714,378.438 285.228,378.631 284.634 C 378.824 284.040,379.030 283.445,379.089 283.313 C 379.147 283.181,379.376 282.641,379.598 282.113 C 379.820 281.585,380.126 281.044,380.277 280.912 C 380.843 280.418,381.753 278.499,381.753 277.798 C 381.753 277.398,381.983 277.071,382.265 277.071 C 382.559 277.071,382.648 276.661,382.473 276.110 C 382.264 275.451,382.387 275.150,382.865 275.150 C 383.595 275.150,384.306 273.552,384.181 272.191 C 384.141 271.753,384.334 271.254,384.611 271.083 C 384.888 270.912,385.114 270.352,385.114 269.840 C 385.114 269.327,385.323 268.908,385.579 268.908 C 385.835 268.908,385.916 268.573,385.759 268.164 C 385.596 267.740,385.840 267.153,386.328 266.796 C 386.797 266.453,387.037 265.938,386.860 265.652 C 386.684 265.366,386.759 264.997,387.027 264.831 C 387.295 264.665,387.515 264.002,387.515 263.357 C 387.515 262.712,387.731 262.185,387.995 262.185 C 388.259 262.185,388.475 261.657,388.475 261.013 C 388.475 260.368,388.682 259.713,388.935 259.557 C 389.187 259.401,389.271 258.953,389.121 258.562 C 388.971 258.171,389.107 257.539,389.423 257.158 C 389.740 256.777,389.874 256.264,389.722 256.018 C 389.571 255.772,389.760 255.311,390.142 254.993 C 390.525 254.676,390.983 253.139,391.159 251.578 C 391.336 250.017,391.694 248.739,391.955 248.739 C 392.216 248.739,392.325 248.194,392.197 247.528 C 392.070 246.861,392.153 246.200,392.381 246.059 C 392.610 245.917,392.797 245.085,392.797 244.208 C 392.797 243.332,393.119 242.347,393.513 242.021 C 393.967 241.643,394.123 241.006,393.939 240.275 C 393.780 239.641,393.903 238.818,394.213 238.446 C 394.554 238.034,394.653 237.120,394.466 236.118 C 394.228 234.852,394.335 234.399,394.925 234.173 C 395.528 233.941,395.628 233.468,395.388 231.968 C 395.160 230.543,395.280 229.861,395.861 229.281 C 396.732 228.409,396.849 227.246,396.171 226.175 C 395.864 225.689,395.962 225.089,396.474 224.307 C 397.066 223.403,397.161 222.455,396.911 219.918 C 396.678 217.556,396.760 216.504,397.216 216.024 C 398.030 215.165,398.019 182.953,397.203 180.934 C 396.909 180.205,396.804 178.575,396.965 177.221 C 397.131 175.813,397.042 174.553,396.750 174.198 C 396.100 173.406,395.846 170.882,396.338 170.087 C 396.561 169.725,396.395 168.968,395.940 168.274 C 395.387 167.428,395.253 166.581,395.482 165.361 C 395.711 164.141,395.614 163.522,395.147 163.234 C 394.786 163.010,394.436 162.116,394.370 161.246 C 394.038 156.832,393.810 155.431,393.382 155.159 C 393.124 154.996,392.757 153.511,392.568 151.861 C 392.378 150.210,392.028 148.860,391.790 148.860 C 391.551 148.860,391.357 148.103,391.357 147.179 C 391.357 146.255,391.136 145.498,390.867 145.498 C 390.591 145.498,390.503 144.998,390.666 144.350 C 390.824 143.719,390.721 143.058,390.435 142.881 C 390.150 142.705,389.916 142.033,389.916 141.388 C 389.916 140.744,389.683 140.216,389.398 140.216 C 389.071 140.216,388.997 139.682,389.196 138.776 C 389.395 137.869,389.320 137.335,388.994 137.335 C 388.709 137.335,388.475 136.926,388.475 136.426 C 388.475 135.926,388.136 135.387,387.722 135.228 C 387.235 135.041,387.072 134.613,387.261 134.016 C 387.422 133.509,387.339 132.961,387.075 132.798 C 386.812 132.635,386.705 132.220,386.838 131.874 C 386.970 131.529,386.767 130.988,386.386 130.672 C 386.005 130.355,385.797 129.702,385.923 129.220 C 386.057 128.705,385.842 128.225,385.401 128.056 C 384.964 127.888,384.769 127.458,384.933 127.029 C 385.089 126.623,384.963 126.291,384.653 126.291 C 384.307 126.291,384.207 125.918,384.394 125.330 C 384.616 124.629,384.480 124.370,383.890 124.370 C 383.318 124.370,383.155 124.089,383.332 123.409 C 383.471 122.881,383.388 122.449,383.148 122.449 C 382.909 122.449,382.713 122.030,382.713 121.517 C 382.713 121.004,382.482 120.442,382.200 120.268 C 381.918 120.094,381.803 119.649,381.945 119.279 C 382.094 118.892,381.904 118.607,381.498 118.607 C 381.110 118.607,380.792 118.188,380.792 117.675 C 380.792 117.163,380.597 116.622,380.357 116.474 C 380.118 116.327,380.044 115.740,380.193 115.171 C 380.378 114.461,380.288 114.244,379.908 114.479 C 379.577 114.683,379.352 114.519,379.352 114.074 C 379.352 113.662,379.160 113.325,378.925 113.325 C 378.690 113.325,378.363 112.607,378.199 111.729 C 378.034 110.851,377.507 109.712,377.028 109.197 C 376.549 108.683,376.246 107.997,376.354 107.673 C 376.462 107.348,376.317 107.083,376.030 107.083 C 375.744 107.083,375.510 106.759,375.510 106.363 C 375.510 105.966,375.163 105.642,374.739 105.642 C 374.250 105.642,374.068 105.378,374.243 104.922 C 374.395 104.526,374.310 104.202,374.055 104.202 C 373.799 104.202,373.589 103.649,373.589 102.973 C 373.589 102.297,373.392 101.866,373.152 102.015 C 372.911 102.163,372.572 101.441,372.397 100.409 C 372.172 99.074,371.796 98.459,371.092 98.275 C 370.438 98.104,370.201 97.763,370.391 97.268 C 370.549 96.856,370.469 96.519,370.213 96.519 C 369.957 96.519,369.748 96.207,369.748 95.826 C 369.748 95.444,369.311 94.826,368.777 94.452 C 368.197 94.046,367.921 93.472,368.091 93.028 C 368.279 92.539,368.024 92.172,367.347 91.957 C 366.781 91.777,366.419 91.364,366.544 91.039 C 366.669 90.713,366.360 90.191,365.858 89.877 C 365.357 89.564,364.946 88.998,364.946 88.619 C 364.946 88.240,364.545 87.647,364.054 87.302 C 363.564 86.957,363.009 86.188,362.822 85.594 C 362.634 85.000,362.171 84.514,361.792 84.514 C 361.139 84.514,360.912 83.977,361.055 82.773 C 361.090 82.476,360.569 81.872,359.896 81.431 C 359.223 80.991,358.808 80.412,358.972 80.145 C 359.283 79.643,357.463 77.791,356.658 77.791 C 356.406 77.791,356.337 77.434,356.504 76.998 C 356.801 76.224,355.385 74.430,354.476 74.430 C 353.823 74.430,352.461 72.761,352.461 71.961 C 352.461 71.570,351.796 70.757,350.983 70.157 C 350.171 69.556,348.872 68.065,348.097 66.843 C 346.520 64.355,333.422 51.381,332.489 51.381 C 332.159 51.381,330.809 50.169,329.489 48.687 C 327.938 46.947,326.878 46.124,326.495 46.360 C 326.114 46.596,326.024 46.529,326.245 46.173 C 326.449 45.842,326.279 45.618,325.824 45.618 C 325.404 45.618,324.918 45.240,324.745 44.778 C 324.335 43.686,323.144 42.772,322.106 42.752 C 321.653 42.744,321.024 42.255,320.709 41.667 C 319.880 40.116,319.166 39.510,318.451 39.748 C 318.106 39.863,317.704 39.500,317.558 38.941 C 317.406 38.360,316.751 37.791,316.029 37.613 C 315.334 37.442,314.420 36.908,313.997 36.427 C 313.574 35.945,313.098 35.682,312.939 35.840 C 312.781 35.999,312.327 35.805,311.930 35.408 C 311.534 35.012,311.344 34.554,311.507 34.391 C 311.671 34.227,311.330 34.094,310.749 34.094 C 310.169 34.094,309.569 33.770,309.417 33.373 C 309.265 32.977,308.732 32.653,308.232 32.653 C 307.732 32.653,307.323 32.454,307.323 32.210 C 307.323 31.966,306.565 31.517,305.638 31.211 C 304.711 30.905,304.076 30.456,304.226 30.213 C 304.524 29.730,302.171 28.597,301.200 28.756 C 300.870 28.809,300.600 28.613,300.600 28.318 C 300.600 27.479,299.460 26.551,298.728 26.794 C 298.284 26.943,298.193 26.810,298.451 26.391 C 298.725 25.949,298.615 25.852,298.073 26.060 C 297.267 26.370,294.848 25.463,294.842 24.850 C 294.840 24.652,294.514 24.490,294.118 24.490 C 293.721 24.490,293.397 24.274,293.397 24.010 C 293.397 23.745,293.073 23.529,292.677 23.529 C 292.281 23.529,291.957 23.290,291.957 22.998 C 291.957 22.705,291.633 22.591,291.236 22.743 C 290.840 22.895,290.516 22.825,290.516 22.588 C 290.516 21.695,288.954 20.622,288.065 20.904 C 287.560 21.065,287.155 20.965,287.155 20.681 C 287.155 20.399,286.831 20.168,286.435 20.168 C 286.038 20.168,285.714 19.971,285.714 19.730 C 285.714 19.489,284.850 19.146,283.794 18.968 C 282.737 18.789,281.873 18.453,281.873 18.220 C 281.873 17.988,281.549 17.922,281.152 18.074 C 280.685 18.253,280.432 18.061,280.432 17.527 C 280.432 17.001,280.178 16.801,279.727 16.974 C 279.340 17.123,278.895 17.038,278.739 16.786 C 278.582 16.533,278.035 16.327,277.523 16.327 C 277.010 16.327,276.591 16.087,276.591 15.795 C 276.591 15.503,276.273 15.385,275.886 15.534 C 275.498 15.683,275.053 15.598,274.897 15.345 C 274.741 15.093,274.194 14.886,273.681 14.886 C 273.169 14.886,272.749 14.645,272.749 14.350 C 272.749 14.050,272.326 13.924,271.789 14.065 C 271.261 14.203,270.708 14.120,270.560 13.880 C 270.412 13.641,269.872 13.445,269.359 13.445 C 268.847 13.445,268.427 13.250,268.427 13.010 C 268.427 12.771,267.347 12.427,266.026 12.245 C 264.381 12.019,263.625 11.692,263.625 11.207 C 263.625 10.728,263.328 10.594,262.705 10.791 C 262.199 10.952,261.637 10.844,261.456 10.551 C 261.275 10.258,260.831 10.132,260.470 10.271 C 260.108 10.410,259.497 10.208,259.112 9.824 C 258.727 9.439,257.856 9.124,257.177 9.124 C 256.498 9.124,255.942 8.903,255.942 8.634 C 255.942 8.352,255.434 8.273,254.742 8.446 C 253.849 8.670,253.541 8.557,253.541 8.005 C 253.541 7.425,253.174 7.323,251.861 7.536 C 250.489 7.759,250.180 7.658,250.180 6.987 C 250.180 6.325,249.902 6.227,248.739 6.483 C 247.768 6.696,247.299 6.613,247.299 6.227 C 247.299 5.834,246.775 5.754,245.618 5.971 C 244.240 6.229,243.938 6.141,243.938 5.481 C 243.938 4.818,243.597 4.721,242.017 4.933 C 240.943 5.077,239.963 4.976,239.795 4.703 C 239.629 4.435,238.754 4.336,237.849 4.483 C 236.629 4.681,236.130 4.557,235.918 4.003 C 235.689 3.407,235.162 3.319,233.302 3.566 C 231.389 3.819,230.972 3.742,230.972 3.133 C 230.972 2.537,230.434 2.416,228.211 2.517 C 226.130 2.610,225.483 2.485,225.582 2.007 C 225.682 1.521,225.176 1.439,223.421 1.657 C 219.027 2.203,218.487 2.213,218.487 1.748 C 218.487 1.491,218.345 1.423,218.171 1.596 C 217.998 1.770,217.620 1.728,217.331 1.502 C 216.450 0.812,211.382 0.414,211.016 1.006 M219.448 9.399 C 230.643 10.790,231.688 10.949,237.695 12.173 C 288.662 22.559,332.072 52.243,360.694 96.279 C 367.923 107.400,371.293 113.986,378.389 130.852 C 391.767 162.654,394.713 208.000,385.781 244.658 C 361.418 344.647,263.438 407.152,162.305 387.222 C 101.255 375.191,50.297 334.195,24.721 276.536 C 23.009 272.676,21.609 269.295,21.609 269.023 C 21.609 268.751,20.975 267.040,20.201 265.221 C 19.428 263.402,18.005 259.328,17.040 256.167 C -9.187 170.238,27.071 78.410,104.922 33.599 C 138.913 14.034,182.548 4.813,219.448 9.399 M191.837 11.810 C 115.543 16.323,51.155 65.422,29.430 135.654 C 4.645 215.777,36.323 299.721,107.681 343.015 C 162.190 376.086,236.053 376.546,289.076 344.145 C 301.370 336.632,307.378 332.325,316.633 324.392 C 360.210 287.034,383.754 226.634,376.726 170.228 C 375.356 159.235,375.034 157.358,373.068 148.929 C 353.896 66.687,274.872 6.898,191.837 11.810 M197.335 49.019 C 200.411 49.679,200.377 49.987,197.084 51.353 C 187.539 55.309,190.645 63.412,202.266 64.871 C 206.441 65.395,207.038 64.975,205.005 62.942 C 202.230 60.167,203.913 59.897,208.624 62.362 C 213.460 64.891,213.694 64.797,213.610 60.358 C 213.437 51.263,222.217 46.943,230.132 52.229 C 233.038 54.170,232.553 54.804,228.269 54.668 C 218.405 54.353,220.925 63.837,231.268 65.956 C 251.541 70.109,266.253 82.167,259.648 89.217 C 258.318 90.637,258.957 91.792,261.347 92.288 C 264.679 92.981,269.868 97.279,269.868 99.347 C 269.868 100.198,271.961 101.321,273.548 101.321 C 275.793 101.321,275.858 101.964,273.799 103.824 C 269.020 108.141,257.400 107.502,246.844 102.343 C 242.192 100.069,241.879 100.018,240.576 101.321 C 239.172 102.725,239.338 103.235,242.310 106.638 C 243.793 108.335,245.852 110.858,246.887 112.245 C 248.956 115.015,249.655 115.229,251.992 113.804 C 254.694 112.157,254.926 113.392,252.341 115.662 C 250.309 117.446,250.314 117.345,252.092 120.572 C 254.122 124.255,254.070 124.370,250.365 124.370 C 247.690 124.370,246.496 124.061,242.802 122.418 C 240.389 121.344,236.687 120.051,234.574 119.544 C 231.495 118.805,230.546 118.358,229.791 117.294 C 218.614 101.524,202.528 98.605,195.514 111.074 C 188.252 123.984,194.065 132.247,216.685 141.165 C 219.523 142.284,222.632 143.824,223.594 144.589 C 224.555 145.353,225.499 145.978,225.690 145.978 C 225.882 145.978,229.420 147.804,233.552 150.035 C 260.444 164.552,272.273 183.085,272.340 210.804 C 272.364 220.715,270.764 227.733,267.102 233.780 C 255.133 253.544,240.249 261.780,215.643 262.255 C 212.645 262.313,213.146 262.406,218.487 262.783 C 222.997 263.101,225.864 263.080,227.907 262.713 C 233.468 261.713,233.503 261.757,234.051 270.396 C 234.400 275.903,235.262 278.650,237.964 282.874 C 241.151 287.852,243.275 289.291,250.287 291.220 C 252.354 291.789,253.366 292.391,254.369 293.647 C 256.604 296.449,258.636 294.403,257.150 290.847 C 255.355 286.551,256.974 283.751,261.843 282.730 C 265.160 282.034,265.562 282.345,263.900 284.320 C 262.412 286.089,262.320 288.717,263.737 288.985 C 264.344 289.100,264.883 288.431,265.736 286.502 C 267.604 282.278,269.715 281.543,273.980 283.631 C 276.433 284.833,277.450 286.194,275.893 286.194 C 273.427 286.194,270.579 289.423,271.051 291.682 C 271.192 292.361,271.421 293.457,271.558 294.118 C 271.750 295.044,272.107 295.319,273.118 295.320 C 276.270 295.324,278.992 298.530,278.992 302.237 C 278.992 304.183,278.403 304.748,277.505 303.666 C 275.073 300.736,271.966 301.863,266.716 307.583 C 260.669 314.170,253.607 318.797,250.742 318.048 C 250.185 317.902,248.552 318.271,247.113 318.868 C 244.676 319.878,244.254 319.913,240.975 319.386 C 237.213 318.781,234.695 319.034,233.806 320.106 C 232.923 321.169,232.032 320.874,231.711 319.411 C 231.112 316.683,232.741 314.734,236.343 313.872 C 237.936 313.490,238.437 312.083,237.601 310.332 C 236.631 308.298,234.817 308.330,232.501 310.422 C 229.916 312.757,228.536 311.952,225.750 306.483 C 225.178 305.360,224.499 304.442,224.240 304.442 C 223.810 304.442,223.721 304.756,223.574 306.803 C 223.420 308.953,221.213 307.224,218.873 303.121 C 217.175 300.144,216.852 300.063,215.543 302.281 C 213.106 306.410,209.249 299.408,209.398 291.128 C 209.440 288.811,209.449 286.454,209.419 285.891 C 209.364 284.869,200.649 276.833,195.847 273.376 C 191.843 270.493,191.661 269.790,194.156 266.849 C 198.202 262.081,200.255 258.137,201.417 252.901 C 201.614 252.015,201.545 251.648,201.220 251.849 C 200.945 252.019,200.720 252.463,200.720 252.837 C 200.720 255.074,195.467 264.045,192.307 267.204 C 189.542 269.970,184.216 271.978,177.483 272.794 C 167.378 274.019,159.839 284.569,163.731 292.037 C 164.909 294.297,169.595 299.629,171.001 300.309 C 171.489 300.545,172.015 301.139,172.171 301.629 C 172.455 302.526,173.830 302.901,173.830 302.082 C 173.830 301.841,174.919 300.973,176.251 300.153 C 178.017 299.067,178.910 298.112,179.550 296.630 C 181.326 292.518,184.551 291.785,188.724 294.547 C 190.976 296.037,191.119 296.637,189.316 297.023 C 185.472 297.845,183.935 299.902,184.916 302.911 C 185.666 305.212,185.932 305.346,189.181 305.051 C 193.489 304.660,195.010 306.045,195.631 310.924 C 196.071 314.385,195.369 315.202,193.654 313.225 C 191.476 310.713,189.263 310.619,186.784 312.931 L 184.788 314.793 185.615 316.527 C 186.720 318.846,186.228 321.327,184.245 323.431 C 182.442 325.344,179.644 326.321,180.320 324.802 C 181.719 321.658,179.457 318.578,175.230 317.871 C 173.800 317.632,170.684 317.001,168.307 316.469 C 159.358 314.467,148.542 315.479,146.262 318.534 L 145.267 319.866 146.289 321.732 C 147.423 323.803,147.328 324.130,145.584 324.130 C 144.175 324.130,140.914 320.927,139.934 318.582 C 138.902 316.112,140.200 312.655,142.631 311.397 C 143.850 310.767,144.058 310.382,144.058 308.751 C 144.058 306.717,143.252 306.219,142.137 307.563 C 139.933 310.219,138.937 304.477,141.027 301.159 C 141.958 299.680,141.664 299.489,139.690 300.291 C 136.650 301.527,136.200 300.127,137.557 293.643 C 138.352 289.842,138.045 289.099,136.261 290.502 C 135.580 291.038,134.895 291.477,134.738 291.477 C 133.724 291.477,135.244 281.153,136.487 279.598 C 137.110 278.819,136.604 277.551,135.669 277.551 C 134.455 277.551,134.828 276.213,136.780 273.569 C 141.154 267.644,147.575 253.148,146.788 250.975 C 146.677 250.670,146.208 251.717,145.744 253.301 C 145.281 254.886,144.742 256.399,144.547 256.663 C 144.352 256.927,144.061 257.837,143.901 258.686 C 143.740 259.535,142.054 262.884,140.155 266.129 C 133.288 277.858,132.765 278.992,134.214 278.992 C 135.105 278.992,135.106 279.244,134.224 282.630 C 133.491 285.445,133.131 292.715,133.697 293.281 C 133.873 293.457,134.461 293.324,135.003 292.986 C 137.613 291.356,136.429 295.167,133.463 297.941 C 125.595 305.301,106.108 308.979,96.999 304.824 C 70.076 292.542,74.118 254.598,103.962 239.460 C 113.778 234.481,115.184 233.936,129.638 229.500 C 135.511 227.698,139.605 226.087,147.522 222.464 C 150.162 221.256,150.337 221.237,152.084 221.965 C 169.610 229.265,188.858 232.183,201.441 229.447 C 205.075 228.656,206.983 227.476,204.082 227.813 C 178.613 230.771,157.630 225.844,137.095 212.084 C 129.612 207.070,118.449 195.918,120.912 195.918 C 121.124 195.918,121.502 196.107,121.753 196.338 C 122.996 197.484,128.801 199.280,131.260 199.280 C 137.766 199.280,137.178 193.564,129.732 184.436 C 127.662 181.898,128.268 181.955,131.965 184.645 C 142.360 192.209,151.520 192.280,145.964 184.754 C 144.708 183.053,145.519 183.073,148.053 184.806 C 156.340 190.475,165.714 190.962,176.905 186.303 C 188.588 181.439,188.127 169.452,175.750 156.303 C 170.839 151.085,167.674 145.927,166.174 140.696 C 165.833 139.508,165.255 137.579,164.890 136.409 C 162.841 129.850,164.781 116.847,169.059 108.462 L 170.046 106.528 169.056 106.269 C 168.512 106.127,168.067 105.722,168.067 105.369 C 168.067 104.684,168.517 104.324,173.275 101.206 C 176.277 99.239,180.552 94.901,180.552 93.822 C 180.552 93.146,178.985 92.692,176.619 92.684 C 172.955 92.670,174.382 90.366,178.653 89.400 C 182.080 88.625,187.242 85.941,188.466 84.299 C 189.694 82.652,188.965 81.972,185.030 81.092 C 180.170 80.004,182.705 77.810,188.836 77.798 C 194.116 77.788,193.984 75.924,188.268 69.803 C 179.089 59.974,185.020 46.378,197.335 49.019 M45.974 68.727 C 45.514 68.985,45.138 69.401,45.138 69.652 C 45.138 70.424,46.457 70.156,46.779 69.319 C 47.174 68.289,46.994 68.157,45.974 68.727 M224.010 80.573 C 222.669 81.006,219.946 81.356,217.844 81.366 C 214.455 81.382,214.215 81.442,215.443 81.967 C 217.288 82.755,219.140 82.729,224.286 81.841 C 231.021 80.679,234.707 81.763,236.824 85.530 C 238.059 87.728,238.655 87.903,238.655 86.067 C 238.655 80.696,231.704 78.089,224.010 80.573 M231.876 84.517 C 230.877 85.101,229.820 87.642,230.182 88.587 C 230.585 89.636,231.933 89.486,231.933 88.392 C 231.933 87.884,232.473 86.827,233.133 86.042 C 234.805 84.055,234.109 83.212,231.876 84.517 M224.250 84.773 C 224.250 88.223,230.936 93.026,233.674 91.542 L 235.054 90.795 233.133 90.774 C 230.929 90.750,228.414 89.393,227.582 87.781 C 226.542 85.767,224.250 83.697,224.250 84.773 M234.334 95.024 C 225.997 97.730,224.086 105.370,230.479 110.434 C 232.766 112.245,233.476 112.313,231.831 110.564 C 226.605 105.004,227.725 98.802,234.292 96.948 C 237.616 96.010,241.414 96.908,248.684 100.352 C 252.138 101.988,255.238 103.226,255.573 103.102 C 255.908 102.978,255.112 102.407,253.803 101.833 C 252.494 101.259,250.169 100.028,248.636 99.097 C 243.220 95.807,237.202 94.093,234.334 95.024 M25.323 98.246 C 25.165 98.404,25.155 98.842,25.299 99.219 C 25.578 99.947,26.891 99.255,26.891 98.381 C 26.891 97.905,25.762 97.808,25.323 98.246 M262.279 112.107 C 263.762 112.493,267.020 113.902,269.519 115.237 C 273.332 117.274,274.709 117.747,278.088 118.174 C 288.252 119.462,292.708 121.339,298.361 126.716 C 308.370 136.235,317.960 141.876,327.884 144.080 C 340.218 146.820,343.278 149.027,345.515 156.797 C 347.226 162.741,349.890 165.853,354.502 167.294 C 356.080 167.788,355.346 168.547,353.301 168.537 C 349.291 168.516,347.822 167.407,340.218 158.661 C 337.356 155.368,334.050 153.680,329.744 153.310 C 326.696 153.049,312.661 148.665,305.927 145.872 C 300.955 143.809,296.248 140.885,291.825 137.110 C 287.913 133.773,287.320 133.561,289.353 136.226 C 293.835 142.103,305.415 147.795,323.295 152.910 C 329.727 154.750,331.612 156.711,334.281 164.338 C 335.928 169.044,336.867 170.342,341.009 173.648 C 344.479 176.416,345.604 177.998,345.078 179.368 C 344.815 180.055,344.544 179.966,343.139 178.733 C 342.241 177.944,340.028 176.808,338.220 176.207 C 332.042 174.154,329.234 171.930,326.046 166.563 C 324.108 163.302,319.259 158.463,317.928 158.463 C 317.494 158.463,318.187 159.484,319.639 160.984 C 327.844 169.463,330.645 175.475,330.100 183.433 C 329.704 189.223,330.169 190.938,333.507 195.982 C 336.163 199.996,337.087 202.239,337.092 204.682 C 337.096 206.539,337.098 206.540,331.273 201.124 C 325.294 195.563,323.382 192.431,321.729 185.486 C 319.152 174.664,315.109 169.922,304.429 165.201 C 292.217 159.803,281.086 149.152,277.388 139.327 C 275.490 134.282,273.110 130.904,269.482 128.101 C 265.762 125.227,263.019 121.975,261.324 118.428 C 260.503 116.708,259.039 114.424,258.071 113.352 L 256.311 111.405 257.946 111.405 C 258.846 111.405,260.796 111.721,262.279 112.107 M242.697 113.528 C 242.161 113.903,240.993 114.399,240.101 114.630 C 238.139 115.139,237.759 115.950,239.139 116.688 C 240.264 117.290,241.573 116.678,243.436 114.678 C 245.048 112.948,244.575 112.212,242.697 113.528 M11.044 128.903 C 11.044 129.284,11.261 129.729,11.525 129.892 C 11.789 130.055,12.005 129.744,12.005 129.200 C 12.005 128.656,11.789 128.211,11.525 128.211 C 11.261 128.211,11.044 128.523,11.044 128.903 M316.537 134.516 C 317.830 134.889,321.942 135.124,327.491 135.143 C 337.641 135.178,339.019 135.548,343.123 139.331 C 346.980 142.886,348.449 146.965,344.843 144.110 C 341.748 141.658,339.427 141.048,334.443 141.376 C 325.852 141.941,319.833 140.371,315.366 136.400 C 313.141 134.422,312.389 133.123,313.775 133.656 C 314.155 133.801,315.398 134.189,316.537 134.516 M281.180 148.739 C 284.551 153.925,294.886 162.014,304.682 167.134 C 314.420 172.223,315.117 173.522,315.486 187.275 L 315.763 197.599 317.307 200.679 C 319.141 204.341,318.998 204.655,316.172 203.156 C 311.372 200.609,308.872 196.293,308.433 189.793 C 308.068 184.402,307.302 182.927,302.730 178.818 C 287.958 165.544,282.755 159.333,280.663 152.476 C 279.043 147.164,279.238 145.752,281.180 148.739 M100.535 155.123 C 109.093 156.314,120.186 162.539,124.711 168.690 C 126.982 171.778,126.420 172.024,123.261 169.325 C 115.333 162.552,98.125 159.583,89.796 163.552 C 79.623 168.400,73.799 179.900,75.376 192.029 C 77.469 208.133,82.047 213.208,102.281 221.852 C 110.706 225.451,119.648 230.011,119.450 230.607 C 119.370 230.846,116.763 232.092,113.656 233.376 C 108.667 235.438,103.086 238.194,100.080 240.080 C 99.172 240.650,98.530 240.327,93.117 236.582 C 89.838 234.313,85.061 231.022,82.503 229.270 C 67.915 219.279,60.843 203.310,62.887 184.975 C 65.295 163.372,79.405 152.184,100.535 155.123 M294.758 172.950 L 303.065 181.433 302.926 190.236 C 302.807 197.827,302.901 199.251,303.615 200.576 C 304.633 202.468,304.638 202.641,303.673 202.641 C 300.908 202.641,298.679 197.533,298.679 191.194 C 298.679 185.679,296.648 179.886,293.180 175.510 C 291.300 173.138,285.554 164.078,286.072 164.303 C 286.280 164.392,290.188 168.283,294.758 172.950 M286.564 168.734 C 290.604 173.336,291.709 178.694,290.312 186.898 C 289.556 191.331,289.655 193.382,290.752 196.038 C 291.419 197.654,290.080 196.876,288.686 194.838 C 284.378 188.541,283.433 183.295,284.845 173.526 C 285.283 170.503,285.285 169.281,284.856 168.339 C 284.072 166.619,284.868 166.803,286.564 168.734 M0.000 181.458 C 0.000 182.148,0.222 182.358,0.741 182.159 C 1.560 181.844,1.459 180.959,0.570 180.662 C 0.254 180.557,0.000 180.910,0.000 181.458 M398.743 199.040 C 398.744 202.209,398.821 203.443,398.915 201.782 C 399.009 200.121,399.009 197.528,398.914 196.020 C 398.819 194.511,398.742 195.870,398.743 199.040 M127.011 265.762 C 117.103 268.836,110.033 274.920,113.205 277.644 C 116.229 280.240,118.597 278.044,118.605 272.636 C 118.608 270.663,120.857 269.152,126.579 267.279 C 129.074 266.462,131.044 265.316,130.611 264.932 C 130.480 264.815,128.860 265.189,127.011 265.762 " stroke="none" fill="#000000" fill-rule="evenodd"></path></g></svg>