<svg id="svg" xmlns="http://www.w3.org/2000/svg" xmlns:xlink="http://www.w3.org/1999/xlink" width="400" height="400" viewBox="0, 0, 400,400"><g id="svgg"><path id="path0" d="M188.235 0.480 C 188.235 0.771,186.154 0.960,182.953 0.960 C 179.349 0.960,177.671 1.133,177.671 1.503 C 177.671 1.882,176.801 1.946,174.781 1.718 C 172.572 1.468,171.727 1.553,171.201 2.079 C 170.720 2.561,169.856 2.694,168.330 2.522 C 166.882 2.359,166.146 2.459,166.146 2.819 C 166.146 3.150,165.210 3.361,163.745 3.361 C 162.425 3.361,161.345 3.577,161.345 3.842 C 161.345 4.106,160.493 4.322,159.452 4.322 C 158.411 4.322,157.448 4.502,157.312 4.722 C 157.176 4.942,156.407 5.025,155.603 4.907 C 154.721 4.778,154.142 4.905,154.142 5.228 C 154.142 5.531,153.312 5.762,152.221 5.762 C 151.164 5.762,150.300 5.953,150.300 6.187 C 150.300 6.421,149.058 6.767,147.539 6.956 C 146.020 7.145,144.658 7.493,144.511 7.729 C 144.364 7.966,143.662 8.207,142.950 8.266 C 142.239 8.325,141.657 8.542,141.657 8.748 C 141.657 8.955,141.116 9.124,140.456 9.124 C 139.796 9.124,139.256 9.357,139.256 9.642 C 139.256 9.973,138.713 10.041,137.755 9.831 C 136.712 9.602,136.355 9.663,136.583 10.033 C 136.790 10.368,136.459 10.564,135.683 10.564 C 135.007 10.564,134.454 10.780,134.454 11.044 C 134.454 11.309,133.914 11.525,133.253 11.525 C 132.593 11.525,132.053 11.741,132.053 12.005 C 132.053 12.269,131.525 12.485,130.881 12.485 C 130.236 12.485,129.581 12.692,129.425 12.944 C 129.269 13.197,128.824 13.282,128.436 13.133 C 128.048 12.984,127.731 13.102,127.731 13.394 C 127.731 13.686,127.191 13.926,126.531 13.926 C 125.870 13.926,125.330 14.123,125.330 14.364 C 125.330 14.604,124.466 14.948,123.409 15.126 C 122.353 15.305,121.489 15.648,121.489 15.889 C 121.489 16.129,121.056 16.327,120.528 16.327 C 120.000 16.327,119.568 16.543,119.568 16.807 C 119.568 17.071,119.136 17.287,118.607 17.287 C 118.079 17.287,117.647 17.483,117.647 17.722 C 117.647 17.962,117.215 18.044,116.687 17.906 C 116.150 17.766,115.726 17.892,115.726 18.191 C 115.726 18.486,115.294 18.727,114.766 18.727 C 114.238 18.727,113.806 18.944,113.806 19.208 C 113.806 19.472,113.481 19.688,113.085 19.688 C 112.689 19.688,112.365 19.927,112.365 20.219 C 112.365 20.512,112.059 20.633,111.684 20.490 C 111.310 20.346,110.886 20.536,110.742 20.911 C 110.596 21.291,110.154 21.467,109.742 21.309 C 109.336 21.153,109.004 21.265,109.004 21.557 C 109.004 21.850,108.571 22.089,108.043 22.089 C 107.515 22.089,107.083 22.288,107.083 22.531 C 107.083 22.774,106.435 23.115,105.642 23.289 C 104.850 23.463,104.202 23.805,104.202 24.048 C 104.202 24.291,103.784 24.490,103.274 24.490 C 102.757 24.490,102.206 24.930,102.030 25.485 C 101.840 26.083,101.444 26.376,101.037 26.220 C 100.665 26.077,100.360 26.170,100.360 26.426 C 100.360 26.681,99.976 26.891,99.506 26.891 C 99.036 26.891,98.354 27.303,97.991 27.807 C 97.627 28.312,97.039 28.613,96.684 28.476 C 96.298 28.328,96.038 28.560,96.038 29.052 C 96.038 29.544,95.779 29.775,95.393 29.627 C 95.037 29.491,94.450 29.792,94.086 30.296 C 93.723 30.800,93.067 31.212,92.630 31.212 C 92.192 31.212,91.565 31.537,91.236 31.933 C 90.908 32.329,90.389 32.653,90.083 32.653 C 89.778 32.653,89.225 33.074,88.854 33.588 C 88.484 34.102,87.992 34.406,87.762 34.264 C 87.532 34.122,86.952 34.457,86.473 35.010 C 85.994 35.562,85.369 36.014,85.085 36.014 C 84.801 36.014,84.267 36.445,83.898 36.972 C 83.529 37.498,83.082 37.784,82.904 37.606 C 82.727 37.429,82.016 37.966,81.325 38.800 C 80.634 39.634,79.869 40.193,79.625 40.042 C 79.152 39.750,77.311 41.612,77.311 42.382 C 77.311 42.634,76.977 42.712,76.568 42.555 C 75.838 42.275,72.989 44.697,72.989 45.598 C 72.989 45.832,72.280 46.258,71.412 46.544 C 70.545 46.831,69.519 47.538,69.131 48.117 C 67.820 50.077,65.453 52.341,64.716 52.341 C 63.887 52.341,62.790 53.465,63.149 53.946 C 63.279 54.120,63.248 54.160,63.080 54.036 C 62.658 53.724,55.222 61.250,55.222 61.989 C 55.222 62.317,55.088 62.451,54.924 62.286 C 54.474 61.837,51.861 64.631,51.861 65.561 C 51.861 66.094,51.607 66.272,51.116 66.083 C 50.706 65.926,50.494 65.997,50.645 66.241 C 50.887 66.634,50.489 67.108,47.922 69.485 C 46.801 70.523,46.152 71.442,46.379 71.669 C 46.651 71.941,43.671 74.910,43.126 74.910 C 42.912 74.910,42.737 75.327,42.737 75.836 C 42.737 76.787,42.146 77.525,40.439 78.706 C 39.902 79.077,39.570 79.658,39.700 79.997 C 39.830 80.336,39.486 80.895,38.936 81.239 C 38.385 81.582,37.935 82.126,37.935 82.447 C 37.935 82.767,37.395 83.570,36.735 84.230 C 36.074 84.890,35.534 85.577,35.534 85.756 C 35.534 85.935,35.082 86.474,34.530 86.953 C 33.977 87.432,33.642 88.012,33.784 88.242 C 33.926 88.472,33.622 88.964,33.108 89.334 C 32.593 89.705,32.173 90.192,32.173 90.416 C 32.173 90.641,31.849 91.149,31.453 91.545 C 31.056 91.941,30.732 92.668,30.732 93.159 C 30.732 93.651,30.294 94.192,29.759 94.362 C 29.224 94.532,28.826 94.924,28.875 95.234 C 29.015 96.131,28.231 97.664,27.283 98.347 C 26.803 98.692,26.411 99.286,26.411 99.667 C 26.411 100.048,26.180 100.360,25.898 100.360 C 25.604 100.360,25.515 100.770,25.690 101.321 C 25.865 101.871,25.777 102.281,25.483 102.281 C 25.201 102.281,24.970 102.605,24.970 103.001 C 24.970 103.397,24.754 103.721,24.490 103.721 C 24.226 103.721,24.010 103.953,24.010 104.236 C 24.010 104.519,23.685 105.075,23.289 105.471 C 22.893 105.867,22.569 106.608,22.569 107.117 C 22.569 107.626,22.353 108.043,22.089 108.043 C 21.825 108.043,21.609 108.367,21.609 108.764 C 21.609 109.160,21.417 109.484,21.182 109.484 C 20.947 109.484,20.613 110.240,20.440 111.164 C 20.266 112.089,19.918 112.845,19.666 112.845 C 19.414 112.845,19.208 113.169,19.208 113.565 C 19.208 113.962,18.992 114.286,18.727 114.286 C 18.463 114.286,18.247 114.826,18.247 115.486 C 18.247 116.146,18.008 116.687,17.716 116.687 C 17.423 116.687,17.309 117.011,17.461 117.407 C 17.613 117.803,17.528 118.127,17.272 118.127 C 17.016 118.127,16.807 118.559,16.807 119.088 C 16.807 119.616,16.555 120.048,16.246 120.048 C 15.938 120.048,15.831 120.193,16.008 120.370 C 16.185 120.547,15.996 121.201,15.588 121.824 C 15.180 122.447,14.976 123.166,15.134 123.423 C 15.293 123.680,15.194 123.890,14.914 123.890 C 14.635 123.890,14.406 124.430,14.406 125.090 C 14.406 125.750,14.190 126.291,13.926 126.291 C 13.661 126.291,13.445 126.723,13.445 127.251 C 13.445 127.779,13.206 128.211,12.914 128.211 C 12.621 128.211,12.504 128.528,12.653 128.916 C 12.802 129.304,12.717 129.749,12.464 129.905 C 12.211 130.061,12.005 130.716,12.005 131.361 C 12.005 132.006,11.789 132.533,11.525 132.533 C 11.261 132.533,11.044 133.073,11.044 133.733 C 11.044 134.394,10.849 134.934,10.609 134.934 C 10.370 134.934,10.026 136.014,9.844 137.335 C 9.662 138.655,9.318 139.736,9.079 139.736 C 8.839 139.736,8.643 140.263,8.643 140.908 C 8.643 141.553,8.427 142.214,8.163 142.377 C 7.899 142.540,7.683 143.309,7.683 144.086 C 7.683 144.863,7.444 145.498,7.151 145.498 C 6.826 145.498,6.733 145.956,6.912 146.669 C 7.074 147.313,6.990 147.974,6.724 148.138 C 6.459 148.302,6.242 149.072,6.242 149.848 C 6.242 150.625,6.026 151.261,5.762 151.261 C 5.498 151.261,5.282 152.017,5.282 152.941 C 5.282 153.866,5.042 154.622,4.748 154.622 C 4.401 154.622,4.322 155.195,4.523 156.265 C 4.702 157.218,4.624 158.037,4.336 158.214 C 4.064 158.382,3.842 159.372,3.842 160.412 C 3.842 161.453,3.625 162.305,3.361 162.305 C 3.097 162.305,2.881 163.265,2.881 164.437 C 2.881 165.610,2.638 166.720,2.342 166.903 C 1.998 167.116,1.902 168.077,2.077 169.559 C 2.229 170.837,2.147 172.009,1.897 172.164 C 1.646 172.319,1.441 173.945,1.441 175.779 C 1.441 177.612,1.249 179.112,1.015 179.112 C 0.501 179.112,0.240 185.978,0.240 199.520 C 0.240 212.905,0.505 220.408,0.978 220.408 C 1.391 220.408,1.923 226.201,1.894 230.372 C 1.883 231.819,2.090 232.893,2.378 232.893 C 2.655 232.893,2.881 233.866,2.881 235.054 C 2.881 236.242,3.097 237.215,3.361 237.215 C 3.625 237.215,3.842 238.187,3.842 239.376 C 3.842 240.564,4.044 241.537,4.292 241.537 C 4.539 241.537,4.619 242.293,4.469 243.217 C 4.292 244.308,4.387 244.898,4.739 244.898 C 5.052 244.898,5.282 245.710,5.282 246.819 C 5.282 247.875,5.498 248.739,5.762 248.739 C 6.026 248.739,6.242 249.388,6.242 250.180 C 6.242 250.972,6.476 251.621,6.761 251.621 C 7.087 251.621,7.162 252.155,6.963 253.061 C 6.764 253.968,6.839 254.502,7.165 254.502 C 7.450 254.502,7.683 255.150,7.683 255.942 C 7.683 256.735,7.899 257.383,8.163 257.383 C 8.427 257.383,8.643 258.031,8.643 258.824 C 8.643 259.616,8.860 260.264,9.124 260.264 C 9.388 260.264,9.604 260.792,9.604 261.436 C 9.604 262.081,9.800 262.729,10.039 262.877 C 10.278 263.025,10.361 263.578,10.223 264.106 C 10.083 264.643,10.209 265.066,10.508 265.066 C 10.803 265.066,11.044 265.714,11.044 266.507 C 11.044 267.299,11.258 267.947,11.519 267.947 C 11.780 267.947,12.132 268.812,12.301 269.868 C 12.470 270.924,12.796 271.789,13.027 271.789 C 13.257 271.789,13.445 272.221,13.445 272.749 C 13.445 273.277,13.661 273.709,13.926 273.709 C 14.190 273.709,14.406 274.129,14.406 274.642 C 14.406 275.154,14.637 275.716,14.919 275.891 C 15.201 276.065,15.316 276.510,15.174 276.879 C 15.032 277.249,15.125 277.551,15.381 277.551 C 15.637 277.551,15.846 278.091,15.846 278.752 C 15.846 279.412,16.062 279.952,16.327 279.952 C 16.591 279.952,16.807 280.384,16.807 280.912 C 16.807 281.441,17.046 281.873,17.338 281.873 C 17.631 281.873,17.745 282.197,17.593 282.593 C 17.420 283.045,17.598 283.313,18.074 283.313 C 18.549 283.313,18.727 283.581,18.554 284.034 C 18.402 284.430,18.487 284.754,18.743 284.754 C 18.998 284.754,19.208 285.186,19.208 285.714 C 19.208 286.242,19.414 286.675,19.666 286.675 C 19.918 286.675,20.266 287.431,20.440 288.355 C 20.613 289.280,20.947 290.036,21.182 290.036 C 21.417 290.036,21.609 290.360,21.609 290.756 C 21.609 291.152,21.825 291.477,22.089 291.477 C 22.353 291.477,22.569 291.801,22.569 292.197 C 22.569 292.593,22.800 292.917,23.082 292.917 C 23.376 292.917,23.464 293.327,23.289 293.878 C 23.114 294.428,23.203 294.838,23.497 294.838 C 23.779 294.838,24.010 295.162,24.010 295.558 C 24.010 295.954,24.177 296.279,24.382 296.279 C 24.587 296.279,25.181 297.249,25.703 298.435 C 26.224 299.621,26.813 300.593,27.011 300.596 C 27.209 300.598,27.371 300.924,27.371 301.321 C 27.371 301.717,27.587 302.041,27.851 302.041 C 28.115 302.041,28.331 302.480,28.331 303.016 C 28.331 303.553,28.655 304.116,29.052 304.268 C 29.448 304.420,29.772 304.930,29.772 305.402 C 29.772 305.874,30.096 306.384,30.492 306.536 C 30.888 306.688,31.212 307.204,31.212 307.682 C 31.212 308.160,31.645 308.863,32.173 309.244 C 32.701 309.624,33.133 310.212,33.133 310.550 C 33.133 310.888,33.335 311.164,33.581 311.164 C 33.827 311.164,34.182 311.651,34.370 312.245 C 34.558 312.839,35.112 313.675,35.603 314.102 C 36.093 314.529,36.498 315.069,36.503 315.302 C 36.507 315.536,37.048 316.235,37.703 316.857 C 38.359 317.479,38.896 318.259,38.896 318.591 C 38.896 318.922,39.436 319.599,40.096 320.095 C 40.756 320.591,41.297 321.347,41.297 321.775 C 41.297 322.204,41.837 322.960,42.497 323.456 C 43.157 323.952,43.697 324.708,43.697 325.137 C 43.697 325.565,44.262 326.324,44.951 326.823 C 46.924 328.252,47.539 328.944,47.539 329.736 C 47.539 330.141,48.539 331.368,49.761 332.463 C 53.267 335.604,55.702 338.095,55.702 338.541 C 55.702 338.766,56.134 339.088,56.663 339.256 C 57.191 339.423,57.623 339.978,57.623 340.489 C 57.623 340.999,57.852 341.417,58.132 341.417 C 58.411 341.417,58.507 341.633,58.343 341.897 C 58.180 342.161,58.221 342.393,58.435 342.414 C 59.871 342.549,60.616 343.060,63.165 345.653 C 64.739 347.253,66.691 349.299,67.502 350.198 C 68.314 351.098,69.542 351.976,70.231 352.149 C 70.921 352.322,71.622 352.895,71.789 353.422 C 71.957 353.950,72.416 354.382,72.810 354.382 C 73.204 354.382,73.393 354.598,73.229 354.862 C 73.066 355.126,73.270 355.342,73.682 355.342 C 74.095 355.342,75.218 356.152,76.179 357.143 C 77.139 358.133,77.774 358.673,77.590 358.343 C 77.405 358.013,77.365 357.743,77.501 357.743 C 77.968 357.743,80.192 360.189,80.192 360.702 C 80.192 360.985,80.624 361.103,81.152 360.965 C 81.681 360.827,82.113 360.877,82.113 361.076 C 82.113 361.922,83.968 363.500,84.653 363.238 C 85.127 363.056,85.500 363.309,85.703 363.951 C 85.877 364.498,86.422 364.946,86.915 364.946 C 87.407 364.946,87.953 365.394,88.126 365.941 C 88.330 366.583,88.703 366.836,89.177 366.654 C 89.603 366.491,90.291 366.810,90.817 367.417 C 91.315 367.991,91.864 368.320,92.037 368.147 C 92.210 367.975,92.653 368.264,93.021 368.791 C 93.390 369.317,94.004 369.748,94.385 369.748 C 94.766 369.748,95.078 369.964,95.078 370.228 C 95.078 370.492,95.310 370.708,95.593 370.708 C 95.875 370.708,96.431 371.032,96.827 371.429 C 97.223 371.825,97.964 372.149,98.474 372.149 C 98.983 372.149,99.400 372.365,99.400 372.629 C 99.400 372.893,99.724 373.109,100.120 373.109 C 100.516 373.109,100.840 373.325,100.840 373.589 C 100.840 373.854,101.177 374.070,101.589 374.070 C 102.001 374.070,102.215 374.268,102.065 374.511 C 101.915 374.753,102.442 375.095,103.237 375.269 C 104.032 375.444,104.682 375.785,104.682 376.029 C 104.682 376.272,105.114 376.471,105.642 376.471 C 106.170 376.471,106.603 376.680,106.603 376.936 C 106.603 377.192,106.927 377.276,107.323 377.124 C 107.719 376.972,108.043 377.087,108.043 377.380 C 108.043 377.672,108.475 377.911,109.004 377.911 C 109.532 377.911,109.964 378.127,109.964 378.391 C 109.964 378.655,110.288 378.872,110.684 378.872 C 111.080 378.872,111.405 379.097,111.405 379.373 C 111.405 379.648,111.675 379.830,112.005 379.777 C 112.657 379.672,114.379 380.299,114.766 380.782 C 115.241 381.376,118.534 382.713,119.520 382.713 C 120.075 382.713,120.528 382.929,120.528 383.193 C 120.528 383.457,120.852 383.673,121.248 383.673 C 121.645 383.673,121.969 383.890,121.969 384.154 C 121.969 384.418,122.401 384.634,122.929 384.634 C 123.457 384.634,123.890 384.873,123.890 385.166 C 123.890 385.494,124.350 385.583,125.090 385.397 C 125.782 385.223,126.291 385.303,126.291 385.585 C 126.291 385.854,126.831 386.074,127.491 386.074 C 128.151 386.074,128.691 386.291,128.691 386.555 C 128.691 386.819,129.124 387.035,129.652 387.035 C 130.180 387.035,130.612 387.276,130.612 387.571 C 130.612 387.871,131.036 387.996,131.573 387.856 C 132.101 387.718,132.533 387.801,132.533 388.040 C 132.533 388.280,133.073 388.475,133.733 388.475 C 134.394 388.475,134.934 388.691,134.934 388.956 C 134.934 389.220,135.474 389.436,136.134 389.436 C 136.795 389.436,137.335 389.627,137.335 389.861 C 137.335 390.094,138.523 390.434,139.976 390.615 C 141.429 390.797,142.617 391.146,142.617 391.391 C 142.617 391.636,143.265 391.837,144.058 391.837 C 144.850 391.837,145.498 392.078,145.498 392.373 C 145.498 392.690,146.004 392.812,146.737 392.672 C 147.549 392.517,148.067 392.677,148.244 393.137 C 148.441 393.651,148.947 393.758,150.127 393.537 C 151.122 393.350,151.741 393.426,151.741 393.736 C 151.741 394.012,152.497 394.238,153.421 394.238 C 154.346 394.238,155.102 394.454,155.102 394.718 C 155.102 394.982,155.954 395.198,156.994 395.198 C 158.035 395.198,159.035 395.438,159.216 395.731 C 159.409 396.042,160.216 396.156,161.157 396.003 C 162.043 395.859,162.892 395.943,163.045 396.190 C 163.197 396.437,164.390 396.639,165.695 396.639 C 167.000 396.639,168.067 396.855,168.067 397.119 C 168.067 397.386,169.357 397.599,170.977 397.599 C 173.062 397.599,173.789 397.757,173.542 398.156 C 173.286 398.570,174.137 398.634,176.852 398.404 C 179.076 398.216,180.620 398.280,180.797 398.568 C 180.965 398.839,183.832 399.040,187.543 399.040 C 191.526 399.040,193.998 399.223,193.998 399.520 C 193.998 399.811,196.078 400.000,199.280 400.000 C 202.295 400.000,204.562 399.804,204.562 399.544 C 204.562 399.130,214.482 398.610,222.209 398.619 C 224.014 398.621,225.210 398.418,225.210 398.110 C 225.210 397.806,226.373 397.599,228.091 397.599 C 229.692 397.599,230.972 397.386,230.972 397.119 C 230.972 396.855,232.161 396.639,233.613 396.639 C 235.075 396.639,236.255 396.422,236.255 396.153 C 236.255 395.855,236.998 395.786,238.175 395.974 C 239.462 396.180,240.096 396.103,240.096 395.740 C 240.096 395.428,240.911 395.198,242.017 395.198 C 243.073 395.198,243.938 394.982,243.938 394.718 C 243.938 394.454,244.573 394.238,245.350 394.238 C 246.127 394.238,246.910 393.998,247.092 393.705 C 247.282 393.396,248.088 393.280,249.003 393.428 C 250.122 393.610,250.664 393.481,250.852 392.989 C 251.035 392.512,251.500 392.389,252.330 392.597 C 253.079 392.785,253.541 392.698,253.541 392.369 C 253.541 392.076,254.190 391.837,254.982 391.837 C 255.774 391.837,256.423 391.621,256.423 391.357 C 256.423 391.092,256.950 390.876,257.595 390.876 C 258.239 390.876,258.901 390.659,259.065 390.394 C 259.229 390.129,259.890 390.045,260.534 390.206 C 261.247 390.385,261.705 390.292,261.705 389.968 C 261.705 389.675,262.245 389.436,262.905 389.436 C 263.565 389.436,264.106 389.220,264.106 388.956 C 264.106 388.691,264.646 388.475,265.306 388.475 C 265.966 388.475,266.507 388.255,266.507 387.986 C 266.507 387.704,267.015 387.624,267.707 387.798 C 268.447 387.984,268.908 387.895,268.908 387.567 C 268.908 387.274,269.340 387.035,269.868 387.035 C 270.396 387.035,270.828 386.819,270.828 386.555 C 270.828 386.291,271.248 386.074,271.760 386.074 C 272.273 386.074,272.831 385.850,273.001 385.575 C 273.171 385.300,273.724 385.206,274.230 385.367 C 274.744 385.530,275.150 385.433,275.150 385.146 C 275.150 384.865,275.582 384.634,276.110 384.634 C 276.639 384.634,277.071 384.418,277.071 384.154 C 277.071 383.890,277.503 383.673,278.031 383.673 C 278.559 383.673,278.992 383.460,278.992 383.199 C 278.992 382.938,279.856 382.586,280.912 382.417 C 281.969 382.248,282.833 381.922,282.833 381.691 C 282.833 381.461,283.157 381.273,283.553 381.273 C 283.950 381.273,284.274 381.056,284.274 380.792 C 284.274 380.528,284.706 380.312,285.234 380.312 C 285.762 380.312,286.194 380.073,286.194 379.781 C 286.194 379.488,286.519 379.373,286.915 379.525 C 287.311 379.677,287.635 379.592,287.635 379.337 C 287.635 379.081,287.959 378.872,288.355 378.872 C 288.752 378.872,289.077 378.709,289.079 378.511 C 289.085 377.929,291.486 376.984,292.232 377.271 C 292.609 377.415,292.917 377.295,292.917 377.002 C 292.917 376.710,293.241 376.471,293.637 376.471 C 294.034 376.471,294.358 376.255,294.358 375.990 C 294.358 375.726,294.682 375.510,295.078 375.510 C 295.474 375.510,295.798 375.298,295.798 375.039 C 295.798 374.780,296.339 374.433,296.999 374.267 C 297.659 374.101,298.199 373.773,298.199 373.537 C 298.199 373.302,298.523 373.109,298.920 373.109 C 299.316 373.109,299.640 372.893,299.640 372.629 C 299.640 372.365,300.046 372.149,300.541 372.149 C 301.037 372.149,301.712 371.825,302.041 371.429 C 302.370 371.032,302.936 370.708,303.300 370.708 C 303.664 370.708,303.962 370.492,303.962 370.228 C 303.962 369.964,304.401 369.748,304.937 369.748 C 305.474 369.748,306.037 369.424,306.189 369.028 C 306.341 368.631,306.754 368.307,307.107 368.307 C 307.460 368.307,308.071 367.847,308.466 367.284 C 308.889 366.679,309.480 366.374,309.909 366.539 C 310.365 366.714,310.746 366.469,310.932 365.882 C 311.096 365.367,311.595 364.946,312.042 364.946 C 312.489 364.946,313.133 364.499,313.474 363.954 C 313.815 363.408,314.353 363.048,314.670 363.154 C 314.987 363.260,315.812 362.742,316.503 362.002 C 317.195 361.263,317.896 360.793,318.061 360.958 C 318.396 361.293,320.288 359.287,320.288 358.598 C 320.288 358.356,320.720 358.296,321.248 358.463 C 321.781 358.632,322.209 358.550,322.209 358.277 C 322.209 357.634,324.509 355.342,325.155 355.342 C 325.430 355.342,326.601 354.370,327.756 353.181 C 328.911 351.993,330.134 351.016,330.474 351.010 C 330.814 351.005,332.065 349.908,333.253 348.574 C 335.499 346.051,336.295 345.234,339.351 342.311 C 340.355 341.350,342.173 339.514,343.392 338.229 C 344.610 336.945,346.710 334.922,348.058 333.733 C 349.406 332.545,350.516 331.288,350.525 330.940 C 350.533 330.592,351.297 329.594,352.221 328.723 C 353.145 327.851,353.902 326.880,353.902 326.566 C 353.902 326.251,354.118 326.127,354.382 326.291 C 354.646 326.454,354.862 326.260,354.862 325.860 C 354.862 325.044,357.041 322.689,357.797 322.689 C 358.069 322.689,358.152 322.261,357.983 321.729 C 357.816 321.200,357.876 320.768,358.117 320.768 C 358.770 320.768,360.624 319.055,360.624 318.453 C 360.624 318.166,361.176 317.379,361.851 316.704 C 362.525 316.030,362.951 315.275,362.798 315.026 C 362.644 314.777,362.956 314.339,363.492 314.053 C 364.028 313.766,364.466 313.122,364.466 312.621 C 364.466 312.119,364.914 311.567,365.461 311.394 C 366.008 311.220,366.352 310.807,366.225 310.475 C 366.098 310.144,366.406 309.576,366.910 309.212 C 367.415 308.849,367.827 308.190,367.827 307.748 C 367.827 307.307,368.151 306.821,368.547 306.669 C 368.944 306.517,369.268 305.954,369.268 305.417 C 369.268 304.881,369.484 304.442,369.748 304.442 C 370.012 304.442,370.228 304.170,370.228 303.837 C 370.228 303.504,370.654 302.966,371.175 302.641 C 371.730 302.294,372.007 301.750,371.844 301.325 C 371.691 300.926,371.805 300.600,372.097 300.600 C 372.390 300.600,372.629 300.246,372.629 299.813 C 372.629 299.380,373.007 298.749,373.469 298.411 C 373.932 298.073,374.339 297.617,374.374 297.398 C 374.576 296.151,375.202 294.838,375.595 294.838 C 375.843 294.838,375.924 294.639,375.774 294.396 C 375.624 294.154,375.791 293.666,376.145 293.312 C 376.498 292.958,376.698 292.400,376.589 292.073 C 376.480 291.745,376.625 291.477,376.911 291.477 C 377.197 291.477,377.431 291.044,377.431 290.516 C 377.431 289.988,377.647 289.556,377.911 289.556 C 378.175 289.556,378.391 289.232,378.391 288.836 C 378.391 288.439,378.631 288.115,378.923 288.115 C 379.215 288.115,379.330 287.791,379.178 287.395 C 379.026 286.999,379.111 286.675,379.367 286.675 C 379.623 286.675,379.832 286.242,379.832 285.714 C 379.832 285.186,380.048 284.754,380.312 284.754 C 380.576 284.754,380.792 284.430,380.792 284.034 C 380.792 283.637,381.008 283.313,381.273 283.313 C 381.537 283.313,381.753 282.868,381.753 282.325 C 381.753 281.762,381.968 281.469,382.252 281.645 C 382.576 281.845,382.642 281.517,382.440 280.713 C 382.246 279.937,382.328 279.472,382.661 279.472 C 382.954 279.472,383.193 279.040,383.193 278.511 C 383.193 277.983,383.409 277.551,383.673 277.551 C 383.938 277.551,384.154 277.119,384.154 276.591 C 384.154 276.062,384.383 275.630,384.664 275.630 C 384.945 275.630,385.138 275.252,385.094 274.790 C 384.982 273.627,385.617 271.789,386.130 271.789 C 386.364 271.789,386.555 271.248,386.555 270.588 C 386.555 269.928,386.750 269.388,386.990 269.388 C 387.229 269.388,387.573 268.307,387.755 266.987 C 387.937 265.666,388.281 264.586,388.520 264.586 C 388.760 264.586,388.956 264.046,388.956 263.385 C 388.956 262.725,389.172 262.185,389.436 262.185 C 389.700 262.185,389.916 261.657,389.916 261.013 C 389.916 260.368,390.112 259.720,390.351 259.572 C 390.590 259.424,390.673 258.871,390.535 258.343 C 390.395 257.806,390.521 257.383,390.820 257.383 C 391.115 257.383,391.357 256.747,391.357 255.971 C 391.357 255.194,391.573 254.425,391.837 254.262 C 392.101 254.098,392.317 253.329,392.317 252.553 C 392.317 251.776,392.560 251.140,392.857 251.140 C 393.201 251.140,393.293 250.618,393.109 249.700 C 392.947 248.887,393.025 248.259,393.289 248.259 C 393.547 248.259,393.758 247.516,393.758 246.607 C 393.758 245.698,393.974 244.821,394.238 244.658 C 394.502 244.495,394.718 243.618,394.718 242.709 C 394.718 241.800,394.962 241.056,395.259 241.056 C 395.621 241.056,395.700 240.427,395.499 239.165 C 395.324 238.076,395.400 237.147,395.677 236.975 C 395.942 236.812,396.158 235.610,396.158 234.305 C 396.158 233.000,396.375 231.933,396.639 231.933 C 396.903 231.933,397.119 230.744,397.119 229.292 C 397.119 227.632,397.323 226.651,397.667 226.651 C 398.048 226.651,398.130 225.803,397.936 223.890 C 397.742 221.977,397.860 220.760,398.320 219.928 C 398.825 219.016,398.917 217.503,398.703 213.637 C 398.505 210.058,398.584 208.445,398.970 208.206 C 399.748 207.726,399.743 192.077,398.966 192.077 C 398.561 192.077,398.496 190.519,398.724 186.278 C 398.980 181.508,398.910 180.354,398.327 179.771 C 397.784 179.228,397.689 178.387,397.922 176.160 C 398.120 174.265,398.043 173.144,397.701 172.932 C 397.412 172.754,397.125 171.478,397.062 170.097 C 396.999 168.717,396.770 167.587,396.553 167.587 C 396.336 167.587,396.158 166.519,396.158 165.214 C 396.158 163.909,395.957 162.717,395.710 162.565 C 395.463 162.412,395.383 161.535,395.533 160.615 C 395.708 159.532,395.613 158.944,395.261 158.944 C 394.948 158.944,394.718 158.131,394.718 157.023 C 394.718 155.966,394.502 155.102,394.238 155.102 C 393.974 155.102,393.758 154.346,393.758 153.421 C 393.758 152.497,393.524 151.741,393.239 151.741 C 392.917 151.741,392.837 151.213,393.027 150.346 C 393.203 149.546,393.117 148.817,392.825 148.637 C 392.546 148.464,392.317 147.687,392.317 146.910 C 392.317 146.134,392.101 145.498,391.837 145.498 C 391.573 145.498,391.357 144.850,391.357 144.058 C 391.357 143.265,391.117 142.617,390.824 142.617 C 390.500 142.617,390.407 142.160,390.586 141.446 C 390.748 140.802,390.663 140.141,390.398 139.977 C 390.133 139.813,389.916 139.152,389.916 138.507 C 389.916 137.862,389.700 137.335,389.436 137.335 C 389.172 137.335,388.956 136.795,388.956 136.134 C 388.956 135.474,388.764 134.934,388.530 134.934 C 388.296 134.934,387.958 133.962,387.780 132.773 C 387.602 131.585,387.253 130.612,387.005 130.612 C 386.757 130.612,386.555 130.072,386.555 129.412 C 386.555 128.752,386.366 128.211,386.136 128.211 C 385.905 128.211,385.579 127.347,385.410 126.291 C 385.241 125.234,384.889 124.370,384.628 124.370 C 384.367 124.370,384.154 123.938,384.154 123.409 C 384.154 122.881,383.938 122.449,383.673 122.449 C 383.409 122.449,383.193 121.909,383.193 121.248 C 383.193 120.588,382.954 120.048,382.662 120.048 C 382.369 120.048,382.255 119.724,382.407 119.328 C 382.559 118.932,382.474 118.607,382.218 118.607 C 381.962 118.607,381.753 118.175,381.753 117.647 C 381.753 117.119,381.537 116.687,381.273 116.687 C 381.008 116.687,380.792 116.363,380.792 115.966 C 380.792 115.570,380.595 115.246,380.354 115.246 C 380.113 115.246,379.761 114.329,379.572 113.208 C 379.383 112.087,378.823 110.819,378.329 110.390 C 377.835 109.962,377.431 109.366,377.431 109.067 C 377.431 108.768,377.222 108.523,376.966 108.523 C 376.710 108.523,376.625 108.199,376.777 107.803 C 376.929 107.407,376.814 107.083,376.522 107.083 C 376.230 107.083,375.990 106.759,375.990 106.363 C 375.990 105.966,375.774 105.642,375.510 105.642 C 375.246 105.642,375.030 105.210,375.030 104.682 C 375.030 104.154,374.791 103.721,374.498 103.721 C 374.206 103.721,374.093 103.394,374.246 102.993 C 374.502 102.328,373.944 101.382,372.238 99.590 C 371.891 99.225,371.742 98.709,371.906 98.443 C 372.071 98.177,371.856 97.959,371.429 97.959 C 371.001 97.959,370.792 97.732,370.964 97.454 C 371.136 97.175,370.864 96.581,370.359 96.133 C 369.345 95.233,368.588 93.705,368.724 92.834 C 368.773 92.523,368.375 92.131,367.840 91.961 C 367.298 91.789,366.867 91.234,366.867 90.709 C 366.867 90.190,366.543 89.641,366.146 89.489 C 365.750 89.337,365.426 88.883,365.426 88.480 C 365.426 88.077,364.959 87.343,364.389 86.848 C 363.818 86.353,363.487 85.813,363.652 85.648 C 363.817 85.483,363.311 84.749,362.528 84.018 C 361.745 83.286,361.104 82.481,361.104 82.228 C 361.104 81.974,360.584 81.376,359.948 80.899 C 359.312 80.421,358.672 79.436,358.527 78.709 C 358.375 77.951,357.845 77.256,357.283 77.077 C 356.744 76.906,356.303 76.367,356.303 75.878 C 356.303 75.390,355.438 74.306,354.382 73.469 C 353.325 72.633,352.459 71.588,352.457 71.148 C 352.454 70.708,351.845 69.869,351.104 69.284 C 348.551 67.268,346.699 65.296,346.699 64.594 C 346.699 64.207,345.926 63.182,344.982 62.317 C 344.037 61.452,343.011 60.464,342.701 60.121 C 342.391 59.778,341.856 59.238,341.514 58.921 C 341.171 58.603,340.631 58.063,340.313 57.721 C 337.214 54.376,335.026 52.341,334.531 52.341 C 333.849 52.341,331.053 49.740,329.705 47.850 C 329.205 47.151,328.404 46.579,327.923 46.579 C 327.442 46.579,326.820 46.309,326.541 45.978 C 326.261 45.648,325.655 44.918,325.194 44.355 C 324.733 43.792,323.930 43.249,323.409 43.149 C 322.888 43.049,322.027 42.274,321.495 41.428 C 320.941 40.546,320.247 39.987,319.870 40.120 C 319.509 40.246,318.860 39.946,318.430 39.451 C 317.999 38.957,317.184 38.407,316.618 38.228 C 316.053 38.049,315.479 37.478,315.343 36.959 C 315.207 36.439,314.723 36.014,314.267 36.014 C 313.811 36.014,313.046 35.562,312.567 35.010 C 312.088 34.457,311.507 34.122,311.277 34.264 C 311.047 34.406,310.556 34.102,310.186 33.588 C 309.815 33.074,309.235 32.653,308.898 32.653 C 308.560 32.653,308.283 32.452,308.283 32.205 C 308.283 31.959,307.797 31.604,307.203 31.416 C 306.609 31.229,305.773 30.674,305.346 30.183 C 304.919 29.693,304.324 29.292,304.025 29.292 C 303.726 29.292,303.481 29.061,303.481 28.779 C 303.481 28.492,303.076 28.395,302.560 28.559 C 301.901 28.768,301.549 28.572,301.327 27.871 C 301.155 27.330,300.600 26.891,300.088 26.891 C 299.577 26.891,299.160 26.662,299.160 26.382 C 299.160 26.103,298.974 25.988,298.747 26.129 C 298.257 26.432,295.807 25.368,295.802 24.850 C 295.800 24.652,295.474 24.490,295.078 24.490 C 294.682 24.490,294.358 24.278,294.358 24.019 C 294.358 23.760,293.818 23.412,293.157 23.246 C 292.497 23.081,291.957 22.752,291.957 22.517 C 291.957 22.281,291.525 22.089,290.996 22.089 C 290.468 22.089,290.036 21.873,290.036 21.609 C 290.036 21.345,289.821 21.128,289.559 21.128 C 288.739 21.128,285.234 19.480,285.234 19.094 C 285.234 18.893,284.910 18.727,284.514 18.727 C 284.118 18.727,283.794 18.486,283.794 18.191 C 283.794 17.878,283.294 17.751,282.593 17.885 C 281.933 18.011,281.393 17.928,281.393 17.701 C 281.393 17.473,280.960 17.287,280.432 17.287 C 279.904 17.287,279.472 17.124,279.472 16.924 C 279.472 16.363,276.675 15.257,276.122 15.599 C 275.851 15.766,275.630 15.674,275.630 15.394 C 275.630 15.115,275.198 14.886,274.670 14.886 C 274.142 14.886,273.709 14.670,273.709 14.406 C 273.709 14.142,273.277 13.926,272.749 13.926 C 272.221 13.926,271.789 13.684,271.789 13.389 C 271.789 13.090,271.365 12.964,270.829 13.104 C 270.301 13.242,269.748 13.159,269.600 12.920 C 269.452 12.681,268.912 12.485,268.399 12.485 C 267.886 12.485,267.467 12.269,267.467 12.005 C 267.467 11.741,266.927 11.525,266.267 11.525 C 265.606 11.525,265.066 11.309,265.066 11.044 C 265.066 10.780,264.526 10.564,263.866 10.564 C 263.205 10.564,262.665 10.344,262.665 10.075 C 262.665 9.799,262.165 9.711,261.517 9.874 C 260.886 10.032,260.225 9.928,260.048 9.643 C 259.872 9.357,259.200 9.124,258.555 9.124 C 257.910 9.124,257.383 8.908,257.383 8.643 C 257.383 8.379,256.843 8.163,256.182 8.163 C 255.522 8.163,254.982 7.923,254.982 7.629 C 254.982 7.306,254.402 7.179,253.520 7.308 C 252.716 7.426,251.947 7.343,251.811 7.123 C 251.675 6.903,250.820 6.723,249.912 6.723 C 249.003 6.723,248.259 6.507,248.259 6.242 C 248.259 5.978,247.611 5.762,246.819 5.762 C 246.026 5.762,245.378 5.518,245.378 5.219 C 245.378 4.867,244.790 4.772,243.706 4.948 C 242.787 5.097,241.910 5.017,241.757 4.770 C 241.605 4.524,240.628 4.322,239.588 4.322 C 238.547 4.322,237.695 4.106,237.695 3.842 C 237.695 3.577,236.735 3.361,235.563 3.361 C 234.390 3.361,233.281 3.120,233.099 2.826 C 232.897 2.499,231.939 2.384,230.648 2.529 C 229.276 2.684,228.310 2.551,227.912 2.154 C 227.558 1.799,226.095 1.529,224.453 1.516 C 218.525 1.468,210.804 0.858,210.804 0.438 C 210.804 0.187,205.992 0.000,199.520 0.000 C 192.317 0.000,188.235 0.174,188.235 0.480 M223.529 9.057 C 238.012 11.146,255.881 15.437,263.866 18.742 C 264.394 18.960,266.122 19.602,267.707 20.168 C 301.555 32.250,337.998 60.714,357.806 90.541 C 362.362 97.402,365.673 102.565,366.412 103.962 C 366.831 104.754,367.675 106.267,368.287 107.323 C 375.721 120.143,383.407 140.120,387.488 157.232 C 392.916 179.985,393.763 209.720,389.665 233.613 C 386.077 254.536,378.554 275.926,368.302 294.358 C 367.053 296.603,365.429 299.520,364.693 300.840 C 363.958 302.161,360.803 306.866,357.684 311.296 C 325.383 357.165,278.530 385.254,221.609 392.875 C 214.967 393.764,183.563 393.761,176.951 392.871 C 167.273 391.568,160.832 390.367,151.741 388.169 C 144.938 386.525,129.888 381.496,124.610 379.103 C 123.818 378.744,120.684 377.343,117.647 375.990 C 109.406 372.318,92.090 362.390,89.398 359.793 C 89.048 359.454,88.332 358.948,87.809 358.668 C 81.728 355.414,64.335 339.955,55.348 329.818 C 47.997 321.526,35.054 304.239,35.054 302.713 C 35.054 302.572,34.548 301.769,33.928 300.928 C 28.870 294.059,18.460 270.927,14.655 258.103 C 14.184 256.519,13.528 254.358,13.196 253.301 C 1.493 216.048,4.736 162.420,20.861 126.531 C 21.217 125.738,22.008 123.902,22.619 122.449 C 25.511 115.570,31.716 103.918,35.533 98.199 C 36.238 97.143,37.964 94.550,39.368 92.437 C 51.189 74.646,70.682 54.589,86.736 43.697 C 111.955 26.589,133.358 17.166,159.184 11.802 C 161.297 11.363,163.998 10.803,165.186 10.558 C 167.159 10.152,172.477 9.410,181.993 8.213 C 188.865 7.348,215.426 7.888,223.529 9.057 M181.032 11.829 C 123.775 17.755,73.518 49.557,44.159 98.439 C 41.377 103.072,33.613 118.048,33.613 118.782 C 33.613 118.956,33.204 120.014,32.703 121.134 C 14.258 162.380,13.960 215.526,31.928 259.315 C 74.626 363.372,200.931 403.213,296.038 342.625 C 317.371 329.035,341.096 305.109,351.281 286.915 C 351.576 286.387,352.650 284.661,353.668 283.080 C 358.454 275.639,365.590 260.208,369.324 249.220 C 379.570 219.072,381.562 189.179,375.547 155.822 C 371.321 132.392,359.177 104.801,344.372 84.994 C 325.074 59.176,303.234 41.256,274.430 27.606 C 262.405 21.908,246.250 16.785,231.453 13.977 C 216.403 11.121,196.192 10.260,181.032 11.829 M216.806 33.183 C 222.865 36.031,224.980 42.801,222.118 50.180 C 219.608 56.650,220.866 59.650,225.116 57.331 C 231.076 54.078,234.189 55.029,229.815 58.766 C 225.464 62.482,227.355 64.225,235.126 63.658 C 245.359 62.913,246.683 63.344,242.019 65.906 C 240.697 66.632,239.616 67.438,239.616 67.697 C 239.616 69.030,248.362 72.029,252.251 72.029 C 256.649 72.029,257.636 73.467,254.262 74.959 C 251.560 76.154,251.519 75.942,255.136 79.428 C 267.569 91.409,274.317 107.193,273.606 122.626 C 273.005 135.665,263.017 153.199,251.038 162.243 L 248.305 164.307 246.964 163.063 C 244.112 160.419,238.180 158.474,233.133 158.529 L 230.252 158.560 233.242 159.215 C 240.019 160.701,243.236 162.144,247.998 165.837 C 248.328 166.093,250.313 165.124,253.249 163.274 C 259.202 159.523,266.144 155.852,273.229 152.709 C 276.267 151.361,279.184 150.058,279.712 149.812 C 286.854 146.494,309.722 139.238,318.858 137.393 C 320.041 137.154,322.629 136.593,324.610 136.148 C 331.139 134.679,349.491 132.010,350.230 132.422 C 350.455 132.548,348.871 133.257,346.708 133.998 C 336.605 137.461,327.158 143.499,326.274 147.058 C 325.233 151.254,339.977 155.584,362.703 157.755 C 366.759 158.142,366.611 158.318,361.532 159.140 C 351.959 160.690,342.857 166.031,342.857 170.100 C 342.857 174.193,351.299 179.472,366.948 185.166 C 370.512 186.463,373.848 188.118,371.669 187.508 C 358.614 183.855,338.629 192.188,340.211 200.625 C 341.323 206.550,350.643 216.836,361.195 223.782 C 363.704 225.434,363.187 225.465,358.873 223.924 C 348.611 220.257,334.320 223.602,331.510 230.328 C 329.765 234.505,331.384 244.917,334.910 252.185 C 336.603 255.676,336.805 257.119,335.297 254.953 C 329.424 246.520,315.398 234.498,303.241 227.479 C 279.819 213.954,249.363 210.870,228.331 219.893 C 227.803 220.120,225.966 220.881,224.250 221.584 C 201.264 231.003,182.774 252.490,176.088 277.551 C 169.361 302.771,179.190 323.531,201.441 331.098 C 208.917 333.641,213.381 333.296,221.223 329.570 C 231.695 324.596,234.012 312.281,226.242 302.901 C 214.379 288.581,219.498 263.457,235.534 257.290 C 252.396 250.806,272.485 261.990,272.503 277.870 C 272.517 289.555,261.038 294.093,253.986 285.190 C 251.727 282.336,252.163 281.270,254.622 283.637 C 260.914 289.695,268.007 286.968,267.347 278.746 C 266.221 264.708,247.241 257.679,237.421 267.663 C 230.137 275.070,230.226 283.859,237.714 296.721 C 251.042 319.614,245.158 337.750,221.038 348.121 C 191.072 361.004,155.428 343.313,141.257 308.523 C 135.271 293.827,134.434 289.720,134.109 273.469 C 133.836 259.812,134.054 258.164,136.162 257.980 C 138.647 257.762,143.282 256.268,145.072 255.107 C 146.561 254.141,146.982 254.062,148.051 254.549 C 149.992 255.433,151.895 254.357,157.023 249.474 C 163.512 243.294,168.949 239.327,176.473 235.279 C 181.373 232.644,183.740 231.016,185.808 228.857 C 188.054 226.514,187.429 226.687,183.564 229.479 C 181.775 230.771,178.908 232.542,177.191 233.415 C 169.958 237.093,160.895 243.638,155.342 249.195 C 151.617 252.922,149.483 254.145,148.805 252.941 C 148.163 251.801,147.905 251.853,144.692 253.763 C 141.699 255.543,137.145 256.798,133.253 256.915 C 129.950 257.015,129.987 257.032,130.825 255.836 C 132.656 253.221,131.307 252.949,125.583 254.776 C 122.151 255.872,117.485 256.420,116.865 255.801 C 116.736 255.672,116.966 254.763,117.376 253.782 C 117.786 252.801,118.015 251.827,117.885 251.617 C 117.661 251.255,109.093 251.321,108.823 251.687 C 108.752 251.783,108.892 260.504,109.133 271.068 C 109.565 289.954,109.252 301.841,108.002 314.046 C 107.663 317.352,107.700 319.863,108.135 323.169 L 108.735 327.731 109.073 323.169 C 109.258 320.660,109.657 314.752,109.959 310.040 C 110.691 298.616,110.627 298.736,113.713 302.965 C 115.084 304.844,117.178 307.067,118.367 307.905 C 120.958 309.732,121.007 310.227,118.900 313.355 C 116.216 317.340,114.060 322.392,110.562 332.893 C 107.525 342.007,106.599 343.956,106.605 341.216 C 106.606 340.666,106.286 339.244,105.893 338.055 C 100.203 320.838,99.363 318.791,95.468 312.631 C 93.803 310.000,93.793 309.580,95.369 308.736 C 97.040 307.842,101.025 303.436,102.613 300.727 L 103.892 298.545 103.321 286.007 C 103.007 279.111,102.753 268.331,102.756 262.050 C 102.762 249.322,102.816 249.511,99.576 250.938 C 98.555 251.388,96.855 251.891,95.798 252.055 C 94.203 252.304,93.884 252.537,93.916 253.428 C 93.970 254.957,92.833 254.756,91.969 253.085 C 90.714 250.658,90.741 250.606,95.912 245.297 C 97.784 243.375,96.450 241.224,94.002 242.217 C 92.241 242.932,91.445 242.782,89.991 241.462 C 88.744 240.330,87.395 240.756,87.395 242.280 C 87.395 244.062,86.608 244.071,85.767 242.300 C 84.466 239.558,85.696 236.255,88.019 236.255 C 88.386 236.255,89.093 235.805,89.591 235.256 C 90.280 234.494,90.840 234.327,91.946 234.550 C 94.653 235.098,95.192 235.055,95.709 234.251 C 96.593 232.879,95.393 230.972,93.645 230.972 C 92.692 230.972,91.830 230.558,91.147 229.772 C 89.837 228.266,87.727 228.176,86.740 229.584 C 85.662 231.123,84.835 230.253,85.150 227.909 C 85.772 223.268,93.683 220.977,99.263 223.822 C 102.450 225.447,102.761 225.215,102.761 221.214 L 102.761 217.698 105.076 216.652 C 106.348 216.077,107.509 215.606,107.655 215.606 C 107.800 215.606,108.074 217.983,108.262 220.888 C 108.623 226.461,108.978 227.095,110.684 225.210 C 112.347 223.372,116.206 224.876,116.206 227.361 C 116.206 229.486,122.667 229.824,131.092 228.139 C 132.545 227.849,134.741 227.493,135.973 227.348 C 138.673 227.030,141.825 224.493,144.227 220.705 C 147.007 216.321,147.154 215.609,147.169 206.483 C 147.186 195.555,148.956 191.896,157.503 185.123 C 159.582 183.475,166.255 179.112,166.695 179.112 C 166.927 179.112,168.141 178.658,169.393 178.103 C 173.041 176.487,173.469 176.318,175.887 175.534 C 177.151 175.125,178.609 174.790,179.128 174.790 C 179.647 174.790,180.072 174.559,180.072 174.277 C 180.072 173.963,179.654 173.899,178.992 174.111 C 177.936 174.450,176.470 174.841,172.678 175.796 C 164.115 177.952,150.698 187.858,147.669 194.260 C 146.022 197.743,145.310 202.884,145.710 208.403 C 146.167 214.686,146.157 214.771,144.706 217.376 C 143.998 218.647,143.066 220.320,142.636 221.093 C 141.745 222.694,138.451 225.526,138.002 225.077 C 137.229 224.304,143.033 199.362,145.514 192.797 C 145.714 192.269,146.244 190.756,146.692 189.436 C 147.141 188.115,148.028 185.894,148.664 184.501 C 149.300 183.107,149.820 181.843,149.820 181.691 C 149.820 181.540,151.058 179.223,152.571 176.542 C 154.083 173.862,155.790 170.804,156.363 169.748 C 157.522 167.610,161.714 162.293,166.982 156.280 C 176.627 145.272,186.235 140.297,202.161 138.066 C 223.283 135.106,233.171 129.996,238.392 119.340 C 248.121 99.483,227.662 77.030,213.685 92.225 C 210.274 95.934,206.419 104.340,205.263 110.591 C 204.984 112.098,204.351 112.881,201.652 115.062 C 199.852 116.517,197.193 119.157,195.743 120.930 C 192.975 124.312,187.154 128.220,186.488 127.143 C 186.314 126.861,186.217 125.041,186.274 123.099 C 186.368 119.887,186.293 119.568,185.444 119.568 C 184.077 119.568,181.032 118.200,181.032 117.586 C 181.032 117.233,181.741 117.164,183.168 117.378 C 185.596 117.742,187.275 116.626,187.275 114.646 C 187.276 114.052,187.919 111.188,188.705 108.283 C 190.395 102.036,190.343 102.537,189.401 101.595 C 187.967 100.160,186.531 100.686,184.076 103.545 C 176.233 112.678,171.898 115.760,163.991 117.825 C 160.060 118.852,154.850 117.024,157.994 115.722 C 160.026 114.880,160.710 113.620,160.994 110.190 C 161.263 106.947,162.828 104.158,165.898 101.451 C 167.872 99.711,167.803 99.295,165.349 98.131 C 157.339 94.329,164.669 78.101,179.788 66.162 C 182.453 64.058,184.900 61.870,185.226 61.300 C 189.307 54.153,185.710 49.742,178.785 53.402 C 175.335 55.225,174.846 55.054,176.157 52.486 C 180.736 43.509,191.138 43.333,195.273 52.163 C 197.241 56.365,197.150 56.341,199.280 53.191 C 201.711 49.594,203.113 48.019,203.884 48.019 C 204.662 48.019,204.825 50.201,204.082 50.660 C 203.368 51.101,203.500 52.821,204.247 52.821 C 205.818 52.821,210.646 49.039,212.487 46.367 C 216.575 40.430,214.636 36.735,207.431 36.735 C 202.641 36.735,202.431 36.590,204.703 34.857 C 208.452 31.997,212.958 31.374,216.806 33.183 M107.536 41.178 L 108.575 42.020 108.565 112.366 L 108.554 182.713 106.738 183.741 C 105.739 184.307,104.413 184.923,103.791 185.110 L 102.661 185.451 102.699 115.895 C 102.719 77.639,102.693 45.437,102.640 44.335 C 102.476 40.909,105.108 39.212,107.536 41.178 M202.785 71.259 C 202.052 72.540,199.018 73.901,195.198 74.663 C 186.477 76.404,183.193 78.838,183.193 83.563 C 183.193 85.625,183.423 86.630,184.034 87.241 C 184.834 88.041,184.874 87.967,184.876 85.697 C 184.878 82.792,186.011 80.766,188.738 78.791 C 190.613 77.432,191.705 76.991,196.158 75.795 C 200.440 74.645,202.612 73.398,203.621 71.511 C 204.197 70.436,203.395 70.194,202.785 71.259 M195.054 79.328 C 194.737 79.645,194.478 80.482,194.478 81.188 C 194.478 84.929,192.739 87.671,190.020 88.214 C 189.033 88.412,188.821 88.607,189.277 88.896 C 191.902 90.560,195.426 86.629,196.110 81.273 C 196.431 78.759,196.146 78.235,195.054 79.328 M187.395 81.951 C 186.452 82.331,186.694 83.553,187.712 83.553 C 188.217 83.553,189.214 84.247,189.927 85.094 C 191.428 86.879,193.100 85.946,192.020 83.927 C 191.622 83.183,188.727 81.504,188.131 81.671 C 188.056 81.691,187.725 81.817,187.395 81.951 M190.953 92.701 C 187.422 93.581,184.441 96.296,179.743 102.912 C 178.637 104.469,176.954 106.584,176.002 107.613 C 174.851 108.857,174.517 109.484,175.005 109.484 C 175.409 109.484,177.200 107.719,178.986 105.562 C 184.668 98.698,186.850 96.562,189.509 95.261 C 196.941 91.625,203.599 97.532,200.480 104.996 C 199.210 108.036,199.689 108.984,201.050 106.122 C 205.158 97.484,199.884 90.474,190.953 92.701 M189.676 113.315 C 189.676 114.595,195.240 115.733,196.303 114.670 C 197.618 113.354,196.904 112.955,193.277 112.978 C 191.297 112.991,189.676 113.142,189.676 113.315 M101.221 152.148 C 101.359 156.116,100.575 157.564,99.880 154.622 C 99.503 153.024,97.335 152.370,95.783 153.387 C 94.628 154.144,94.598 154.132,94.598 152.921 C 94.598 151.077,95.378 149.939,97.374 148.875 C 100.598 147.155,101.060 147.548,101.221 152.148 M113.011 154.622 C 114.185 155.414,115.361 156.062,115.625 156.062 C 116.590 156.062,116.638 157.454,115.683 157.757 C 114.580 158.107,112.568 160.990,112.109 162.878 C 111.730 164.436,112.204 165.436,113.008 164.772 C 114.371 163.647,117.308 163.544,116.720 164.643 C 116.099 165.804,116.618 165.994,118.159 165.169 C 120.455 163.940,117.370 161.621,114.922 162.736 C 113.202 163.520,113.041 163.119,114.274 161.123 C 117.247 156.313,124.370 155.844,124.370 160.459 C 124.370 162.485,125.667 164.226,127.176 164.226 C 127.663 164.226,129.241 164.632,130.684 165.128 C 132.127 165.625,134.484 166.183,135.921 166.369 C 141.165 167.047,153.661 170.685,153.661 171.533 C 153.661 171.813,153.043 173.047,152.288 174.275 C 151.074 176.248,148.024 182.451,146.958 185.114 C 145.355 189.118,144.912 190.360,143.869 193.758 C 143.221 195.870,142.551 198.085,142.381 198.679 C 142.034 199.892,141.502 199.991,139.355 199.242 C 138.174 198.831,137.840 198.413,137.723 197.202 C 137.604 195.975,137.341 195.655,136.375 195.561 C 129.446 194.884,127.462 194.047,129.121 192.502 C 131.141 190.620,130.535 190.352,123.409 189.971 C 116.346 189.594,114.528 188.568,116.927 186.315 C 118.631 184.713,118.437 184.207,115.846 183.506 C 114.592 183.167,112.863 182.583,112.005 182.209 L 110.444 181.528 110.444 167.355 C 110.444 159.559,110.541 153.181,110.660 153.181 C 110.779 153.181,111.837 153.830,113.011 154.622 M100.240 160.539 C 101.158 161.366,101.321 162.000,101.321 164.761 C 101.321 167.804,100.818 169.196,100.125 168.075 C 99.959 167.807,99.101 167.587,98.218 167.587 C 96.941 167.587,96.318 167.221,95.180 165.802 C 93.715 163.977,92.197 164.080,92.197 166.005 C 92.197 166.971,91.035 166.506,90.832 165.458 C 90.278 162.600,92.769 159.284,94.866 160.089 C 95.231 160.228,96.114 160.039,96.829 159.668 C 98.224 158.944,98.566 159.032,100.240 160.539 M311.645 166.474 C 300.635 167.288,276.700 171.583,262.665 175.264 C 258.205 176.433,255.121 177.318,254.119 177.715 C 253.512 177.955,252.594 178.151,252.078 178.151 C 251.562 178.151,251.140 178.341,251.140 178.573 C 251.140 178.805,252.491 178.725,254.142 178.396 C 258.608 177.506,264.453 176.264,267.707 175.514 C 271.736 174.586,286.787 171.653,293.397 170.508 C 296.435 169.982,299.568 169.439,300.360 169.301 C 301.152 169.163,305.258 168.493,309.484 167.812 C 319.310 166.229,319.899 165.864,311.645 166.474 M101.321 173.870 C 101.321 177.780,100.282 178.716,97.040 177.731 C 95.122 177.148,94.598 177.360,94.598 178.719 C 94.598 179.545,94.478 179.610,93.878 179.112 C 92.178 177.701,93.417 173.349,95.518 173.349 C 95.987 173.349,96.761 172.917,97.239 172.389 C 97.717 171.861,98.513 171.429,99.009 171.429 C 99.505 171.429,100.034 171.106,100.185 170.711 C 100.777 169.170,101.321 170.682,101.321 173.870 M276.351 183.678 C 266.559 184.396,254.898 185.765,251.621 186.582 C 250.430 186.878,262.980 186.334,268.908 185.831 C 278.985 184.978,294.916 184.380,307.803 184.372 C 318.021 184.366,320.339 184.249,319.568 183.779 C 318.178 182.932,287.511 182.860,276.351 183.678 M108.523 188.502 C 108.523 189.565,104.634 192.077,102.988 192.077 C 101.453 192.077,103.104 189.472,105.282 188.458 C 108.419 186.998,108.523 186.999,108.523 188.502 M108.523 195.626 C 108.523 197.085,108.311 197.345,106.483 198.127 C 105.360 198.606,104.064 199.163,103.601 199.364 C 101.228 200.395,102.657 196.215,105.052 195.121 C 108.202 193.681,108.523 193.728,108.523 195.626 M250.698 195.636 C 250.927 195.865,255.078 196.595,263.263 197.846 C 265.045 198.118,267.854 198.554,269.506 198.815 C 274.835 199.656,292.957 203.026,300.120 204.508 C 303.950 205.301,309.244 206.395,311.885 206.941 C 314.526 207.486,317.065 208.018,317.527 208.123 C 317.989 208.228,318.367 208.142,318.367 207.933 C 318.367 207.723,317.773 207.443,317.047 207.311 C 316.321 207.178,314.538 206.727,313.085 206.309 C 309.832 205.371,297.301 202.248,294.358 201.642 C 286.286 199.978,272.438 197.606,267.947 197.119 C 266.495 196.961,264.010 196.637,262.425 196.399 C 258.790 195.853,250.367 195.305,250.698 195.636 M108.523 202.901 C 108.523 203.997,104.869 206.483,103.257 206.483 C 101.477 206.483,102.894 203.734,105.282 202.556 C 108.093 201.170,108.523 201.216,108.523 202.901 M108.523 209.850 C 108.523 211.113,104.780 213.685,102.941 213.685 C 101.566 213.685,103.092 210.810,105.042 209.726 C 108.021 208.070,108.523 208.087,108.523 209.850 " stroke="none" fill="#000000" fill-rule="evenodd"></path></g></svg>