<svg id="svg" xmlns="http://www.w3.org/2000/svg" xmlns:xlink="http://www.w3.org/1999/xlink" width="400" height="400" viewBox="0, 0, 400,400"><g id="svgg"><path id="path0" d="M191.597 0.960 C 191.597 1.253,189.436 1.441,186.074 1.441 C 183.017 1.441,180.552 1.639,180.552 1.884 C 180.552 2.318,174.884 2.848,170.348 2.838 C 169.071 2.835,168.067 3.055,168.067 3.337 C 168.067 3.622,167.024 3.842,165.666 3.842 C 164.346 3.842,163.265 4.058,163.265 4.322 C 163.265 4.586,162.437 4.802,161.425 4.802 C 160.412 4.802,159.428 4.958,159.238 5.148 C 159.048 5.338,158.147 5.430,157.237 5.351 C 156.287 5.269,155.582 5.429,155.582 5.726 C 155.582 6.010,154.826 6.242,153.902 6.242 C 152.977 6.242,152.221 6.459,152.221 6.723 C 152.221 6.987,151.465 7.203,150.540 7.203 C 149.616 7.203,148.860 7.423,148.860 7.692 C 148.860 7.968,148.360 8.056,147.711 7.893 C 147.080 7.735,146.419 7.839,146.243 8.124 C 146.066 8.410,145.286 8.643,144.509 8.643 C 143.733 8.643,143.097 8.860,143.097 9.124 C 143.097 9.388,142.557 9.604,141.897 9.604 C 141.236 9.604,140.696 9.824,140.696 10.093 C 140.696 10.375,140.188 10.455,139.496 10.281 C 138.756 10.096,138.295 10.184,138.295 10.512 C 138.295 10.805,137.768 11.044,137.123 11.044 C 136.479 11.044,135.817 11.261,135.654 11.525 C 135.491 11.789,134.938 12.005,134.425 12.005 C 133.913 12.005,133.493 12.246,133.493 12.541 C 133.493 12.836,133.109 12.977,132.639 12.854 C 132.169 12.731,131.519 12.914,131.195 13.261 C 130.870 13.609,130.283 13.769,129.888 13.618 C 129.494 13.466,129.172 13.582,129.172 13.874 C 129.172 14.167,128.739 14.406,128.211 14.406 C 127.683 14.406,127.251 14.597,127.251 14.831 C 127.251 15.066,126.279 15.403,125.090 15.581 C 123.902 15.759,122.929 16.108,122.929 16.356 C 122.929 16.604,122.497 16.807,121.969 16.807 C 121.441 16.807,121.008 17.020,121.008 17.281 C 121.008 17.542,120.144 17.894,119.088 18.063 C 118.031 18.232,117.167 18.559,117.167 18.789 C 117.167 19.019,116.843 19.208,116.447 19.208 C 116.050 19.208,115.726 19.424,115.726 19.688 C 115.726 19.952,115.294 20.168,114.766 20.168 C 114.238 20.168,113.806 20.407,113.806 20.700 C 113.806 20.992,113.481 21.107,113.085 20.955 C 112.689 20.803,112.365 20.888,112.365 21.144 C 112.365 21.399,111.933 21.609,111.405 21.609 C 110.876 21.609,110.444 21.825,110.444 22.089 C 110.444 22.353,110.120 22.569,109.724 22.569 C 109.328 22.569,109.004 22.795,109.004 23.070 C 109.004 23.346,108.733 23.528,108.403 23.475 C 107.515 23.331,105.988 24.064,105.106 25.057 C 104.679 25.537,104.084 25.930,103.785 25.930 C 103.486 25.930,103.241 26.170,103.241 26.462 C 103.241 26.754,102.917 26.869,102.521 26.717 C 102.125 26.565,101.801 26.650,101.801 26.906 C 101.801 27.162,101.369 27.371,100.840 27.371 C 100.312 27.371,99.880 27.583,99.880 27.842 C 99.880 28.101,99.340 28.449,98.679 28.614 C 98.019 28.780,97.479 29.108,97.479 29.344 C 97.479 29.579,97.203 29.772,96.865 29.772 C 96.527 29.772,95.939 30.204,95.559 30.731 C 95.145 31.306,94.540 31.587,94.051 31.431 C 93.511 31.260,93.129 31.504,92.924 32.153 C 92.752 32.692,92.329 33.133,91.983 33.133 C 91.637 33.133,91.085 33.457,90.756 33.854 C 90.428 34.250,89.767 34.574,89.289 34.574 C 88.811 34.574,88.280 35.015,88.109 35.554 C 87.892 36.238,87.530 36.450,86.915 36.255 C 86.299 36.059,85.938 36.271,85.721 36.955 C 85.550 37.494,85.071 37.935,84.657 37.935 C 84.242 37.935,83.403 38.475,82.791 39.136 C 82.179 39.796,81.429 40.336,81.124 40.336 C 80.820 40.336,80.145 40.876,79.626 41.537 C 79.107 42.197,78.413 42.737,78.085 42.737 C 77.756 42.737,76.850 43.457,76.071 44.338 C 75.291 45.218,74.063 46.086,73.341 46.268 C 72.619 46.449,72.029 46.805,72.029 47.060 C 72.029 47.718,67.979 51.861,67.336 51.861 C 66.660 51.861,55.222 63.235,55.222 63.906 C 55.222 64.179,55.006 64.269,54.742 64.106 C 54.478 63.942,54.262 64.146,54.262 64.557 C 54.262 64.969,54.030 65.306,53.747 65.306 C 53.013 65.306,51.861 66.557,51.861 67.353 C 51.861 68.102,49.209 70.657,48.828 70.276 C 48.695 70.144,48.445 70.484,48.271 71.032 C 48.097 71.580,47.753 72.029,47.507 72.029 C 47.260 72.029,47.059 72.343,47.059 72.727 C 47.059 73.504,44.873 75.870,44.156 75.870 C 43.904 75.870,43.697 76.272,43.697 76.763 C 43.697 77.255,43.157 78.062,42.497 78.558 C 41.837 79.054,41.297 79.810,41.297 80.239 C 41.297 80.667,40.756 81.424,40.096 81.919 C 39.436 82.415,38.896 83.078,38.896 83.393 C 38.896 83.708,38.600 84.261,38.239 84.622 C 37.877 84.983,37.431 85.755,37.246 86.337 C 37.061 86.919,36.615 87.395,36.255 87.395 C 35.894 87.395,35.445 87.881,35.258 88.475 C 35.070 89.070,34.569 89.880,34.145 90.276 C 33.721 90.672,33.350 91.212,33.321 91.477 C 33.168 92.881,32.443 94.119,31.621 94.381 C 30.984 94.583,30.780 94.953,30.972 95.558 C 31.168 96.174,30.955 96.535,30.272 96.752 C 29.731 96.924,29.292 97.479,29.292 97.992 C 29.292 98.502,29.099 98.920,28.864 98.920 C 28.628 98.920,28.295 99.478,28.124 100.161 C 27.953 100.844,27.389 101.857,26.871 102.412 C 26.354 102.968,25.930 103.706,25.930 104.052 C 25.930 104.398,25.721 104.682,25.465 104.682 C 25.209 104.682,25.125 105.006,25.277 105.402 C 25.429 105.798,25.314 106.122,25.021 106.122 C 24.729 106.122,24.490 106.555,24.490 107.083 C 24.490 107.611,24.274 108.043,24.010 108.043 C 23.745 108.043,23.529 108.367,23.529 108.764 C 23.529 109.160,23.320 109.484,23.064 109.484 C 22.808 109.484,22.724 109.808,22.876 110.204 C 23.028 110.600,22.913 110.924,22.620 110.924 C 22.328 110.924,22.089 111.357,22.089 111.885 C 22.089 112.413,21.873 112.845,21.609 112.845 C 21.345 112.845,21.128 113.169,21.128 113.565 C 21.128 113.962,20.903 114.286,20.627 114.286 C 20.352 114.286,20.159 114.556,20.199 114.886 C 20.313 115.824,19.622 117.647,19.152 117.647 C 18.918 117.647,18.727 118.079,18.727 118.607 C 18.727 119.136,18.530 119.568,18.290 119.568 C 18.049 119.568,17.705 120.432,17.527 121.489 C 17.349 122.545,17.005 123.409,16.765 123.409 C 16.524 123.409,16.327 123.842,16.327 124.370 C 16.327 124.898,16.085 125.330,15.790 125.330 C 15.491 125.330,15.365 125.754,15.505 126.291 C 15.659 126.878,15.520 127.251,15.148 127.251 C 14.757 127.251,14.621 127.681,14.768 128.451 C 14.902 129.152,14.775 129.652,14.462 129.652 C 14.167 129.652,13.926 130.084,13.926 130.612 C 13.926 131.140,13.709 131.573,13.445 131.573 C 13.181 131.573,12.965 132.113,12.965 132.773 C 12.965 133.433,12.726 133.974,12.433 133.974 C 12.105 133.974,12.016 134.434,12.202 135.174 C 12.376 135.866,12.296 136.375,12.014 136.375 C 11.745 136.375,11.525 136.915,11.525 137.575 C 11.525 138.235,11.309 138.776,11.044 138.776 C 10.780 138.776,10.564 139.316,10.564 139.976 C 10.564 140.636,10.324 141.176,10.030 141.176 C 9.707 141.176,9.580 141.756,9.709 142.638 C 9.827 143.442,9.744 144.211,9.524 144.347 C 9.304 144.483,9.124 145.122,9.124 145.767 C 9.124 146.411,8.908 146.939,8.643 146.939 C 8.379 146.939,8.163 147.695,8.163 148.619 C 8.163 149.544,7.920 150.300,7.623 150.300 C 7.280 150.300,7.187 150.820,7.367 151.722 C 7.524 152.504,7.443 153.273,7.187 153.431 C 6.932 153.589,6.723 154.462,6.723 155.370 C 6.723 156.279,6.507 157.023,6.242 157.023 C 5.978 157.023,5.762 157.995,5.762 159.184 C 5.762 160.467,5.542 161.345,5.221 161.345 C 4.859 161.345,4.780 161.974,4.982 163.236 C 5.156 164.325,5.080 165.254,4.803 165.426 C 4.538 165.589,4.322 166.791,4.322 168.096 C 4.322 169.401,4.106 170.468,3.842 170.468 C 3.567 170.468,3.361 171.909,3.361 173.830 C 3.361 176.033,3.172 177.191,2.812 177.191 C 2.425 177.191,2.349 178.121,2.555 180.325 C 2.732 182.226,2.636 183.974,2.311 184.767 C 1.589 186.527,1.429 213.305,2.137 213.790 C 2.442 213.998,2.587 215.757,2.505 218.232 C 2.419 220.821,2.551 222.329,2.865 222.329 C 3.156 222.329,3.361 223.621,3.361 225.450 C 3.361 227.167,3.557 228.571,3.797 228.571 C 4.262 228.571,4.805 232.758,4.779 236.134 C 4.771 237.257,4.988 238.175,5.263 238.175 C 5.538 238.175,5.762 239.040,5.762 240.096 C 5.762 241.152,5.978 242.017,6.242 242.017 C 6.507 242.017,6.723 242.881,6.723 243.938 C 6.723 244.994,6.933 245.858,7.191 245.858 C 7.455 245.858,7.533 246.486,7.371 247.299 C 7.187 248.217,7.279 248.739,7.623 248.739 C 7.920 248.739,8.163 249.495,8.163 250.420 C 8.163 251.345,8.379 252.101,8.643 252.101 C 8.908 252.101,9.124 252.749,9.124 253.541 C 9.124 254.334,9.344 254.982,9.613 254.982 C 9.889 254.982,9.977 255.482,9.814 256.130 C 9.656 256.762,9.760 257.423,10.045 257.599 C 10.331 257.775,10.564 258.447,10.564 259.092 C 10.564 259.737,10.780 260.264,11.044 260.264 C 11.309 260.264,11.525 260.804,11.525 261.465 C 11.525 262.125,11.764 262.665,12.057 262.665 C 12.385 262.665,12.473 263.126,12.288 263.866 C 12.114 264.558,12.194 265.066,12.476 265.066 C 12.745 265.066,12.965 265.501,12.965 266.033 C 12.965 267.045,13.860 268.926,14.595 269.459 C 14.831 269.630,14.905 270.224,14.760 270.779 C 14.614 271.334,14.692 271.789,14.931 271.789 C 15.170 271.789,15.366 272.221,15.366 272.749 C 15.366 273.277,15.582 273.709,15.846 273.709 C 16.110 273.709,16.327 274.009,16.327 274.375 C 16.327 274.741,16.649 275.659,17.044 276.416 C 17.438 277.172,17.763 278.306,17.764 278.935 C 17.766 279.565,18.170 280.429,18.663 280.856 C 19.156 281.284,19.713 282.336,19.902 283.194 C 20.090 284.052,20.443 284.754,20.686 284.754 C 20.930 284.754,21.128 285.078,21.128 285.474 C 21.128 285.870,21.345 286.194,21.609 286.194 C 21.873 286.194,22.089 286.627,22.089 287.155 C 22.089 287.683,22.328 288.115,22.620 288.115 C 22.913 288.115,23.028 288.439,22.876 288.836 C 22.724 289.232,22.808 289.556,23.064 289.556 C 23.320 289.556,23.529 289.880,23.529 290.276 C 23.529 290.672,23.745 290.996,24.010 290.996 C 24.274 290.996,24.490 291.429,24.490 291.957 C 24.490 292.485,24.720 292.917,25.002 292.917 C 25.296 292.917,25.385 293.327,25.210 293.878 C 25.035 294.428,25.124 294.838,25.418 294.838 C 25.700 294.838,25.930 295.114,25.930 295.452 C 25.930 295.790,26.363 296.378,26.891 296.759 C 27.419 297.139,27.851 297.727,27.851 298.065 C 27.851 298.403,28.047 298.679,28.286 298.679 C 28.526 298.679,28.609 299.112,28.470 299.640 C 28.330 300.177,28.456 300.600,28.756 300.600 C 29.050 300.600,29.292 300.872,29.292 301.205 C 29.292 301.538,29.732 302.085,30.271 302.421 C 30.809 302.757,31.113 303.253,30.947 303.523 C 30.780 303.792,31.096 304.404,31.648 304.883 C 32.200 305.362,32.785 306.424,32.949 307.244 C 33.122 308.105,33.630 308.856,34.151 309.022 C 34.648 309.179,35.054 309.696,35.054 310.169 C 35.054 310.643,35.594 311.436,36.255 311.931 C 36.915 312.427,37.455 313.007,37.455 313.219 C 37.455 313.432,37.871 314.052,38.380 314.599 C 38.889 315.145,39.197 315.872,39.066 316.216 C 38.933 316.562,39.269 316.981,39.820 317.155 C 40.367 317.329,40.936 317.955,41.084 318.547 C 41.233 319.139,41.882 320.019,42.526 320.503 C 43.170 320.987,43.697 321.694,43.697 322.074 C 43.697 322.453,44.606 323.612,45.717 324.647 C 46.828 325.683,47.576 326.531,47.379 326.531 C 46.814 326.531,48.251 328.151,50.344 329.875 C 51.012 330.426,51.323 331.037,51.110 331.381 C 50.883 331.750,50.954 331.836,51.306 331.618 C 51.611 331.430,51.861 331.509,51.861 331.794 C 51.861 332.459,67.022 347.659,67.685 347.659 C 68.280 347.659,72.989 352.459,72.989 353.065 C 72.989 353.297,73.421 353.349,73.950 353.181 C 74.482 353.012,74.910 353.095,74.910 353.367 C 74.910 354.054,77.231 356.303,77.939 356.303 C 78.261 356.303,78.929 356.843,79.425 357.503 C 79.921 358.163,80.714 358.703,81.187 358.703 C 81.661 358.703,82.188 359.145,82.359 359.684 C 82.543 360.262,83.239 360.777,84.058 360.941 C 84.828 361.095,85.573 361.621,85.732 362.122 C 85.890 362.619,86.443 363.025,86.962 363.025 C 87.481 363.025,88.030 363.349,88.182 363.745 C 88.334 364.142,88.815 364.466,89.252 364.466 C 89.688 364.466,90.320 364.906,90.656 365.445 C 90.993 365.983,91.488 366.288,91.758 366.121 C 92.027 365.954,92.618 366.216,93.069 366.703 C 94.039 367.746,95.466 368.704,96.639 369.098 C 97.101 369.253,97.479 369.571,97.479 369.804 C 97.479 370.037,97.803 370.228,98.199 370.228 C 98.595 370.228,98.920 370.440,98.920 370.699 C 98.920 370.958,99.460 371.306,100.120 371.471 C 100.780 371.637,101.321 371.965,101.321 372.201 C 101.321 372.436,101.753 372.629,102.281 372.629 C 102.809 372.629,103.241 372.828,103.241 373.071 C 103.241 373.314,103.890 373.656,104.682 373.830 C 105.474 374.004,106.122 374.345,106.122 374.588 C 106.122 374.831,106.447 375.030,106.843 375.030 C 107.239 375.030,107.563 375.246,107.563 375.510 C 107.563 375.774,107.887 375.990,108.283 375.990 C 108.679 375.990,109.004 376.200,109.004 376.456 C 109.004 376.711,109.328 376.796,109.724 376.644 C 110.120 376.492,110.444 376.607,110.444 376.899 C 110.444 377.192,110.876 377.431,111.405 377.431 C 111.933 377.431,112.365 377.630,112.365 377.873 C 112.365 378.116,113.011 378.457,113.800 378.630 C 114.589 378.804,115.358 379.145,115.509 379.389 C 115.660 379.632,116.202 379.832,116.715 379.832 C 117.228 379.832,117.647 380.048,117.647 380.312 C 117.647 380.576,118.079 380.792,118.607 380.792 C 119.136 380.792,119.568 381.002,119.568 381.257 C 119.568 381.513,119.892 381.598,120.288 381.446 C 120.684 381.294,121.008 381.409,121.008 381.701 C 121.008 381.994,121.441 382.233,121.969 382.233 C 122.497 382.233,122.929 382.449,122.929 382.713 C 122.929 382.977,123.361 383.193,123.890 383.193 C 124.418 383.193,124.850 383.424,124.850 383.706 C 124.850 383.992,125.256 384.090,125.770 383.926 C 126.276 383.766,126.829 383.859,126.999 384.134 C 127.169 384.409,127.727 384.634,128.240 384.634 C 128.752 384.634,129.172 384.850,129.172 385.114 C 129.172 385.378,129.604 385.594,130.132 385.594 C 130.660 385.594,131.092 385.836,131.092 386.130 C 131.092 386.430,131.516 386.556,132.052 386.416 C 132.580 386.278,133.133 386.360,133.281 386.600 C 133.429 386.839,134.078 387.035,134.722 387.035 C 135.367 387.035,135.894 387.251,135.894 387.515 C 135.894 387.779,136.435 387.995,137.095 387.995 C 137.755 387.995,138.295 388.211,138.295 388.475 C 138.295 388.739,138.823 388.956,139.467 388.956 C 140.112 388.956,140.779 389.180,140.948 389.455 C 141.118 389.730,141.671 389.824,142.177 389.663 C 142.692 389.500,143.097 389.597,143.097 389.884 C 143.097 390.166,143.745 390.396,144.538 390.396 C 145.330 390.396,145.978 390.612,145.978 390.876 C 145.978 391.140,146.627 391.357,147.419 391.357 C 148.211 391.357,148.860 391.582,148.860 391.858 C 148.860 392.172,149.490 392.242,150.540 392.045 C 151.642 391.838,152.221 391.914,152.221 392.263 C 152.221 392.557,152.977 392.797,153.902 392.797 C 154.826 392.797,155.582 393.013,155.582 393.277 C 155.582 393.541,156.447 393.758,157.503 393.758 C 158.567 393.758,159.424 393.991,159.424 394.280 C 159.424 394.623,160.082 394.691,161.345 394.478 C 162.607 394.264,163.265 394.332,163.265 394.676 C 163.265 394.989,164.324 395.198,165.906 395.198 C 167.359 395.198,168.547 395.414,168.547 395.678 C 168.547 395.942,169.736 396.158,171.188 396.158 C 172.830 396.158,173.830 396.364,173.830 396.701 C 173.830 397.079,174.690 397.146,176.670 396.921 C 178.465 396.718,179.625 396.784,179.820 397.100 C 180.006 397.400,182.410 397.599,185.863 397.599 C 189.072 397.599,191.597 397.795,191.597 398.045 C 191.597 398.301,195.273 398.510,200.240 398.536 C 205.512 398.564,208.884 398.401,208.884 398.118 C 208.884 397.666,217.702 397.125,224.418 397.165 C 226.635 397.178,227.605 397.017,227.391 396.672 C 227.180 396.329,228.041 396.158,229.984 396.158 C 231.603 396.158,232.893 395.946,232.893 395.678 C 232.893 395.414,233.853 395.198,235.026 395.198 C 236.199 395.198,237.292 394.982,237.456 394.717 C 237.627 394.440,238.556 394.364,239.645 394.538 C 240.908 394.740,241.537 394.661,241.537 394.299 C 241.537 393.987,242.352 393.758,243.457 393.758 C 244.514 393.758,245.378 393.541,245.378 393.277 C 245.378 393.013,246.014 392.797,246.790 392.797 C 247.567 392.797,248.332 392.588,248.490 392.333 C 248.648 392.077,249.417 391.996,250.199 392.153 C 251.100 392.333,251.621 392.239,251.621 391.897 C 251.621 391.599,252.377 391.357,253.301 391.357 C 254.226 391.357,254.982 391.140,254.982 390.876 C 254.982 390.612,255.522 390.396,256.182 390.396 C 256.843 390.396,257.383 390.163,257.383 389.878 C 257.383 389.552,257.917 389.477,258.824 389.676 C 259.730 389.875,260.264 389.800,260.264 389.474 C 260.264 389.189,260.804 388.956,261.465 388.956 C 262.125 388.956,262.665 388.739,262.665 388.475 C 262.665 388.211,263.205 387.995,263.866 387.995 C 264.526 387.995,265.066 387.779,265.066 387.515 C 265.066 387.251,265.485 387.035,265.998 387.035 C 266.511 387.035,267.069 386.810,267.239 386.535 C 267.409 386.260,267.962 386.167,268.468 386.327 C 268.982 386.491,269.388 386.393,269.388 386.107 C 269.388 385.825,270.036 385.594,270.828 385.594 C 271.621 385.594,272.269 385.378,272.269 385.114 C 272.269 384.850,272.593 384.634,272.989 384.634 C 273.385 384.634,273.709 384.394,273.709 384.102 C 273.709 383.774,274.170 383.685,274.910 383.871 C 275.602 384.044,276.110 383.965,276.110 383.683 C 276.110 383.413,276.435 383.193,276.831 383.193 C 277.227 383.193,277.551 382.977,277.551 382.713 C 277.551 382.449,277.983 382.233,278.511 382.233 C 279.040 382.233,279.472 382.013,279.472 381.743 C 279.472 381.474,280.016 381.352,280.682 381.473 C 281.365 381.597,281.771 381.496,281.614 381.242 C 281.461 380.995,281.781 380.792,282.325 380.792 C 282.868 380.792,283.313 380.576,283.313 380.312 C 283.313 380.048,283.745 379.832,284.274 379.832 C 284.802 379.832,285.234 379.593,285.234 379.300 C 285.234 379.008,285.558 378.893,285.954 379.045 C 286.351 379.197,286.675 379.112,286.675 378.856 C 286.675 378.601,286.999 378.391,287.395 378.391 C 287.791 378.391,288.115 378.175,288.115 377.911 C 288.115 377.647,288.547 377.431,289.076 377.431 C 289.604 377.431,290.036 377.192,290.036 376.899 C 290.036 376.607,290.342 376.485,290.717 376.629 C 291.091 376.773,291.522 376.566,291.674 376.170 C 291.826 375.774,292.168 375.584,292.434 375.748 C 292.700 375.913,292.917 375.818,292.917 375.539 C 292.917 375.259,293.349 375.030,293.878 375.030 C 294.406 375.030,294.838 374.837,294.838 374.602 C 294.838 374.366,295.378 374.038,296.038 373.872 C 296.699 373.707,297.239 373.359,297.239 373.100 C 297.239 372.841,297.572 372.629,297.979 372.629 C 298.386 372.629,299.187 372.194,299.758 371.661 C 300.329 371.129,301.023 370.771,301.299 370.866 C 301.575 370.961,302.125 370.669,302.521 370.217 C 302.918 369.766,303.934 369.244,304.781 369.059 C 305.682 368.861,306.441 368.337,306.613 367.794 C 306.775 367.284,307.273 366.867,307.720 366.867 C 308.167 366.867,308.808 366.426,309.144 365.888 C 309.480 365.349,309.976 365.045,310.245 365.212 C 310.515 365.378,311.127 365.062,311.606 364.510 C 312.086 363.957,312.724 363.505,313.025 363.505 C 313.326 363.505,314.041 362.965,314.616 362.305 C 315.190 361.645,315.951 361.104,316.308 361.104 C 316.665 361.104,317.081 360.780,317.233 360.384 C 317.385 359.988,317.840 359.664,318.244 359.664 C 318.647 359.664,319.478 359.124,320.090 358.463 C 320.702 357.803,321.436 357.263,321.720 357.263 C 322.005 357.263,322.902 356.507,323.714 355.582 C 324.525 354.658,325.481 353.902,325.838 353.902 C 326.425 353.902,327.613 352.841,329.311 350.803 C 329.651 350.395,330.353 350.060,330.871 350.060 C 331.389 350.060,331.813 349.836,331.813 349.563 C 331.813 348.901,348.386 332.293,349.047 332.293 C 349.330 332.293,349.709 331.705,349.890 330.986 C 350.200 329.750,352.119 327.627,354.338 326.065 C 354.973 325.618,355.241 325.047,355.069 324.505 C 354.919 324.034,354.995 323.649,355.236 323.649 C 355.926 323.649,357.931 321.757,357.597 321.422 C 357.432 321.257,357.967 320.496,358.786 319.731 C 359.606 318.965,360.142 318.205,359.979 318.042 C 359.655 317.718,361.478 315.966,362.138 315.966 C 362.362 315.966,362.545 315.527,362.545 314.991 C 362.545 314.454,362.869 313.891,363.265 313.739 C 363.661 313.587,363.986 313.151,363.986 312.771 C 363.986 312.390,364.526 311.578,365.186 310.966 C 365.846 310.355,366.387 309.609,366.387 309.309 C 366.387 309.009,366.603 308.764,366.867 308.764 C 367.131 308.764,367.347 308.358,367.347 307.862 C 367.347 307.366,367.671 306.691,368.067 306.363 C 368.463 306.034,368.788 305.519,368.788 305.219 C 368.788 304.918,369.214 304.407,369.734 304.081 C 370.290 303.735,370.566 303.190,370.403 302.765 C 370.250 302.367,370.365 302.041,370.657 302.041 C 370.949 302.041,371.188 301.796,371.188 301.497 C 371.188 301.198,371.592 300.603,372.084 300.176 C 372.577 299.749,373.135 298.697,373.323 297.839 C 373.512 296.981,373.865 296.279,374.108 296.279 C 374.351 296.279,374.550 296.047,374.550 295.764 C 374.550 295.481,374.874 294.925,375.270 294.529 C 375.666 294.133,375.990 293.392,375.990 292.883 C 375.990 292.374,376.206 291.957,376.471 291.957 C 376.735 291.957,376.951 291.633,376.951 291.236 C 376.951 290.840,377.142 290.516,377.375 290.516 C 377.845 290.516,378.537 288.693,378.422 287.755 C 378.382 287.425,378.575 287.155,378.850 287.155 C 379.126 287.155,379.352 286.831,379.352 286.435 C 379.352 286.038,379.568 285.714,379.832 285.714 C 380.096 285.714,380.312 285.282,380.312 284.754 C 380.312 284.226,380.553 283.794,380.848 283.794 C 381.148 283.794,381.274 283.370,381.133 282.833 C 380.995 282.305,381.078 281.873,381.317 281.873 C 381.557 281.873,381.753 281.441,381.753 280.912 C 381.753 280.384,381.969 279.952,382.233 279.952 C 382.497 279.952,382.713 279.520,382.713 278.992 C 382.713 278.463,382.927 278.031,383.188 278.031 C 383.449 278.031,383.800 277.167,383.969 276.110 C 384.138 275.054,384.465 274.190,384.695 274.190 C 384.926 274.190,385.114 273.758,385.114 273.229 C 385.114 272.701,385.355 272.269,385.650 272.269 C 385.950 272.269,386.076 271.845,385.935 271.309 C 385.797 270.780,385.880 270.348,386.119 270.348 C 386.359 270.348,386.555 269.808,386.555 269.148 C 386.555 268.487,386.771 267.947,387.035 267.947 C 387.299 267.947,387.515 267.515,387.515 266.987 C 387.515 266.459,387.755 266.026,388.047 266.026 C 388.375 266.026,388.464 265.566,388.278 264.826 C 388.104 264.134,388.184 263.625,388.466 263.625 C 388.735 263.625,388.956 263.085,388.956 262.425 C 388.956 261.765,389.172 261.224,389.436 261.224 C 389.700 261.224,389.916 260.684,389.916 260.024 C 389.916 259.364,390.108 258.824,390.344 258.824 C 390.777 258.824,391.370 256.115,391.368 254.142 C 391.368 253.547,391.581 253.061,391.842 253.061 C 392.103 253.061,392.317 252.305,392.317 251.381 C 392.317 250.456,392.533 249.700,392.797 249.700 C 393.061 249.700,393.277 248.931,393.277 247.991 C 393.277 246.835,393.454 246.391,393.824 246.620 C 394.215 246.861,394.279 246.468,394.049 245.245 C 393.859 244.232,393.930 243.407,394.223 243.226 C 394.495 243.058,394.718 242.177,394.718 241.268 C 394.718 240.359,394.934 239.616,395.198 239.616 C 395.462 239.616,395.678 238.656,395.678 237.483 C 395.678 236.310,395.915 235.204,396.204 235.026 C 396.536 234.821,396.616 233.938,396.422 232.639 C 396.233 231.384,396.309 230.456,396.616 230.266 C 396.892 230.095,397.119 228.780,397.119 227.343 C 397.119 225.906,397.335 224.730,397.599 224.730 C 397.882 224.730,398.079 223.049,398.079 220.648 C 398.079 218.403,398.241 216.567,398.439 216.567 C 398.637 216.567,398.800 208.896,398.800 199.520 C 398.800 190.144,398.637 182.473,398.439 182.473 C 398.241 182.473,398.079 180.757,398.079 178.660 C 398.079 176.563,397.863 174.713,397.599 174.550 C 397.335 174.387,397.119 173.090,397.119 171.669 C 397.119 170.247,396.892 168.944,396.616 168.773 C 396.306 168.582,396.235 167.646,396.430 166.344 C 396.644 164.918,396.573 164.226,396.213 164.226 C 395.899 164.226,395.678 163.332,395.678 162.065 C 395.678 160.876,395.462 159.904,395.198 159.904 C 394.934 159.904,394.718 159.040,394.718 157.983 C 394.718 156.895,394.487 156.062,394.184 156.062 C 393.834 156.062,393.759 155.483,393.966 154.382 C 394.163 153.332,394.093 152.701,393.779 152.701 C 393.503 152.701,393.277 151.945,393.277 151.020 C 393.277 150.096,393.061 149.340,392.797 149.340 C 392.533 149.340,392.317 148.691,392.317 147.899 C 392.317 147.107,392.077 146.459,391.785 146.459 C 391.460 146.459,391.367 146.001,391.546 145.288 C 391.708 144.643,391.623 143.982,391.358 143.819 C 391.093 143.655,390.876 142.764,390.876 141.840 C 390.876 140.842,390.681 140.280,390.396 140.456 C 390.132 140.619,389.916 140.321,389.916 139.793 C 389.916 139.264,389.700 138.699,389.436 138.535 C 389.172 138.372,388.956 137.724,388.956 137.095 C 388.956 136.466,388.731 135.812,388.456 135.642 C 388.181 135.472,388.082 134.938,388.235 134.454 C 388.389 133.970,388.290 133.435,388.015 133.265 C 387.740 133.096,387.515 132.537,387.515 132.024 C 387.515 131.512,387.299 131.092,387.035 131.092 C 386.771 131.092,386.555 130.673,386.555 130.160 C 386.555 129.648,386.335 129.093,386.067 128.927 C 385.798 128.761,385.706 128.419,385.862 128.167 C 386.167 127.672,385.075 124.850,384.578 124.850 C 384.412 124.850,384.138 123.986,383.969 122.929 C 383.800 121.873,383.449 121.008,383.188 121.008 C 382.927 121.008,382.713 120.576,382.713 120.048 C 382.713 119.520,382.497 119.088,382.233 119.088 C 381.969 119.088,381.753 118.764,381.753 118.367 C 381.753 117.971,381.542 117.647,381.285 117.647 C 381.015 117.647,380.945 117.003,381.119 116.132 C 381.336 115.049,381.264 114.714,380.867 114.960 C 380.516 115.177,380.312 114.940,380.312 114.314 C 380.312 113.770,380.096 113.325,379.832 113.325 C 379.568 113.325,379.352 113.001,379.352 112.605 C 379.352 112.209,379.145 111.885,378.893 111.885 C 378.641 111.885,378.293 111.128,378.120 110.204 C 377.946 109.280,377.612 108.523,377.378 108.523 C 377.143 108.523,376.951 108.114,376.951 107.614 C 376.951 107.114,376.627 106.581,376.230 106.429 C 375.834 106.277,375.510 105.822,375.510 105.417 C 375.510 105.013,375.294 104.682,375.030 104.682 C 374.766 104.682,374.550 104.250,374.550 103.721 C 374.550 103.193,374.334 102.761,374.070 102.761 C 373.806 102.761,373.589 102.437,373.589 102.041 C 373.589 101.645,373.359 101.321,373.077 101.321 C 372.790 101.321,372.693 100.915,372.857 100.399 C 373.066 99.740,372.870 99.389,372.169 99.166 C 371.630 98.995,371.188 98.545,371.188 98.167 C 371.188 97.789,370.958 97.479,370.676 97.479 C 370.394 97.479,370.286 97.094,370.435 96.624 C 370.604 96.091,370.345 95.509,369.747 95.077 C 369.219 94.697,368.788 94.109,368.788 93.772 C 368.788 93.434,368.548 93.157,368.256 93.157 C 367.964 93.157,367.850 92.831,368.002 92.433 C 368.165 92.008,367.889 91.463,367.334 91.117 C 366.813 90.791,366.387 90.243,366.387 89.898 C 366.387 89.552,365.846 88.769,365.186 88.157 C 364.526 87.545,363.986 86.892,363.986 86.705 C 363.986 86.519,363.661 86.042,363.265 85.646 C 362.869 85.250,362.545 84.523,362.545 84.032 C 362.545 83.540,362.124 83.004,361.609 82.841 C 361.094 82.678,360.525 82.069,360.344 81.488 C 360.163 80.907,359.400 79.918,358.648 79.290 C 357.897 78.662,357.406 77.948,357.557 77.704 C 357.849 77.231,355.987 75.390,355.217 75.390 C 354.965 75.390,354.875 75.088,355.017 74.718 C 355.279 74.034,355.032 73.731,351.861 70.849 C 350.870 69.949,350.056 68.928,350.050 68.580 C 350.045 68.232,348.959 66.975,347.638 65.786 C 344.742 63.181,336.805 55.230,333.517 51.639 C 332.209 50.211,330.969 49.147,330.762 49.276 C 330.554 49.404,329.457 48.555,328.325 47.390 C 327.192 46.225,325.785 45.118,325.197 44.932 C 324.610 44.746,324.130 44.425,324.130 44.219 C 324.130 43.325,322.280 41.780,321.546 42.061 C 321.118 42.225,320.768 42.154,320.768 41.902 C 320.768 41.106,318.920 39.274,318.426 39.580 C 318.166 39.741,317.668 39.467,317.320 38.972 C 316.972 38.478,316.200 37.919,315.606 37.732 C 315.012 37.544,314.526 37.102,314.526 36.749 C 314.526 36.397,313.875 35.881,313.079 35.604 C 312.283 35.327,311.509 34.779,311.358 34.387 C 311.208 33.995,310.792 33.787,310.434 33.924 C 310.075 34.062,309.501 33.724,309.157 33.173 C 308.814 32.623,308.175 32.173,307.739 32.173 C 307.303 32.173,306.821 31.849,306.669 31.453 C 306.517 31.056,306.062 30.732,305.657 30.732 C 305.253 30.732,304.922 30.516,304.922 30.252 C 304.922 29.988,304.490 29.772,303.962 29.772 C 303.433 29.772,303.001 29.560,303.001 29.301 C 303.001 29.042,302.461 28.694,301.801 28.529 C 301.140 28.363,300.600 28.035,300.600 27.799 C 300.600 27.564,300.294 27.371,299.919 27.371 C 299.062 27.371,296.286 25.813,296.282 25.330 C 296.280 25.132,295.954 24.970,295.558 24.970 C 295.162 24.970,294.838 24.744,294.838 24.469 C 294.838 24.193,294.460 24.031,293.998 24.109 C 293.504 24.191,293.212 23.987,293.289 23.613 C 293.380 23.176,293.117 23.074,292.449 23.285 C 291.887 23.464,291.477 23.378,291.477 23.082 C 291.477 22.800,291.152 22.569,290.756 22.569 C 290.360 22.569,290.036 22.353,290.036 22.089 C 290.036 21.825,289.604 21.609,289.076 21.609 C 288.547 21.609,288.115 21.399,288.115 21.144 C 288.115 20.888,287.791 20.803,287.395 20.955 C 286.999 21.107,286.675 20.992,286.675 20.700 C 286.675 20.407,286.351 20.168,285.954 20.168 C 285.558 20.168,285.234 19.952,285.234 19.688 C 285.234 19.424,284.802 19.208,284.274 19.208 C 283.745 19.208,283.313 18.994,283.313 18.733 C 283.313 18.472,282.449 18.120,281.393 17.952 C 280.336 17.783,279.472 17.456,279.472 17.226 C 279.472 16.995,279.040 16.807,278.511 16.807 C 277.983 16.807,277.551 16.600,277.551 16.348 C 277.551 16.096,276.761 15.742,275.795 15.560 C 273.564 15.142,271.698 14.184,272.156 13.693 C 272.350 13.484,271.898 13.425,271.151 13.560 C 270.301 13.715,269.705 13.579,269.559 13.199 C 269.431 12.865,268.908 12.700,268.396 12.834 C 267.885 12.968,267.467 12.836,267.467 12.541 C 267.467 12.246,266.927 12.005,266.267 12.005 C 265.606 12.005,265.066 11.789,265.066 11.525 C 265.066 11.261,264.526 11.044,263.866 11.044 C 263.205 11.044,262.665 10.824,262.665 10.555 C 262.665 10.273,262.157 10.193,261.465 10.367 C 260.725 10.553,260.264 10.464,260.264 10.136 C 260.264 9.843,259.616 9.604,258.824 9.604 C 258.031 9.604,257.383 9.388,257.383 9.124 C 257.383 8.860,256.843 8.643,256.182 8.643 C 255.522 8.643,254.982 8.403,254.982 8.110 C 254.982 7.760,254.403 7.685,253.301 7.891 C 252.251 8.088,251.621 8.018,251.621 7.705 C 251.621 7.429,250.864 7.203,249.940 7.203 C 249.016 7.203,248.259 6.987,248.259 6.723 C 248.259 6.459,247.624 6.242,246.847 6.242 C 246.070 6.242,245.289 6.007,245.111 5.719 C 244.917 5.404,244.142 5.317,243.162 5.501 C 242.157 5.689,241.537 5.614,241.537 5.304 C 241.537 5.028,240.672 4.802,239.616 4.802 C 238.559 4.802,237.695 4.586,237.695 4.322 C 237.695 4.058,236.615 3.842,235.294 3.842 C 233.833 3.842,232.893 3.630,232.893 3.300 C 232.893 2.940,232.087 2.836,230.478 2.991 C 229.149 3.119,227.948 3.038,227.808 2.812 C 227.669 2.586,226.055 2.401,224.221 2.401 C 222.319 2.401,220.888 2.195,220.888 1.921 C 220.888 1.626,218.567 1.441,214.886 1.441 C 211.204 1.441,208.884 1.255,208.884 0.960 C 208.884 0.658,205.682 0.480,200.240 0.480 C 194.798 0.480,191.597 0.658,191.597 0.960 M213.539 8.652 C 225.646 9.615,240.950 12.251,250.900 15.086 C 294.901 27.623,330.422 52.538,357.071 89.556 C 358.402 91.405,360.116 93.998,360.880 95.318 C 361.644 96.639,362.951 98.691,363.785 99.880 C 370.700 109.743,378.529 127.482,385.083 148.139 C 396.750 184.908,393.834 236.164,377.954 273.469 C 357.796 320.822,323.263 356.250,277.646 376.375 C 229.800 397.484,171.993 398.179,126.531 378.192 C 125.738 377.844,122.713 376.513,119.808 375.234 C 78.037 356.854,44.095 322.109,23.357 276.499 C 9.280 245.540,4.031 200.955,10.562 167.827 C 19.102 124.515,36.459 91.617,66.005 62.742 C 104.801 24.827,160.440 4.428,213.539 8.652 M190.156 11.837 C 189.232 11.924,185.774 12.225,182.473 12.507 C 174.811 13.160,168.404 14.177,158.223 16.357 C 156.081 16.816,150.235 18.474,144.063 20.372 C 132.094 24.055,107.563 35.611,107.563 37.566 C 107.563 37.879,108.423 40.413,109.474 43.197 C 114.400 56.242,114.506 61.296,110.050 70.588 C 107.444 76.022,107.123 78.454,108.268 84.098 C 109.570 90.515,109.399 94.505,107.582 100.120 C 103.912 111.463,106.317 124.097,114.116 134.454 C 116.958 138.228,118.607 140.855,118.607 141.609 C 118.607 142.250,112.912 144.989,107.472 146.964 C 103.979 148.233,99.468 150.780,100.716 150.780 C 101.034 150.780,102.435 150.270,103.828 149.646 C 107.773 147.881,108.427 147.640,117.016 144.769 C 125.135 142.056,126.484 141.564,128.690 140.512 C 129.350 140.198,131.915 137.463,134.389 134.436 C 145.129 121.297,153.279 112.283,158.703 107.543 C 160.288 106.159,162.233 104.458,163.025 103.763 C 174.005 94.140,190.925 85.267,200.228 84.253 C 203.742 83.870,203.791 84.431,200.395 86.179 C 190.609 91.215,181.995 100.489,181.993 105.991 C 181.993 107.961,183.198 108.787,187.305 109.632 C 191.228 110.440,191.427 111.795,188.240 116.016 C 184.653 120.767,186.338 122.198,195.532 122.205 C 202.460 122.210,202.259 122.024,201.600 127.825 C 200.641 136.272,204.013 138.261,215.138 135.810 C 215.611 135.706,215.798 135.974,215.701 136.615 C 214.337 145.659,216.133 146.675,233.613 146.750 C 240.216 146.778,245.823 146.832,246.073 146.870 C 247.013 147.013,243.277 150.237,241.367 150.931 C 238.936 151.814,234.430 152.563,229.243 152.947 C 224.786 153.277,220.088 154.270,219.312 155.046 C 218.456 155.902,222.922 160.008,237.384 171.657 C 243.479 176.566,246.273 179.693,251.470 187.422 C 253.798 190.883,258.047 196.749,260.914 200.459 C 263.780 204.168,267.652 209.796,269.518 212.965 C 275.572 223.247,282.450 231.617,285.689 232.645 C 287.544 233.234,286.396 239.979,283.300 246.680 L 282.366 248.701 279.118 247.487 C 271.657 244.697,264.126 240.546,260.024 236.962 C 251.503 229.519,244.162 221.648,234.736 209.844 C 227.198 200.405,226.019 198.979,223.825 196.639 C 220.444 193.032,210.323 184.886,205.927 182.233 C 199.896 178.593,189.892 174.984,178.017 172.167 C 173.202 171.024,170.491 170.639,159.184 169.492 C 156.807 169.251,148.595 169.043,140.936 169.031 C 123.436 169.003,119.408 168.439,112.605 165.068 C 106.340 161.963,104.367 157.190,107.519 152.762 C 108.538 151.332,108.433 150.863,107.264 151.628 C 101.076 155.676,104.872 163.867,114.766 167.814 C 120.832 170.234,120.455 170.191,138.295 170.494 C 150.066 170.694,157.274 171.037,161.585 171.602 C 165.018 172.053,169.556 172.617,171.669 172.857 C 193.613 175.344,214.373 186.620,227.265 203.054 C 229.436 205.821,232.835 210.048,234.819 212.446 C 236.802 214.844,239.062 217.671,239.841 218.727 C 248.043 229.850,264.361 243.354,273.469 246.556 C 274.790 247.021,276.303 247.584,276.831 247.808 C 277.359 248.032,278.709 248.475,279.832 248.793 C 282.238 249.475,282.233 249.439,280.603 253.770 C 278.217 260.111,278.437 259.779,276.593 259.840 C 275.579 259.873,275.292 259.987,275.870 260.126 C 277.586 260.539,277.651 261.068,276.337 263.929 C 275.626 265.479,274.828 267.287,274.565 267.947 L 274.085 269.148 273.585 267.947 C 272.009 264.162,271.103 262.601,269.562 261.014 C 267.163 258.544,267.085 259.140,269.298 263.045 C 271.772 267.411,272.434 269.513,272.144 272.085 C 271.724 275.812,270.940 276.008,269.332 272.790 C 266.596 267.315,264.859 266.499,261.062 268.908 C 257.259 271.319,256.717 270.683,255.233 262.058 C 253.652 252.869,252.464 251.157,245.424 247.924 C 243.418 247.003,241.020 245.904,240.096 245.482 C 237.272 244.191,223.482 234.448,205.831 221.271 C 201.667 218.163,200.333 217.419,193.955 214.653 C 190.929 213.340,188.632 212.685,186.400 212.498 C 180.467 212.000,178.878 211.657,177.749 210.627 C 176.280 209.288,175.201 206.651,175.373 204.822 L 175.510 203.361 172.629 203.288 C 170.172 203.225,170.030 203.262,171.669 203.544 C 174.361 204.008,174.790 204.386,174.790 206.295 C 174.790 210.257,179.484 214.623,183.765 214.643 C 185.843 214.653,183.454 217.673,179.832 219.617 C 178.184 220.502,177.177 220.641,172.749 220.594 C 169.910 220.564,167.587 220.702,167.587 220.899 C 167.587 222.007,172.443 223.363,179.592 224.252 C 186.030 225.053,189.917 226.995,187.755 228.331 C 186.189 229.299,189.960 230.723,195.198 231.142 C 201.779 231.667,202.341 232.091,199.876 234.662 C 198.888 235.693,197.476 237.337,196.738 238.316 C 196.001 239.295,195.015 240.096,194.548 240.096 C 194.081 240.096,193.213 240.549,192.619 241.102 C 190.627 242.958,192.935 244.956,198.166 245.905 C 204.833 247.115,210.073 252.973,206.603 255.335 C 202.444 258.166,197.186 259.133,193.383 257.764 C 187.647 255.700,184.634 255.391,184.634 256.867 C 184.634 257.555,190.804 261.203,191.990 261.217 C 193.695 261.237,199.788 264.323,201.935 266.254 L 204.322 268.400 203.128 269.341 C 201.583 270.560,201.793 270.712,206.177 271.551 C 209.995 272.282,212.815 273.483,215.486 275.516 C 217.465 277.023,217.446 277.613,215.366 279.199 C 211.088 282.462,217.110 285.123,234.779 287.779 C 239.029 288.417,240.846 289.579,237.116 289.273 C 235.982 289.180,232.137 289.003,228.571 288.879 C 209.636 288.221,186.310 278.152,170.948 264.005 C 170.288 263.397,166.831 260.381,163.265 257.304 C 143.116 239.912,124.370 215.865,124.370 207.412 C 124.370 198.895,129.967 195.646,138.140 199.420 C 144.098 202.171,145.087 202.359,148.883 201.465 C 153.073 200.477,155.675 200.521,157.078 201.604 C 158.580 202.763,161.120 203.609,162.977 203.570 C 164.310 203.541,164.214 203.453,162.065 202.729 C 158.859 201.650,158.463 201.347,158.463 199.972 L 158.463 198.799 149.940 198.919 L 141.417 199.040 137.028 197.239 C 132.003 195.177,132.022 195.180,129.015 196.204 C 124.741 197.661,122.258 202.152,122.573 207.855 L 122.689 209.947 116.206 212.668 C 98.051 220.288,89.121 226.995,84.269 236.653 C 82.794 239.591,82.431 239.514,81.424 236.052 C 80.344 232.335,80.430 228.940,81.633 227.851 C 84.770 225.012,82.360 224.406,72.843 225.641 C 48.595 228.786,43.257 228.602,41.415 224.559 C 40.596 222.762,41.387 221.995,43.334 222.699 C 47.601 224.242,53.987 223.546,64.586 220.383 C 70.033 218.757,78.747 218.122,82.233 219.097 C 84.560 219.748,83.831 218.076,81.299 216.956 C 77.725 215.375,73.506 215.941,64.106 219.262 C 51.551 223.698,42.675 223.834,45.989 219.541 C 48.080 216.831,49.681 213.192,52.367 205.042 C 59.306 183.981,75.216 164.926,94.856 154.154 C 98.219 152.310,99.247 151.447,97.479 151.954 C 94.281 152.871,94.225 152.860,93.364 151.189 C 92.908 150.304,92.031 148.916,91.414 148.106 C 90.453 146.840,89.290 144.490,85.729 136.615 C 85.371 135.822,84.418 133.726,83.612 131.956 C 82.805 130.186,81.784 127.917,81.342 126.914 C 80.900 125.911,80.155 122.929,79.685 120.288 C 79.216 117.647,78.577 114.622,78.264 113.565 C 76.514 107.647,76.163 104.628,76.819 101.129 C 77.170 99.253,77.553 96.810,77.671 95.699 C 77.954 93.026,75.712 83.675,73.896 79.952 C 71.990 76.044,71.794 74.308,72.738 69.683 C 74.143 62.794,72.897 63.331,64.005 73.450 C 53.960 84.882,35.534 113.930,35.534 118.335 C 35.534 118.490,35.112 119.534,34.596 120.653 C 28.550 133.775,23.444 153.513,21.089 172.869 C 20.276 179.554,20.288 202.790,21.109 209.124 C 25.456 242.677,35.513 269.485,52.995 294.118 C 71.650 320.402,101.263 344.542,127.794 355.093 L 130.978 356.359 134.935 354.170 C 137.112 352.966,139.009 351.981,139.151 351.981 C 139.927 351.981,147.215 345.975,150.448 342.672 C 157.976 334.979,164.397 323.071,167.178 311.645 C 169.520 302.025,167.314 278.686,162.675 263.991 C 161.357 259.816,161.677 259.625,165.069 262.563 C 167.456 264.632,174.598 269.409,182.371 274.138 C 185.049 275.768,185.060 275.829,184.723 288.298 C 184.424 299.407,184.135 301.227,180.998 311.761 C 174.385 333.966,160.530 351.785,144.296 358.965 C 140.942 360.448,140.840 360.297,146.339 361.998 C 156.247 365.063,156.827 365.142,160.877 363.972 C 162.851 363.402,165.978 362.521,167.827 362.014 C 186.566 356.873,192.502 354.265,207.443 344.606 C 222.545 334.844,233.871 324.833,247.452 309.244 C 251.709 304.358,255.603 299.928,256.106 299.400 C 257.019 298.442,260.641 293.755,264.416 288.648 C 276.788 271.912,287.332 247.022,291.900 223.770 C 293.251 216.893,293.475 215.624,293.891 212.485 C 294.136 210.636,294.673 206.963,295.085 204.322 C 297.408 189.412,298.199 182.654,298.299 176.875 C 298.475 166.608,297.700 154.185,296.700 151.277 C 296.173 149.744,295.798 147.333,295.798 145.479 C 295.798 143.308,295.407 141.178,294.559 138.740 C 293.842 136.676,292.943 132.275,292.425 128.293 C 291.933 124.508,291.248 121.071,290.903 120.655 C 290.058 119.636,290.073 108.876,290.925 104.622 C 291.626 101.126,291.054 97.619,289.136 93.650 C 286.571 88.339,286.681 85.006,289.635 78.585 C 291.758 73.971,291.817 73.146,290.457 67.098 C 289.269 61.813,291.741 53.198,296.551 45.859 C 299.552 41.281,299.965 42.168,292.795 37.796 C 276.884 28.096,259.723 20.972,242.071 16.739 C 236.100 15.307,234.814 15.053,226.554 13.669 C 216.630 12.006,198.206 11.079,190.156 11.837 M89.104 49.620 C 88.267 50.232,88.264 50.394,89.039 53.341 C 90.295 58.116,90.490 63.040,89.607 67.640 C 88.522 73.286,88.579 73.859,90.996 81.633 C 93.470 89.587,93.488 89.795,92.200 95.168 C 91.592 97.704,91.242 100.831,91.240 103.746 C 91.237 107.966,91.466 109.400,93.616 118.607 C 94.126 120.794,95.964 126.740,96.510 127.971 C 96.744 128.499,97.213 129.796,97.551 130.852 C 97.890 131.909,98.471 133.205,98.843 133.733 L 99.518 134.694 99.163 133.733 C 98.968 133.205,98.633 132.125,98.418 131.333 C 98.203 130.540,97.677 128.812,97.249 127.491 C 94.169 117.990,93.121 106.629,94.613 98.919 C 96.011 91.699,95.885 87.516,94.100 81.873 C 93.850 81.080,93.319 79.398,92.921 78.134 C 92.061 75.406,91.980 69.269,92.747 64.869 C 93.168 62.448,93.157 60.488,92.697 56.459 C 91.877 49.277,91.237 48.060,89.104 49.620 M311.435 56.792 C 309.620 60.588,309.532 61.001,309.198 67.227 C 308.802 74.597,308.756 74.783,305.605 81.633 L 303.286 86.675 303.422 95.822 C 303.524 102.720,303.381 105.672,302.840 107.827 C 301.225 114.249,301.274 115.204,303.723 125.330 C 305.779 133.833,307.368 141.309,307.601 143.577 C 307.723 144.766,308.045 148.007,308.315 150.780 C 308.586 153.553,309.144 158.764,309.554 162.360 C 309.965 165.955,310.225 170.115,310.132 171.604 C 310.040 173.093,310.157 174.311,310.392 174.310 C 311.008 174.309,310.452 159.343,309.790 158.106 C 309.456 157.483,309.244 154.464,309.244 150.345 C 309.244 146.168,308.960 142.184,308.497 139.870 C 306.785 131.310,304.871 119.306,304.578 115.297 C 304.428 113.250,304.625 111.260,305.169 109.322 C 305.821 106.999,305.970 104.570,305.914 97.193 L 305.843 87.969 308.003 83.162 C 310.700 77.163,311.645 73.156,311.645 67.726 C 311.645 63.638,311.709 63.387,313.388 60.913 C 316.348 56.551,316.709 55.324,315.433 53.965 C 313.826 52.254,313.492 52.491,311.435 56.792 M329.308 69.988 C 328.006 71.481,327.559 72.742,326.531 77.833 C 325.501 82.934,325.170 83.608,320.768 89.556 C 319.149 91.743,318.988 93.091,319.558 99.686 C 319.851 103.084,319.772 104.576,319.204 106.408 C 316.716 114.425,316.780 113.921,317.356 120.996 C 317.653 124.648,318.223 129.764,318.623 132.365 C 319.023 134.967,319.549 138.499,319.791 140.216 C 320.033 141.933,320.578 145.282,321.003 147.659 C 322.592 156.567,322.783 159.263,322.538 169.268 C 322.241 181.378,321.190 191.066,318.761 204.082 C 318.244 206.855,317.644 210.096,317.429 211.285 C 316.381 217.062,314.669 223.881,313.090 228.571 C 312.260 231.036,310.113 237.009,309.724 237.935 C 309.502 238.463,308.727 240.516,308.002 242.497 C 307.276 244.478,306.004 247.611,305.174 249.460 C 304.344 251.309,303.254 253.794,302.752 254.982 C 301.459 258.043,296.548 267.860,294.527 271.424 C 293.590 273.077,292.163 275.618,291.357 277.071 C 282.000 293.925,264.782 314.395,251.034 325.010 C 248.320 327.106,244.694 330.113,242.977 331.692 C 238.136 336.146,237.477 336.643,229.292 342.021 C 217.133 350.010,208.205 354.864,191.597 362.514 C 178.341 368.620,178.096 368.811,182.821 369.336 C 188.613 369.979,212.324 369.765,218.968 369.010 C 245.511 365.991,271.070 357.261,292.677 343.832 C 296.110 341.698,299.351 339.688,299.879 339.364 C 304.398 336.593,315.349 327.783,321.969 321.594 C 353.808 291.827,373.163 253.136,377.992 209.604 C 378.928 201.166,378.784 177.656,377.751 170.228 C 377.310 167.059,376.739 162.953,376.484 161.104 C 374.640 147.786,369.052 129.812,362.226 115.246 C 356.802 103.673,344.901 84.141,341.451 81.152 C 341.299 81.020,340.236 79.678,339.089 78.168 C 337.943 76.659,335.844 74.174,334.427 72.646 C 333.009 71.118,331.841 69.706,331.831 69.508 C 331.796 68.818,330.036 69.153,329.308 69.988 M170.431 106.483 C 157.619 119.469,149.703 129.215,150.952 130.464 C 151.544 131.056,153.929 128.378,160.626 119.605 C 164.573 114.434,170.172 107.773,173.070 104.802 C 175.968 101.831,178.131 99.400,177.879 99.400 C 177.626 99.400,174.274 102.587,170.431 106.483 M175.819 121.560 C 170.589 126.703,167.393 130.931,167.665 132.345 C 167.927 133.701,170.612 131.029,175.526 124.523 C 177.883 121.402,180.087 118.562,180.422 118.213 C 180.957 117.656,181.263 116.687,180.904 116.687 C 180.833 116.687,178.545 118.880,175.819 121.560 M194.718 127.555 C 189.485 132.040,185.734 136.434,186.492 137.192 C 187.124 137.825,196.083 128.738,196.799 126.738 C 197.084 125.941,196.193 126.291,194.718 127.555 M148.499 135.753 C 145.798 136.273,147.905 136.602,153.061 136.463 C 158.190 136.326,169.498 137.378,177.431 138.731 C 188.003 140.535,202.958 146.871,211.093 152.993 C 215.206 156.089,216.219 156.180,213.002 153.164 C 206.113 146.708,190.979 139.871,178.391 137.530 C 170.670 136.095,152.374 135.007,148.499 135.753 M205.402 141.207 C 203.884 141.991,202.641 142.845,202.641 143.105 C 202.641 144.014,204.416 143.565,206.640 142.092 C 210.685 139.412,209.928 138.871,205.402 141.207 M355.181 144.144 C 368.389 150.717,369.794 171.219,358.590 193.919 C 356.106 198.951,340.997 215.409,334.259 220.423 C 332.819 221.494,332.691 221.759,333.180 222.672 C 337.890 231.473,323.302 250.317,305.782 258.062 C 302.371 259.570,302.268 259.378,304.249 255.222 C 305.130 253.373,306.164 251.104,306.547 250.180 C 307.107 248.825,307.936 248.142,310.823 246.655 C 318.091 242.913,323.725 234.582,323.612 227.743 C 323.591 226.482,323.509 225.666,323.430 225.930 C 323.351 226.194,323.015 227.383,322.683 228.571 C 320.841 235.178,319.009 238.815,316.111 241.624 C 314.237 243.439,309.386 246.161,308.897 245.672 C 308.661 245.436,310.949 237.883,312.113 235.054 C 313.111 232.628,315.383 225.106,316.682 219.928 C 317.112 218.211,317.654 216.050,317.885 215.126 C 318.117 214.202,318.561 211.663,318.872 209.484 C 319.617 204.271,321.292 203.966,322.934 208.742 C 323.751 211.120,324.279 211.187,325.063 209.011 C 326.034 206.317,327.468 204.247,331.225 200.115 C 336.341 194.488,336.855 193.162,336.855 185.594 L 336.855 179.352 338.347 179.206 C 339.635 179.081,339.925 178.786,340.467 177.046 C 342.947 169.081,345.761 167.559,350.862 171.420 C 353.668 173.545,355.441 174.195,354.566 172.779 C 354.246 172.260,354.176 172.008,352.496 165.276 C 351.134 159.813,351.166 156.544,352.597 155.200 L 353.694 154.170 355.297 155.145 C 358.033 156.809,359.079 155.180,357.572 151.605 C 356.829 149.845,352.874 145.985,350.616 144.817 C 349.071 144.018,348.616 142.863,349.700 142.491 C 350.515 142.211,352.495 142.808,355.181 144.144 M213.926 149.340 C 214.089 149.604,215.951 149.820,218.064 149.820 C 220.503 149.820,221.797 149.645,221.609 149.340 C 221.445 149.076,219.583 148.860,217.470 148.860 C 215.032 148.860,213.737 149.035,213.926 149.340 M288.115 153.623 C 288.115 154.130,287.034 155.728,285.712 157.174 C 282.703 160.466,281.924 163.058,284.083 162.593 C 286.923 161.981,288.512 169.931,286.439 174.382 C 285.073 177.317,284.724 181.026,285.970 179.380 C 286.357 178.867,286.675 178.102,286.675 177.679 C 286.675 175.319,291.686 172.190,293.033 173.709 C 295.844 176.882,296.689 198.263,294.037 199.146 C 292.645 199.611,283.530 187.576,280.957 181.877 C 279.641 178.963,278.771 178.217,279.272 180.432 C 280.332 185.127,284.880 192.267,290.408 197.915 L 294.008 201.593 293.771 204.066 C 293.430 207.613,292.965 207.734,290.589 204.896 C 289.441 203.524,287.379 201.212,286.006 199.760 C 273.365 186.382,270.563 174.976,277.077 163.415 C 280.535 157.279,288.115 150.554,288.115 153.623 M92.585 170.506 C 85.823 171.498,72.633 178.182,72.525 180.672 C 72.489 181.480,73.620 180.921,76.090 178.909 C 86.568 170.375,104.904 169.352,112.762 176.864 C 118.768 182.605,118.891 193.512,113.082 205.049 C 109.650 211.864,112.456 208.451,117.036 200.240 C 126.269 183.685,112.973 167.516,92.585 170.506 M361.374 174.190 C 360.897 175.708,360.076 177.923,359.550 179.112 C 359.023 180.300,358.267 182.029,357.870 182.953 C 356.440 186.281,354.774 189.454,353.962 190.396 C 353.506 190.924,352.365 192.545,351.427 193.998 C 348.920 197.875,346.042 200.903,342.219 203.683 C 336.651 207.733,331.327 212.868,331.351 214.166 C 331.360 214.655,331.678 214.502,332.345 213.685 C 334.838 210.632,336.949 208.736,341.356 205.589 C 348.912 200.194,361.104 183.552,361.104 178.633 C 361.104 178.210,361.296 177.658,361.530 177.407 C 361.954 176.952,362.783 171.429,362.427 171.429 C 362.324 171.429,361.850 172.671,361.374 174.190 M74.190 187.677 C 70.870 189.790,66.874 198.638,68.503 200.268 C 69.648 201.413,79.188 200.140,80.951 198.607 C 82.736 197.054,85.239 188.726,84.208 187.766 C 83.168 186.798,75.676 186.731,74.190 187.677 M80.098 189.656 C 83.299 192.856,82.097 197.933,77.836 199.209 C 74.366 200.249,71.068 197.997,71.068 194.587 C 71.068 189.383,76.732 186.290,80.098 189.656 M140.866 208.760 C 141.243 209.354,145.457 211.314,149.340 212.702 C 150.264 213.032,151.453 213.483,151.981 213.703 C 153.633 214.393,159.178 215.606,160.679 215.606 C 161.468 215.606,162.318 215.807,162.569 216.053 C 163.118 216.590,171.431 216.960,171.430 216.447 C 171.429 216.248,170.402 216.059,169.148 216.025 C 167.893 215.991,166.435 215.881,165.906 215.780 C 165.378 215.679,163.758 215.399,162.305 215.156 C 157.106 214.289,149.100 212.006,144.991 210.218 C 141.618 208.751,140.641 208.405,140.866 208.760 M137.417 212.845 C 145.318 223.971,167.533 240.455,184.154 247.523 C 185.210 247.972,186.784 248.646,187.651 249.020 C 188.519 249.394,189.610 249.700,190.076 249.700 C 190.543 249.700,191.180 249.956,191.493 250.268 C 191.805 250.581,192.174 250.723,192.312 250.585 C 192.450 250.447,191.643 249.890,190.519 249.347 C 189.395 248.805,185.774 247.058,182.473 245.466 C 177.358 243.000,174.365 241.371,168.798 238.026 C 160.323 232.933,149.123 223.760,140.988 215.249 C 137.103 211.185,135.446 210.069,137.417 212.845 M132.533 211.970 C 132.533 216.716,156.763 245.041,169.594 255.296 C 174.052 258.859,186.453 267.488,188.235 268.268 C 188.631 268.442,189.496 268.949,190.156 269.396 C 192.488 270.974,198.922 274.229,199.396 274.071 C 199.780 273.943,192.550 269.147,191.002 268.502 C 190.783 268.411,188.282 266.774,185.443 264.865 C 166.735 252.279,149.688 235.531,136.351 216.633 C 133.227 212.207,132.533 211.359,132.533 211.970 M85.821 223.752 C 85.974 224.890,85.762 226.616,85.295 228.044 C 84.381 230.840,84.349 231.131,85.001 230.728 C 86.805 229.613,88.099 223.705,86.819 222.425 C 85.824 221.430,85.557 221.786,85.821 223.752 " stroke="none" fill="#000000" fill-rule="evenodd"></path></g></svg>