<svg id="svg" xmlns="http://www.w3.org/2000/svg" xmlns:xlink="http://www.w3.org/1999/xlink" width="400" height="400" viewBox="0, 0, 400,400"><g id="svgg"><path id="path0" d="M183.642 1.491 C 183.419 1.852,182.176 1.916,179.772 1.691 C 177.342 1.463,176.230 1.522,176.230 1.880 C 176.230 2.205,174.966 2.401,172.869 2.401 C 170.948 2.401,169.508 2.607,169.508 2.881 C 169.508 3.145,168.427 3.361,167.107 3.361 C 165.734 3.361,164.706 3.580,164.706 3.871 C 164.706 4.203,163.952 4.268,162.545 4.057 C 161.084 3.837,160.384 3.906,160.384 4.267 C 160.384 4.571,159.554 4.802,158.463 4.802 C 157.407 4.802,156.543 5.018,156.543 5.282 C 156.543 5.546,155.786 5.762,154.862 5.762 C 153.937 5.762,153.181 6.005,153.181 6.303 C 153.181 6.643,152.665 6.739,151.784 6.563 C 150.866 6.380,150.305 6.498,150.148 6.907 C 149.996 7.303,149.368 7.450,148.424 7.312 C 147.523 7.180,146.939 7.304,146.939 7.629 C 146.939 7.923,146.291 8.163,145.498 8.163 C 144.706 8.163,144.058 8.379,144.058 8.643 C 144.058 8.908,143.409 9.124,142.617 9.124 C 141.825 9.124,141.176 9.344,141.176 9.613 C 141.176 9.895,140.668 9.975,139.976 9.801 C 139.236 9.615,138.776 9.704,138.776 10.032 C 138.776 10.325,138.235 10.564,137.575 10.564 C 136.915 10.564,136.375 10.780,136.375 11.044 C 136.375 11.309,135.834 11.525,135.174 11.525 C 134.514 11.525,133.974 11.755,133.974 12.037 C 133.974 12.331,133.564 12.420,133.013 12.245 C 132.462 12.070,132.053 12.159,132.053 12.453 C 132.053 12.735,131.513 12.965,130.852 12.965 C 130.192 12.965,129.652 13.181,129.652 13.445 C 129.652 13.709,129.232 13.926,128.720 13.926 C 128.207 13.926,127.649 14.150,127.479 14.425 C 127.309 14.700,126.756 14.794,126.250 14.633 C 125.736 14.470,125.330 14.567,125.330 14.854 C 125.330 15.135,124.898 15.366,124.370 15.366 C 123.842 15.366,123.409 15.582,123.409 15.846 C 123.409 16.110,122.977 16.327,122.449 16.327 C 121.921 16.327,121.489 16.557,121.489 16.839 C 121.489 17.133,121.079 17.222,120.528 17.047 C 119.977 16.872,119.568 16.961,119.568 17.255 C 119.568 17.536,119.228 17.767,118.813 17.767 C 118.398 17.767,117.733 18.093,117.334 18.492 C 116.935 18.890,116.411 19.094,116.168 18.944 C 115.925 18.794,115.726 18.882,115.726 19.141 C 115.726 19.400,115.078 19.754,114.286 19.928 C 113.493 20.102,112.845 20.443,112.845 20.686 C 112.845 20.930,112.413 21.128,111.885 21.128 C 111.357 21.128,110.924 21.345,110.924 21.609 C 110.924 21.873,110.600 22.089,110.204 22.089 C 109.808 22.089,109.484 22.314,109.484 22.590 C 109.484 22.866,109.214 23.058,108.884 23.018 C 107.945 22.904,106.122 23.595,106.122 24.066 C 106.122 24.299,105.798 24.490,105.402 24.490 C 105.006 24.490,104.682 24.719,104.682 24.998 C 104.682 25.278,104.466 25.373,104.202 25.210 C 103.938 25.047,103.721 25.142,103.721 25.422 C 103.721 25.702,103.397 25.930,103.001 25.930 C 102.605 25.930,102.281 26.146,102.281 26.411 C 102.281 26.675,101.849 26.891,101.321 26.891 C 100.792 26.891,100.360 27.130,100.360 27.422 C 100.360 27.715,100.070 27.842,99.714 27.706 C 99.359 27.570,98.771 27.871,98.408 28.375 C 98.044 28.879,97.471 29.292,97.133 29.292 C 96.795 29.292,96.519 29.531,96.519 29.823 C 96.519 30.116,96.193 30.230,95.794 30.077 C 95.369 29.914,94.825 30.190,94.478 30.746 C 94.153 31.267,93.506 31.693,93.042 31.693 C 92.577 31.693,92.197 31.894,92.197 32.141 C 92.197 32.387,91.711 32.742,91.116 32.929 C 90.522 33.117,89.709 33.618,89.309 34.042 C 88.555 34.842,87.201 35.776,85.956 36.355 C 85.560 36.538,84.740 37.185,84.133 37.792 C 83.526 38.399,82.730 38.896,82.363 38.896 C 81.997 38.896,81.557 39.337,81.386 39.876 C 81.203 40.454,80.507 40.969,79.687 41.133 C 78.904 41.290,78.172 41.813,78.007 42.334 C 77.841 42.858,77.108 43.378,76.312 43.537 C 75.541 43.691,74.910 43.976,74.910 44.171 C 74.910 44.811,71.626 48.019,70.971 48.019 C 70.618 48.019,69.049 49.424,67.485 51.140 C 65.921 52.857,64.353 54.262,64.000 54.262 C 63.175 54.262,54.742 62.679,54.742 63.502 C 54.742 63.844,53.337 65.404,51.621 66.968 C 49.904 68.533,48.499 70.109,48.499 70.473 C 48.499 71.176,45.285 74.430,44.591 74.430 C 44.364 74.430,44.178 74.846,44.178 75.355 C 44.178 75.864,43.674 76.677,43.058 77.162 C 42.442 77.646,41.793 78.620,41.616 79.325 C 41.439 80.031,40.863 80.745,40.335 80.913 C 39.807 81.080,39.376 81.475,39.376 81.790 C 39.376 82.105,38.836 82.945,38.175 83.657 C 37.515 84.369,36.975 85.286,36.975 85.693 C 36.975 86.101,36.752 86.435,36.480 86.435 C 36.207 86.435,35.844 86.813,35.673 87.275 C 35.501 87.737,34.999 88.439,34.556 88.836 C 34.113 89.232,33.597 90.042,33.410 90.636 C 33.222 91.230,32.867 91.717,32.621 91.717 C 32.374 91.717,32.173 92.134,32.173 92.645 C 32.173 93.162,31.732 93.713,31.178 93.889 C 30.579 94.078,30.286 94.474,30.442 94.881 C 30.585 95.254,30.493 95.558,30.237 95.558 C 29.981 95.558,29.772 95.976,29.772 96.486 C 29.772 96.997,29.357 97.546,28.850 97.707 C 28.233 97.903,27.823 98.627,27.608 99.900 C 27.431 100.945,27.089 101.801,26.849 101.801 C 26.608 101.801,26.411 102.125,26.411 102.521 C 26.411 102.917,26.194 103.241,25.930 103.241 C 25.666 103.241,25.450 103.572,25.450 103.977 C 25.450 104.381,25.126 104.836,24.730 104.988 C 24.334 105.140,24.010 105.674,24.010 106.174 C 24.010 106.674,23.818 107.083,23.583 107.083 C 23.348 107.083,23.014 107.839,22.841 108.764 C 22.667 109.688,22.319 110.444,22.067 110.444 C 21.815 110.444,21.609 110.876,21.609 111.405 C 21.609 111.933,21.393 112.365,21.128 112.365 C 20.864 112.365,20.648 112.689,20.648 113.085 C 20.648 113.481,20.439 113.806,20.183 113.806 C 19.927 113.806,19.842 114.130,19.994 114.526 C 20.146 114.922,20.019 115.246,19.711 115.246 C 19.403 115.246,19.274 115.445,19.424 115.688 C 19.574 115.930,19.371 116.455,18.972 116.854 C 18.573 117.252,18.247 117.918,18.247 118.333 C 18.247 118.748,18.017 119.088,17.735 119.088 C 17.441 119.088,17.352 119.497,17.527 120.048 C 17.702 120.599,17.613 121.008,17.319 121.008 C 17.037 121.008,16.807 121.441,16.807 121.969 C 16.807 122.497,16.591 122.929,16.327 122.929 C 16.062 122.929,15.846 123.361,15.846 123.890 C 15.846 124.418,15.643 124.850,15.396 124.850 C 15.148 124.850,14.799 125.822,14.621 127.011 C 14.443 128.199,14.105 129.172,13.871 129.172 C 13.637 129.172,13.445 129.712,13.445 130.372 C 13.445 131.032,13.215 131.573,12.933 131.573 C 12.639 131.573,12.550 131.982,12.725 132.533 C 12.900 133.084,12.811 133.493,12.517 133.493 C 12.235 133.493,12.005 134.034,12.005 134.694 C 12.005 135.354,11.789 135.894,11.525 135.894 C 11.261 135.894,11.044 136.435,11.044 137.095 C 11.044 137.755,10.853 138.295,10.620 138.295 C 10.386 138.295,10.046 139.484,9.865 140.936 C 9.683 142.389,9.334 143.577,9.089 143.577 C 8.844 143.577,8.643 144.226,8.643 145.018 C 8.643 145.810,8.403 146.459,8.109 146.459 C 7.784 146.459,7.660 147.042,7.792 147.944 C 7.928 148.872,7.782 149.516,7.403 149.662 C 6.999 149.817,6.885 150.447,7.062 151.538 C 7.234 152.597,7.136 153.181,6.786 153.181 C 6.487 153.181,6.242 153.817,6.242 154.594 C 6.242 155.370,6.012 156.148,5.730 156.323 C 5.448 156.497,5.281 157.385,5.360 158.295 C 5.442 159.256,5.247 160.109,4.893 160.328 C 4.474 160.587,4.381 161.309,4.595 162.645 C 4.791 163.868,4.709 164.707,4.373 164.914 C 4.081 165.095,3.842 166.202,3.842 167.375 C 3.842 168.548,3.625 169.508,3.361 169.508 C 3.090 169.508,2.881 170.878,2.881 172.657 C 2.881 174.919,2.725 175.710,2.326 175.464 C 1.912 175.208,1.855 176.137,2.101 179.089 C 2.316 181.660,2.253 183.273,1.923 183.671 C 1.577 184.088,1.492 189.240,1.658 199.825 C 1.792 208.373,1.897 217.149,1.892 219.328 C 1.886 221.756,2.076 223.289,2.382 223.289 C 2.672 223.289,2.881 224.496,2.881 226.170 C 2.881 227.771,3.095 229.052,3.361 229.052 C 3.625 229.052,3.842 230.119,3.842 231.424 C 3.842 232.729,4.052 233.927,4.310 234.086 C 4.575 234.250,4.651 235.304,4.485 236.515 C 4.286 237.965,4.367 238.655,4.737 238.655 C 5.040 238.655,5.282 239.402,5.282 240.336 C 5.282 241.261,5.498 242.017,5.762 242.017 C 6.026 242.017,6.242 242.881,6.242 243.938 C 6.242 245.040,6.473 245.858,6.783 245.858 C 7.125 245.858,7.219 246.379,7.039 247.280 C 6.882 248.062,6.963 248.831,7.219 248.989 C 7.474 249.147,7.683 249.899,7.683 250.660 C 7.683 251.421,7.899 252.178,8.163 252.341 C 8.427 252.504,8.643 253.165,8.643 253.810 C 8.643 254.455,8.844 254.982,9.089 254.982 C 9.334 254.982,9.683 256.170,9.865 257.623 C 10.046 259.076,10.386 260.264,10.620 260.264 C 10.853 260.264,11.044 260.804,11.044 261.465 C 11.044 262.125,11.233 262.665,11.463 262.665 C 11.693 262.665,12.024 263.745,12.200 265.066 C 12.375 266.387,12.727 267.467,12.982 267.467 C 13.237 267.467,13.445 267.899,13.445 268.427 C 13.445 268.956,13.633 269.388,13.862 269.388 C 14.092 269.388,14.402 270.301,14.552 271.418 C 14.701 272.535,15.054 273.525,15.335 273.619 C 15.616 273.713,15.846 274.312,15.846 274.950 C 15.846 275.588,16.062 276.110,16.327 276.110 C 16.591 276.110,16.807 276.435,16.807 276.831 C 16.807 277.227,17.048 277.551,17.343 277.551 C 17.643 277.551,17.768 277.974,17.628 278.511 C 17.490 279.040,17.519 279.473,17.692 279.476 C 18.089 279.480,19.208 281.853,19.208 282.689 C 19.208 283.032,19.433 283.313,19.709 283.313 C 19.985 283.313,20.177 283.583,20.137 283.914 C 20.023 284.852,20.714 286.675,21.184 286.675 C 21.418 286.675,21.609 287.107,21.609 287.635 C 21.609 288.163,21.808 288.595,22.051 288.595 C 22.294 288.595,22.635 289.244,22.809 290.036 C 22.983 290.828,23.324 291.477,23.568 291.477 C 23.811 291.477,24.010 291.909,24.010 292.437 C 24.010 292.965,24.202 293.397,24.438 293.397 C 24.673 293.397,25.001 293.938,25.167 294.598 C 25.333 295.258,25.680 295.798,25.940 295.798 C 26.199 295.798,26.411 296.122,26.411 296.519 C 26.411 296.915,26.627 297.239,26.891 297.239 C 27.155 297.239,27.371 297.671,27.371 298.199 C 27.371 298.727,27.600 299.160,27.879 299.160 C 28.159 299.160,28.247 299.387,28.075 299.665 C 27.904 299.943,28.215 300.563,28.767 301.042 C 29.320 301.521,29.772 302.158,29.772 302.457 C 29.772 302.756,30.011 303.001,30.303 303.001 C 30.596 303.001,30.710 303.327,30.557 303.726 C 30.394 304.151,30.671 304.695,31.226 305.042 C 31.747 305.367,32.173 305.999,32.173 306.446 C 32.173 306.893,32.614 307.398,33.153 307.569 C 33.837 307.786,34.049 308.148,33.854 308.764 C 33.658 309.379,33.870 309.741,34.554 309.958 C 35.102 310.132,35.534 310.684,35.534 311.212 C 35.534 311.731,35.858 312.279,36.255 312.431 C 36.651 312.583,36.975 313.038,36.975 313.442 C 36.975 313.845,37.515 314.676,38.175 315.288 C 38.836 315.900,39.376 316.721,39.376 317.112 C 39.376 317.503,39.817 317.962,40.356 318.134 C 40.912 318.310,41.448 319.005,41.595 319.740 C 41.748 320.506,42.440 321.372,43.287 321.858 C 44.075 322.310,44.587 322.896,44.424 323.159 C 44.262 323.422,45.112 324.593,46.314 325.761 C 47.516 326.930,48.499 328.128,48.499 328.423 C 48.499 328.719,49.391 329.765,50.482 330.747 C 53.952 333.873,55.702 335.827,55.702 336.573 C 55.702 337.166,57.991 339.496,58.573 339.496 C 58.807 339.496,59.133 339.917,59.296 340.432 C 59.459 340.946,60.003 341.498,60.504 341.657 C 61.005 341.816,61.549 342.367,61.712 342.882 C 61.876 343.396,62.410 343.818,62.899 343.818 C 63.793 343.818,66.684 346.446,68.368 348.789 C 68.863 349.478,69.457 349.925,69.688 349.783 C 69.919 349.640,70.108 349.860,70.108 350.272 C 70.108 350.688,70.514 351.020,71.024 351.020 C 71.527 351.020,72.654 351.885,73.528 352.941 C 74.402 353.998,75.476 354.862,75.915 354.862 C 76.354 354.862,76.982 355.186,77.311 355.582 C 77.640 355.978,77.733 356.303,77.518 356.303 C 77.303 356.303,77.544 356.607,78.054 356.980 C 78.564 357.353,79.157 357.549,79.372 357.416 C 79.802 357.151,81.633 359.063,81.633 359.777 C 81.633 360.023,81.903 360.134,82.233 360.023 C 82.563 359.913,83.399 360.427,84.090 361.167 C 84.782 361.906,85.483 362.376,85.648 362.211 C 85.813 362.046,86.331 362.324,86.798 362.828 C 87.659 363.757,88.963 364.678,90.276 365.285 C 90.672 365.468,91.407 365.999,91.909 366.466 C 92.412 366.932,92.999 367.205,93.214 367.072 C 93.430 366.938,93.881 367.270,94.217 367.808 C 94.554 368.347,95.101 368.788,95.434 368.788 C 95.766 368.788,96.038 369.029,96.038 369.324 C 96.038 369.619,96.452 369.752,96.957 369.620 C 97.580 369.457,97.953 369.671,98.113 370.284 C 98.250 370.807,98.774 371.188,99.355 371.188 C 99.908 371.188,100.360 371.405,100.360 371.669 C 100.360 371.933,100.792 372.149,101.321 372.149 C 101.849 372.149,102.281 372.358,102.281 372.614 C 102.281 372.870,102.605 372.955,103.001 372.803 C 103.397 372.651,103.721 372.766,103.721 373.058 C 103.721 373.350,103.966 373.589,104.265 373.589 C 104.565 373.589,105.159 373.987,105.586 374.473 C 106.013 374.959,106.957 375.503,107.683 375.683 C 108.409 375.862,109.004 376.221,109.004 376.480 C 109.004 376.739,109.436 376.951,109.964 376.951 C 110.492 376.951,110.924 377.157,110.924 377.409 C 110.924 377.661,111.681 378.010,112.605 378.183 C 113.529 378.356,114.286 378.638,114.286 378.808 C 114.286 379.181,116.427 380.138,118.247 380.577 C 118.974 380.753,119.568 381.089,119.568 381.325 C 119.568 381.560,120.000 381.753,120.528 381.753 C 121.056 381.753,121.489 381.969,121.489 382.233 C 121.489 382.497,121.934 382.713,122.477 382.713 C 123.098 382.713,123.339 382.918,123.126 383.263 C 122.888 383.649,123.157 383.720,124.029 383.502 C 124.712 383.330,125.405 383.407,125.569 383.672 C 125.733 383.937,126.286 384.154,126.799 384.154 C 127.312 384.154,127.731 384.370,127.731 384.634 C 127.731 384.898,128.163 385.114,128.691 385.114 C 129.220 385.114,129.652 385.334,129.652 385.603 C 129.652 385.886,130.160 385.965,130.852 385.791 C 131.592 385.606,132.053 385.694,132.053 386.022 C 132.053 386.315,132.485 386.555,133.013 386.555 C 133.541 386.555,133.974 386.771,133.974 387.035 C 133.974 387.299,134.622 387.515,135.414 387.515 C 136.206 387.515,136.855 387.746,136.855 388.028 C 136.855 388.322,137.264 388.410,137.815 388.235 C 138.366 388.060,138.776 388.149,138.776 388.443 C 138.776 388.725,139.424 388.956,140.216 388.956 C 141.008 388.956,141.657 389.172,141.657 389.436 C 141.657 389.700,142.197 389.916,142.857 389.916 C 143.517 389.916,144.058 390.157,144.058 390.452 C 144.058 390.766,144.559 390.892,145.270 390.757 C 145.936 390.629,146.597 390.712,146.738 390.941 C 146.880 391.169,147.739 391.357,148.648 391.357 C 149.557 391.357,150.300 391.573,150.300 391.837 C 150.300 392.101,151.056 392.317,151.981 392.317 C 152.906 392.317,153.661 392.560,153.661 392.857 C 153.661 393.200,154.182 393.293,155.083 393.113 C 155.865 392.957,156.635 393.038,156.792 393.293 C 156.950 393.548,157.931 393.758,158.972 393.758 C 160.013 393.758,160.864 393.974,160.864 394.238 C 160.864 394.502,161.837 394.718,163.025 394.718 C 164.247 394.718,165.186 394.942,165.186 395.234 C 165.186 395.534,166.041 395.717,167.227 395.670 C 170.169 395.554,170.561 395.620,170.217 396.176 C 170.010 396.512,170.935 396.568,173.070 396.350 C 175.302 396.121,176.230 396.186,176.230 396.572 C 176.230 396.938,177.581 397.119,180.312 397.119 C 182.557 397.119,184.394 397.300,184.394 397.522 C 184.394 397.743,191.417 397.927,200.000 397.931 C 208.583 397.935,215.606 397.753,215.606 397.528 C 215.606 397.303,217.335 397.119,219.448 397.119 C 221.982 397.119,223.289 396.934,223.289 396.577 C 223.289 396.193,224.288 396.133,226.700 396.370 C 229.079 396.605,230.014 396.551,229.793 396.192 C 229.443 395.625,229.863 395.545,232.533 395.668 C 233.550 395.715,234.334 395.527,234.334 395.235 C 234.334 394.935,235.340 394.718,236.735 394.718 C 238.055 394.718,239.136 394.524,239.136 394.288 C 239.136 393.824,242.254 393.275,244.778 393.295 C 245.636 393.302,246.339 393.085,246.339 392.812 C 246.339 392.540,247.095 392.317,248.019 392.317 C 248.944 392.317,249.700 392.101,249.700 391.837 C 249.700 391.573,250.335 391.357,251.112 391.357 C 251.889 391.357,252.640 391.169,252.781 390.941 C 252.923 390.712,253.584 390.629,254.250 390.757 C 254.961 390.892,255.462 390.766,255.462 390.452 C 255.462 390.157,256.002 389.916,256.663 389.916 C 257.323 389.916,257.863 389.700,257.863 389.436 C 257.863 389.172,258.499 388.956,259.275 388.956 C 260.052 388.956,260.827 388.731,260.996 388.456 C 261.166 388.181,261.719 388.088,262.225 388.248 C 262.740 388.411,263.145 388.314,263.145 388.028 C 263.145 387.746,263.685 387.515,264.346 387.515 C 265.006 387.515,265.546 387.299,265.546 387.035 C 265.546 386.771,266.086 386.555,266.747 386.555 C 267.407 386.555,267.947 386.313,267.947 386.018 C 267.947 385.719,268.371 385.593,268.908 385.733 C 269.436 385.872,269.868 385.789,269.868 385.549 C 269.868 385.310,270.408 385.114,271.068 385.114 C 271.729 385.114,272.269 384.898,272.269 384.634 C 272.269 384.370,272.701 384.154,273.229 384.154 C 273.758 384.154,274.190 383.933,274.190 383.664 C 274.190 383.382,274.698 383.303,275.390 383.476 C 276.130 383.662,276.591 383.573,276.591 383.245 C 276.591 382.953,276.915 382.713,277.311 382.713 C 277.707 382.713,278.031 382.497,278.031 382.233 C 278.031 381.969,278.463 381.753,278.992 381.753 C 279.520 381.753,279.952 381.564,279.952 381.334 C 279.952 381.104,280.816 380.777,281.873 380.608 C 282.929 380.439,283.794 380.087,283.794 379.826 C 283.794 379.565,284.226 379.352,284.754 379.352 C 285.282 379.352,285.714 379.136,285.714 378.872 C 285.714 378.607,286.038 378.391,286.435 378.391 C 286.831 378.391,287.155 378.152,287.155 377.860 C 287.155 377.567,287.479 377.453,287.875 377.605 C 288.271 377.757,288.595 377.672,288.595 377.416 C 288.595 377.160,289.028 376.951,289.556 376.951 C 290.084 376.951,290.516 376.744,290.516 376.492 C 290.516 376.240,291.273 375.892,292.197 375.719 C 293.121 375.545,293.878 375.211,293.878 374.977 C 293.878 374.742,294.154 374.550,294.492 374.550 C 294.830 374.550,295.403 374.137,295.767 373.633 C 296.130 373.129,296.718 372.828,297.073 372.964 C 297.428 373.100,297.719 372.973,297.719 372.680 C 297.719 372.388,298.043 372.149,298.439 372.149 C 298.836 372.149,299.160 371.933,299.160 371.669 C 299.160 371.405,299.592 371.188,300.120 371.188 C 300.648 371.188,301.080 370.949,301.080 370.657 C 301.080 370.365,301.416 370.254,301.826 370.411 C 302.253 370.575,302.446 370.495,302.278 370.223 C 302.116 369.962,302.321 369.748,302.733 369.748 C 303.145 369.748,303.481 369.532,303.481 369.268 C 303.481 369.004,303.899 368.788,304.409 368.788 C 304.927 368.788,305.477 368.347,305.653 367.792 C 305.827 367.245,306.240 366.901,306.571 367.028 C 306.903 367.156,307.471 366.847,307.835 366.343 C 308.198 365.839,308.887 365.426,309.365 365.426 C 309.843 365.426,310.359 365.102,310.511 364.706 C 310.663 364.310,311.182 363.986,311.664 363.986 C 312.146 363.986,312.680 363.544,312.852 363.005 C 313.074 362.304,313.425 362.108,314.084 362.317 C 314.591 362.478,315.006 362.412,315.006 362.171 C 315.006 361.225,316.829 359.657,317.589 359.948 C 318.017 360.112,318.367 360.041,318.367 359.789 C 318.367 359.108,320.077 357.263,320.708 357.263 C 321.009 357.263,321.709 356.740,322.265 356.101 C 322.820 355.462,323.791 354.810,324.423 354.651 C 325.054 354.493,325.570 354.161,325.570 353.914 C 325.570 353.315,327.888 351.020,328.493 351.020 C 328.989 351.020,329.992 350.286,330.995 349.189 C 334.704 345.134,335.575 344.298,336.086 344.298 C 336.865 344.298,344.778 336.385,344.778 335.606 C 344.778 335.094,345.614 334.224,349.669 330.515 C 350.766 329.512,351.501 328.508,351.501 328.013 C 351.501 327.407,353.795 325.090,354.394 325.090 C 354.642 325.090,354.969 324.591,355.122 323.982 C 355.275 323.372,355.927 322.478,356.572 321.994 C 357.216 321.510,357.745 320.766,357.747 320.341 C 357.750 319.916,358.397 319.059,359.185 318.436 C 359.973 317.814,360.491 317.100,360.337 316.850 C 360.044 316.376,361.886 314.526,362.651 314.526 C 362.892 314.526,362.958 314.111,362.797 313.604 C 362.588 312.945,362.784 312.594,363.485 312.371 C 364.025 312.200,364.466 311.666,364.466 311.183 C 364.466 310.701,364.790 310.182,365.186 310.030 C 365.582 309.878,365.906 309.330,365.906 308.811 C 365.906 308.283,366.338 307.731,366.887 307.557 C 367.570 307.340,367.782 306.978,367.587 306.363 C 367.392 305.747,367.604 305.385,368.287 305.168 C 368.829 304.997,369.268 304.442,369.268 303.929 C 369.268 303.419,369.484 303.001,369.748 303.001 C 370.012 303.001,370.228 302.693,370.228 302.315 C 370.228 301.938,370.568 301.290,370.983 300.875 C 371.398 300.460,371.560 300.113,371.343 300.105 C 371.126 300.096,371.354 299.783,371.849 299.408 C 372.369 299.014,372.629 298.411,372.464 297.982 C 372.283 297.511,372.448 297.239,372.913 297.239 C 373.316 297.239,373.505 297.011,373.334 296.733 C 373.162 296.455,373.473 295.836,374.026 295.356 C 374.578 294.877,375.030 294.240,375.030 293.941 C 375.030 293.642,375.222 293.397,375.457 293.397 C 375.691 293.397,376.025 292.641,376.199 291.717 C 376.372 290.792,376.720 290.036,376.973 290.036 C 377.225 290.036,377.431 289.712,377.431 289.316 C 377.431 288.920,377.662 288.595,377.944 288.595 C 378.238 288.595,378.326 288.186,378.151 287.635 C 377.976 287.084,378.065 286.675,378.359 286.675 C 378.641 286.675,378.872 286.351,378.872 285.954 C 378.872 285.558,379.088 285.234,379.352 285.234 C 379.616 285.234,379.832 284.802,379.832 284.274 C 379.832 283.745,380.045 283.313,380.306 283.313 C 380.567 283.313,380.919 282.449,381.088 281.393 C 381.257 280.336,381.584 279.472,381.814 279.472 C 382.044 279.472,382.233 279.040,382.233 278.511 C 382.233 277.983,382.395 277.549,382.593 277.547 C 383.175 277.541,384.120 275.141,383.834 274.395 C 383.689 274.018,383.810 273.709,384.102 273.709 C 384.395 273.709,384.634 273.277,384.634 272.749 C 384.634 272.221,384.850 271.789,385.114 271.789 C 385.378 271.789,385.598 271.303,385.602 270.708 C 385.608 269.814,385.697 269.752,386.118 270.348 C 386.496 270.884,386.550 270.608,386.329 269.268 C 386.143 268.145,386.220 267.467,386.533 267.467 C 386.809 267.467,387.035 267.048,387.035 266.535 C 387.035 266.022,387.251 265.469,387.515 265.306 C 387.779 265.143,387.995 264.482,387.995 263.837 C 387.995 263.193,388.226 262.665,388.508 262.665 C 388.794 262.665,388.892 262.259,388.728 261.745 C 388.568 261.239,388.661 260.686,388.936 260.516 C 389.211 260.346,389.436 259.680,389.436 259.035 C 389.436 258.391,389.652 257.863,389.916 257.863 C 390.180 257.863,390.396 257.215,390.396 256.423 C 390.396 255.630,390.636 254.982,390.928 254.982 C 391.256 254.982,391.345 254.521,391.159 253.782 C 390.986 253.089,391.065 252.581,391.347 252.581 C 391.617 252.581,391.837 251.825,391.837 250.900 C 391.837 249.976,392.053 249.220,392.317 249.220 C 392.581 249.220,392.797 248.463,392.797 247.539 C 392.797 246.615,393.038 245.858,393.332 245.858 C 393.654 245.858,393.781 245.279,393.652 244.397 C 393.534 243.593,393.617 242.824,393.838 242.688 C 394.058 242.552,394.238 241.589,394.238 240.548 C 394.238 239.507,394.454 238.655,394.718 238.655 C 394.982 238.655,395.198 237.683,395.198 236.495 C 395.198 235.227,395.419 234.334,395.733 234.334 C 396.090 234.334,396.165 233.653,395.960 232.282 C 395.741 230.823,395.858 229.957,396.364 229.281 C 396.883 228.589,396.999 227.648,396.791 225.810 C 396.596 224.079,396.678 223.289,397.053 223.289 C 397.418 223.289,397.599 221.938,397.599 219.208 C 397.599 216.963,397.776 215.126,397.992 215.126 C 398.209 215.126,398.385 207.995,398.385 199.280 C 398.385 190.564,398.209 183.433,397.992 183.433 C 397.776 183.433,397.599 181.597,397.599 179.352 C 397.599 176.640,397.417 175.270,397.057 175.270 C 396.678 175.270,396.613 174.401,396.841 172.383 C 397.105 170.054,397.029 169.443,396.451 169.221 C 395.893 169.007,395.795 168.421,396.013 166.586 C 396.203 164.977,396.118 164.226,395.745 164.226 C 395.427 164.226,395.198 163.422,395.198 162.305 C 395.198 161.248,394.982 160.384,394.718 160.384 C 394.454 160.384,394.238 159.412,394.238 158.223 C 394.238 157.035,394.035 156.062,393.788 156.062 C 393.540 156.062,393.460 155.306,393.610 154.382 C 393.787 153.291,393.693 152.701,393.340 152.701 C 393.041 152.701,392.797 152.053,392.797 151.261 C 392.797 150.468,392.581 149.820,392.317 149.820 C 392.053 149.820,391.837 149.064,391.837 148.139 C 391.837 147.215,391.617 146.459,391.347 146.459 C 391.071 146.459,390.984 145.959,391.146 145.310 C 391.305 144.679,391.201 144.018,390.915 143.842 C 390.630 143.665,390.396 142.885,390.396 142.109 C 390.396 141.332,390.180 140.696,389.916 140.696 C 389.652 140.696,389.436 140.277,389.436 139.764 C 389.436 139.252,389.219 138.698,388.954 138.534 C 388.689 138.370,388.604 137.709,388.766 137.065 C 388.945 136.352,388.852 135.894,388.527 135.894 C 388.235 135.894,387.995 135.354,387.995 134.694 C 387.995 134.034,387.779 133.493,387.515 133.493 C 387.251 133.493,387.035 132.966,387.035 132.321 C 387.035 131.677,386.828 131.021,386.576 130.865 C 386.323 130.709,386.238 130.264,386.387 129.877 C 386.536 129.489,386.418 129.172,386.126 129.172 C 385.833 129.172,385.594 128.631,385.594 127.971 C 385.594 127.311,385.378 126.771,385.114 126.771 C 384.850 126.771,384.634 126.339,384.634 125.810 C 384.634 125.282,384.395 124.850,384.102 124.850 C 383.810 124.850,383.692 124.533,383.841 124.145 C 383.990 123.757,383.905 123.312,383.652 123.156 C 383.400 123.000,383.193 122.453,383.193 121.940 C 383.193 121.428,382.977 121.008,382.713 121.008 C 382.449 121.008,382.233 120.576,382.233 120.048 C 382.233 119.520,382.017 119.088,381.753 119.088 C 381.489 119.088,381.301 118.926,381.337 118.727 C 381.479 117.927,380.644 115.246,380.252 115.246 C 380.021 115.246,379.832 114.922,379.832 114.526 C 379.832 114.130,379.641 113.806,379.408 113.806 C 378.967 113.806,378.230 111.970,378.365 111.208 C 378.407 110.969,378.257 110.644,378.032 110.488 C 377.525 110.137,375.990 106.891,375.990 106.170 C 375.990 105.880,375.774 105.642,375.510 105.642 C 375.246 105.642,375.030 105.366,375.030 105.028 C 375.030 104.690,374.598 104.103,374.071 103.722 C 373.472 103.291,373.213 102.709,373.383 102.176 C 373.532 101.705,373.424 101.321,373.142 101.321 C 372.860 101.321,372.629 100.996,372.629 100.600 C 372.629 100.204,372.413 99.880,372.149 99.880 C 371.885 99.880,371.669 99.648,371.669 99.365 C 371.669 99.082,371.345 98.527,370.948 98.131 C 370.552 97.735,370.228 96.994,370.228 96.484 C 370.228 95.975,370.012 95.558,369.748 95.558 C 369.484 95.558,369.268 95.286,369.268 94.953 C 369.268 94.621,368.842 94.083,368.321 93.757 C 367.712 93.377,367.484 92.879,367.682 92.363 C 367.890 91.821,367.807 91.673,367.429 91.906 C 367.091 92.115,366.867 91.954,366.867 91.505 C 366.867 91.093,366.676 90.756,366.443 90.756 C 366.209 90.756,365.891 90.378,365.736 89.916 C 365.343 88.744,364.385 87.316,363.341 86.347 C 362.855 85.895,362.569 85.344,362.705 85.123 C 362.842 84.902,362.334 84.228,361.576 83.625 C 360.819 83.022,360.310 82.239,360.446 81.884 C 360.588 81.514,360.269 81.105,359.699 80.923 C 359.151 80.750,358.703 80.317,358.703 79.961 C 358.703 79.605,357.947 78.535,357.023 77.584 C 356.098 76.632,355.342 75.579,355.342 75.245 C 355.342 74.910,354.478 73.921,353.421 73.048 C 352.365 72.174,351.501 71.151,351.501 70.775 C 351.501 70.137,350.764 69.349,346.551 65.475 C 345.647 64.644,344.765 63.401,344.593 62.714 C 344.421 62.027,344.093 61.465,343.865 61.465 C 343.637 61.465,342.589 60.572,341.535 59.482 C 340.482 58.391,339.365 57.257,339.054 56.961 C 338.743 56.665,338.028 55.936,337.465 55.342 C 336.902 54.748,336.165 54.262,335.827 54.262 C 335.489 54.262,334.394 53.364,333.393 52.268 C 330.252 48.827,329.384 48.019,328.827 48.019 C 328.530 48.019,327.310 46.999,326.115 45.753 C 324.921 44.506,323.640 43.442,323.269 43.387 C 322.898 43.333,322.048 42.629,321.380 41.822 C 320.712 41.015,319.959 40.483,319.708 40.638 C 319.457 40.793,318.949 40.490,318.580 39.963 C 318.211 39.436,317.379 38.872,316.730 38.709 C 316.081 38.546,315.413 37.981,315.246 37.454 C 315.078 36.926,314.547 36.495,314.065 36.495 C 313.582 36.495,313.064 36.170,312.912 35.774 C 312.760 35.378,312.211 35.054,311.692 35.054 C 311.171 35.054,310.613 34.625,310.444 34.094 C 310.276 33.563,309.718 33.133,309.196 33.133 C 308.678 33.133,308.129 32.809,307.977 32.413 C 307.825 32.017,307.339 31.693,306.897 31.693 C 306.456 31.693,305.797 31.280,305.434 30.776 C 305.070 30.272,304.482 29.971,304.127 30.107 C 303.772 30.243,303.481 30.116,303.481 29.823 C 303.481 29.531,303.250 29.292,302.967 29.292 C 302.684 29.292,302.128 28.968,301.732 28.571 C 301.336 28.175,300.595 27.851,300.086 27.851 C 299.576 27.851,299.160 27.635,299.160 27.371 C 299.160 27.107,298.836 26.891,298.439 26.891 C 298.043 26.891,297.719 26.675,297.719 26.411 C 297.719 26.146,297.395 25.930,296.999 25.930 C 296.603 25.930,296.279 25.718,296.279 25.459 C 296.279 25.200,295.738 24.853,295.078 24.687 C 294.418 24.521,293.878 24.193,293.878 23.958 C 293.878 23.722,293.445 23.529,292.917 23.529 C 292.389 23.529,291.957 23.301,291.957 23.021 C 291.957 22.741,291.771 22.627,291.544 22.767 C 291.054 23.071,288.605 22.007,288.599 21.489 C 288.597 21.291,288.271 21.128,287.875 21.128 C 287.479 21.128,287.155 20.903,287.155 20.627 C 287.155 20.352,286.885 20.159,286.555 20.199 C 285.616 20.313,283.794 19.622,283.794 19.152 C 283.794 18.918,283.469 18.727,283.073 18.727 C 282.677 18.727,282.353 18.511,282.353 18.247 C 282.353 17.983,281.813 17.767,281.152 17.767 C 280.492 17.767,279.952 17.571,279.952 17.332 C 279.952 17.092,279.520 17.010,278.992 17.148 C 278.455 17.288,278.031 17.163,278.031 16.863 C 278.031 16.568,277.707 16.327,277.311 16.327 C 276.915 16.327,276.591 16.110,276.591 15.846 C 276.591 15.582,276.050 15.366,275.390 15.366 C 274.730 15.366,274.190 15.170,274.190 14.931 C 274.190 14.692,273.758 14.609,273.229 14.747 C 272.692 14.887,272.269 14.762,272.269 14.462 C 272.269 14.167,271.837 13.926,271.309 13.926 C 270.780 13.926,270.348 13.709,270.348 13.445 C 270.348 13.181,269.808 12.965,269.148 12.965 C 268.487 12.965,267.947 12.735,267.947 12.453 C 267.947 12.166,267.541 12.069,267.027 12.232 C 266.521 12.393,265.968 12.299,265.798 12.024 C 265.629 11.749,265.070 11.525,264.557 11.525 C 264.045 11.525,263.625 11.309,263.625 11.044 C 263.625 10.780,262.977 10.564,262.185 10.564 C 261.393 10.564,260.744 10.334,260.744 10.052 C 260.744 9.765,260.339 9.668,259.824 9.831 C 259.318 9.992,258.765 9.898,258.596 9.623 C 258.426 9.349,257.651 9.124,256.874 9.124 C 256.098 9.124,255.462 8.908,255.462 8.643 C 255.462 8.379,254.922 8.163,254.262 8.163 C 253.601 8.163,253.061 7.947,253.061 7.683 C 253.061 7.419,252.305 7.203,251.381 7.203 C 250.456 7.203,249.700 6.977,249.700 6.701 C 249.700 6.387,249.069 6.317,248.019 6.514 C 246.918 6.721,246.339 6.646,246.339 6.296 C 246.339 6.002,245.582 5.762,244.658 5.762 C 243.733 5.762,242.977 5.530,242.977 5.245 C 242.977 4.946,242.261 4.790,241.273 4.875 C 240.270 4.962,239.414 4.772,239.192 4.413 C 238.930 3.990,238.207 3.902,236.815 4.124 C 235.461 4.341,234.814 4.269,234.814 3.903 C 234.814 3.573,233.875 3.361,232.413 3.361 C 231.092 3.361,230.012 3.145,230.012 2.881 C 230.012 2.610,228.651 2.401,226.891 2.401 C 224.953 2.401,223.770 2.202,223.770 1.876 C 223.770 1.513,222.600 1.451,219.981 1.676 C 217.445 1.894,216.086 1.829,215.871 1.481 C 215.415 0.743,184.098 0.753,183.642 1.491 M211.765 8.428 C 263.857 11.473,315.999 38.287,348.418 78.700 C 348.925 79.332,349.901 80.520,350.586 81.341 C 357.876 90.066,369.696 109.506,374.705 121.008 C 378.176 128.978,381.060 136.353,382.218 140.216 C 382.574 141.405,383.246 143.565,383.712 145.018 C 394.005 177.101,394.241 221.379,384.293 253.782 C 382.924 258.241,380.280 266.260,379.860 267.227 C 379.631 267.755,378.526 270.456,377.404 273.229 C 342.693 359.060,249.036 408.307,158.688 388.234 C 106.342 376.604,64.695 346.823,34.793 299.640 C 30.482 292.837,23.345 278.053,20.409 269.843 C 19.423 267.084,18.441 264.607,18.227 264.340 C 17.658 263.627,13.639 249.956,12.479 244.785 C 11.930 242.338,11.378 239.904,11.253 239.376 C 5.057 213.232,6.159 178.828,14.143 149.100 C 15.267 144.914,20.053 130.901,21.339 128.029 C 21.945 126.677,22.841 124.598,23.330 123.409 C 25.429 118.315,32.406 104.960,35.173 100.742 C 36.824 98.224,38.715 95.271,39.376 94.180 C 50.186 76.316,71.251 55.004,91.717 41.227 C 104.378 32.704,112.174 28.600,129.892 21.130 C 149.007 13.071,186.252 6.503,204.562 7.961 C 205.750 8.056,208.992 8.266,211.765 8.428 M183.914 12.033 C 171.488 13.184,162.466 14.854,149.340 18.432 C 95.953 32.985,49.193 76.743,30.488 129.652 C 29.788 131.633,29.046 133.685,28.840 134.214 C 28.634 134.742,28.086 136.471,27.622 138.055 C 27.157 139.640,26.604 141.477,26.391 142.137 C 25.900 143.665,23.704 152.885,23.304 155.102 C 20.464 170.825,19.962 176.136,19.947 190.636 C 19.872 263.462,62.913 327.993,130.372 356.194 C 132.221 356.967,134.490 357.869,135.414 358.200 C 136.339 358.530,137.527 358.977,138.055 359.193 C 141.270 360.505,147.225 362.333,154.622 364.277 C 177.121 370.192,205.961 371.373,228.812 367.317 C 248.099 363.892,259.746 360.138,278.909 351.165 C 311.036 336.122,342.230 305.056,359.094 271.309 C 363.108 263.274,363.943 261.475,365.666 257.143 C 366.086 256.086,366.628 254.790,366.871 254.262 C 367.371 253.172,370.348 244.206,371.175 241.297 C 374.209 230.620,375.633 223.454,377.519 209.364 C 378.326 203.329,378.324 177.580,377.516 171.429 C 376.011 159.979,375.344 156.462,372.555 145.258 C 370.376 136.504,367.249 127.308,364.203 120.696 C 363.819 119.864,363.505 119.043,363.505 118.872 C 363.505 118.400,356.637 104.772,355.022 102.041 C 354.242 100.720,353.452 99.316,353.268 98.920 C 351.637 95.420,341.145 80.924,335.209 73.970 C 298.329 30.768,239.902 6.850,183.914 12.033 M214.157 48.753 C 219.190 49.420,226.140 50.815,229.772 51.889 C 230.564 52.123,232.401 52.660,233.854 53.082 C 235.306 53.505,236.927 54.042,237.455 54.276 C 237.983 54.511,239.712 55.128,241.297 55.647 C 252.477 59.310,262.497 63.037,264.469 64.266 C 265.225 64.736,267.482 64.982,271.912 65.076 C 275.410 65.150,279.892 65.553,281.873 65.971 C 283.854 66.389,286.555 66.948,287.875 67.213 C 299.282 69.504,303.378 70.701,308.519 73.246 C 313.831 75.876,320.710 82.603,316.807 81.351 C 308.353 78.639,303.341 80.769,309.105 84.624 C 310.001 85.224,311.701 87.156,312.883 88.919 C 315.255 92.457,318.328 95.437,324.560 100.241 C 334.467 107.878,338.212 112.102,340.254 117.946 C 341.418 121.279,341.239 121.600,339.172 119.875 C 332.568 114.363,328.337 117.269,333.558 123.732 C 335.173 125.731,337.408 131.000,339.960 138.829 C 341.233 142.733,342.073 147.108,343.360 156.543 C 343.667 158.788,344.219 162.370,344.588 164.503 C 344.988 166.822,345.236 171.361,345.203 175.788 C 345.144 183.648,345.108 183.613,343.410 174.000 C 341.777 164.759,337.224 153.046,334.403 150.826 C 333.767 150.326,332.045 147.896,330.576 145.426 C 328.153 141.353,327.515 141.059,329.168 144.778 C 331.646 150.349,332.187 151.598,332.455 152.359 C 332.712 153.090,334.552 162.306,336.119 170.708 C 337.817 179.813,337.945 194.637,336.403 203.601 C 335.971 206.110,335.280 210.108,334.868 212.485 C 332.756 224.651,326.876 245.194,323.186 253.301 C 312.475 276.832,301.571 289.775,288.983 293.902 C 284.396 295.405,280.283 294.441,283.286 292.566 C 289.399 288.748,294.838 282.195,294.838 278.647 C 294.838 276.268,295.020 275.785,296.564 274.076 C 298.402 272.042,298.376 272.249,297.447 266.883 C 296.999 264.299,298.423 261.735,302.991 256.903 C 307.596 252.030,308.789 250.000,307.693 248.904 C 306.685 247.896,304.606 248.988,302.523 251.619 C 301.141 253.363,300.818 253.536,299.426 253.275 C 297.730 252.956,295.770 254.457,294.027 257.407 C 292.046 260.760,291.528 257.892,293.311 253.444 C 298.139 241.403,301.045 237.576,310.924 230.245 C 323.996 220.546,325.418 213.385,318.077 194.227 C 309.524 171.909,300.494 160.183,273.589 136.460 C 267.314 130.927,263.625 127.342,263.625 126.777 C 263.625 125.664,265.603 124.059,267.484 123.646 C 268.261 123.475,269.007 123.157,269.142 122.938 C 269.387 122.542,268.666 122.072,260.325 117.190 C 258.018 115.840,257.531 114.587,258.350 112.106 C 259.052 109.977,258.700 109.527,255.861 108.935 C 252.759 108.288,245.171 107.119,240.816 106.617 C 232.548 105.666,230.890 105.107,226.840 101.905 C 224.264 99.869,222.360 98.729,222.051 99.037 C 221.797 99.292,227.297 103.697,229.774 105.222 C 232.083 106.645,234.979 107.368,241.056 108.040 C 255.270 109.610,258.601 110.570,257.430 112.758 C 255.807 115.790,257.549 117.963,263.625 120.490 C 267.214 121.982,267.340 122.197,265.238 123.232 C 259.826 125.894,260.067 135.828,265.736 143.772 C 268.093 147.074,268.387 147.899,267.210 147.899 C 262.735 147.899,263.783 152.930,269.094 156.940 C 274.132 160.744,275.204 162.980,272.218 163.458 C 266.123 164.432,265.967 168.676,271.672 178.310 C 273.366 181.171,274.635 183.628,274.492 183.771 C 274.010 184.253,270.124 181.605,267.467 178.985 C 246.218 158.025,239.637 150.747,228.488 135.876 C 221.834 127.001,219.023 122.683,212.246 110.924 C 208.274 104.034,201.777 98.770,196.639 98.278 C 195.318 98.152,191.913 97.613,189.071 97.079 C 186.229 96.546,180.503 95.760,176.346 95.333 C 172.189 94.906,167.383 94.326,165.666 94.044 C 159.379 93.011,147.899 86.387,147.899 83.791 C 147.899 82.819,147.227 82.160,144.418 80.376 C 139.934 77.528,138.576 76.259,136.309 72.795 C 133.470 68.455,133.851 68.046,141.531 67.190 C 147.558 66.518,149.029 65.704,153.406 60.622 C 157.723 55.609,159.046 54.653,164.162 52.844 C 176.991 48.307,197.882 46.598,214.157 48.753 M210.835 52.777 C 210.267 53.576,209.233 54.507,208.538 54.846 C 206.674 55.755,206.450 56.894,208.221 56.458 C 210.430 55.914,211.657 54.886,212.009 53.283 C 212.460 51.230,212.060 51.058,210.835 52.777 M218.167 54.130 C 217.683 55.114,216.128 56.797,214.712 57.870 C 212.170 59.798,210.433 62.139,211.196 62.611 C 212.012 63.115,219.928 54.956,219.928 53.611 C 219.928 51.819,219.197 52.034,218.167 54.130 M179.056 67.182 C 175.560 68.125,172.317 69.596,170.468 71.076 L 169.268 72.037 171.429 73.966 C 174.969 77.126,175.867 77.450,180.414 77.212 C 185.303 76.955,186.645 76.120,185.061 74.320 C 184.533 73.720,183.516 72.311,182.800 71.188 C 182.084 70.066,181.243 69.148,180.930 69.148 C 179.409 69.148,181.853 67.878,184.775 67.150 L 187.995 66.348 185.114 66.336 C 183.529 66.330,180.803 66.710,179.056 67.182 M197.263 67.003 C 197.090 67.176,197.730 68.539,198.686 70.033 C 205.409 80.542,203.669 89.625,194.164 93.634 C 190.101 95.349,189.524 96.313,192.856 95.819 C 198.300 95.012,202.521 91.865,203.633 87.782 C 204.251 85.514,203.985 77.560,203.241 76.051 C 202.997 75.556,202.216 73.962,201.506 72.509 C 200.050 69.531,197.737 66.529,197.263 67.003 M273.991 70.676 C 283.602 77.473,297.352 91.774,305.264 103.201 C 305.340 103.311,305.502 103.302,305.623 103.181 C 307.594 101.210,284.141 75.710,275.150 70.047 C 271.675 67.858,270.732 68.370,273.991 70.676 M179.488 69.664 C 184.143 71.286,182.858 76.823,177.825 76.829 C 176.011 76.831,172.869 74.155,172.869 72.607 C 172.869 70.292,176.570 68.646,179.488 69.664 M139.964 72.971 C 140.542 73.905,150.155 80.601,153.111 82.127 C 155.838 83.535,158.696 84.308,168.788 86.364 C 171.571 86.932,176.002 89.233,178.438 91.378 C 180.760 93.422,181.206 92.902,179.405 90.252 C 177.823 87.924,174.053 86.200,167.251 84.693 C 158.517 82.760,158.324 82.714,156.667 82.192 C 153.852 81.306,148.532 78.364,144.405 75.412 C 140.494 72.615,139.359 71.990,139.964 72.971 M219.786 77.104 C 222.941 81.510,227.452 84.707,238.366 90.268 C 245.984 94.150,247.921 95.206,251.100 97.213 C 252.168 97.888,253.137 98.439,253.253 98.439 C 253.368 98.439,255.659 99.736,258.343 101.321 C 261.027 102.905,263.300 104.202,263.393 104.202 C 266.287 104.202,290.898 122.255,298.319 129.823 C 301.712 133.282,302.659 133.782,300.019 130.719 C 289.040 117.986,274.943 108.037,249.940 95.379 C 235.002 87.817,227.025 82.934,222.089 78.332 C 219.452 75.874,218.568 75.403,219.786 77.104 M115.059 87.415 L 116.376 87.916 114.495 89.456 C 105.872 96.515,103.484 99.405,103.471 102.792 C 103.461 105.311,103.290 105.771,101.670 107.631 C 99.689 109.905,99.514 110.952,100.644 113.776 C 101.728 116.485,100.262 119.484,95.193 124.922 C 90.745 129.694,90.083 130.738,90.485 132.338 C 90.935 134.132,92.156 133.727,94.929 130.864 C 97.125 128.598,97.663 128.272,98.831 128.506 C 100.468 128.833,102.570 127.256,103.975 124.648 C 106.037 120.819,106.934 123.889,105.050 128.327 C 100.117 139.948,97.320 143.807,89.420 149.896 C 72.447 162.978,71.797 167.977,83.465 195.678 C 89.691 210.459,101.849 225.420,121.723 242.753 C 123.832 244.593,125.798 246.315,126.091 246.579 C 126.384 246.843,128.493 248.679,130.777 250.660 C 133.062 252.641,134.932 254.484,134.933 254.755 C 134.936 255.929,133.359 257.317,131.345 257.911 C 128.769 258.672,128.635 259.230,130.735 260.445 C 131.592 260.941,132.941 261.722,133.733 262.180 C 134.526 262.638,136.255 263.656,137.575 264.441 L 139.976 265.870 139.976 268.782 C 139.976 272.727,140.429 272.939,151.981 274.398 C 165.828 276.148,166.564 276.357,171.373 279.890 C 173.120 281.174,175.031 282.475,175.619 282.780 C 177.460 283.736,176.405 282.296,173.913 280.451 C 167.048 275.368,165.247 274.599,158.703 273.962 C 147.026 272.825,139.548 271.011,140.720 269.600 C 142.801 267.091,140.231 263.519,134.842 261.430 C 131.478 260.126,131.110 259.510,133.182 258.644 C 138.150 256.568,138.084 246.597,133.050 238.896 C 131.841 237.047,130.679 235.263,130.467 234.932 C 130.207 234.525,130.520 234.163,131.427 233.818 C 135.570 232.242,134.894 229.472,129.259 224.932 C 124.673 221.239,123.018 218.487,125.382 218.487 C 132.028 218.487,132.189 212.151,125.798 202.187 C 120.524 193.965,125.020 197.061,139.668 211.739 C 153.607 225.706,158.025 230.547,164.636 239.092 C 170.089 246.142,178.711 258.082,179.995 260.363 C 180.484 261.233,181.605 263.241,182.486 264.826 C 188.805 276.202,195.623 283.306,200.232 283.318 C 201.161 283.320,203.974 283.735,206.483 284.240 C 211.998 285.349,220.621 286.525,226.170 286.925 C 234.266 287.509,239.708 289.375,246.224 293.800 C 249.971 296.344,250.625 297.030,250.340 298.118 C 250.158 298.814,250.893 299.506,253.624 301.215 C 257.477 303.625,260.428 306.453,262.370 309.594 C 264.634 313.257,264.089 313.768,257.072 314.561 C 250.533 315.301,250.253 315.454,244.868 321.234 C 237.879 328.736,234.021 330.228,213.770 333.261 C 198.754 335.509,177.997 333.207,160.384 327.340 C 144.277 321.975,135.425 318.677,133.367 317.275 C 132.268 316.527,131.686 316.447,129.989 316.809 C 127.688 317.300,122.125 316.859,116.687 315.756 C 114.706 315.354,110.276 314.463,106.843 313.777 C 94.691 311.346,87.787 308.461,82.909 303.774 C 80.201 301.172,79.397 299.704,81.032 300.348 C 88.619 303.335,94.442 301.209,89.316 297.325 C 88.127 296.424,86.529 294.686,85.764 293.462 C 83.826 290.360,77.996 284.701,72.029 280.129 C 64.864 274.640,60.491 269.814,58.628 265.338 C 56.772 260.881,56.767 259.275,58.615 261.502 C 59.361 262.401,63.077 264.316,64.951 264.768 C 67.342 265.344,67.992 261.800,65.910 259.534 C 63.023 256.391,61.783 253.700,58.281 242.977 C 57.134 239.466,55.869 232.752,54.707 224.010 C 54.392 221.633,53.838 218.215,53.477 216.415 C 52.729 212.681,52.574 199.048,53.295 200.279 C 53.539 200.697,54.196 203.722,54.755 207.002 C 56.489 217.180,60.482 227.448,64.188 231.265 C 65.067 232.170,65.786 233.025,65.786 233.165 C 65.786 233.305,66.491 234.544,67.351 235.917 C 68.212 237.291,69.221 239.009,69.593 239.735 C 70.393 241.297,70.991 241.069,70.223 239.495 C 66.559 231.990,65.374 228.572,64.104 221.849 C 63.679 219.604,63.132 216.795,62.888 215.606 C 60.481 203.903,60.056 188.234,61.866 177.956 C 68.177 142.124,75.580 121.786,88.625 104.442 C 97.031 93.266,109.435 85.277,115.059 87.415 M158.906 88.653 C 162.039 89.864,172.444 92.677,173.787 92.677 C 176.576 92.677,171.461 90.898,162.726 88.830 C 155.470 87.112,154.842 87.083,158.906 88.653 M210.084 92.008 C 207.053 93.656,205.998 95.079,206.052 97.449 C 206.095 99.404,206.138 99.485,206.448 98.199 C 208.031 91.640,217.304 90.506,223.162 96.155 C 225.081 98.006,225.667 97.611,224.295 95.392 C 222.193 91.990,213.794 89.990,210.084 92.008 M214.896 104.710 C 218.835 115.874,239.648 146.102,252.885 159.884 C 256.500 163.648,255.626 161.635,251.828 157.451 C 248.615 153.912,242.976 146.568,232.505 132.288 C 227.066 124.871,224.902 121.370,220.634 113.085 C 218.321 108.595,216.111 104.436,215.722 103.842 C 214.595 102.118,214.147 102.589,214.896 104.710 M223.289 106.559 C 223.289 109.253,248.681 134.085,254.526 137.107 C 256.958 138.365,257.301 137.609,254.976 136.115 C 252.994 134.842,247.289 130.561,246.052 129.418 C 245.762 129.150,244.057 127.640,242.262 126.061 C 239.287 123.444,231.456 114.952,226.200 108.643 C 224.203 106.247,223.289 105.592,223.289 106.559 M316.502 155.914 C 316.472 156.493,316.631 157.080,316.856 157.219 C 317.080 157.358,317.649 158.505,318.120 159.768 C 318.590 161.031,319.453 163.145,320.036 164.466 C 321.326 167.384,323.409 173.266,324.685 177.594 C 328.092 189.142,328.443 191.451,328.503 202.641 L 328.555 212.485 329.251 208.884 C 330.855 200.585,329.061 185.854,325.010 174.070 C 324.066 171.322,323.696 170.392,321.909 166.267 C 320.249 162.433,317.712 157.252,317.383 157.023 C 317.193 156.891,316.930 156.351,316.798 155.822 C 316.575 154.931,316.554 154.938,316.502 155.914 M68.979 172.253 C 68.194 178.317,68.116 181.715,68.649 186.566 C 69.231 191.852,70.268 197.787,71.081 200.480 C 73.086 207.118,74.761 211.996,75.945 214.638 C 78.779 220.968,81.403 226.147,81.781 226.159 C 81.995 226.165,82.076 226.008,81.963 225.810 C 81.375 224.789,78.752 218.851,78.752 218.544 C 78.752 218.348,78.307 217.267,77.763 216.141 C 76.844 214.240,73.822 205.376,72.586 200.960 C 70.122 192.155,69.558 187.798,69.681 178.511 C 69.788 170.390,69.524 168.035,68.979 172.253 M143.110 220.201 C 143.103 220.483,144.749 222.536,146.768 224.763 C 153.388 232.064,171.517 257.003,174.844 263.385 C 175.946 265.498,178.140 269.712,179.720 272.749 C 181.300 275.786,182.829 278.422,183.119 278.605 C 186.961 281.042,174.792 259.859,162.377 242.497 C 156.248 233.926,143.146 218.765,143.110 220.201 M141.657 244.330 C 141.657 244.545,143.007 245.587,144.658 246.645 C 148.798 249.298,155.985 255.472,160.864 260.567 C 165.022 264.909,165.530 265.476,170.915 271.789 C 174.032 275.442,174.790 276.111,174.790 275.209 C 174.790 273.693,161.998 259.812,154.453 253.140 C 146.368 245.991,141.657 242.747,141.657 244.330 M97.479 249.851 C 97.479 250.893,105.350 258.677,111.645 263.860 C 120.432 271.095,128.219 275.980,143.818 284.047 C 161.035 292.950,162.451 293.710,166.235 296.089 C 168.616 297.585,174.562 301.973,176.010 303.302 C 179.657 306.650,179.857 306.364,176.616 302.439 C 174.326 299.666,169.497 296.538,159.068 291.073 C 154.642 288.753,150.156 286.356,149.100 285.746 C 148.043 285.136,143.613 282.578,139.256 280.061 C 118.723 268.203,111.110 262.827,101.441 253.360 C 99.262 251.226,97.479 249.648,97.479 249.851 M92.677 278.434 C 92.677 279.211,96.078 284.626,99.361 289.076 C 104.942 296.642,120.393 310.796,125.450 312.976 C 127.335 313.788,127.076 313.055,124.980 311.645 C 116.029 305.622,102.963 292.492,95.860 282.384 C 94.110 279.893,92.677 278.115,92.677 278.434 M191.609 283.313 C 191.524 289.552,181.073 291.232,175.433 285.912 C 173.516 284.105,172.743 283.829,173.195 285.114 C 174.463 288.721,181.629 291.682,186.102 290.447 C 190.499 289.233,193.569 285.459,192.149 283.014 C 191.670 282.189,191.624 282.214,191.609 283.313 M203.121 286.400 C 195.741 288.448,192.637 294.382,194.431 303.012 C 195.292 307.155,199.445 314.915,200.840 314.987 C 201.597 315.027,201.140 313.852,199.564 311.705 C 196.910 308.089,195.786 304.043,196.007 298.902 C 196.289 292.353,197.942 290.318,205.162 287.633 C 209.649 285.964,208.089 285.021,203.121 286.400 M217.527 289.404 C 217.527 291.870,223.193 295.382,229.292 296.696 C 242.705 299.586,246.245 300.979,253.765 306.323 C 257.702 309.121,258.751 309.661,257.957 308.478 C 257.453 307.728,248.388 301.424,245.369 299.725 C 243.109 298.453,239.545 297.388,234.334 296.429 C 227.501 295.172,222.907 293.255,219.712 290.329 C 217.532 288.332,217.527 288.330,217.527 289.404 M224.687 289.744 C 224.991 290.111,225.828 290.520,226.546 290.652 C 227.264 290.783,230.336 291.531,233.373 292.313 C 240.349 294.109,242.505 294.522,241.537 293.875 C 240.308 293.054,235.263 291.548,228.596 290.011 C 223.760 288.896,223.997 288.912,224.687 289.744 M214.412 304.862 C 212.825 305.202,212.324 306.369,213.328 307.385 C 213.686 307.747,214.400 308.800,214.913 309.724 C 215.426 310.648,216.244 311.771,216.731 312.219 C 217.834 313.236,217.392 314.034,215.698 314.083 C 214.987 314.103,213.541 314.404,212.485 314.752 L 210.564 315.385 213.008 315.436 C 217.564 315.530,226.308 312.593,228.176 310.342 C 228.801 309.589,226.001 306.345,223.673 305.122 C 222.343 304.424,217.142 304.278,214.412 304.862 M222.471 305.478 C 226.004 307.369,226.288 309.879,223.186 311.798 C 220.342 313.558,215.606 311.210,215.606 308.039 C 215.606 305.903,220.119 304.220,222.471 305.478 M184.128 321.364 C 179.658 325.369,178.665 326.468,178.337 327.776 C 177.828 329.805,178.937 330.279,179.734 328.373 C 180.112 327.467,181.847 325.475,183.589 323.946 C 186.426 321.455,187.747 319.640,187.154 319.047 C 187.040 318.933,185.678 319.975,184.128 321.364 M188.802 325.636 C 187.647 325.969,187.018 326.548,186.521 327.738 C 185.646 329.833,185.654 330.411,186.555 330.066 C 186.951 329.914,187.275 329.489,187.275 329.121 C 187.275 328.754,188.252 327.845,189.446 327.102 C 190.640 326.359,191.468 325.602,191.287 325.420 C 190.901 325.035,190.884 325.036,188.802 325.636 " stroke="none" fill="#000000" fill-rule="evenodd"></path></g></svg>