<svg id="svg" xmlns="http://www.w3.org/2000/svg" xmlns:xlink="http://www.w3.org/1999/xlink" width="400" height="400" viewBox="0, 0, 400,400"><g id="svgg"><path id="path0" d="M189.676 0.960 C 189.676 1.253,187.515 1.441,184.154 1.441 C 180.408 1.441,178.631 1.613,178.631 1.977 C 178.631 2.352,177.675 2.410,175.446 2.172 C 173.070 1.917,172.164 1.987,171.880 2.447 C 171.641 2.835,170.682 3.022,169.303 2.951 C 168.022 2.884,167.107 3.046,167.107 3.339 C 167.107 3.622,166.057 3.842,164.706 3.842 C 163.296 3.842,162.305 4.057,162.305 4.364 C 162.305 4.704,161.658 4.777,160.448 4.573 C 158.998 4.328,158.526 4.426,158.299 5.018 C 158.071 5.613,157.589 5.711,156.075 5.468 C 154.777 5.261,154.142 5.337,154.142 5.701 C 154.142 5.999,153.493 6.242,152.701 6.242 C 151.909 6.242,151.261 6.459,151.261 6.723 C 151.261 6.987,150.517 7.203,149.608 7.203 C 148.699 7.203,147.840 7.390,147.699 7.619 C 147.558 7.847,146.897 7.930,146.230 7.803 C 145.519 7.667,145.018 7.793,145.018 8.107 C 145.018 8.402,144.370 8.643,143.577 8.643 C 142.785 8.643,142.137 8.860,142.137 9.124 C 142.137 9.388,141.597 9.604,140.936 9.604 C 140.276 9.604,139.736 9.837,139.736 10.122 C 139.736 10.448,139.202 10.523,138.295 10.324 C 137.389 10.125,136.855 10.200,136.855 10.526 C 136.855 10.811,136.315 11.044,135.654 11.044 C 134.994 11.044,134.454 11.261,134.454 11.525 C 134.454 11.789,134.034 12.005,133.522 12.005 C 133.009 12.005,132.461 12.214,132.303 12.469 C 132.145 12.725,131.322 12.815,130.474 12.669 C 129.297 12.467,129.102 12.526,129.652 12.917 C 130.249 13.343,130.188 13.432,129.292 13.438 C 128.697 13.442,128.211 13.661,128.211 13.926 C 128.211 14.190,127.671 14.406,127.011 14.406 C 126.351 14.406,125.810 14.645,125.810 14.938 C 125.810 15.271,125.345 15.353,124.570 15.159 C 123.765 14.957,123.437 15.023,123.638 15.347 C 123.814 15.632,123.514 15.846,122.937 15.846 C 122.383 15.846,121.487 16.258,120.947 16.761 C 120.407 17.264,119.227 17.814,118.326 17.983 C 117.424 18.152,116.687 18.497,116.687 18.749 C 116.687 19.001,116.255 19.208,115.726 19.208 C 115.198 19.208,114.766 19.396,114.766 19.627 C 114.766 19.857,113.902 20.184,112.845 20.352 C 111.789 20.521,110.924 20.873,110.924 21.134 C 110.924 21.395,110.600 21.609,110.204 21.609 C 109.808 21.609,109.484 21.825,109.484 22.089 C 109.484 22.353,109.052 22.569,108.523 22.569 C 107.995 22.569,107.563 22.781,107.563 23.040 C 107.563 23.299,107.023 23.647,106.363 23.812 C 105.702 23.978,105.162 24.306,105.162 24.542 C 105.162 24.777,104.838 24.970,104.442 24.970 C 104.046 24.970,103.721 25.201,103.721 25.483 C 103.721 25.779,103.311 25.865,102.749 25.686 C 102.081 25.475,101.818 25.577,101.909 26.014 C 101.986 26.388,101.694 26.592,101.200 26.510 C 100.738 26.432,100.360 26.594,100.360 26.870 C 100.360 27.145,99.943 27.371,99.432 27.371 C 98.919 27.371,98.365 27.810,98.193 28.351 C 97.970 29.053,97.619 29.249,96.960 29.039 C 96.444 28.876,96.038 28.973,96.038 29.259 C 96.038 29.541,95.766 29.772,95.434 29.772 C 95.101 29.772,94.548 30.222,94.204 30.772 C 93.860 31.323,93.307 31.668,92.974 31.541 C 92.641 31.413,92.112 31.719,91.798 32.221 C 91.485 32.723,90.906 33.133,90.512 33.133 C 90.118 33.133,89.796 33.335,89.796 33.581 C 89.796 33.827,89.310 34.182,88.715 34.370 C 88.121 34.558,87.268 35.132,86.820 35.647 C 86.372 36.162,85.801 36.456,85.551 36.302 C 85.301 36.148,84.587 36.666,83.965 37.454 C 83.342 38.242,82.573 38.889,82.255 38.891 C 81.937 38.894,81.136 39.436,80.476 40.096 C 79.816 40.756,79.080 41.297,78.841 41.297 C 78.601 41.297,78.000 41.837,77.504 42.497 C 77.008 43.157,76.261 43.697,75.843 43.697 C 75.425 43.697,74.473 44.462,73.729 45.396 C 72.984 46.330,72.138 47.015,71.850 46.919 C 71.302 46.736,67.227 50.714,67.227 51.432 C 67.227 51.658,66.655 51.986,65.957 52.161 C 64.628 52.495,52.660 64.176,53.031 64.778 C 53.243 65.121,51.634 66.857,48.379 69.796 C 47.389 70.690,46.579 71.677,46.579 71.988 C 46.579 72.300,46.038 73.056,45.378 73.667 C 44.718 74.279,44.178 75.038,44.178 75.354 C 44.178 75.669,43.985 75.808,43.749 75.662 C 43.513 75.516,43.188 75.921,43.027 76.562 C 42.866 77.203,42.329 77.856,41.833 78.013 C 41.333 78.172,40.807 78.918,40.653 79.687 C 40.489 80.507,39.974 81.203,39.395 81.386 C 38.856 81.557,38.415 82.017,38.415 82.408 C 38.415 82.799,37.875 83.620,37.215 84.232 C 36.555 84.844,36.014 85.674,36.014 86.078 C 36.014 86.482,35.690 86.936,35.294 87.088 C 34.898 87.240,34.574 87.789,34.574 88.308 C 34.574 88.843,34.139 89.389,33.570 89.570 C 32.897 89.783,32.641 90.177,32.793 90.761 C 32.943 91.333,32.710 91.715,32.117 91.870 C 31.594 92.007,31.212 92.531,31.212 93.112 C 31.212 93.665,30.996 94.118,30.732 94.118 C 30.468 94.118,30.252 94.415,30.252 94.779 C 30.252 95.143,29.928 95.710,29.532 96.038 C 29.136 96.367,28.812 96.949,28.812 97.332 C 28.812 98.147,27.607 99.476,27.219 99.088 C 27.073 98.941,26.807 99.600,26.628 100.551 C 26.450 101.503,26.112 102.281,25.877 102.281 C 25.642 102.281,25.450 102.582,25.450 102.950 C 25.450 103.318,25.124 103.744,24.725 103.897 C 24.327 104.050,24.028 104.343,24.062 104.548 C 24.289 105.933,23.878 107.060,23.049 107.323 C 22.521 107.491,22.089 108.045,22.089 108.556 C 22.089 109.066,21.880 109.484,21.624 109.484 C 21.368 109.484,21.265 109.761,21.395 110.101 C 21.526 110.440,21.195 111.188,20.660 111.761 C 20.125 112.335,19.688 113.354,19.688 114.026 C 19.688 114.697,19.449 115.246,19.156 115.246 C 18.864 115.246,18.749 115.570,18.901 115.966 C 19.053 116.363,18.968 116.687,18.712 116.687 C 18.457 116.687,18.247 117.119,18.247 117.647 C 18.247 118.175,18.031 118.607,17.767 118.607 C 17.503 118.607,17.287 118.932,17.287 119.328 C 17.287 119.724,17.084 120.048,16.836 120.048 C 16.588 120.048,16.240 121.020,16.061 122.209 C 15.883 123.397,15.546 124.370,15.312 124.370 C 15.078 124.370,14.886 124.802,14.886 125.330 C 14.886 125.858,14.645 126.291,14.350 126.291 C 14.050 126.291,13.924 126.714,14.065 127.251 C 14.203 127.779,14.120 128.211,13.881 128.211 C 13.641 128.211,13.445 128.752,13.445 129.412 C 13.445 130.072,13.229 130.612,12.965 130.612 C 12.701 130.612,12.485 131.044,12.485 131.573 C 12.485 132.101,12.244 132.533,11.949 132.533 C 11.644 132.533,11.524 132.960,11.671 133.523 C 11.829 134.127,11.666 134.614,11.251 134.773 C 10.802 134.946,10.669 135.425,10.860 136.185 C 11.034 136.880,10.938 137.335,10.616 137.335 C 10.324 137.335,10.084 137.875,10.084 138.535 C 10.084 139.196,9.868 139.736,9.604 139.736 C 9.340 139.736,9.124 140.371,9.124 141.148 C 9.124 141.925,8.907 142.694,8.642 142.858 C 8.377 143.022,8.292 143.683,8.454 144.327 C 8.633 145.041,8.540 145.498,8.215 145.498 C 7.923 145.498,7.683 146.146,7.683 146.939 C 7.683 147.731,7.514 148.379,7.308 148.379 C 7.101 148.379,6.884 148.961,6.825 149.673 C 6.766 150.384,6.480 151.114,6.189 151.294 C 5.869 151.491,5.786 152.197,5.979 153.076 C 6.167 153.930,6.089 154.660,5.790 154.845 C 5.511 155.017,5.282 156.010,5.282 157.051 C 5.282 158.092,5.066 158.944,4.802 158.944 C 4.538 158.944,4.322 159.808,4.322 160.864 C 4.322 161.978,4.093 162.785,3.776 162.785 C 3.407 162.785,3.325 163.476,3.524 164.925 C 3.690 166.137,3.614 167.191,3.349 167.354 C 3.092 167.514,2.881 168.819,2.881 170.256 C 2.881 171.693,2.665 172.869,2.401 172.869 C 2.124 172.869,1.921 174.390,1.921 176.471 C 1.921 178.488,1.715 180.072,1.453 180.072 C 1.169 180.072,1.027 182.367,1.093 185.912 C 1.172 190.235,1.045 191.805,0.600 191.954 C -0.252 192.242,-0.252 205.558,0.600 206.412 C 1.027 206.839,1.174 208.744,1.110 212.990 C 1.057 216.458,1.209 218.968,1.470 218.968 C 1.718 218.968,1.921 220.480,1.921 222.329 C 1.921 224.250,2.127 225.690,2.401 225.690 C 2.667 225.690,2.881 226.961,2.881 228.543 C 2.881 230.112,3.092 231.526,3.349 231.685 C 3.614 231.849,3.690 232.903,3.524 234.115 C 3.325 235.564,3.407 236.255,3.776 236.255 C 4.093 236.255,4.322 237.062,4.322 238.175 C 4.322 239.232,4.538 240.096,4.802 240.096 C 5.066 240.096,5.282 240.960,5.282 242.017 C 5.282 243.073,5.501 243.938,5.768 243.938 C 6.066 243.938,6.135 244.681,5.947 245.858 C 5.741 247.145,5.818 247.779,6.181 247.779 C 6.479 247.779,6.723 248.427,6.723 249.220 C 6.723 250.012,6.939 250.660,7.203 250.660 C 7.467 250.660,7.683 251.188,7.683 251.832 C 7.683 252.477,7.892 253.134,8.148 253.292 C 8.403 253.449,8.490 254.187,8.341 254.932 C 8.151 255.883,8.287 256.367,8.800 256.564 C 9.261 256.741,9.434 257.208,9.270 257.834 C 9.123 258.397,9.243 258.824,9.548 258.824 C 9.843 258.824,10.084 259.472,10.084 260.264 C 10.084 261.056,10.304 261.705,10.573 261.705 C 10.856 261.705,10.935 262.213,10.761 262.905 C 10.542 263.778,10.653 264.106,11.166 264.106 C 11.660 264.106,11.803 264.466,11.642 265.306 C 11.508 266.007,11.636 266.507,11.949 266.507 C 12.244 266.507,12.485 267.047,12.485 267.707 C 12.485 268.367,12.682 268.908,12.923 268.908 C 13.164 268.908,13.507 269.772,13.685 270.828 C 13.864 271.885,14.207 272.749,14.448 272.749 C 14.689 272.749,14.886 273.181,14.886 273.709 C 14.886 274.238,15.074 274.670,15.305 274.670 C 15.535 274.670,15.862 275.534,16.031 276.591 C 16.200 277.647,16.551 278.511,16.812 278.511 C 17.073 278.511,17.287 278.944,17.287 279.472 C 17.287 280.000,17.478 280.432,17.713 280.432 C 17.947 280.432,18.283 281.400,18.461 282.584 C 18.644 283.807,19.021 284.687,19.334 284.625 C 19.637 284.564,19.923 284.730,19.971 284.994 C 20.223 286.397,20.816 287.635,21.236 287.635 C 21.497 287.635,21.583 287.971,21.425 288.381 C 21.266 288.796,21.562 289.581,22.094 290.152 C 22.619 290.716,23.049 291.461,23.049 291.807 C 23.049 292.154,23.265 292.437,23.529 292.437 C 23.794 292.437,24.010 292.854,24.010 293.363 C 24.010 293.872,24.334 294.613,24.730 295.009 C 25.126 295.406,25.450 295.961,25.450 296.244 C 25.450 296.527,25.666 296.759,25.930 296.759 C 26.194 296.759,26.411 297.083,26.411 297.479 C 26.411 297.875,26.641 298.199,26.923 298.199 C 27.210 298.199,27.307 298.605,27.143 299.121 C 26.937 299.770,27.126 300.130,27.779 300.337 C 28.602 300.598,29.327 301.837,29.480 303.241 C 29.508 303.505,29.910 304.071,30.372 304.498 C 30.834 304.925,31.212 305.519,31.212 305.819 C 31.212 306.118,31.414 306.363,31.660 306.363 C 31.907 306.363,32.262 306.849,32.449 307.443 C 32.637 308.037,33.161 308.848,33.613 309.244 C 34.066 309.640,34.590 310.450,34.778 311.044 C 34.965 311.639,35.320 312.125,35.567 312.125 C 35.813 312.125,36.014 312.542,36.014 313.053 C 36.014 313.565,36.453 314.120,36.995 314.292 C 37.696 314.515,37.892 314.866,37.683 315.525 C 37.522 316.032,37.588 316.447,37.829 316.447 C 38.564 316.447,40.342 318.201,39.977 318.566 C 39.790 318.754,40.352 319.533,41.228 320.297 C 42.103 321.062,42.705 321.873,42.564 322.101 C 42.423 322.328,42.758 322.824,43.307 323.202 C 45.056 324.405,46.036 325.655,45.772 326.343 C 45.631 326.710,45.728 327.011,45.987 327.011 C 46.895 327.011,50.689 331.090,50.527 331.892 C 50.432 332.362,50.762 332.817,51.329 332.997 C 51.858 333.165,52.425 333.724,52.589 334.238 C 52.752 334.753,53.080 335.174,53.317 335.174 C 53.555 335.174,56.707 338.138,60.323 341.760 C 63.939 345.382,67.200 348.390,67.569 348.444 C 68.251 348.544,70.726 351.013,72.014 352.878 C 72.465 353.530,73.028 353.801,73.575 353.628 C 74.045 353.479,74.430 353.554,74.430 353.795 C 74.430 354.557,76.591 356.783,77.332 356.783 C 77.723 356.783,78.449 357.323,78.945 357.983 C 79.441 358.643,80.234 359.184,80.707 359.184 C 81.181 359.184,81.708 359.625,81.879 360.164 C 82.063 360.742,82.759 361.258,83.578 361.421 C 84.348 361.575,85.093 362.101,85.252 362.602 C 85.410 363.099,85.963 363.505,86.482 363.505 C 87.001 363.505,87.549 363.830,87.701 364.226 C 87.854 364.622,88.335 364.946,88.771 364.946 C 89.208 364.946,89.840 365.387,90.176 365.925 C 90.513 366.463,91.008 366.768,91.278 366.601 C 91.547 366.435,92.160 366.750,92.639 367.303 C 93.118 367.855,93.732 368.307,94.003 368.307 C 94.273 368.307,94.619 368.631,94.771 369.028 C 94.924 369.424,95.487 369.748,96.023 369.748 C 96.560 369.748,96.999 369.964,96.999 370.228 C 96.999 370.492,97.431 370.708,97.959 370.708 C 98.487 370.708,98.920 370.901,98.920 371.136 C 98.920 371.372,99.460 371.700,100.120 371.866 C 100.780 372.032,101.321 372.379,101.321 372.638 C 101.321 372.897,101.645 373.109,102.041 373.109 C 102.437 373.109,102.761 373.335,102.761 373.610 C 102.761 373.886,103.139 374.048,103.601 373.971 C 104.095 373.888,104.387 374.092,104.310 374.466 C 104.219 374.903,104.482 375.006,105.150 374.794 C 105.712 374.615,106.122 374.702,106.122 374.998 C 106.122 375.280,106.447 375.510,106.843 375.510 C 107.239 375.510,107.563 375.701,107.563 375.934 C 107.563 376.405,109.386 377.096,110.324 376.982 C 110.654 376.942,110.924 377.134,110.924 377.410 C 110.924 377.686,111.248 377.911,111.645 377.911 C 112.041 377.911,112.365 378.127,112.365 378.391 C 112.365 378.655,112.702 378.872,113.114 378.872 C 113.554 378.872,113.722 379.098,113.522 379.421 C 113.288 379.801,113.577 379.896,114.454 379.728 C 115.154 379.594,115.726 379.671,115.726 379.899 C 115.726 380.126,116.118 380.312,116.596 380.312 C 117.075 380.312,117.914 380.730,118.463 381.241 C 119.011 381.751,120.240 382.315,121.194 382.494 C 122.148 382.673,122.929 383.012,122.929 383.247 C 122.929 383.481,123.361 383.673,123.890 383.673 C 124.418 383.673,124.850 383.890,124.850 384.154 C 124.850 384.418,125.444 384.637,126.170 384.641 C 127.229 384.647,127.348 384.748,126.771 385.151 C 126.235 385.524,126.450 385.574,127.611 385.345 C 128.598 385.151,129.172 385.228,129.172 385.556 C 129.172 385.841,129.712 386.074,130.372 386.074 C 131.032 386.074,131.573 386.291,131.573 386.555 C 131.573 386.819,132.005 387.035,132.533 387.035 C 133.061 387.035,133.493 387.265,133.493 387.547 C 133.493 387.834,133.899 387.931,134.413 387.768 C 134.919 387.607,135.472 387.701,135.642 387.976 C 135.812 388.251,136.479 388.475,137.123 388.475 C 137.768 388.475,138.295 388.691,138.295 388.956 C 138.295 389.220,138.836 389.436,139.496 389.436 C 140.156 389.436,140.696 389.679,140.696 389.976 C 140.696 390.320,141.219 390.412,142.137 390.228 C 142.949 390.066,143.577 390.144,143.577 390.408 C 143.577 390.666,144.226 390.876,145.018 390.876 C 145.810 390.876,146.459 391.092,146.459 391.357 C 146.459 391.621,147.107 391.837,147.899 391.837 C 148.691 391.837,149.340 392.077,149.340 392.371 C 149.340 392.694,149.919 392.821,150.801 392.692 C 151.605 392.574,152.374 392.657,152.510 392.877 C 152.646 393.097,153.609 393.277,154.650 393.277 C 155.691 393.277,156.543 393.493,156.543 393.758 C 156.543 394.022,157.299 394.238,158.223 394.238 C 159.148 394.238,159.904 394.453,159.904 394.717 C 159.904 394.983,160.779 395.127,161.872 395.041 C 163.179 394.937,163.922 395.098,164.083 395.520 C 164.265 395.992,164.990 396.077,166.917 395.850 C 168.712 395.640,169.508 395.714,169.508 396.092 C 169.508 396.440,170.556 396.639,172.389 396.639 C 174.024 396.639,175.270 396.850,175.270 397.128 C 175.270 397.425,176.698 397.580,178.911 397.523 C 180.913 397.471,182.696 397.629,182.872 397.874 C 183.256 398.406,216.581 398.491,216.252 397.959 C 216.011 397.570,217.307 397.474,221.248 397.593 C 222.770 397.639,223.770 397.464,223.770 397.154 C 223.770 396.840,224.989 396.639,226.891 396.639 C 228.906 396.639,230.012 396.445,230.012 396.092 C 230.012 395.719,230.763 395.633,232.372 395.824 C 234.117 396.031,234.797 395.934,234.982 395.452 C 235.160 394.988,235.793 394.876,237.184 395.063 C 238.471 395.235,239.136 395.139,239.136 394.781 C 239.136 394.456,240.016 394.238,241.325 394.238 C 242.529 394.238,243.398 394.049,243.255 393.819 C 243.113 393.588,244.504 393.251,246.348 393.069 C 248.192 392.888,249.700 392.536,249.700 392.288 C 249.700 392.040,250.456 391.837,251.381 391.837 C 252.305 391.837,253.061 391.621,253.061 391.357 C 253.061 391.092,253.709 390.876,254.502 390.876 C 255.294 390.876,255.942 390.690,255.942 390.463 C 255.942 390.235,256.483 390.152,257.143 390.279 C 257.844 390.413,258.343 390.285,258.343 389.972 C 258.343 389.677,258.992 389.436,259.784 389.436 C 260.576 389.436,261.224 389.220,261.224 388.956 C 261.224 388.691,261.765 388.475,262.425 388.475 C 263.085 388.475,263.625 388.255,263.625 387.986 C 263.625 387.704,264.134 387.624,264.826 387.798 C 265.566 387.984,266.026 387.895,266.026 387.567 C 266.026 387.274,266.459 387.035,266.987 387.035 C 267.515 387.035,267.947 386.819,267.947 386.555 C 267.947 386.291,268.487 386.074,269.148 386.074 C 269.808 386.074,270.348 385.844,270.348 385.562 C 270.348 385.275,270.754 385.178,271.268 385.341 C 271.774 385.502,272.327 385.408,272.497 385.134 C 272.667 384.859,273.225 384.634,273.738 384.634 C 274.250 384.634,274.670 384.418,274.670 384.154 C 274.670 383.890,275.102 383.673,275.630 383.673 C 276.158 383.673,276.591 383.457,276.591 383.193 C 276.591 382.929,277.023 382.713,277.551 382.713 C 278.079 382.713,278.511 382.504,278.511 382.248 C 278.511 381.992,278.836 381.907,279.232 382.059 C 279.628 382.211,279.952 382.096,279.952 381.804 C 279.952 381.512,280.384 381.273,280.912 381.273 C 281.441 381.273,281.873 381.084,281.873 380.854 C 281.873 380.623,282.737 380.297,283.794 380.128 C 284.850 379.959,285.714 379.658,285.714 379.459 C 285.714 378.999,289.305 377.431,290.359 377.431 C 290.798 377.431,291.016 377.290,290.844 377.118 C 290.516 376.790,292.658 375.495,293.852 375.300 C 294.233 375.237,294.630 374.935,294.732 374.628 C 294.834 374.321,295.224 374.070,295.598 374.070 C 295.972 374.070,296.279 373.854,296.279 373.589 C 296.279 373.325,296.603 373.109,296.999 373.109 C 297.395 373.109,297.719 372.912,297.719 372.671 C 297.719 372.430,298.574 372.089,299.620 371.912 C 300.893 371.697,301.617 371.287,301.813 370.669 C 301.974 370.163,302.530 369.748,303.049 369.748 C 303.567 369.748,304.116 369.424,304.268 369.028 C 304.420 368.631,304.954 368.307,305.454 368.307 C 305.953 368.307,306.363 368.091,306.363 367.827 C 306.363 367.563,306.693 367.347,307.098 367.347 C 307.502 367.347,307.958 367.023,308.110 366.627 C 308.262 366.230,308.808 365.906,309.323 365.906 C 309.839 365.906,310.127 365.690,309.964 365.426 C 309.801 365.162,310.004 364.946,310.416 364.946 C 310.828 364.946,311.164 364.712,311.164 364.426 C 311.164 364.140,311.435 363.996,311.765 364.106 C 312.095 364.217,312.905 363.735,313.565 363.037 C 314.226 362.338,315.144 361.624,315.606 361.450 C 316.068 361.277,316.447 360.912,316.447 360.639 C 316.447 360.367,316.800 360.144,317.232 360.144 C 317.664 360.144,318.518 359.604,319.130 358.944 C 319.742 358.283,320.498 357.743,320.811 357.743 C 321.125 357.743,322.027 356.987,322.816 356.062 C 323.606 355.138,324.539 354.382,324.889 354.382 C 325.615 354.382,327.971 352.169,327.971 351.488 C 327.971 351.241,328.488 350.909,329.119 350.751 C 329.750 350.592,330.712 349.994,331.256 349.421 C 332.493 348.119,332.035 348.583,341.075 339.462 C 345.245 335.255,348.861 331.813,349.109 331.813 C 349.358 331.813,349.696 331.279,349.859 330.626 C 350.023 329.973,351.108 328.588,352.270 327.549 C 353.431 326.509,354.382 325.321,354.382 324.908 C 354.382 324.496,355.030 323.679,355.822 323.093 C 356.615 322.508,357.263 321.716,357.263 321.335 C 357.263 320.599,359.029 318.848,359.770 318.848 C 360.011 318.848,360.072 318.415,359.904 317.887 C 359.734 317.352,359.818 316.927,360.093 316.927 C 360.899 316.927,362.494 314.952,362.235 314.276 C 362.102 313.930,362.439 313.511,362.990 313.336 C 363.538 313.163,363.986 312.626,363.986 312.144 C 363.986 311.662,364.310 311.143,364.706 310.991 C 365.102 310.839,365.426 310.290,365.426 309.771 C 365.426 309.244,365.858 308.691,366.407 308.517 C 367.090 308.300,367.302 307.938,367.107 307.323 C 366.912 306.708,367.124 306.346,367.807 306.129 C 368.349 305.957,368.788 305.402,368.788 304.890 C 368.788 304.379,368.980 303.962,369.216 303.962 C 369.451 303.962,369.779 303.421,369.945 302.761 C 370.111 302.101,370.458 301.561,370.717 301.561 C 370.977 301.561,371.188 301.128,371.188 300.600 C 371.188 300.072,371.405 299.640,371.669 299.640 C 371.933 299.640,372.149 299.339,372.149 298.971 C 372.149 298.603,372.473 298.178,372.869 298.026 C 373.265 297.874,373.589 297.310,373.589 296.774 C 373.589 296.237,373.806 295.798,374.070 295.798 C 374.334 295.798,374.550 295.474,374.550 295.078 C 374.550 294.682,374.780 294.358,375.062 294.358 C 375.356 294.358,375.445 293.948,375.270 293.397 C 375.095 292.846,375.184 292.437,375.478 292.437 C 375.760 292.437,375.990 292.113,375.990 291.717 C 375.990 291.321,376.206 290.996,376.471 290.996 C 376.735 290.996,376.951 290.564,376.951 290.036 C 376.951 289.508,377.150 289.076,377.393 289.076 C 377.636 289.076,377.977 288.427,378.151 287.635 C 378.325 286.843,378.667 286.194,378.910 286.194 C 379.153 286.194,379.352 285.762,379.352 285.234 C 379.352 284.706,379.591 284.274,379.883 284.274 C 380.176 284.274,380.290 283.950,380.138 283.553 C 379.972 283.119,380.136 282.833,380.552 282.833 C 380.968 282.833,381.133 282.547,380.966 282.113 C 380.814 281.717,380.929 281.393,381.221 281.393 C 381.513 281.393,381.753 280.973,381.753 280.461 C 381.753 279.948,381.969 279.395,382.233 279.232 C 382.497 279.068,382.713 278.515,382.713 278.003 C 382.713 277.490,382.909 277.071,383.148 277.071 C 383.388 277.071,383.471 276.639,383.332 276.110 C 383.192 275.573,383.318 275.150,383.617 275.150 C 383.912 275.150,384.154 274.718,384.154 274.190 C 384.154 273.661,384.370 273.229,384.634 273.229 C 384.898 273.229,385.114 272.797,385.114 272.269 C 385.114 271.741,385.310 271.309,385.549 271.309 C 385.789 271.309,386.133 270.228,386.315 268.908 C 386.496 267.587,386.841 266.507,387.080 266.507 C 387.319 266.507,387.515 266.074,387.515 265.546 C 387.515 265.018,387.756 264.586,388.051 264.586 C 388.351 264.586,388.477 264.162,388.336 263.626 C 388.198 263.098,388.281 262.545,388.520 262.397 C 388.760 262.249,388.956 261.493,388.956 260.716 C 388.956 259.939,389.172 259.304,389.436 259.304 C 389.700 259.304,389.916 258.764,389.916 258.103 C 389.916 257.443,390.157 256.903,390.452 256.903 C 390.769 256.903,390.892 256.397,390.752 255.664 C 390.604 254.893,390.756 254.334,391.155 254.180 C 391.574 254.020,391.703 253.472,391.528 252.596 C 391.378 251.849,391.494 251.112,391.788 250.930 C 392.079 250.751,392.317 249.968,392.317 249.191 C 392.317 248.415,392.533 247.779,392.797 247.779 C 393.061 247.779,393.277 247.131,393.277 246.339 C 393.277 245.546,393.512 244.898,393.800 244.898 C 394.141 244.898,394.212 244.249,394.006 243.026 C 393.812 241.877,393.888 241.032,394.204 240.837 C 394.487 240.663,394.718 239.668,394.718 238.627 C 394.718 237.586,394.934 236.735,395.198 236.735 C 395.462 236.735,395.678 235.762,395.678 234.574 C 395.678 233.325,395.901 232.413,396.206 232.413 C 396.567 232.413,396.628 231.507,396.399 229.532 C 396.169 227.556,396.230 226.651,396.592 226.651 C 396.928 226.651,397.119 225.345,397.119 223.049 C 397.119 220.968,397.322 219.448,397.599 219.448 C 397.892 219.448,398.079 217.207,398.079 213.685 C 398.079 210.164,398.266 207.923,398.559 207.923 C 398.861 207.923,399.040 204.882,399.040 199.760 C 399.040 194.638,398.861 191.597,398.559 191.597 C 398.266 191.597,398.079 189.356,398.079 185.834 C 398.079 182.313,397.892 180.072,397.599 180.072 C 397.322 180.072,397.119 178.551,397.119 176.471 C 397.119 174.229,396.925 172.869,396.604 172.869 C 396.260 172.869,396.199 171.992,396.419 170.228 C 396.647 168.408,396.583 167.587,396.214 167.587 C 395.891 167.587,395.678 166.632,395.678 165.186 C 395.678 163.866,395.462 162.785,395.198 162.785 C 394.934 162.785,394.718 161.921,394.718 160.864 C 394.718 159.801,394.485 158.944,394.195 158.944 C 393.852 158.944,393.784 158.286,393.998 157.023 C 394.211 155.760,394.143 155.102,393.800 155.102 C 393.512 155.102,393.277 154.346,393.277 153.421 C 393.277 152.497,393.061 151.741,392.797 151.741 C 392.533 151.741,392.317 150.984,392.317 150.060 C 392.317 149.136,392.076 148.379,391.781 148.379 C 391.468 148.379,391.340 147.880,391.473 147.182 C 391.599 146.523,391.439 145.766,391.116 145.498 C 390.794 145.231,390.634 144.473,390.759 143.814 C 390.893 143.116,390.765 142.617,390.452 142.617 C 390.157 142.617,389.916 141.969,389.916 141.176 C 389.916 140.384,389.700 139.736,389.436 139.736 C 389.172 139.736,388.956 139.196,388.956 138.535 C 388.956 137.875,388.735 137.335,388.466 137.335 C 388.184 137.335,388.104 136.827,388.278 136.134 C 388.464 135.395,388.375 134.934,388.047 134.934 C 387.755 134.934,387.515 134.502,387.515 133.974 C 387.515 133.445,387.299 133.013,387.035 133.013 C 386.771 133.013,386.555 132.473,386.555 131.813 C 386.555 131.152,386.369 130.612,386.141 130.612 C 385.914 130.612,385.831 130.072,385.957 129.412 C 386.091 128.711,385.963 128.211,385.650 128.211 C 385.355 128.211,385.114 127.797,385.114 127.291 C 385.114 126.785,384.844 126.262,384.514 126.128 C 384.079 125.953,384.099 125.876,384.587 125.848 C 385.050 125.822,384.935 125.528,384.220 124.908 C 383.580 124.353,383.294 123.705,383.478 123.227 C 383.642 122.799,383.537 122.449,383.245 122.449 C 382.952 122.449,382.713 121.909,382.713 121.248 C 382.713 120.588,382.522 120.048,382.289 120.048 C 381.902 120.048,381.157 118.094,381.406 117.733 C 381.465 117.649,381.143 117.373,380.692 117.120 C 380.237 116.866,379.993 116.346,380.143 115.954 C 380.293 115.565,380.176 115.246,379.883 115.246 C 379.591 115.246,379.352 114.814,379.352 114.286 C 379.352 113.758,379.161 113.325,378.928 113.325 C 378.516 113.325,377.755 111.530,377.859 110.804 C 377.888 110.606,377.695 110.444,377.431 110.444 C 377.167 110.444,376.951 110.012,376.951 109.484 C 376.951 108.956,376.735 108.523,376.471 108.523 C 376.206 108.523,375.990 108.199,375.990 107.803 C 375.990 107.407,375.751 107.083,375.459 107.083 C 375.166 107.083,375.052 106.759,375.204 106.363 C 375.356 105.966,375.271 105.642,375.015 105.642 C 374.759 105.642,374.550 105.210,374.550 104.682 C 374.550 104.154,374.351 103.721,374.108 103.721 C 373.865 103.721,373.521 103.063,373.344 102.258 C 373.168 101.453,372.610 100.537,372.106 100.222 C 371.601 99.907,371.188 99.269,371.188 98.804 C 371.188 98.339,370.949 97.959,370.657 97.959 C 370.365 97.959,370.237 97.669,370.373 97.313 C 370.509 96.958,370.208 96.370,369.704 96.007 C 369.200 95.644,368.788 95.180,368.788 94.978 C 368.788 94.775,368.409 94.167,367.947 93.627 C 367.485 93.088,367.175 92.529,367.258 92.385 C 367.342 92.242,366.995 91.762,366.487 91.320 C 365.979 90.878,365.410 90.030,365.222 89.436 C 365.035 88.842,364.680 88.355,364.433 88.355 C 364.187 88.355,363.986 87.938,363.986 87.427 C 363.986 86.910,363.545 86.359,362.990 86.183 C 362.389 85.992,362.099 85.598,362.257 85.186 C 362.401 84.812,362.092 84.239,361.571 83.914 C 361.050 83.589,360.624 82.972,360.624 82.545 C 360.624 82.117,360.084 81.361,359.424 80.866 C 358.764 80.370,358.223 79.583,358.223 79.118 C 358.223 78.652,358.061 78.271,357.863 78.271 C 357.045 78.269,354.993 76.018,354.690 74.790 C 354.510 74.064,354.161 73.469,353.914 73.469 C 353.319 73.469,351.020 71.154,351.020 70.555 C 351.020 70.296,349.400 68.495,347.419 66.553 C 345.438 64.610,343.818 62.773,343.818 62.471 C 343.818 62.168,342.089 60.190,339.976 58.074 C 337.863 55.958,336.134 54.500,336.134 54.832 C 336.134 55.165,334.439 53.660,332.367 51.488 C 330.295 49.316,328.360 47.539,328.067 47.539 C 327.388 47.539,325.090 45.259,325.090 44.585 C 325.090 44.304,324.740 44.209,324.312 44.373 C 323.585 44.652,321.729 43.113,321.729 42.230 C 321.729 42.033,321.097 41.651,320.325 41.381 C 319.553 41.112,318.682 40.443,318.388 39.894 C 318.094 39.345,317.508 38.896,317.086 38.896 C 316.664 38.896,315.970 38.494,315.543 38.004 C 315.115 37.513,314.291 36.962,313.710 36.779 C 313.129 36.595,312.521 36.024,312.357 35.510 C 312.194 34.995,311.666 34.574,311.183 34.574 C 310.701 34.574,310.182 34.250,310.030 33.854 C 309.878 33.457,309.315 33.133,308.779 33.133 C 308.242 33.133,307.803 32.917,307.803 32.653 C 307.803 32.389,307.505 32.173,307.142 32.173 C 306.778 32.173,306.211 31.849,305.882 31.453 C 305.554 31.056,304.971 30.732,304.589 30.732 C 303.695 30.732,302.463 29.512,302.904 29.063 C 303.090 28.875,302.917 28.764,302.521 28.818 C 301.235 28.993,299.679 28.249,299.383 27.319 C 299.225 26.819,298.677 26.411,298.167 26.411 C 297.657 26.411,297.239 26.215,297.239 25.975 C 297.239 25.736,296.807 25.653,296.279 25.791 C 295.742 25.932,295.318 25.806,295.318 25.506 C 295.318 25.211,294.994 24.970,294.598 24.970 C 294.202 24.970,293.878 24.754,293.878 24.490 C 293.878 24.226,293.553 24.010,293.157 24.010 C 292.761 24.010,292.437 23.770,292.437 23.478 C 292.437 23.186,292.113 23.071,291.717 23.223 C 291.321 23.375,290.996 23.290,290.996 23.034 C 290.996 22.778,290.564 22.569,290.036 22.569 C 289.508 22.569,289.076 22.353,289.076 22.089 C 289.076 21.825,288.752 21.609,288.355 21.609 C 287.959 21.609,287.635 21.417,287.635 21.182 C 287.635 20.947,286.879 20.613,285.954 20.440 C 285.030 20.266,284.274 19.918,284.274 19.666 C 284.274 19.414,283.829 19.208,283.285 19.208 C 282.684 19.208,282.425 18.999,282.625 18.676 C 282.846 18.318,282.620 18.250,281.933 18.468 C 281.327 18.660,280.912 18.584,280.912 18.280 C 280.912 17.998,280.480 17.767,279.952 17.767 C 279.424 17.767,278.992 17.551,278.992 17.287 C 278.992 17.023,278.559 16.807,278.031 16.807 C 277.503 16.807,277.071 16.565,277.071 16.271 C 277.071 15.971,276.647 15.845,276.110 15.985 C 275.510 16.142,275.150 16.000,275.150 15.606 C 275.150 15.212,274.790 15.070,274.190 15.227 C 273.653 15.367,273.229 15.242,273.229 14.942 C 273.229 14.647,272.689 14.406,272.029 14.406 C 271.369 14.406,270.828 14.190,270.828 13.926 C 270.828 13.661,270.396 13.445,269.868 13.445 C 269.340 13.445,268.908 13.215,268.908 12.933 C 268.908 12.639,268.498 12.550,267.947 12.725 C 267.396 12.900,266.987 12.811,266.987 12.517 C 266.987 12.235,266.447 12.005,265.786 12.005 C 265.126 12.005,264.586 11.789,264.586 11.525 C 264.586 11.261,264.046 11.044,263.385 11.044 C 262.725 11.044,262.185 10.805,262.185 10.512 C 262.185 10.188,261.728 10.095,261.014 10.274 C 260.370 10.435,259.709 10.351,259.545 10.086 C 259.381 9.821,258.612 9.604,257.835 9.604 C 257.058 9.604,256.423 9.388,256.423 9.124 C 256.423 8.860,255.882 8.643,255.222 8.643 C 254.562 8.643,254.022 8.400,254.022 8.103 C 254.022 7.759,253.499 7.668,252.581 7.851 C 251.768 8.014,251.140 7.935,251.140 7.671 C 251.140 7.414,250.492 7.203,249.700 7.203 C 248.908 7.203,248.259 6.987,248.259 6.723 C 248.259 6.459,247.395 6.242,246.339 6.242 C 245.282 6.242,244.418 6.036,244.418 5.783 C 244.418 5.530,243.640 5.384,242.690 5.459 C 241.596 5.545,240.873 5.362,240.719 4.961 C 240.546 4.510,239.934 4.413,238.605 4.626 C 237.360 4.825,236.735 4.744,236.735 4.383 C 236.735 4.053,235.796 3.842,234.334 3.842 C 233.013 3.842,231.933 3.621,231.933 3.353 C 231.933 3.072,230.869 2.901,229.438 2.952 C 227.873 3.007,226.873 2.828,226.754 2.471 C 226.619 2.067,225.674 1.994,223.486 2.218 C 221.321 2.440,220.408 2.372,220.408 1.987 C 220.408 1.610,218.694 1.441,214.886 1.441 C 211.525 1.441,209.364 1.253,209.364 0.960 C 209.364 0.656,205.762 0.480,199.520 0.480 C 193.277 0.480,189.676 0.656,189.676 0.960 M210.324 8.178 C 214.418 8.430,219.280 8.848,221.128 9.107 C 235.146 11.072,238.094 11.621,247.148 13.951 C 255.546 16.113,266.959 19.874,272.509 22.309 C 273.830 22.888,275.882 23.774,277.071 24.278 C 297.344 32.868,319.920 48.515,336.379 65.386 C 342.563 71.725,343.215 72.439,347.912 78.036 C 361.071 93.713,372.924 114.436,380.181 134.454 C 382.901 141.955,383.537 143.984,385.839 152.503 C 391.740 174.337,393.430 206.111,389.860 228.091 C 388.498 236.476,386.067 248.327,385.131 251.140 C 384.912 251.801,384.365 253.637,383.915 255.222 C 383.051 258.271,380.976 264.653,380.326 266.267 C 375.885 277.277,374.362 280.777,371.551 286.435 C 358.531 312.637,337.994 337.482,315.726 353.972 C 313.613 355.536,311.551 357.079,311.143 357.400 C 310.453 357.942,303.984 362.245,300.120 364.732 C 288.170 372.424,268.234 381.300,253.301 385.577 C 171.375 409.043,85.690 377.702,38.701 307.083 C 28.506 291.761,23.340 281.105,16.238 260.744 C 7.127 234.622,4.022 194.834,9.120 169.508 C 9.359 168.319,9.907 165.510,10.338 163.265 C 12.344 152.812,16.149 139.599,19.672 130.852 C 35.998 90.319,65.287 55.570,100.217 35.294 C 100.672 35.030,101.902 34.300,102.950 33.673 C 105.362 32.228,118.697 25.461,121.248 24.386 C 128.329 21.405,130.412 20.576,134.694 19.036 C 158.421 10.505,185.344 6.640,210.324 8.178 M187.035 11.808 C 174.999 12.964,170.550 13.580,161.585 15.330 C 154.948 16.625,140.928 20.732,135.169 23.067 C 134.379 23.387,133.301 23.815,132.773 24.018 C 125.167 26.940,112.818 33.001,107.736 36.307 C 106.188 37.314,103.409 39.015,101.561 40.088 C 99.712 41.160,96.931 43.005,95.381 44.188 C 93.831 45.371,91.652 46.987,90.538 47.779 C 88.299 49.373,84.058 52.982,79.254 57.383 C 77.525 58.968,74.682 61.506,72.938 63.023 C 60.874 73.517,46.151 94.069,36.730 113.565 C 19.656 148.898,14.692 192.495,23.503 229.745 C 23.749 230.787,23.872 231.767,23.775 231.923 C 23.679 232.079,24.359 234.684,25.287 237.712 C 26.214 240.740,27.080 243.662,27.210 244.205 C 27.432 245.129,27.797 245.194,32.811 245.199 C 41.004 245.207,47.688 247.143,51.707 250.671 C 54.565 253.181,56.069 253.683,61.705 254.009 C 68.403 254.396,69.658 254.996,74.239 260.001 C 78.223 264.355,80.203 265.553,87.324 267.921 C 93.112 269.845,94.273 270.469,97.211 273.234 C 98.547 274.491,101.801 276.928,104.442 278.649 C 107.083 280.370,110.432 283.006,111.885 284.506 C 113.515 286.190,115.813 287.888,117.887 288.941 C 119.736 289.879,121.869 291.372,122.628 292.259 C 123.386 293.146,124.791 294.353,125.749 294.942 C 136.118 301.310,155.843 322.161,168.865 340.518 C 173.489 347.038,180.072 356.975,180.072 357.438 C 180.072 357.530,181.102 359.419,182.362 361.636 C 183.621 363.853,185.079 366.499,185.603 367.517 C 186.896 370.031,187.664 370.228,196.190 370.228 L 203.601 370.228 203.601 368.540 C 203.601 367.611,203.061 364.136,202.401 360.818 C 200.641 351.971,200.442 352.269,206.709 354.380 L 209.097 355.185 209.702 358.265 C 211.019 364.975,211.933 368.576,212.468 369.163 C 213.315 370.091,228.439 368.153,238.415 365.837 C 244.104 364.517,255.430 361.267,258.103 360.188 C 258.631 359.975,261.981 358.662,265.546 357.270 C 315.848 337.636,357.394 291.907,371.457 240.696 C 371.837 239.310,372.489 236.933,372.904 235.414 C 373.320 233.896,373.880 231.465,374.149 230.012 C 374.418 228.559,374.828 226.399,375.060 225.210 C 379.522 202.348,379.317 176.119,374.501 153.817 C 373.232 147.936,373.335 148.035,367.040 146.661 C 360.323 145.194,359.657 145.211,354.305 146.983 C 350.112 148.371,349.554 148.443,345.738 148.087 C 337.379 147.307,337.294 147.323,332.447 150.598 C 328.801 153.062,327.486 153.665,324.313 154.330 C 322.231 154.766,319.664 155.359,318.607 155.647 C 316.033 156.349,306.417 162.745,295.792 170.821 C 279.291 183.364,281.458 182.094,280.211 179.952 C 279.711 179.094,278.152 176.827,276.746 174.915 C 275.340 173.002,274.190 171.364,274.190 171.275 C 274.190 170.853,278.696 167.992,282.593 165.938 C 284.970 164.685,288.427 162.418,290.276 160.900 C 292.125 159.382,296.339 156.099,299.640 153.606 C 302.941 151.113,306.939 148.084,308.523 146.877 C 311.399 144.685,313.669 143.677,318.041 142.650 C 319.315 142.351,321.201 141.573,322.233 140.921 C 323.266 140.269,324.205 139.736,324.321 139.736 C 324.437 139.736,326.764 138.415,329.493 136.801 L 334.454 133.865 341.176 133.214 C 348.419 132.512,351.982 131.533,356.273 129.066 C 358.612 127.721,359.391 127.528,362.545 127.511 C 365.877 127.492,366.134 127.419,365.978 126.531 C 365.322 122.783,362.390 122.995,353.401 127.439 C 349.247 129.492,348.348 129.748,343.797 130.168 C 335.010 130.981,334.199 131.234,326.370 135.609 C 321.765 138.183,317.803 140.033,315.592 140.641 C 310.005 142.179,308.179 143.371,299.469 151.165 C 291.157 158.602,286.628 162.087,278.437 167.347 C 272.969 170.858,273.816 170.950,270.623 166.499 C 267.378 161.976,267.387 162.341,270.452 159.811 C 271.829 158.673,273.936 156.737,275.133 155.506 C 276.331 154.276,278.410 152.724,279.753 152.057 C 281.102 151.387,283.574 149.413,285.275 147.648 C 286.969 145.890,290.326 143.075,292.735 141.393 C 295.144 139.711,298.303 137.156,299.755 135.716 C 302.772 132.723,304.661 131.662,311.016 129.391 C 316.947 127.272,318.232 126.425,321.786 122.302 C 326.812 116.468,328.494 115.554,335.170 115.032 C 340.319 114.629,341.947 113.965,345.764 110.707 C 347.583 109.154,349.313 108.212,351.715 107.466 C 356.879 105.862,356.858 105.327,351.265 96.252 C 340.554 78.870,323.467 59.844,309.004 49.193 C 307.948 48.415,306.666 47.402,306.155 46.941 C 305.644 46.480,302.727 44.456,299.672 42.443 C 296.617 40.430,293.501 38.353,292.747 37.827 C 290.698 36.399,272.531 27.275,268.667 25.733 C 266.819 24.996,264.226 23.952,262.905 23.414 C 242.459 15.085,207.923 9.802,187.035 11.808 M215.807 33.905 C 216.472 34.160,216.567 35.715,216.567 46.396 C 216.567 59.596,216.435 58.853,219.548 63.203 C 221.097 65.367,225.692 74.759,225.689 75.753 C 225.689 75.950,227.266 77.623,229.194 79.472 C 235.846 85.851,237.862 93.127,239.176 115.506 C 239.866 127.252,239.597 135.696,238.427 139.007 L 237.582 141.399 239.615 143.203 C 240.733 144.195,243.838 146.561,246.514 148.459 C 263.792 160.715,265.480 162.442,279.305 182.001 C 288.763 195.383,292.779 200.235,299.635 206.564 L 305.002 211.519 303.642 212.100 C 301.172 213.156,287.814 212.894,285.272 211.741 C 282.459 210.465,281.981 211.053,283.445 213.987 C 284.523 216.147,286.278 220.632,290.655 232.416 C 293.447 239.931,294.820 246.819,293.526 246.819 C 293.394 246.819,292.010 245.638,290.451 244.194 C 283.387 237.654,276.948 235.298,275.640 238.776 C 275.317 239.634,274.861 240.768,274.626 241.297 C 273.529 243.764,271.789 251.675,271.775 254.262 C 271.757 257.410,271.756 257.410,269.441 253.601 C 267.761 250.839,266.234 250.282,264.609 251.839 C 262.185 254.160,260.111 251.964,254.603 241.245 C 249.112 230.560,247.073 229.113,245.211 234.579 C 244.792 235.807,243.794 237.558,242.993 238.470 C 242.192 239.383,241.537 240.338,241.537 240.593 C 241.537 242.241,240.041 240.514,238.924 237.575 C 238.196 235.660,237.298 233.413,236.928 232.580 C 236.458 231.526,236.250 229.052,236.239 224.417 C 236.223 217.526,236.033 216.765,234.063 215.716 C 232.694 214.987,231.039 215.879,229.575 218.134 C 227.135 221.894,225.790 216.468,226.457 205.556 C 227.187 193.617,226.832 186.894,225.173 181.273 C 221.682 169.441,215.082 156.526,211.567 154.644 C 209.637 153.611,209.578 154.373,211.412 156.636 C 217.187 163.760,223.208 176.805,224.058 184.036 C 224.380 186.779,223.697 189.601,221.571 194.310 C 221.196 195.142,220.888 195.946,220.888 196.097 C 220.888 196.906,214.928 209.373,212.364 213.926 C 211.323 215.774,209.544 219.016,208.410 221.128 C 207.276 223.241,204.395 228.535,202.008 232.893 C 195.067 245.565,189.676 256.708,189.676 258.384 C 189.676 259.870,188.974 259.132,187.243 255.825 C 184.176 249.966,184.400 250.315,184.397 251.381 C 184.393 252.958,186.870 257.716,191.659 265.329 C 198.080 275.535,198.396 276.555,196.158 279.849 C 194.731 281.949,194.664 283.493,195.752 289.173 C 196.918 295.254,196.087 296.005,192.127 292.451 C 189.083 289.720,184.798 287.958,182.649 288.555 C 180.027 289.283,180.072 289.313,180.069 286.795 C 180.066 283.960,179.401 281.440,177.757 278.034 C 176.084 274.569,175.868 275.968,177.379 280.479 C 178.033 282.434,178.836 285.492,179.163 287.275 C 179.728 290.353,179.825 290.516,181.087 290.516 C 182.896 290.516,182.862 290.399,183.414 298.615 C 183.682 302.617,184.111 306.808,184.366 307.928 C 185.888 314.603,186.586 317.180,188.102 321.717 C 191.669 332.394,197.362 340.852,202.913 343.724 C 207.118 345.899,223.841 347.390,228.119 345.970 C 243.740 340.787,250.084 326.450,242.249 314.033 C 233.615 300.349,222.724 296.916,219.447 306.846 C 218.081 310.984,217.419 305.972,218.698 301.170 C 219.753 297.206,220.457 296.428,223.347 296.031 C 225.776 295.696,227.648 294.486,228.174 292.910 C 228.353 292.371,228.998 292.497,231.398 293.537 C 235.025 295.110,235.624 295.132,238.396 293.785 L 240.562 292.733 242.561 293.856 C 243.983 294.655,245.666 295.063,248.400 295.269 C 251.566 295.507,252.334 295.727,252.771 296.519 C 253.063 297.047,253.975 298.451,254.797 299.640 C 255.620 300.828,256.917 302.991,257.678 304.445 C 259.092 307.143,260.782 309.515,263.431 312.519 L 264.917 314.204 266.312 312.570 C 267.079 311.672,269.026 309.550,270.639 307.855 L 273.571 304.773 278.082 304.719 C 282.004 304.672,283.046 304.469,286.061 303.165 L 289.528 301.665 290.863 302.813 C 292.881 304.550,294.888 304.721,299.091 303.513 C 309.505 300.519,308.849 300.568,310.162 302.692 C 311.242 304.440,314.674 306.448,319.706 308.277 C 323.813 309.770,323.352 310.442,318.333 310.278 C 311.191 310.044,300.937 315.527,286.265 327.424 C 271.757 339.189,264.285 343.828,256.702 345.777 C 254.610 346.315,249.748 347.950,245.897 349.410 C 242.046 350.871,237.707 352.274,236.255 352.527 C 205.285 357.939,183.344 348.358,164.621 321.248 C 154.079 305.984,147.468 288.267,145.628 270.348 L 145.258 266.747 145.018 271.775 L 144.778 276.803 143.088 277.297 C 140.751 277.980,138.280 279.629,136.859 281.453 C 135.744 282.884,133.232 284.748,132.413 284.752 C 132.215 284.753,132.053 281.991,132.053 278.613 C 132.053 271.264,131.117 268.542,128.322 267.761 C 127.025 267.399,126.804 267.147,127.052 266.314 C 127.524 264.733,133.224 253.182,135.369 249.460 C 136.435 247.611,137.460 245.774,137.646 245.378 C 137.833 244.982,139.270 243.076,140.840 241.142 C 143.975 237.282,144.288 236.371,144.745 229.772 C 145.268 222.211,146.014 214.948,146.471 212.965 C 146.715 211.909,147.235 209.640,147.626 207.923 C 148.313 204.909,151.030 193.438,152.459 187.515 C 155.986 172.897,156.143 171.896,154.607 173.830 C 152.898 175.981,150.873 180.655,148.439 188.069 C 144.878 198.912,140.471 205.161,139.501 200.743 C 138.174 194.704,134.970 196.359,133.502 203.842 C 131.400 214.562,129.867 217.929,122.748 227.469 C 119.727 231.517,118.956 231.994,118.701 229.974 C 118.252 226.417,116.824 224.730,114.262 224.730 C 113.393 224.730,113.331 224.415,113.432 220.528 C 113.589 214.454,113.150 213.685,109.518 213.685 C 103.471 213.685,97.582 216.928,90.937 223.918 C 80.742 234.642,79.070 234.643,85.347 223.921 C 90.066 215.862,90.205 213.333,85.902 213.842 C 82.011 214.303,82.565 212.818,88.701 206.343 C 93.252 201.542,94.939 198.440,95.371 194.078 L 95.640 191.357 93.703 190.276 C 90.534 188.508,88.310 188.797,83.553 191.597 C 78.914 194.327,78.415 194.437,77.816 192.863 C 76.927 190.523,75.155 190.812,71.195 193.943 C 67.502 196.862,66.182 196.354,68.459 192.889 C 77.086 179.767,99.824 160.095,114.709 152.877 C 116.721 151.901,118.691 150.917,119.088 150.689 C 125.580 146.961,133.714 144.066,148.379 140.265 C 164.720 136.030,166.062 135.507,166.175 133.320 C 166.320 130.495,167.705 120.142,168.528 115.726 C 170.003 107.818,168.892 103.441,163.165 94.598 C 159.186 88.454,157.129 87.003,148.499 84.255 C 147.246 83.856,147.840 81.688,149.428 80.867 C 151.447 79.822,154.436 80.147,161.426 82.168 C 172.327 85.321,182.834 82.958,188.518 76.074 C 196.846 65.987,199.156 61.484,201.924 49.940 C 203.458 43.540,206.346 39.380,212.197 35.143 C 214.447 33.514,214.627 33.452,215.807 33.905 M205.656 46.915 C 204.302 48.881,202.876 52.182,201.964 55.462 C 201.524 57.047,200.970 58.776,200.733 59.304 C 200.496 59.832,199.224 63.655,197.906 67.800 C 194.909 77.224,192.335 82.729,189.783 85.169 C 186.648 88.167,185.830 86.677,188.235 82.353 C 190.225 78.778,190.041 78.356,187.524 80.715 C 182.882 85.066,179.058 86.729,172.543 87.230 C 167.840 87.591,167.623 87.985,171.221 89.633 C 181.397 94.291,196.355 89.710,200.833 80.563 C 201.532 79.136,202.637 75.190,203.359 71.546 C 204.065 67.982,205.143 63.121,205.754 60.744 C 208.604 49.664,208.554 42.707,205.656 46.915 M211.620 62.065 C 211.479 62.659,210.790 65.306,210.089 67.947 C 209.389 70.588,208.526 74.046,208.172 75.630 C 206.081 84.996,204.726 86.719,196.639 90.293 C 192.305 92.209,191.659 93.305,194.718 93.554 C 201.359 94.096,207.282 86.348,210.070 73.469 C 210.499 71.489,211.048 69.220,211.290 68.427 C 212.605 64.119,213.114 60.984,212.498 60.984 C 212.156 60.984,211.761 61.471,211.620 62.065 M223.756 85.354 C 223.183 86.873,222.618 89.412,222.502 90.996 L 222.290 93.878 223.011 91.957 C 224.491 88.014,227.489 86.876,229.662 89.431 L 230.994 90.996 230.667 89.556 C 230.103 87.070,226.711 82.593,225.390 82.593 C 225.065 82.593,224.330 83.836,223.756 85.354 M230.492 95.668 C 230.492 98.849,225.581 100.790,223.572 98.403 C 221.965 96.493,221.873 97.695,223.353 101.256 C 224.627 104.320,224.914 104.317,227.894 101.200 C 230.850 98.109,231.867 96.261,231.059 95.452 C 230.623 95.017,230.492 95.067,230.492 95.668 M173.830 96.670 C 173.830 97.322,176.390 98.538,179.564 99.392 C 182.438 100.166,184.558 99.674,186.065 97.883 C 187.579 96.084,187.374 95.714,185.423 96.723 C 183.551 97.691,177.751 97.726,175.495 96.783 C 174.252 96.264,173.830 96.235,173.830 96.670 M175.270 103.813 C 175.270 105.014,179.071 112.414,181.283 115.520 C 189.545 127.122,201.914 130.874,213.205 125.205 C 215.004 124.302,215.387 123.978,214.406 124.190 C 213.613 124.362,212.684 124.724,212.339 124.996 C 211.995 125.268,209.510 125.587,206.817 125.705 C 196.223 126.171,188.075 121.326,180.772 110.220 C 177.102 104.639,175.270 102.506,175.270 103.813 M221.591 118.757 C 220.153 120.302,219.618 121.249,220.454 120.771 C 221.551 120.144,223.289 118.471,223.289 118.044 C 223.289 117.373,222.616 117.656,221.591 118.757 M233.332 127.589 C 229.289 130.655,225.917 134.770,226.688 135.699 C 227.648 136.856,228.420 136.461,230.286 133.854 C 231.279 132.467,233.170 130.088,234.488 128.567 C 237.563 125.021,237.163 124.683,233.332 127.589 M209.763 135.907 C 208.032 136.821,204.200 140.975,204.662 141.436 C 204.791 141.566,205.956 140.836,207.251 139.814 C 208.545 138.792,210.684 137.361,212.005 136.634 C 215.097 134.932,215.099 134.930,213.165 134.955 C 212.263 134.967,210.732 135.395,209.763 135.907 M164.074 140.096 C 161.981 143.721,156.066 168.067,157.279 168.067 C 158.287 168.067,160.121 162.481,162.273 152.857 C 163.089 149.206,163.958 145.354,164.204 144.298 C 165.118 140.372,165.194 139.736,164.743 139.736 C 164.490 139.736,164.189 139.898,164.074 140.096 M221.849 142.088 C 221.849 142.326,222.659 142.945,223.649 143.464 C 227.040 145.242,228.958 146.390,233.203 149.184 C 235.540 150.722,237.668 152.147,237.933 152.349 C 238.199 152.552,239.928 153.834,241.777 155.199 C 250.743 161.819,260.268 170.787,266.949 178.900 C 267.589 179.677,269.749 182.158,271.751 184.415 C 273.753 186.672,276.200 189.455,277.191 190.600 C 280.577 194.515,278.848 191.165,274.236 184.874 C 264.974 172.240,250.585 159.075,236.975 150.783 C 235.126 149.657,233.505 148.596,233.373 148.426 C 230.991 145.355,221.849 140.328,221.849 142.088 M215.606 143.736 C 215.606 144.088,216.200 144.678,216.927 145.048 C 224.062 148.681,238.907 164.758,243.755 174.102 C 244.812 176.139,246.094 178.387,246.339 178.631 C 246.471 178.764,247.190 180.060,247.936 181.513 C 248.683 182.965,249.805 185.126,250.429 186.315 C 251.053 187.503,252.659 191.176,253.997 194.478 C 256.818 201.437,258.425 204.325,258.719 202.963 C 258.915 202.056,258.516 200.848,256.588 196.504 C 255.969 195.110,255.462 193.847,255.462 193.698 C 255.462 193.085,251.555 185.740,249.591 182.662 C 248.429 180.841,247.331 179.028,247.152 178.631 C 246.972 178.235,246.612 177.587,246.353 177.191 C 246.093 176.795,244.011 173.445,241.725 169.748 C 233.664 156.709,225.428 147.085,219.959 144.313 C 217.319 142.976,215.606 142.749,215.606 143.736 M205.242 146.256 C 204.626 147.871,204.522 148.795,204.854 149.737 C 205.499 151.571,206.115 151.117,206.207 148.740 C 206.250 147.617,206.461 146.104,206.676 145.378 C 207.338 143.140,206.156 143.864,205.242 146.256 M151.501 146.536 C 148.722 147.056,138.796 149.926,134.934 151.326 C 128.623 153.612,106.496 166.199,107.326 167.030 C 107.436 167.140,108.561 166.573,109.826 165.769 C 115.992 161.848,128.094 155.724,133.013 154.035 C 137.145 152.616,137.823 152.424,147.899 149.820 C 156.251 147.661,157.687 147.145,157.262 146.457 C 156.910 145.888,154.803 145.917,151.501 146.536 M212.985 148.346 C 212.691 148.823,214.504 150.300,215.382 150.300 C 215.940 150.300,217.158 151.364,218.740 153.233 C 228.536 164.806,232.237 172.777,238.181 195.104 C 239.089 198.517,239.761 197.205,239.139 193.232 C 238.653 190.132,236.729 182.956,235.803 180.792 C 234.937 178.769,233.973 176.406,233.353 174.790 C 228.652 162.534,215.095 144.933,212.985 148.346 M150.761 155.735 C 139.068 163.213,127.480 173.086,120.224 181.753 C 116.103 186.675,116.763 186.257,123.188 179.879 C 130.670 172.451,136.438 167.747,144.876 162.194 C 151.621 157.754,155.262 154.789,154.830 154.089 C 154.433 153.448,154.168 153.556,150.761 155.735 M211.079 164.589 C 209.808 170.026,204.754 184.142,198.270 200.360 C 193.983 211.084,192.376 215.013,191.348 217.287 C 190.751 218.607,189.784 220.876,189.199 222.329 C 188.615 223.782,187.958 225.402,187.740 225.930 C 186.717 228.409,185.859 232.065,185.374 236.014 C 185.083 238.391,184.729 241.255,184.589 242.377 C 184.432 243.635,184.527 244.418,184.835 244.418 C 185.362 244.418,185.441 244.135,186.314 239.136 C 187.901 230.050,189.011 226.193,191.648 220.592 C 192.658 218.449,194.478 214.235,195.693 211.229 C 196.908 208.222,198.395 204.682,198.997 203.361 C 199.600 202.041,200.865 198.908,201.808 196.399 C 202.751 193.890,204.216 190.000,205.063 187.755 C 208.792 177.868,211.060 170.341,211.904 165.055 C 212.184 163.297,211.475 162.896,211.079 164.589 M92.574 177.594 C 90.891 178.800,89.891 180.083,90.651 180.063 C 91.181 180.049,94.819 176.772,94.574 176.530 C 94.455 176.412,93.555 176.891,92.574 177.594 M113.375 189.452 C 111.967 191.056,111.358 192.459,112.330 191.858 C 113.184 191.331,115.803 187.755,115.336 187.755 C 115.077 187.755,114.195 188.519,113.375 189.452 M225.614 196.786 C 225.782 201.080,225.057 205.746,223.287 211.765 C 221.132 219.096,220.772 221.044,220.201 228.472 C 219.569 236.692,219.161 237.973,217.621 236.579 C 214.555 233.805,212.463 237.707,211.744 247.539 C 211.110 256.225,209.964 258.404,208.372 253.954 C 205.226 245.162,201.900 242.204,198.726 245.378 C 195.010 249.094,196.054 246.240,202.862 234.074 C 204.505 231.137,206.155 228.045,206.527 227.203 C 207.006 226.117,207.482 225.709,208.163 225.801 C 208.977 225.911,209.146 225.613,209.273 223.861 C 209.373 222.467,210.158 220.508,211.677 217.859 C 212.917 215.695,214.607 212.521,215.434 210.804 C 218.038 205.395,221.433 198.117,221.818 197.119 C 224.413 190.393,225.360 190.310,225.614 196.786 M262.318 212.530 C 262.958 214.590,265.671 222.103,265.842 222.289 C 267.046 223.597,265.858 217.663,264.295 214.560 C 263.109 212.204,261.799 210.860,262.318 212.530 M225.840 218.397 C 226.521 221.803,228.624 222.554,230.167 219.942 C 232.761 215.551,234.326 217.670,234.367 225.629 C 234.386 229.228,234.573 232.605,234.784 233.133 C 235.072 233.856,234.139 236.109,231.008 242.257 C 224.888 254.269,224.159 255.965,220.574 266.507 C 219.900 268.487,219.178 270.756,218.969 271.549 C 218.759 272.341,217.902 275.582,217.063 278.752 C 213.071 293.842,212.190 297.738,210.864 306.176 C 208.896 318.704,208.402 324.401,208.403 334.574 C 208.403 341.661,208.278 343.337,207.748 343.337 C 206.803 343.337,200.455 340.094,199.760 339.255 C 198.579 337.833,197.859 312.326,198.810 305.642 C 199.036 304.058,199.453 299.844,199.737 296.279 C 200.841 282.419,202.535 272.533,205.578 262.185 C 207.310 256.294,207.177 256.513,208.365 257.588 C 210.916 259.897,212.635 256.756,213.020 249.082 C 213.456 240.406,215.108 236.717,217.775 238.465 C 220.526 240.267,222.300 235.319,221.849 227.106 C 221.717 224.702,221.797 222.374,222.027 221.932 C 224.658 216.879,225.399 216.192,225.840 218.397 M141.871 258.343 C 139.221 263.431,138.778 264.555,139.540 264.262 C 140.387 263.937,143.732 257.119,143.450 256.295 C 143.338 255.969,142.628 256.891,141.871 258.343 M177.671 261.179 C 177.671 263.414,184.216 276.110,185.369 276.110 C 186.189 276.110,185.891 275.370,182.953 270.108 C 181.369 267.270,180.072 264.831,180.072 264.688 C 180.072 264.017,178.402 260.744,178.059 260.744 C 177.846 260.744,177.671 260.940,177.671 261.179 M35.054 264.252 C 35.054 265.256,36.117 266.987,36.735 266.987 C 37.144 266.987,38.971 267.738,40.794 268.656 C 45.821 271.188,50.312 272.266,55.933 272.289 C 61.626 272.313,62.706 272.660,71.171 277.196 C 75.554 279.545,78.515 280.769,81.874 281.621 C 85.986 282.664,86.996 283.150,90.678 285.861 C 92.966 287.545,97.863 291.047,101.561 293.642 C 105.258 296.237,109.007 298.984,109.892 299.748 C 111.265 300.932,115.435 303.118,118.848 304.441 C 119.376 304.646,121.176 305.823,122.848 307.056 C 124.520 308.290,126.198 309.233,126.575 309.151 C 127.151 309.028,118.695 303.001,117.946 303.001 C 116.779 303.001,106.590 295.658,99.160 289.463 C 89.623 281.510,87.121 279.953,82.353 279.003 C 80.536 278.642,76.280 276.835,70.828 274.112 L 62.185 269.795 54.982 269.408 L 47.779 269.021 43.019 266.760 C 38.689 264.704,35.054 263.559,35.054 264.252 M54.982 286.924 C 53.397 287.281,51.182 287.587,50.060 287.604 C 47.546 287.642,47.545 287.765,50.017 291.278 C 52.781 295.206,58.267 302.710,58.588 303.001 C 58.733 303.133,60.560 305.270,62.649 307.750 C 67.115 313.054,74.086 320.146,79.461 324.855 C 81.568 326.701,83.729 328.608,84.263 329.092 C 94.629 338.500,117.488 352.002,135.654 359.448 C 137.767 360.314,141.078 361.684,143.011 362.491 C 146.677 364.022,147.855 364.407,153.421 365.893 C 158.200 367.169,166.678 368.897,166.929 368.645 C 167.111 368.464,163.165 362.334,161.897 360.827 C 161.657 360.542,160.860 359.353,160.126 358.186 C 157.240 353.595,144.275 339.531,137.335 333.462 C 132.569 329.295,129.231 326.569,125.570 323.856 C 122.074 321.265,120.668 320.363,117.509 318.689 C 115.861 317.816,111.776 314.982,110.444 313.789 C 109.784 313.198,107.623 311.605,105.642 310.251 C 103.661 308.897,99.922 306.334,97.332 304.555 C 84.732 295.901,82.121 294.567,74.998 293.145 C 70.858 292.319,68.972 291.682,67.075 290.471 C 60.365 286.187,59.448 285.918,54.982 286.924 M174.555 287.769 C 173.800 289.568,175.413 302.908,177.019 308.134 C 177.708 310.378,179.551 312.481,178.936 310.321 C 178.436 308.563,177.683 303.972,176.911 297.959 C 175.923 290.267,175.065 286.554,174.555 287.769 M242.977 301.390 C 242.977 301.579,243.859 303.087,244.936 304.741 C 248.988 310.960,250.982 326.538,248.701 334.152 C 248.411 335.120,248.260 336.556,248.364 337.344 L 248.554 338.776 249.142 337.386 C 251.083 332.791,251.457 316.291,249.744 310.827 C 248.380 306.477,242.977 298.942,242.977 301.390 M283.482 312.965 C 275.147 324.811,270.346 329.901,262.525 335.188 C 257.509 338.579,256.389 339.496,257.263 339.496 C 261.520 339.496,280.071 321.409,285.459 312.005 C 287.402 308.613,286.099 309.246,283.482 312.965 M273.390 313.445 C 269.587 319.554,265.163 325.833,262.901 328.331 C 260.019 331.514,259.880 332.106,262.477 330.125 C 265.668 327.691,273.054 317.033,274.368 312.965 C 274.769 311.725,274.325 311.943,273.390 313.445 M256.245 316.567 C 256.086 317.161,255.953 318.341,255.949 319.189 C 255.945 320.037,255.505 322.607,254.970 324.900 C 254.036 328.908,254.030 330.096,254.949 329.140 C 256.714 327.304,258.662 315.486,257.199 315.486 C 256.834 315.486,256.404 315.972,256.245 316.567 " stroke="none" fill="#000000" fill-rule="evenodd"></path></g></svg>