<?xml version="1.0" standalone="no"?>
<!DOCTYPE svg PUBLIC "-//W3C//DTD SVG 20010904//EN"
 "http://www.w3.org/TR/2001/REC-SVG-20010904/DTD/svg10.dtd">
<svg version="1.0" xmlns="http://www.w3.org/2000/svg"
 width="512.000000pt" height="512.000000pt" viewBox="0 0 512.000000 512.000000"
 preserveAspectRatio="xMidYMid meet">
<metadata>
Created by potrace 1.16, written by Peter Selinger 2001-2019
</metadata>
<g transform="translate(0.000000,512.000000) scale(0.100000,-0.100000)"
fill="#fe4006" stroke="none">
<path d="M0 2560 l0 -2560 2560 0 2560 0 0 2560 0 2560 -2560 0 -2560 0 0
-2560z m3671 1284 c117 -34 211 -128 245 -248 42 -149 -40 -322 -185 -393 -48
-24 -68 -28 -146 -28 -79 0 -96 4 -145 29 -116 60 -188 171 -193 299 l-2 62
-100 18 c-55 10 -159 19 -232 20 -146 2 -168 -5 -206 -70 -28 -48 -56 -176
-63 -287 l-7 -103 94 -7 c208 -16 463 -83 641 -170 l91 -45 64 46 c96 68 185
96 297 91 73 -3 103 -9 148 -30 205 -95 275 -332 165 -558 -21 -43 -56 -89
-105 -138 l-73 -74 -4 -81 c-16 -310 -228 -576 -600 -753 -282 -134 -663 -198
-970 -164 -254 29 -442 79 -623 165 -147 70 -238 131 -336 225 -170 162 -253
330 -262 527 l-3 81 -73 74 c-115 115 -166 241 -155 384 10 139 90 254 215
312 84 40 212 43 310 9 39 -14 100 -45 134 -70 l64 -45 89 44 c187 90 448 157
661 170 l111 7 7 97 c12 185 48 313 111 396 33 44 116 81 195 89 70 7 230 -7
367 -31 l84 -14 51 55 c52 57 100 88 173 111 55 17 101 17 166 -2z"/>
<path d="M1258 2930 c-209 -35 -265 -302 -103 -488 l38 -43 27 64 c51 120 160
259 271 344 l50 38 -28 23 c-60 48 -172 75 -255 62z"/>
<path d="M3750 2929 c-49 -10 -142 -52 -159 -73 -9 -10 1 -23 44 -56 109 -84
216 -220 265 -338 l27 -63 38 43 c88 101 119 244 75 346 -47 110 -161 165
-290 141z"/>
<path d="M2005 2441 c-102 -25 -160 -131 -126 -233 25 -75 122 -129 204 -114
42 8 100 54 123 97 17 33 18 106 3 146 -28 76 -122 123 -204 104z"/>
<path d="M2998 2438 c-71 -19 -128 -99 -128 -178 0 -40 42 -113 79 -137 92
-61 209 -31 259 67 71 137 -58 290 -210 248z"/>
<path d="M1960 1776 c0 -29 38 -92 75 -125 53 -46 158 -95 260 -122 127 -33
369 -33 495 -1 174 45 305 132 329 218 6 21 9 39 8 40 -1 2 -48 -13 -105 -32
-167 -56 -259 -69 -487 -68 -165 0 -217 4 -300 22 -85 18 -191 50 -257 77 -13
5 -18 2 -18 -9z"/>
</g>
</svg>
