<?xml version="1.0" standalone="no"?>
<!DOCTYPE svg PUBLIC "-//W3C//DTD SVG 20010904//EN"
 "http://www.w3.org/TR/2001/REC-SVG-20010904/DTD/svg10.dtd">
<svg version="1.0" xmlns="http://www.w3.org/2000/svg"
 width="225.000000pt" height="225.000000pt" viewBox="0 0 225.000000 225.000000"
 preserveAspectRatio="xMidYMid meet">
<metadata>
Created by potrace 1.16, written by Peter Selinger 2001-2019
</metadata>
<g transform="translate(0.000000,225.000000) scale(0.100000,-0.100000)"
fill="#ffffff" stroke="none">
<path d="M1460 2026 c-220 -47 -370 -246 -358 -472 l4 -85 -55 6 c-164 18
-313 61 -453 130 -132 65 -221 129 -339 243 l-107 103 -23 -58 c-20 -49 -24
-77 -24 -173 0 -112 1 -117 37 -193 26 -54 55 -95 93 -133 51 -49 54 -54 31
-54 -22 0 -112 26 -160 45 -17 8 -18 5 -12 -41 17 -121 68 -218 155 -296 51
-46 144 -98 175 -98 8 0 17 -4 21 -9 7 -12 -95 -25 -146 -18 -23 3 -39 1 -39
-5 0 -29 70 -135 121 -182 69 -64 130 -95 227 -116 l72 -15 -67 -45 c-143 -94
-311 -144 -490 -145 -62 0 -109 -3 -105 -7 21 -20 199 -103 277 -128 155 -49
254 -64 425 -63 174 0 291 20 447 74 480 168 821 639 849 1176 l7 122 59 48
c49 41 158 161 158 175 0 2 -37 -8 -82 -23 -46 -15 -103 -30 -127 -33 l-44 -7
51 40 c49 39 93 94 126 158 26 51 19 55 -41 24 -32 -16 -95 -40 -141 -55 l-83
-26 -47 39 c-60 50 -116 77 -194 96 -74 17 -123 18 -198 1z"/>
</g>
</svg>
